<svg width="600" height="528" viewBox="0 0 600 528" fill="none" xmlns="http://www.w3.org/2000/svg">
<path fill-rule="evenodd" clip-rule="evenodd" d="M430.142 219.427C448.312 211.683 468.12 208.571 487.789 210.369C507.458 212.168 526.374 218.82 542.838 229.73C559.302 240.641 572.801 255.468 582.123 272.881C591.445 290.294 596.299 309.75 596.249 329.501C596.216 345.598 592.911 361.52 586.535 376.301C580.159 391.081 570.845 404.412 559.158 415.481L595.499 459.877L578.641 527.501L510.08 443.955C488.378 450.372 465.283 450.372 443.581 443.955L375.021 527.501L358.161 459.877L394.502 415.481C380.22 401.839 369.547 384.863 363.442 366.079C357.338 347.295 355.991 327.289 359.523 307.856C363.056 288.424 371.358 270.171 383.683 254.737C396.008 239.303 411.972 227.171 430.142 219.427ZM483.526 253.98V401.928H442.066C438.253 401.928 436.978 400.411 436.959 396.653L436.952 395.253H428.358L428.365 396.695C428.407 405.082 433.36 410.501 442.066 410.501H513.269C521.975 410.501 526.927 405.081 526.969 396.695L527.035 383.199C527.035 383.199 526.946 380.969 528.286 379.364C529.627 377.759 540.876 368.493 542.747 352.924C544.03 342.248 542.424 333.808 537.221 323.722C526.715 303.358 514.065 284.586 501.692 265.678V383.721H510.286V294.604C517.138 305.369 523.723 316.293 529.579 327.645C533.848 335.92 535.325 342.664 534.215 351.904C533.577 357.211 531.447 362.062 528.339 366.38C527.204 367.956 525.953 369.437 524.614 370.845C523.665 371.843 522.558 372.832 521.685 373.877C519.557 376.424 518.37 379.968 518.44 383.297L518.375 396.653C518.356 400.411 517.081 401.928 513.269 401.928H492.12V251.655L488.634 246.675L483.526 253.98ZM482.401 237.594C477.925 233.449 475.734 233.483 472.489 237.618C461.346 253.695 453.088 266.466 444.448 279.708C444.448 311.475 444.42 343.344 444.42 375.148H434.709C431.694 372.06 429.372 369.68 426.996 366.38C423.887 362.062 421.757 357.211 421.119 351.904C420.009 342.664 421.486 335.92 425.755 327.645C428.931 321.487 432.323 315.456 435.854 309.507V293.078C429.589 303.025 423.563 313.159 418.113 323.722C412.91 333.808 411.304 342.248 412.587 352.924C414.458 368.493 425.706 377.759 427.048 379.364C432.274 384.601 435.895 383.73 438.799 383.721H453.014V282.15C462.799 266.959 472.466 252.314 482.401 237.594ZM463.058 285.62V383.721H471.651V272.604L463.058 285.62Z" fill="#113D40"/>
<path fill-rule="evenodd" clip-rule="evenodd" d="M561.968 0C571.904 0 581.434 3.94672 588.46 10.9727C595.486 17.9986 599.433 27.5286 599.433 37.4648V231.718C574.477 199.934 538.176 179.056 498.153 173.469C458.131 167.882 417.5 178.021 384.795 201.756C352.089 225.491 329.853 260.976 322.756 300.759C315.659 340.541 324.254 381.526 346.734 415.106L329.313 436.462L318.449 449.574H37.4648C27.5288 449.574 17.9996 445.627 10.9736 438.602C3.94767 431.576 0 422.046 0 412.109V37.4648C0 27.5286 3.94767 17.9986 10.9736 10.9727C17.9996 3.94691 27.5288 0 37.4648 0H561.968ZM93.6611 348.42H280.984V318.448H93.6611V348.42ZM93.6611 217.294H299.717V187.322H93.6611V217.294ZM93.6611 142.365H412.11V112.394H93.6611V142.365Z" fill="#113D40"/>
</svg>
