<svg width="175" height="116" viewBox="0 0 175 116" fill="none" xmlns="http://www.w3.org/2000/svg">
<path d="M77.1024 78.5764C77.1024 65.9528 72.2646 41.2346 38.778 41.2346C18.8976 41.2346 33.9402 15.5339 51.4016 6.80315V0C19.389 11.6409 0 49.474 0 76.611C0 100.876 15.5339 115.427 38.778 115.427C61.5685 115.427 77.1024 100.876 77.1024 78.5764ZM174.576 78.5764C174.576 65.9528 169.247 41.2346 135.798 41.2346C116.372 41.2346 131.414 15.5339 148.876 6.80315V0C116.863 11.6409 97.474 49.474 97.474 76.611C97.474 100.876 112.97 115.427 135.798 115.427C159.043 115.427 174.576 100.876 174.576 78.5764Z" fill="#113D40"/>
</svg>
