<?xml version="1.0" encoding="UTF-8"?>
<!DOCTYPE svg PUBLIC "-//W3C//DTD SVG 1.1//EN" "http://www.w3.org/Graphics/SVG/1.1/DTD/svg11.dtd">
<!-- Creator: CorelDRAW X7 -->
<svg xmlns="http://www.w3.org/2000/svg" xml:space="preserve" width="209.25mm" height="51.6628mm" version="1.1" style="shape-rendering:geometricPrecision; text-rendering:geometricPrecision; image-rendering:optimizeQuality; fill-rule:evenodd; clip-rule:evenodd"
viewBox="0 0 20925 5166"
 xmlns:xlink="http://www.w3.org/1999/xlink">
 <defs>
  <style type="text/css">
   <![CDATA[
    .fil1 {fill:#F08519;fill-rule:nonzero}
    .fil0 {fill:#113C40;fill-rule:nonzero}
   ]]>
  </style>
 </defs>
 <g id="Layer_x0020_1">
  <metadata id="CorelCorpID_0Corel-Layer"/>
  <path class="fil0" d="M6197 2093c-10,-258 -202,-443 -543,-443 -329,0 -494,172 -494,414 0,171 81,269 226,334 95,42 203,67 370,103 168,37 209,92 209,171 0,120 -96,191 -262,191 -181,0 -297,-85 -301,-224l-272 0c6,303 237,452 571,452 315,0 538,-132 538,-429 0,-191 -93,-275 -211,-327 -100,-45 -248,-82 -400,-118 -151,-37 -210,-86 -210,-171 0,-102 84,-159 242,-159 171,0 254,68 268,206l269 0zm609 756c-160,0 -241,-102 -241,-305 0,-203 81,-303 241,-303 161,0 242,100 242,303 0,203 -81,305 -242,305zm0 221c311,0 509,-209 509,-526 0,-319 -195,-526 -509,-526 -317,0 -514,209 -514,526 0,311 191,526 514,526zm868 -26l0 -1366 -264 0 0 1366 264 0zm1013 0l0 -1000 -263 0 0 577c0,132 -71,228 -205,228 -112,0 -169,-61 -169,-187l0 -618 -264 0 0 659c0,219 140,367 340,367 138,0 242,-52 311,-166l0 140 250 0zm971 -697c-14,-216 -144,-329 -433,-329 -305,0 -420,128 -420,296 0,90 32,167 126,226 71,45 164,73 333,114 85,20 160,42 160,114 0,75 -83,103 -176,103 -128,0 -208,-55 -208,-148l-272 0c4,203 175,347 482,347 284,0 437,-124 437,-331 0,-130 -59,-199 -165,-242 -77,-30 -185,-53 -299,-85 -107,-31 -162,-55 -162,-114 0,-59 57,-83 156,-83 120,0 173,34 187,132l254 0zm374 697l0 -1000 -264 0 0 1000 264 0zm0 -1120l0 -246 -264 0 0 246 264 0zm1697 1120l0 -1350 -284 0 0 508 -527 0 0 -508 -282 0 0 1350 282 0 0 -606 527 0 0 606 284 0zm712 -380c-2,118 -104,217 -240,217 -83,0 -128,-36 -128,-111 0,-86 49,-128 199,-157 98,-18 144,-32 171,-59l-2 110zm266 380l0 -632c0,-252 -110,-394 -427,-394 -321,0 -435,144 -439,351l246 0c12,-89 61,-148 181,-148 104,0 169,38 169,103 0,70 -37,96 -169,114 -266,37 -459,69 -459,358 0,163 105,274 333,274 134,0 240,-46 303,-115 2,30 8,65 16,89l246 0zm380 0l0 -1366 -264 0 0 1366 264 0zm718 -380c-2,118 -104,217 -240,217 -83,0 -128,-36 -128,-111 0,-86 49,-128 199,-157 98,-18 144,-32 171,-59l-2 110zm266 380l0 -632c0,-252 -110,-394 -427,-394 -321,0 -435,144 -439,351l246 0c12,-89 61,-148 181,-148 104,0 169,38 169,103 0,70 -37,96 -169,114 -266,37 -459,69 -459,358 0,163 105,274 333,274 134,0 240,-46 303,-115 2,30 8,65 16,89l246 0zm380 0l0 -1366 -264 0 0 1366 264 0zm868 -230l0 -364 362 0c126,0 203,53 203,171 0,110 -77,193 -207,193l-358 0zm340 -886c132,0 187,43 187,146 0,96 -59,147 -171,147l-356 0 0 -293 340 0zm-5 1116c340,0 505,-157 505,-402 0,-194 -92,-285 -206,-328 94,-38 165,-136 165,-252 0,-225 -142,-368 -407,-368l-664 0 0 1350 607 0zm830 0l0 -520c0,-161 79,-242 242,-242 24,0 48,2 73,6l0 -270 -35 0c-107,0 -209,12 -297,146l0 -120 -247 0 0 1000 264 0zm945 -380c-2,118 -104,217 -240,217 -83,0 -128,-36 -128,-111 0,-86 49,-128 199,-157 98,-18 145,-32 171,-59l-2 110zm266 380l0 -632c0,-252 -110,-394 -427,-394 -321,0 -435,144 -439,351l246 0c12,-89 61,-148 181,-148 104,0 169,38 169,103 0,70 -37,96 -169,114 -266,37 -459,69 -459,358 0,163 105,274 333,274 134,0 240,-46 303,-115 2,30 8,65 16,89l246 0zm1023 0l0 -693c0,-218 -141,-333 -332,-333 -160,0 -262,60 -323,172l0 -146 -252 0 0 1000 264 0 0 -573c0,-153 67,-230 206,-230 126,0 170,43 170,197l0 606 267 0zm589 -189c-132,0 -226,-124 -226,-303 0,-205 74,-309 228,-309 146,0 222,108 222,325 0,169 -98,287 -224,287zm474 189l0 -1366 -261 0 0 496c-75,-106 -172,-156 -296,-156 -258,0 -411,213 -411,516 0,337 181,536 433,536 122,0 216,-46 279,-148l2 122 254 0z"/>
  <path class="fil1" d="M5117 4693l0 -1350 -284 0 0 508 -527 0 0 -508 -282 0 0 1350 282 0 0 -606 527 0 0 606 284 0zm712 -380c-2,117 -104,217 -240,217 -83,0 -128,-37 -128,-112 0,-85 49,-128 199,-156 98,-19 144,-33 171,-59l-2 110zm266 380l0 -632c0,-253 -110,-395 -427,-395 -321,0 -435,145 -439,352l246 0c12,-90 61,-149 181,-149 104,0 169,39 169,104 0,69 -37,96 -169,114 -266,37 -459,69 -459,358 0,162 105,274 333,274 134,0 240,-47 303,-116 2,31 8,65 16,90l246 0zm1022 0l0 -693c0,-218 -140,-334 -331,-334 -160,0 -262,61 -323,173l0 -146 -252 0 0 1000 264 0 0 -574c0,-152 67,-229 205,-229 126,0 171,42 171,197l0 606 266 0zm590 -189c-132,0 -226,-124 -226,-303 0,-206 73,-309 228,-309 146,0 222,108 222,325 0,169 -98,287 -224,287zm474 189l0 -1366 -261 0 0 496c-75,-106 -172,-157 -296,-157 -259,0 -411,214 -411,516 0,338 181,537 433,537 122,0 215,-47 278,-148l2 122 255 0zm721 -380c-2,117 -104,217 -240,217 -83,0 -128,-37 -128,-112 0,-85 49,-128 199,-156 98,-19 145,-33 171,-59l-2 110zm266 380l0 -632c0,-253 -109,-395 -426,-395 -322,0 -435,145 -440,352l246 0c13,-90 61,-149 181,-149 104,0 169,39 169,104 0,69 -37,96 -169,114 -266,37 -459,69 -459,358 0,162 106,274 333,274 134,0 240,-47 303,-116 2,31 8,65 16,90l246 0zm380 0l0 -1366 -264 0 0 1366 264 0zm106 317c212,-45 281,-155 281,-384l0 -208 -281 0 0 275 157 0c-2,128 -53,189 -157,215l0 102zm1777 -781c-39,169 -141,264 -307,264 -220,0 -330,-176 -330,-475 0,-295 110,-476 344,-476 134,0 254,92 293,244l282 0c-26,-272 -240,-488 -577,-488 -386,0 -628,279 -628,736 0,464 270,705 624,705 313,0 524,-203 581,-510l-282 0zm595 -134c10,-138 98,-219 203,-219 104,0 202,71 206,219l-409 0zm681 167c0,-397 -162,-596 -469,-596 -307,0 -484,199 -484,508 0,362 167,545 500,545 213,0 378,-116 439,-321l-272 0c-19,69 -94,112 -179,112 -130,0 -216,-98 -224,-248l689 0zm563 231c-146,0 -221,-107 -221,-325 0,-168 97,-286 223,-286 132,0 226,124 226,303 0,205 -73,308 -228,308zm-211 673l0 -603c75,105 173,156 297,156 258,0 410,-213 410,-516 0,-338 -181,-537 -433,-537 -122,0 -215,47 -278,149l-2 -122 -254 0 0 1473 260 0zm1408 -853c-2,117 -103,217 -239,217 -84,0 -129,-37 -129,-112 0,-85 49,-128 200,-156 97,-19 144,-33 170,-59l-2 110zm267 380l0 -632c0,-253 -110,-395 -427,-395 -321,0 -435,145 -439,352l246 0c12,-90 61,-149 181,-149 103,0 168,39 168,104 0,69 -36,96 -168,114 -267,37 -460,69 -460,358 0,162 106,274 334,274 134,0 239,-47 302,-116 2,31 9,65 17,90l246 0zm683 -399c0,124 -49,195 -155,195 -108,0 -152,-73 -152,-199l0 -410 553 0 0 -187 -553 0 0 -271 -260 0 0 895c0,215 115,402 408,402 283,0 405,-189 405,-400l0 -285 -246 0 0 260zm315 716c211,-45 280,-155 280,-384l0 -208 -280 0 0 275 156 0c-2,128 -53,189 -156,215l0 102zm1821 -317l0 -246 -669 0 0 -1104 -282 0 0 1350 951 0zm270 -598c10,-138 98,-219 204,-219 103,0 201,71 205,219l-409 0zm681 167c0,-397 -162,-596 -469,-596 -307,0 -484,199 -484,508 0,362 167,545 500,545 213,0 378,-116 439,-321l-272 0c-19,69 -94,112 -179,112 -130,0 -216,-98 -224,-248l689 0zm571 231c-130,0 -225,-113 -225,-292 0,-206 77,-305 225,-305 151,0 226,104 226,321 0,169 -98,276 -226,276zm218 230c0,132 -112,216 -252,216 -132,0 -220,-72 -220,-191l-246 0c0,258 206,418 484,418 279,0 498,-162 498,-463l0 -1010 -264 0 0 124c-63,-102 -155,-151 -281,-151 -242,0 -437,210 -437,521 0,262 114,514 443,514 131,0 238,-53 275,-142l0 164zm986 -410c-2,117 -104,217 -240,217 -84,0 -128,-37 -128,-112 0,-85 49,-128 199,-156 97,-19 144,-33 171,-59l-2 110zm266 380l0 -632c0,-253 -110,-395 -427,-395 -321,0 -435,145 -439,352l246 0c12,-90 61,-149 181,-149 104,0 169,39 169,104 0,69 -37,96 -169,114 -266,37 -460,69 -460,358 0,162 106,274 334,274 134,0 240,-47 303,-116 2,31 8,65 16,90l246 0zm380 0l0 -1366 -264 0 0 1366 264 0z"/>
  <path class="fil0" d="M2040 2079c0,-334 -128,-988 -1014,-988 -526,0 -128,-680 334,-911l0 -180c-847,308 -1360,1309 -1360,2027 0,642 411,1027 1026,1027 603,0 1014,-385 1014,-975zm2579 0c0,-334 -141,-988 -1026,-988 -514,0 -116,-680 346,-911l0 -180c-847,308 -1360,1309 -1360,2027 0,642 410,1027 1014,1027 615,0 1026,-385 1026,-975z"/>
 </g>
</svg>
