<svg width="320" height="333" viewBox="0 0 320 333" fill="none" xmlns="http://www.w3.org/2000/svg">
<path d="M184.096 268.8C258.824 268.8 319.403 208.627 319.403 134.4C319.403 60.1729 258.824 0 184.096 0C109.368 0 48.7886 60.1729 48.7886 134.4C48.7886 208.627 109.368 268.8 184.096 268.8Z" fill="#0E2C30"/>
<path d="M25.5869 1.41724C40.0247 34.9416 69.619 61.4358 106.545 73.7571C103.106 84.7932 101.254 96.472 101.254 108.529C101.254 124.188 104.356 139.166 110.017 152.952C110.188 153.37 110.362 153.786 110.538 154.201C110.714 154.617 110.892 155.032 111.073 155.446C111.616 156.686 112.18 157.916 112.764 159.135C115.639 165.14 119.012 170.89 122.831 176.341C123.923 177.9 125.051 179.434 126.215 180.943C130.348 186.298 134.928 191.331 139.903 195.992C140.742 196.778 141.593 197.553 142.454 198.318C142.615 198.46 142.774 198.604 142.936 198.745C143.277 199.046 143.621 199.345 143.967 199.642C149.495 204.4 155.457 208.721 161.792 212.547C163.212 213.405 164.652 214.236 166.108 215.043C179.273 222.338 193.908 227.55 209.499 230.192V332.013C208.818 332.013 208.137 332.007 207.457 332C207.361 331.999 207.265 331.998 207.169 331.997C206.537 331.99 205.905 331.98 205.274 331.967C205.112 331.964 204.949 331.959 204.786 331.955C204.277 331.943 203.767 331.929 203.259 331.913C203.089 331.908 202.918 331.904 202.748 331.899C202.199 331.88 201.651 331.858 201.103 331.835C200.82 331.823 200.537 331.81 200.255 331.797C199.737 331.773 199.221 331.749 198.704 331.721C198.446 331.707 198.188 331.691 197.931 331.676C197.642 331.659 197.354 331.642 197.066 331.624C108.273 326.107 33.4971 261.893 9.25977 174.444C9.24815 174.401 9.23918 174.358 9.22949 174.317C3.23042 153.517 0 131.424 0 108.529C7.70499e-05 69.7131 9.29728 33.2407 25.5869 1.41724Z" fill="#F08519"/>
</svg>
