<?xml version="1.0" encoding="UTF-8"?>
<!DOCTYPE svg PUBLIC "-//W3C//DTD SVG 1.1//EN" "http://www.w3.org/Graphics/SVG/1.1/DTD/svg11.dtd">
<!-- Creator: CorelDRAW X7 -->
<svg xmlns="http://www.w3.org/2000/svg" xml:space="preserve" width="53.6885mm" height="53.7207mm" version="1.1" style="shape-rendering:geometricPrecision; text-rendering:geometricPrecision; image-rendering:optimizeQuality; fill-rule:evenodd; clip-rule:evenodd"
viewBox="0 0 2417 2419"
 xmlns:xlink="http://www.w3.org/1999/xlink">
 <defs>
  <style type="text/css">
   <![CDATA[
    .fil3 {fill:#F08519}
    .fil2 {fill:#113C40}
    .fil0 {fill:#E9EAE9}
    .fil1 {fill:#1D1819;fill-rule:nonzero}
   ]]>
  </style>
 </defs>
 <g id="Layer_x0020_1">
  <metadata id="CorelCorpID_0Corel-Layer"/>
  <path class="fil0" d="M996 19c-217,37 -452,144 -601,301 -36,38 -53,42 -80,73 -30,34 -37,59 -63,93 -185,242 -295,555 -236,930 49,315 214,567 453,750 408,314 905,335 1377,64l244 -199c22,-31 2,-12 32,-45l51 -56c2,-2 4,-6 6,-9 2,-3 5,-6 7,-9l58 -94c9,-13 20,-31 29,-47 32,-57 74,-157 91,-216 52,-185 68,-358 39,-539 -106,-692 -751,-1111 -1407,-997z"/>
  <g id="_386495008">
   <path class="fil1" d="M573 1796c0,4 0,8 -1,12 -1,4 -2,8 -4,10 -2,3 -5,5 -7,6 -3,1 -6,1 -10,0 -2,0 -5,-1 -7,-1 -2,-1 -4,-2 -6,-3 0,-7 0,-14 0,-21 0,0 1,0 1,0 2,1 3,2 4,3 1,1 3,1 5,2 3,0 5,0 6,-1 2,-1 3,-3 3,-5 1,-2 1,-5 1,-8 0,-3 0,-6 0,-10 0,-14 1,-28 1,-43 -5,0 -9,-1 -14,-2 0,-6 0,-13 0,-19 10,1 19,2 29,4 0,25 0,51 -1,76zm37 17c0,-6 0,-12 0,-17 -3,0 -5,0 -6,0 -2,0 -3,0 -5,1 -1,0 -2,1 -2,3 -1,1 -1,3 -1,6 -1,4 0,6 1,8 1,2 3,3 5,3 2,0 3,0 4,-1 1,0 3,-2 4,-3zm0 12c-1,2 -2,3 -3,4 -1,1 -2,2 -3,3 -1,0 -3,1 -4,2 -1,0 -3,0 -5,-1 -4,-1 -7,-3 -10,-9 -3,-5 -4,-11 -4,-19 0,-6 1,-10 2,-14 1,-3 3,-6 6,-8 3,-2 6,-3 9,-3 4,0 8,0 12,0 0,0 0,0 0,0 0,-5 -1,-8 -3,-10 -2,-2 -4,-3 -8,-4 -2,0 -4,0 -6,1 -2,0 -5,1 -7,3 0,0 -1,0 -1,-1 0,-6 0,-13 0,-19 2,-1 4,-1 7,-2 3,0 6,0 10,1 8,1 13,4 17,9 4,6 5,13 5,23 0,18 0,37 0,56 -5,-1 -10,-2 -14,-3 0,-3 0,-6 0,-9zm70 -61c-8,36 -17,73 -25,109 -5,-1 -11,-2 -16,-3 2,-10 5,-21 7,-31 -5,-28 -11,-56 -16,-83 5,1 10,1 15,2 3,18 6,36 10,54 3,-17 6,-34 9,-51 6,1 11,2 16,3zm32 67c0,-5 0,-11 0,-17 -2,0 -4,0 -6,0 -2,0 -3,0 -5,1 -1,1 -2,1 -3,3 -1,2 -1,4 -1,6 0,4 1,7 2,9 1,1 3,2 5,3 2,0 3,0 4,-1 2,-1 3,-2 4,-4zm0 13c-1,2 -2,3 -3,4 -1,1 -2,2 -3,3 -2,1 -3,1 -4,2 -1,0 -3,0 -6,0 -4,-1 -7,-4 -10,-10 -3,-5 -4,-12 -4,-19 0,-6 0,-11 2,-15 1,-4 3,-6 6,-8 3,-2 6,-3 10,-3 4,0 8,0 12,0 0,0 0,0 0,0 0,-5 0,-8 -2,-11 -2,-2 -5,-3 -9,-4 -2,0 -4,0 -7,1 -2,1 -4,2 -7,3 0,0 -1,0 -1,0 0,-7 0,-14 0,-20 2,-1 4,-1 7,-2 4,0 7,0 11,0 8,2 14,5 18,11 4,5 6,13 6,23 0,19 0,38 -1,57 -5,-1 -10,-2 -15,-3 0,-3 0,-6 0,-9zm78 24c-7,-1 -13,-2 -19,-3 -5,-14 -9,-27 -14,-40 -1,2 -1,3 -2,5 0,10 0,21 0,31 -6,-1 -11,-2 -16,-3 0,-39 0,-78 1,-117 5,1 10,2 15,2 0,23 0,45 0,67 5,-11 10,-21 15,-31 6,1 13,2 19,3 -6,11 -12,23 -18,34 6,17 13,35 19,52zm34 -16c0,-6 0,-12 0,-18 -3,0 -5,0 -7,0 -1,0 -3,0 -5,1 -1,0 -2,1 -3,3 -1,1 -1,4 -1,6 0,5 0,7 2,9 1,2 3,3 5,3 2,1 3,0 5,0 1,-1 3,-3 4,-4zm0 13c-1,2 -2,3 -3,4 -1,1 -2,2 -4,3 -1,1 -3,1 -4,2 -1,0 -3,0 -6,0 -4,-1 -8,-4 -11,-10 -3,-6 -5,-13 -5,-20 0,-7 1,-12 3,-16 1,-3 4,-6 7,-8 2,-1 6,-3 10,-3 4,0 8,0 13,0 0,0 0,0 0,0 0,-5 -1,-8 -3,-11 -2,-2 -5,-3 -9,-4 -2,0 -5,0 -7,1 -3,0 -5,1 -8,3 0,0 -1,0 -1,0 0,-7 0,-14 0,-21 2,-1 4,-1 8,-2 3,0 7,0 11,1 9,1 15,5 19,10 5,6 7,14 7,24 0,20 -1,40 -1,60 -5,-1 -11,-2 -16,-3 0,-4 0,-7 0,-10zm65 -40c0,0 -1,-1 -1,-1 -1,0 -2,-1 -3,-1 -1,0 -3,-1 -4,-1 -2,0 -4,0 -6,0 -2,1 -4,2 -5,2 -1,20 -1,40 -1,59 -5,-1 -11,-2 -17,-3 1,-29 1,-58 1,-88 6,1 11,2 17,3 0,5 0,9 0,13 1,-1 2,-3 3,-4 1,-1 3,-3 4,-4 1,-1 2,-1 4,-2 2,0 3,-1 5,0 0,0 1,0 2,0 0,0 1,0 1,0 0,9 0,18 0,27zm27 69c-7,-1 -12,-5 -15,-10 -3,-5 -5,-13 -4,-24 0,-14 0,-27 0,-41 -2,-1 -5,-1 -7,-1 0,-7 0,-13 0,-19 3,0 5,0 7,1 0,-9 0,-17 0,-26 6,1 12,2 17,3 0,9 0,17 0,26 6,0 11,1 17,2 0,7 0,13 0,20 -6,-1 -11,-2 -17,-3 0,10 0,21 0,31 0,4 0,6 0,9 0,2 0,4 1,6 0,2 1,4 2,5 1,1 3,2 5,2 1,1 2,1 4,0 1,0 2,0 3,-1 0,0 1,0 1,0 0,7 0,13 0,20 -2,0 -4,1 -6,1 -2,0 -5,-1 -8,-1zm53 -16c0,-6 0,-12 0,-19 -3,0 -6,0 -7,0 -2,0 -4,1 -6,1 -1,1 -3,2 -3,4 -1,1 -2,4 -2,6 0,5 1,8 2,10 2,1 4,2 6,3 2,0 4,0 5,-1 2,0 3,-2 5,-4zm0 14c-2,2 -3,3 -4,4 -1,1 -2,2 -4,3 -1,1 -3,2 -4,2 -2,1 -4,0 -7,0 -5,-1 -9,-4 -12,-10 -3,-6 -5,-13 -5,-21 0,-7 1,-12 3,-16 2,-4 4,-7 7,-9 4,-1 7,-3 12,-3 4,0 9,0 14,0 0,0 0,0 0,0 0,-5 -1,-9 -3,-11 -3,-2 -6,-4 -11,-5 -2,0 -4,0 -7,1 -3,1 -5,2 -8,3 -1,0 -1,0 -2,0 0,-7 0,-14 1,-22 1,0 4,-1 8,-1 4,-1 8,-1 12,0 10,2 17,6 21,12 5,5 7,14 7,24 0,21 0,42 -1,62 -6,-1 -12,-2 -18,-3 1,-3 1,-7 1,-10zm130 35c-6,-2 -13,-3 -20,-4 0,-18 0,-37 0,-55 -9,-1 -18,-3 -27,-5 0,18 0,37 0,55 -7,-2 -13,-3 -20,-4 0,-41 1,-81 1,-122 6,1 13,2 20,3 0,15 0,30 -1,45 9,2 18,3 28,5 0,-15 0,-30 0,-46 7,1 14,2 20,4 0,41 0,82 -1,124zm51 -16c0,-6 0,-13 0,-20 -3,1 -6,0 -8,0 -2,0 -4,1 -6,1 -2,1 -3,2 -4,4 -1,2 -2,4 -2,7 0,4 1,8 3,10 1,2 4,3 7,3 1,1 3,0 5,0 1,-1 3,-3 5,-5zm-1 15c-1,2 -2,3 -3,4 -1,1 -3,2 -4,3 -2,1 -4,2 -6,2 -1,1 -3,1 -6,0 -6,-1 -10,-5 -14,-11 -3,-6 -5,-14 -5,-22 0,-7 1,-13 3,-17 1,-4 4,-6 8,-8 3,-2 7,-4 12,-4 5,0 10,0 16,1 0,0 0,-1 0,-1 0,-5 -1,-9 -4,-11 -2,-3 -6,-4 -11,-5 -2,-1 -5,0 -8,0 -3,1 -6,2 -9,4 -1,-1 -1,-1 -2,-1 0,-7 0,-15 0,-22 2,-1 5,-1 10,-2 4,0 8,0 13,1 11,1 18,5 23,12 5,6 8,15 8,26 -1,22 -1,43 -1,65 -7,-1 -13,-3 -20,-4 0,-3 0,-7 0,-10zm55 20c-7,-1 -14,-2 -20,-3 0,-45 0,-89 1,-133 6,1 13,2 20,3 -1,45 -1,89 -1,133zm52 -15c0,-7 0,-14 0,-21 -4,0 -7,0 -9,0 -2,0 -4,1 -6,1 -2,1 -3,2 -4,4 -1,1 -2,4 -2,7 0,5 1,8 3,10 1,2 4,3 7,4 2,0 4,0 6,-1 1,-1 3,-2 5,-4zm0 15c-2,1 -3,3 -4,4 -1,1 -3,2 -5,3 -2,1 -4,2 -5,2 -2,1 -4,1 -7,0 -6,-1 -11,-5 -15,-11 -3,-7 -5,-14 -5,-23 0,-7 1,-13 3,-17 2,-4 5,-7 8,-9 4,-2 8,-3 13,-3 6,0 11,0 17,0 0,0 0,0 0,0 0,-6 -1,-10 -4,-12 -2,-3 -7,-4 -12,-5 -2,-1 -5,-1 -8,0 -3,1 -7,2 -10,3 0,0 -1,0 -1,0 0,-7 0,-15 0,-23 2,-1 5,-1 10,-2 4,0 9,0 13,1 12,2 20,6 25,12 5,7 8,16 8,27 0,23 -1,45 -1,67 -7,-1 -14,-2 -20,-4 0,-3 0,-7 0,-10zm57 21c-7,-1 -14,-3 -21,-4 0,-45 0,-91 1,-136 7,1 14,2 21,3 0,46 -1,92 -1,137zm95 21c-14,-3 -25,-11 -33,-25 -8,-13 -12,-31 -12,-53 0,-21 4,-37 13,-48 8,-11 19,-16 34,-14 3,1 7,2 10,3 3,1 6,2 8,4 3,1 5,3 8,5 2,2 4,3 6,5 0,10 0,21 0,32 -1,0 -2,-1 -3,-1 -1,-1 -2,-3 -4,-6 -2,-2 -4,-4 -6,-6 -2,-3 -5,-5 -8,-7 -2,-1 -5,-2 -8,-3 -3,0 -7,0 -9,1 -3,1 -6,3 -9,7 -2,2 -4,7 -5,12 -2,6 -3,12 -3,21 0,8 1,15 2,21 2,6 4,11 6,15 3,3 5,6 9,8 3,2 6,4 9,4 3,1 6,1 8,0 3,-1 6,-2 8,-4 2,-1 4,-3 5,-4 2,-2 4,-4 5,-5 1,0 1,0 2,0 0,11 0,22 0,32 -2,1 -4,2 -6,3 -3,1 -5,2 -8,3 -3,0 -5,1 -8,1 -3,0 -6,0 -11,-1zm84 16c-15,-3 -25,-9 -32,-20 -8,-11 -11,-25 -11,-42 0,-16 3,-29 10,-38 7,-9 17,-12 30,-10 11,2 20,8 26,17 5,10 8,22 8,38 0,4 0,8 0,12 -17,-3 -34,-6 -51,-9 0,5 0,9 2,12 1,4 2,7 5,9 1,2 4,4 7,5 2,2 5,3 8,3 3,1 6,1 8,0 3,0 5,-1 7,-2 2,0 4,-1 6,-3 1,-1 3,-2 4,-3 1,1 1,1 2,1 0,9 0,18 0,27 -2,0 -3,1 -5,2 -2,0 -4,1 -7,1 -2,1 -5,1 -8,1 -2,0 -5,0 -9,-1zm8 -66c0,-7 -1,-13 -3,-17 -2,-4 -6,-6 -10,-7 -5,-1 -8,1 -11,4 -3,3 -4,8 -4,15 9,1 18,3 28,5zm107 85c-8,-2 -16,-3 -24,-5 0,-17 0,-35 0,-52 0,-4 0,-9 0,-13 0,-4 -1,-7 -1,-10 -1,-2 -2,-4 -4,-5 -2,-1 -4,-2 -6,-3 -2,0 -4,0 -6,1 -2,0 -5,1 -7,3 0,25 0,50 0,75 -9,-2 -17,-3 -25,-5 1,-35 1,-69 1,-104 8,1 16,3 24,4 0,4 0,8 0,11 4,-4 8,-6 12,-8 4,-2 8,-3 12,-2 8,1 15,6 19,13 4,8 6,18 6,31 0,23 -1,46 -1,69zm49 11c-10,-2 -17,-6 -22,-12 -5,-7 -7,-16 -7,-29 0,-17 1,-33 1,-50 -4,0 -7,-1 -10,-1 0,-8 0,-16 0,-23 4,0 7,1 10,1 0,-10 0,-20 0,-30 8,1 17,2 25,3 0,11 0,21 0,31 8,2 16,3 24,4 0,8 0,16 0,24 -8,-2 -16,-3 -24,-5 -1,13 -1,26 -1,39 0,3 0,7 0,9 0,3 1,6 1,8 1,3 2,5 4,6 2,2 4,3 7,4 2,0 3,0 6,-1 2,0 3,-1 4,-1 1,0 2,0 2,0 0,8 0,16 0,24 -3,0 -6,1 -9,1 -3,0 -6,-1 -11,-2zm72 15c-15,-3 -27,-10 -35,-22 -8,-11 -12,-26 -12,-43 0,-18 4,-31 12,-41 8,-9 19,-12 32,-10 13,2 23,8 29,18 7,10 10,24 10,41 0,4 0,8 0,12 -20,-3 -39,-7 -58,-10 1,5 1,9 3,13 1,4 3,7 5,9 2,2 5,4 8,6 3,1 6,2 9,3 4,1 7,1 10,0 2,0 5,-1 8,-2 2,-1 4,-2 6,-3 2,-1 3,-2 4,-3 1,0 2,0 3,1 0,9 0,19 0,28 -3,1 -4,1 -6,2 -2,1 -5,1 -8,1 -2,1 -5,1 -8,1 -3,0 -7,0 -12,-1zm10 -70c0,-7 -1,-13 -4,-17 -2,-5 -6,-7 -11,-8 -5,-1 -9,1 -12,4 -2,4 -4,9 -4,15 10,2 20,4 31,6zm97 8c0,0 -1,0 -2,0 -1,-1 -2,-1 -4,-2 -2,0 -4,-1 -7,-1 -3,-1 -6,-1 -9,0 -3,0 -6,1 -9,2 0,25 0,49 -1,74 -9,-2 -18,-3 -26,-5 0,-37 0,-74 1,-110 8,1 17,3 27,4 0,6 -1,11 -1,16 1,-1 3,-3 5,-5 3,-1 5,-3 7,-4 2,-1 4,-2 6,-3 3,0 6,0 8,0 1,0 2,0 3,1 1,0 2,0 3,0 0,11 -1,22 -1,33z"/>
   <path class="fil2" d="M1231 513c-2,176 -4,352 -5,527 -2,175 -3,349 -5,524 -90,-8 -176,-16 -258,-24 8,80 43,150 91,190 5,2 12,3 20,4 91,12 185,26 285,40 105,14 215,30 331,46 31,4 71,12 105,15 -117,-24 -215,-119 -273,-245 -57,-5 -113,-9 -167,-14 2,-210 3,-420 5,-630 2,-211 3,-422 5,-634 -71,14 -126,99 -134,201z"/>
   <path class="fil2" d="M870 468c-6,9 -11,21 -17,34 -9,24 -17,56 -18,89 -1,157 -3,313 -4,470 -1,156 -2,312 -3,468 -70,-7 -137,-13 -202,-18 0,-40 0,-81 1,-121 -38,-37 -70,-94 -89,-163 -1,99 -1,197 -2,295 14,70 48,127 92,150 47,7 96,14 146,21 51,7 104,14 159,22 1,-95 2,-189 2,-284 1,-94 2,-189 3,-284 1,-122 1,-245 2,-368 1,-123 2,-246 3,-369 -24,-1 -56,31 -73,58z"/>
   <path class="fil2" d="M1020 540c-1,130 -2,260 -3,390 -1,130 -2,260 -3,389 16,90 60,163 117,192 2,-190 3,-381 4,-572 2,-192 3,-383 4,-575 -20,3 -42,6 -69,35 -29,33 -46,84 -50,141z"/>
   <path class="fil2" d="M1090 1197c37,0 74,0 112,0 0,54 -1,108 -1,162 -38,-1 -75,-3 -112,-4 1,-53 1,-105 1,-158z"/>
   <path class="fil3" d="M1846 1578c-1,82 -2,164 -2,245 -107,-14 -198,-84 -262,-184 -61,-97 -98,-224 -97,-361 1,-86 17,-167 44,-239 23,74 72,134 134,162 -6,25 -9,52 -9,80 -2,141 79,263 192,297z"/>
  </g>
 </g>
</svg>
