<svg width="375" height="353" viewBox="0 0 375 353" fill="none" xmlns="http://www.w3.org/2000/svg">
<path d="M42.9798 328.381C44.5933 331.877 45.3999 335.642 46.7445 339.138L50.2406 328.381H55.8881L46.7445 352.854L41.3656 352.585C43.2481 345.055 44.5933 348.82 41.6351 340.483C40.5594 337.525 37.8699 331.071 37.6009 328.381H42.9798Z" fill="white"/>
<path d="M136.567 327.037C136.836 328.112 136.836 327.575 137.105 328.113L141.946 328.381V332.146H136.836C136.03 344.248 137.374 342.635 141.946 342.366V345.862C130.113 349.627 131.189 341.828 131.189 333.222C130.651 331.878 132.264 332.415 129.306 332.146C129.306 329.457 129.575 329.188 131.189 327.843V323.541H136.567V327.037Z" fill="white"/>
<path d="M333.961 327.037C334.23 328.112 334.231 327.575 334.769 328.113L339.61 328.381V332.146H334.499C333.693 343.71 334.769 342.635 339.61 342.366V346.13C327.508 348.82 328.852 342.904 328.852 333.222C328.045 331.878 329.928 332.415 326.97 332.146V329.188L328.852 328.113V323.81L333.961 323.541V327.037Z" fill="white"/>
<path fill-rule="evenodd" clip-rule="evenodd" d="M97.5726 328.65C114.783 325.961 112.632 331.34 112.632 346.13C108.867 346.668 108.06 346.4 106.178 344.787C97.8413 351.51 91.1179 338.6 99.9925 335.642C102.682 334.566 105.371 334.836 106.985 334.029C105.102 330.264 100.799 332.147 97.3031 332.954L97.5726 328.65ZM106.985 337.794C104.833 338.063 99.1857 339.139 102.144 342.097C102.951 342.904 104.833 342.903 105.909 342.366C107.522 341.29 106.985 339.677 106.985 337.794Z" fill="white"/>
<path fill-rule="evenodd" clip-rule="evenodd" d="M20.1205 328.65C37.3315 324.347 35.1801 332.953 35.18 346.13H30.3392C29.8019 345.593 30.0703 346.399 29.5326 344.517C27.6501 345.862 25.7675 347.207 22.5404 346.4C20.1202 345.862 18.5073 343.442 18.5072 340.752C18.7761 333.491 26.8432 336.18 29.5326 334.029C27.919 329.995 23.6165 332.416 20.1205 332.954V328.65ZM26.5746 338.063C24.4234 338.601 25.2299 338.601 24.1547 339.676L24.9613 342.366C29.2639 343.71 29.8021 341.828 29.8021 338.063H26.5746Z" fill="white"/>
<path fill-rule="evenodd" clip-rule="evenodd" d="M227.735 328.65C245.484 325.423 242.794 331.609 242.794 346.13C236.071 346.668 238.492 344.787 236.072 345.593C235.265 345.593 229.349 348.82 226.928 343.71C222.894 335.105 234.458 334.836 235.534 334.567L237.416 334.029C235.534 330.264 231.231 332.147 227.735 332.954V328.65ZM237.416 337.793C235.265 338.062 229.617 339.139 232.576 342.097C233.383 342.904 235.265 342.904 236.34 342.366C237.954 341.29 237.416 339.676 237.416 337.793Z" fill="white"/>
<path d="M15.2797 340.752C14.4727 346.669 8.55649 347.206 1.83336 346.13L1.56481 341.291C5.32905 342.097 4.79171 342.366 8.55602 341.559C10.1696 338.063 9.63221 331.609 9.63219 326.768H4.25329L3.98473 322.734H15.2797V340.752Z" fill="white"/>
<path fill-rule="evenodd" clip-rule="evenodd" d="M287.168 335.105C288.782 325.155 303.573 325.692 304.111 333.76L304.379 338.063H292.546C292.277 345.324 300.345 341.559 304.379 340.752L304.111 345.324C295.236 348.282 285.286 346.131 287.168 335.105ZM297.925 331.609C294.16 331.071 293.084 331.609 292.546 335.105H299.001C299.001 333.223 298.463 332.684 297.925 331.609Z" fill="white"/>
<path fill-rule="evenodd" clip-rule="evenodd" d="M341.492 332.684C344.988 324.885 360.854 325.692 357.896 338.332H346.332C347.677 346.131 354.4 341.29 358.165 340.752L357.896 345.055C347.408 349.358 336.382 343.71 341.492 332.684ZM352.786 334.835C352.248 329.995 346.87 329.726 346.332 334.835L348.484 335.105H350.635L352.786 334.835Z" fill="white"/>
<path fill-rule="evenodd" clip-rule="evenodd" d="M198.421 328.65C202.724 327.574 209.985 327.037 212.406 330.264C214.557 332.954 213.481 342.365 213.481 346.13H208.91C208.103 345.324 208.371 346.937 207.833 344.517C203.799 347.206 196.808 348.013 197.077 340.752C197.077 333.223 205.144 336.449 208.102 334.029C206.488 329.995 201.917 332.416 198.421 332.954V328.65ZM202.993 338.87V342.366C205.144 342.904 206.22 342.635 207.833 342.097L208.102 338.063L202.993 338.87Z" fill="white"/>
<path fill-rule="evenodd" clip-rule="evenodd" d="M58.3089 328.65C62.6119 327.574 69.873 327.037 72.2933 330.264C74.1755 332.954 73.3686 342.365 73.3685 346.13C65.5707 346.13 68.2581 345.325 67.7211 344.787C63.6871 346.669 56.6954 348.551 56.9642 340.752C56.9642 333.491 65.3007 335.911 67.7211 334.029C66.3764 329.995 61.805 332.416 58.3089 332.954V328.65ZM67.9896 338.063C63.9559 337.794 61.2673 338.601 63.1498 342.366C65.032 342.903 66.1077 342.635 67.7211 342.097L67.9896 338.063Z" fill="white"/>
<path fill-rule="evenodd" clip-rule="evenodd" d="M144.635 328.65C162.115 325.154 159.695 332.146 159.695 346.13H154.585L154.317 344.249L153.241 345.324C148.938 347.206 143.022 347.207 143.022 340.752C143.291 333.76 150.82 335.911 154.047 334.029C152.434 329.995 147.862 332.147 144.635 332.954V328.65ZM154.047 338.063C150.551 337.794 147.593 338.87 149.476 342.366C151.358 342.904 152.434 342.635 153.779 342.097L154.047 338.063Z" fill="white"/>
<path d="M265.385 334.567C265.385 323.81 275.873 318.431 284.747 324.079L285.017 329.458C281.79 328.382 280.175 325.692 275.872 326.768C269.956 328.651 269.957 340.214 276.142 341.828C280.714 343.172 282.328 340.214 285.017 339.138L284.747 344.787C274.797 348.283 265.385 346.4 265.385 334.567Z" fill="white"/>
<path d="M83.3187 334.835C89.235 328.919 84.6637 328.112 94.6136 328.381C93.0001 331.34 90.3108 333.222 88.9662 336.18L95.1517 346.13H89.5043C86.0083 345.323 83.0502 329.995 83.0502 346.13H77.9408V321.927H83.0502L83.3187 334.835Z" fill="white"/>
<path d="M128.231 333.491L122.314 334.029V346.13H116.666V328.919L120.162 328.651C122.583 328.92 121.507 327.844 122.045 330.802L122.852 330.264L126.078 328.919L128.231 328.651V333.491Z" fill="white"/>
<path d="M193.58 323.002V346.13H187.663V335.912L179.596 335.642V346.13H173.949V323.002H179.327L179.865 331.071H187.395C188.202 329.726 187.932 329.726 187.932 327.575V322.734L193.58 323.002Z" fill="white"/>
<path d="M223.162 321.927V346.13H218.053V321.659L223.162 321.927Z" fill="white"/>
<path d="M252.744 321.658V346.13H247.097L247.366 321.389L252.744 321.658Z" fill="white"/>
<path d="M313.523 329.726C316.481 327.575 322.129 326.768 323.743 331.339C324.549 333.76 324.28 342.903 324.28 346.13H318.632C318.632 341.828 319.17 336.18 317.826 332.684C311.641 331.877 312.985 333.76 312.985 346.13H307.875V328.65H312.985C313.254 329.995 312.985 329.457 313.523 329.726Z" fill="white"/>
<path d="M367.578 330.533C368.922 328.919 370.536 328.113 373.225 328.381V333.222L366.771 334.029V346.13H361.123L361.392 328.381H365.696C367.578 328.651 366.771 331.608 367.309 329.995C367.575 329.995 367.577 330.523 367.578 330.533Z" fill="white"/>
<path d="M235.802 12.1197C241.181 6.47218 250.593 -0.788298 262.426 0.556177L262.696 275.133H303.573C311.103 284.546 314.868 289.925 326.162 297.455C330.734 300.413 335.575 303.102 341.223 305.253C347.139 307.674 357.895 309.556 358.972 310.363C339.609 311.17 317.557 310.363 297.925 310.363C284.747 310.363 182.285 311.17 178.251 309.288C166.418 303.909 154.317 291 151.897 275.133H226.928C228.273 268.948 227.197 244.475 227.197 236.676L227.465 42.5093C227.465 29.3318 228.541 19.6497 235.802 12.1197Z" fill="white"/>
<path d="M116.398 12.1197C122.852 4.58984 132.534 -0.520129 143.022 0.286646L142.752 310.094C136.566 310.632 65.5699 310.094 52.93 310.094C41.9039 310.094 35.9871 311.17 26.5746 306.867C19.0447 303.64 13.3975 299.337 9.36364 294.227C2.90932 286.697 0.220082 282.663 0.220082 273.789C0.489007 254.426 -0.587062 232.911 0.488637 214.086C1.56432 215.431 2.64049 217.582 3.71618 219.196C10.9772 230.76 18.2377 238.021 29.5326 245.551C31.415 246.627 33.298 247.433 34.9115 248.778C35.4493 249.585 35.4492 249.048 35.7181 251.737L35.4496 261.418V274.865L107.523 274.595L107.541 274.506C108.325 269.65 108.061 127.171 108.061 120.23V42.5093C108.061 28.256 108.599 21.2633 116.398 12.1197Z" fill="white"/>
<path d="M305.454 183.966C305.992 184.504 306.261 185.311 306.799 186.118C311.102 193.648 317.557 199.564 324.818 203.867C326.7 204.942 327.776 205.481 329.927 206.556C332.078 207.363 332.886 207.363 334.768 208.708C332.348 224.036 331.541 235.063 342.567 249.316C350.097 259.266 358.703 264.645 374.57 268.41L374.301 307.136C358.703 307.943 343.105 301.757 332.886 295.034C321.86 288.042 313.523 279.167 306.531 267.335C299.807 255.771 294.967 241.517 294.429 225.65C293.891 211.128 297.118 191.765 303.841 181.545L305.454 183.966Z" fill="white"/>
<path d="M201.917 0.018091V187.462L221.549 188.269V214.625C221.549 215.163 221.549 216.238 221.28 216.776C220.742 218.658 222.086 216.776 220.473 217.851L201.917 218.121V246.896C191.698 244.745 183.361 238.828 176.907 231.835C173.948 228.608 171.259 225.113 169.108 220.272C166.15 213.818 166.956 210.052 166.956 202.522L167.225 44.3911C167.225 30.407 165.612 20.7252 173.142 10.7749C179.327 2.43839 187.664 -0.250835 201.917 0.018091Z" fill="white"/>
</svg>
