<svg width="1335" height="311" viewBox="0 0 1335 311" fill="none" xmlns="http://www.w3.org/2000/svg">
<path fill-rule="evenodd" clip-rule="evenodd" d="M107.523 274.595L105.64 275.402C105.371 275.402 104.027 275.402 103.489 275.402H71.4862C65.5698 275.402 38.9457 276.209 35.4496 275.133C34.105 271.099 35.1807 254.695 34.9118 248.778C33.2982 247.434 31.4157 246.627 29.5332 245.551C18.2381 238.021 10.977 230.76 3.71591 219.196C2.64019 217.582 1.56447 215.431 0.48875 214.086C-0.58697 232.911 0.48875 254.426 0.21982 273.789C0.21982 282.663 2.90912 286.697 9.36343 294.227C13.3974 299.337 19.0449 303.64 26.5749 306.867C35.9875 311.17 41.9039 310.094 52.9301 310.094C65.5698 310.094 136.567 310.632 142.753 310.094L143.022 0.287025C132.533 -0.519765 122.852 4.5899 116.397 12.1199C108.599 21.2636 108.061 28.2557 108.061 42.509C108.061 68.3263 108.061 94.4125 108.061 120.23C108.061 127.222 108.33 271.906 107.523 274.595Z" fill="#113D40"/>
<path fill-rule="evenodd" clip-rule="evenodd" d="M226.928 275.133H151.896C154.317 291 166.418 303.909 178.251 309.287C182.285 311.17 284.748 310.363 297.925 310.363C317.557 310.363 339.609 311.17 358.972 310.363C357.896 309.556 347.139 307.674 341.223 305.253C335.575 303.102 330.735 300.413 326.163 297.454C314.868 289.924 311.103 284.546 303.573 275.133H262.695L262.426 0.55589C250.593 -0.788759 241.181 6.47235 235.802 12.1199C228.541 19.6499 227.466 29.3314 227.466 42.5089L227.197 236.676C227.197 244.475 228.272 268.948 226.928 275.133Z" fill="#113D40"/>
<path fill-rule="evenodd" clip-rule="evenodd" d="M220.473 217.851C221.549 213.817 220.742 194.185 220.742 188.269C217.515 188.269 214.288 188.269 211.061 188.269C207.565 188.269 202.724 189.076 201.917 187.462V0.0180911C187.664 -0.250839 179.327 2.43846 173.142 10.7753C165.612 20.7257 167.225 30.4072 167.225 44.3915L166.956 202.522C166.956 210.052 166.149 213.817 169.108 220.272C171.259 225.112 173.948 228.608 176.907 231.836C183.361 238.828 191.698 244.744 201.917 246.896V218.12L220.473 217.851Z" fill="#123C3F"/>
<path fill-rule="evenodd" clip-rule="evenodd" d="M374.301 307.136L374.57 268.41C358.703 264.645 350.098 259.266 342.567 249.316C331.541 235.063 332.348 224.037 334.769 208.708C332.886 207.363 332.079 207.363 329.928 206.556C327.776 205.48 326.701 204.943 324.818 203.867C317.557 199.564 311.103 193.647 306.8 186.117C306.262 185.311 305.993 184.504 305.455 183.966L303.842 181.546C297.118 191.765 293.891 211.128 294.429 225.65C294.967 241.517 299.808 255.77 306.531 267.334C313.523 279.167 321.86 288.042 332.886 295.034C343.105 301.757 358.703 307.943 374.301 307.136Z" fill="#F58634"/>
<path fill-rule="evenodd" clip-rule="evenodd" d="M414 304.796H440.073V262.915L477.32 263.989V304.796H504.634V212.443L478.561 211.37C478.561 217.813 478.561 224.256 478.561 230.699C478.561 239.29 479.803 239.29 476.078 244.659H441.314L438.831 212.443H414V304.796Z" fill="#201E1F"/>
<path fill-rule="evenodd" clip-rule="evenodd" d="M925.525 299.427L926.766 276.876C914.351 281.171 906.901 292.984 885.795 287.614C857.239 281.171 857.239 234.995 884.553 227.478C904.418 223.182 911.868 233.921 926.766 238.216L925.525 216.739C884.553 194.188 836.132 215.665 836.132 258.62C836.132 305.87 879.587 313.387 925.525 299.427Z" fill="#201E1F"/>
<path fill-rule="evenodd" clip-rule="evenodd" d="M571.678 272.58L570.437 288.688C562.988 290.836 558.021 291.91 548.089 289.762V275.802L571.678 272.58ZM526.982 234.995V252.177C543.122 250.029 564.229 240.364 571.678 256.472C558.021 266.137 520.774 253.25 520.774 283.319C519.533 312.313 551.813 309.091 570.437 298.353C572.92 308.018 571.678 301.574 575.403 304.796H596.51C596.51 289.762 601.476 252.177 591.544 241.438C580.369 228.552 546.847 230.699 526.982 234.995Z" fill="#201E1F"/>
<path fill-rule="evenodd" clip-rule="evenodd" d="M707.009 271.506C707.009 279.023 709.492 285.466 702.043 289.762C697.076 291.909 688.386 291.909 684.661 288.688C671.004 276.875 697.076 272.58 707.009 271.506ZM662.313 234.994V252.176C678.453 248.955 698.318 241.438 707.009 256.472L698.318 258.619C693.352 259.693 639.964 260.767 658.588 295.131C669.762 315.534 697.076 302.648 700.801 302.648C711.975 299.426 700.801 306.943 731.84 304.796C731.84 246.807 744.256 222.108 662.313 234.994Z" fill="#201E1F"/>
<path fill-rule="evenodd" clip-rule="evenodd" d="M1209.84 259.694C1212.33 239.29 1237.16 240.364 1239.64 259.694L1229.71 260.768H1219.78L1209.84 259.694ZM1263.23 300.501L1264.47 283.319C1247.09 285.466 1216.05 304.796 1209.84 273.654H1263.23C1276.89 223.182 1203.64 219.961 1187.5 251.103C1163.91 295.131 1214.81 317.682 1263.23 300.501Z" fill="#201E1F"/>
<path fill-rule="evenodd" clip-rule="evenodd" d="M961.53 260.768C964.013 246.807 968.979 244.66 986.361 246.807C988.845 251.103 991.328 253.251 991.328 260.768H961.53ZM961.53 272.58H1016.16L1014.92 255.398C1012.43 223.182 944.148 221.035 936.699 260.768C928.008 304.796 973.946 313.387 1014.92 301.574L1016.16 283.319C997.535 286.54 960.289 301.574 961.53 272.58Z" fill="#201E1F"/>
<path fill-rule="evenodd" clip-rule="evenodd" d="M1055.89 234.995H1032.3V304.796H1055.89C1055.89 255.398 1049.68 247.881 1078.24 251.103C1084.45 265.063 1081.96 287.614 1081.96 304.796H1108.04C1108.04 291.91 1109.28 255.398 1105.55 245.733C1098.1 227.478 1072.03 230.699 1058.37 239.29C1055.89 238.216 1057.13 240.364 1055.89 234.995Z" fill="#201E1F"/>
<path fill-rule="evenodd" clip-rule="evenodd" d="M1129.14 232.847L1120.45 237.142V248.955C1134.11 250.029 1125.42 247.881 1129.14 253.25C1129.14 291.909 1122.93 315.534 1178.8 304.796V289.762C1156.46 290.835 1151.49 295.131 1155.21 248.955H1178.8V233.921L1156.46 232.847C1153.97 230.699 1153.97 232.847 1152.73 228.551V214.591L1129.14 215.665V232.847Z" fill="#201E1F"/>
<path fill-rule="evenodd" clip-rule="evenodd" d="M751.706 304.796H777.779V207.074L752.948 206L751.706 304.796Z" fill="#201E1F"/>
<path fill-rule="evenodd" clip-rule="evenodd" d="M617.617 304.796H641.207V208.148L617.617 207.074V304.796Z" fill="#201E1F"/>
<path fill-rule="evenodd" clip-rule="evenodd" d="M1278.13 304.796H1304.2V256.472L1334 253.25V233.921C1321.58 232.847 1314.13 236.069 1307.93 242.512C1307.93 242.512 1307.93 240.364 1306.69 240.364C1304.2 246.807 1307.93 234.995 1299.24 233.921H1279.37L1278.13 304.796Z" fill="#201E1F"/>
<path fill-rule="evenodd" clip-rule="evenodd" d="M852.461 146.435H882.531C882.531 51.4784 899.94 141.687 920.514 146.435H953.749L917.349 87.8785C925.262 70.4698 941.088 59.3915 950.583 41.9827C892.027 40.4001 918.931 45.1479 884.114 79.9654L882.531 4H855.627H852.461V146.435Z" fill="#201E1F"/>
<path fill-rule="evenodd" clip-rule="evenodd" d="M540.688 124.278L535.94 108.452C542.27 102.121 537.523 102.121 550.183 98.9562C556.514 98.9562 562.844 98.9562 569.175 98.9562C569.175 121.113 566.01 132.191 540.688 124.278ZM512.201 43.5648V68.8866C532.775 65.7213 558.097 51.4778 567.592 75.217C551.766 87.8779 504.288 72.0518 502.705 114.782C502.705 130.608 512.201 144.852 526.444 148.017C545.436 152.765 556.514 144.852 567.592 136.939C570.757 148.017 569.175 143.269 572.34 146.435H600.827C600.827 68.8866 613.488 18.2429 512.201 43.5648Z" fill="#201E1F"/>
<path fill-rule="evenodd" clip-rule="evenodd" d="M765.419 124.279C754.341 102.122 770.167 97.3741 793.906 98.9567L792.323 122.696C782.828 125.861 776.497 127.444 765.419 124.279ZM736.932 43.5653V68.8871C757.506 65.7219 784.41 51.4783 792.323 75.2175C778.08 86.2958 729.019 72.0523 729.019 114.783C727.436 160.679 768.584 149.6 792.323 138.522C795.489 141.687 779.663 146.435 825.558 146.435C825.558 124.279 830.306 68.8871 819.228 53.0609C804.984 34.0696 762.254 37.2348 736.932 43.5653Z" fill="#201E1F"/>
<path fill-rule="evenodd" clip-rule="evenodd" d="M1273.44 124.278C1262.36 103.704 1279.77 97.3739 1300.34 98.9566L1298.76 122.696C1290.85 125.861 1284.52 127.444 1273.44 124.278ZM1295.59 141.687L1301.92 135.357L1303.51 146.435H1333.58C1333.58 64.1391 1347.82 22.9911 1244.95 43.5651V68.8869C1263.94 64.1391 1290.85 51.4782 1300.34 75.2174C1281.35 86.2956 1237.04 73.6347 1235.45 114.783C1235.45 152.765 1270.27 152.765 1295.59 141.687Z" fill="#201E1F"/>
<path fill-rule="evenodd" clip-rule="evenodd" d="M1023.38 97.374C1023.38 108.452 1026.55 117.948 1017.05 124.278C1010.72 127.444 999.645 127.444 994.897 122.696C977.488 105.287 1010.72 98.9566 1023.38 97.374ZM967.992 43.5652L966.41 68.887C986.984 64.1391 1012.31 53.0609 1023.38 75.2174C1013.89 79.9653 998.062 78.3827 982.236 84.7131C930.01 102.122 969.575 178.087 1018.64 138.522C1029.71 148.018 1034.46 149.6 1056.62 146.435C1056.62 59.3913 1069.28 27.739 967.992 43.5652Z" fill="#201E1F"/>
<path fill-rule="evenodd" clip-rule="evenodd" d="M637.227 184.417L668.879 186L722.688 41.9822H689.453L668.879 105.287C660.966 84.7127 656.219 62.5561 646.723 41.9822H615.071C616.653 57.8083 632.479 95.791 638.81 113.2C656.219 162.261 648.305 140.104 637.227 184.417Z" fill="#201E1F"/>
<path fill-rule="evenodd" clip-rule="evenodd" d="M483.713 114.783V8.74768H417.244L418.826 32.4869H450.478C450.478 60.9739 453.644 98.9566 444.148 119.531C421.991 124.278 425.157 122.696 403 117.948L404.583 146.435C444.148 152.765 478.965 149.6 483.713 114.783Z" fill="#201E1F"/>
<path fill-rule="evenodd" clip-rule="evenodd" d="M1165.82 38.8173C1156.32 46.7304 1154.74 48.313 1154.74 64.1391C1172.15 65.7217 1162.65 62.5565 1165.82 70.4696C1165.82 121.113 1159.49 167.009 1229.12 144.852V124.278C1202.22 125.861 1194.31 135.357 1199.05 64.1391H1229.12V41.9825L1200.64 40.3999C1199.05 37.2347 1199.05 40.3999 1197.47 34.0695C1197.47 32.4868 1197.47 26.1564 1197.47 26.1564C1197.47 22.9912 1197.47 16.6607 1197.47 13.4955H1165.82V38.8173Z" fill="#201E1F"/>
<path fill-rule="evenodd" clip-rule="evenodd" d="M1148.41 72.0525V43.5654L1135.75 45.148L1116.76 53.0611L1112.01 56.2263C1108.85 38.8176 1115.18 45.148 1100.93 43.5654L1080.36 45.148V146.435H1113.59V75.2177L1148.41 72.0525Z" fill="#201E1F"/>
</svg>
