<svg width="375" height="353" viewBox="0 0 375 353" fill="none" xmlns="http://www.w3.org/2000/svg">
<path fill-rule="evenodd" clip-rule="evenodd" d="M107.523 274.595L105.64 275.402C105.371 275.402 104.027 275.402 103.489 275.402H71.4862C65.5698 275.402 38.9457 276.209 35.4496 275.133C34.105 271.099 35.1807 254.695 34.9118 248.778C33.2982 247.434 31.4157 246.627 29.5332 245.551C18.2381 238.021 10.977 230.76 3.71591 219.196C2.64019 217.582 1.56447 215.431 0.48875 214.086C-0.58697 232.911 0.48875 254.426 0.21982 273.789C0.21982 282.663 2.90912 286.697 9.36343 294.227C13.3974 299.337 19.0449 303.64 26.5749 306.867C35.9875 311.17 41.9039 310.094 52.9301 310.094C65.5698 310.094 136.567 310.632 142.753 310.094L143.022 0.287025C132.533 -0.519765 122.852 4.5899 116.397 12.1199C108.599 21.2636 108.061 28.2557 108.061 42.509C108.061 68.3263 108.061 94.4125 108.061 120.23C108.061 127.222 108.33 271.906 107.523 274.595Z" fill="#113D40"/>
<path fill-rule="evenodd" clip-rule="evenodd" d="M226.928 275.133H151.896C154.317 291 166.419 303.909 178.252 309.287C182.286 311.17 284.748 310.363 297.925 310.363C317.557 310.363 339.609 311.17 358.972 310.363C357.897 309.556 347.14 307.674 341.223 305.253C335.576 303.102 330.735 300.413 326.163 297.454C314.868 289.924 311.103 284.546 303.573 275.133H262.696L262.427 0.55589C250.594 -0.788759 241.181 6.47235 235.803 12.1199C228.541 19.6499 227.466 29.3314 227.466 42.5089L227.197 236.676C227.197 244.475 228.273 268.948 226.928 275.133Z" fill="#113D40"/>
<path fill-rule="evenodd" clip-rule="evenodd" d="M220.473 217.851C221.549 213.817 220.742 194.185 220.742 188.269C217.515 188.269 214.288 188.269 211.061 188.269C207.565 188.269 202.724 189.076 201.917 187.462V0.0180911C187.664 -0.250839 179.327 2.43846 173.142 10.7753C165.612 20.7257 167.225 30.4072 167.225 44.3915L166.956 202.522C166.956 210.052 166.15 213.817 169.108 220.272C171.259 225.112 173.949 228.608 176.907 231.836C183.361 238.828 191.698 244.744 201.917 246.896V218.12L220.473 217.851Z" fill="#113D40"/>
<path fill-rule="evenodd" clip-rule="evenodd" d="M374.301 307.136L374.57 268.41C358.703 264.645 350.097 259.266 342.567 249.316C331.541 235.063 332.348 224.037 334.768 208.708C332.886 207.363 332.079 207.363 329.928 206.556C327.776 205.48 326.7 204.943 324.818 203.867C317.557 199.564 311.102 193.647 306.8 186.117C306.262 185.311 305.993 184.504 305.455 183.966L303.841 181.546C297.118 191.765 293.891 211.128 294.429 225.65C294.967 241.517 299.807 255.77 306.531 267.334C313.523 279.167 321.86 288.042 332.886 295.034C343.105 301.757 358.703 307.943 374.301 307.136Z" fill="#F58634"/>
<path fill-rule="evenodd" clip-rule="evenodd" d="M173.948 346.131H179.596V335.643L187.664 335.911V346.131H193.58V323.003L187.933 322.734C187.933 324.347 187.933 325.961 187.933 327.575C187.933 329.726 188.202 329.726 187.395 331.071H179.865L179.327 323.003H173.948V346.131Z" fill="#201E1F"/>
<path fill-rule="evenodd" clip-rule="evenodd" d="M77.9404 346.131H83.0501C83.0501 329.995 86.0083 345.324 89.5044 346.131H95.1519L88.9666 336.18C90.3112 333.222 93.0005 331.34 94.6141 328.381C84.6637 328.113 89.2355 328.919 83.319 334.836L83.0501 321.927H78.4783H77.9404V346.131Z" fill="#201E1F"/>
<path fill-rule="evenodd" clip-rule="evenodd" d="M284.748 344.786L285.017 339.139C282.327 340.214 280.714 343.173 276.142 341.828C269.957 340.214 269.957 328.65 275.873 326.768C280.176 325.692 281.789 328.381 285.017 329.457L284.748 324.079C275.873 318.431 265.385 323.81 265.385 334.567C265.385 346.4 274.797 348.282 284.748 344.786Z" fill="#201E1F"/>
<path fill-rule="evenodd" clip-rule="evenodd" d="M208.103 338.063L207.834 342.097C206.22 342.635 205.144 342.904 202.993 342.366V338.87L208.103 338.063ZM198.421 328.65V332.953C201.917 332.415 206.489 329.995 208.103 334.029C205.144 336.449 197.076 333.222 197.076 340.752C196.807 348.013 203.8 347.207 207.834 344.517C208.371 346.938 208.103 345.324 208.909 346.131H213.481C213.481 342.366 214.557 332.953 212.405 330.264C209.985 327.037 202.724 327.575 198.421 328.65Z" fill="#201E1F"/>
<path fill-rule="evenodd" clip-rule="evenodd" d="M237.416 337.794C237.416 339.676 237.954 341.29 236.34 342.366C235.265 342.904 233.382 342.904 232.575 342.097C229.617 339.139 235.265 338.063 237.416 337.794ZM227.735 328.65V332.953C231.231 332.146 235.534 330.264 237.416 334.029L235.534 334.567C234.458 334.836 222.894 335.105 226.928 343.71C229.348 348.82 235.265 345.593 236.071 345.593C238.492 344.786 236.071 346.669 242.795 346.131C242.795 331.609 245.484 325.423 227.735 328.65Z" fill="#201E1F"/>
<path fill-rule="evenodd" clip-rule="evenodd" d="M24.9612 342.366L24.1544 339.676C25.2301 338.601 24.4233 338.601 26.5747 338.063C27.6504 338.063 28.7262 338.063 29.8019 338.063C29.8019 341.828 29.264 343.71 24.9612 342.366ZM20.1204 328.65V332.953C23.6165 332.415 27.9194 329.995 29.533 334.029C26.8437 336.18 18.7758 333.491 18.5068 340.752C18.5068 343.441 20.1204 345.862 22.5408 346.4C25.7679 347.206 27.6504 345.862 29.533 344.517C30.0708 346.4 29.8019 345.593 30.3397 346.131H35.1805C35.1805 332.953 37.3319 324.347 20.1204 328.65Z" fill="#201E1F"/>
<path fill-rule="evenodd" clip-rule="evenodd" d="M63.1495 342.366C61.267 338.601 63.9563 337.794 67.9902 338.063L67.7213 342.097C66.1077 342.635 65.032 342.904 63.1495 342.366ZM58.3087 328.65V332.953C61.8048 332.415 66.3766 329.995 67.7213 334.029C65.3009 335.911 56.9641 333.491 56.9641 340.752C56.6951 348.551 63.6873 346.669 67.7213 344.786C68.2591 345.324 65.5698 346.131 73.3688 346.131C73.3688 342.366 74.1756 332.953 72.2931 330.264C69.8727 327.037 62.6116 327.575 58.3087 328.65Z" fill="#201E1F"/>
<path fill-rule="evenodd" clip-rule="evenodd" d="M149.476 342.366C147.593 338.87 150.552 337.794 154.048 338.063L153.779 342.097C152.434 342.635 151.358 342.904 149.476 342.366ZM153.241 345.324L154.317 344.248L154.585 346.131H159.695C159.695 332.146 162.116 325.154 144.635 328.65V332.953C147.862 332.146 152.434 329.995 154.048 334.029C150.82 335.911 143.29 333.76 143.021 340.752C143.021 347.206 148.938 347.206 153.241 345.324Z" fill="#201E1F"/>
<path fill-rule="evenodd" clip-rule="evenodd" d="M106.985 337.794C106.985 339.676 107.523 341.29 105.909 342.366C104.833 342.904 102.951 342.904 102.144 342.097C99.1859 339.139 104.833 338.063 106.985 337.794ZM97.5723 328.65L97.3034 332.953C100.799 332.146 105.102 330.264 106.985 334.029C105.371 334.836 102.682 334.567 99.9927 335.643C91.118 338.601 97.8413 351.509 106.178 344.786C108.061 346.4 108.867 346.669 112.632 346.131C112.632 331.34 114.784 325.961 97.5723 328.65Z" fill="#201E1F"/>
<path fill-rule="evenodd" clip-rule="evenodd" d="M346.332 334.836C346.87 329.726 352.249 329.995 352.787 334.836L350.635 335.105H348.484L346.332 334.836ZM357.896 345.055L358.165 340.752C354.4 341.29 347.677 346.131 346.332 338.332H357.896C360.855 325.692 344.988 324.885 341.492 332.684C336.382 343.71 347.408 349.358 357.896 345.055Z" fill="#201E1F"/>
<path fill-rule="evenodd" clip-rule="evenodd" d="M292.547 335.105C293.085 331.609 294.16 331.071 297.925 331.609C298.463 332.684 299.001 333.222 299.001 335.105H292.547ZM292.547 338.063H304.38L304.111 333.76C303.573 325.692 288.782 325.154 287.168 335.105C285.286 346.131 295.236 348.282 304.111 345.324L304.38 340.752C300.346 341.559 292.278 345.324 292.547 338.063Z" fill="#201E1F"/>
<path fill-rule="evenodd" clip-rule="evenodd" d="M41.3661 352.585L46.7447 352.854L55.8883 328.381H50.2408L46.7447 339.139C45.4 335.642 44.5932 331.877 42.9797 328.381H37.6011C37.87 331.071 40.5593 337.525 41.635 340.483C44.5932 348.82 43.2486 345.055 41.3661 352.585Z" fill="#201E1F"/>
<path fill-rule="evenodd" clip-rule="evenodd" d="M312.985 328.65H307.875V346.131H312.985C312.985 333.76 311.641 331.877 317.826 332.684C319.171 336.18 318.633 341.828 318.633 346.131H324.28C324.28 342.904 324.549 333.76 323.742 331.34C322.129 326.768 316.481 327.575 313.523 329.726C312.985 329.457 313.254 329.995 312.985 328.65Z" fill="#201E1F"/>
<path fill-rule="evenodd" clip-rule="evenodd" d="M15.2799 340.752V322.734H3.98482L4.25375 326.768H9.63235C9.63235 331.609 10.1702 338.063 8.55663 341.559C4.79161 342.366 5.32947 342.097 1.56445 341.29L1.83338 346.131C8.55663 347.206 14.4731 346.669 15.2799 340.752Z" fill="#201E1F"/>
<path fill-rule="evenodd" clip-rule="evenodd" d="M131.189 327.844C129.575 329.188 129.306 329.457 129.306 332.146C132.264 332.415 130.651 331.877 131.189 333.222C131.189 341.828 130.113 349.627 141.946 345.862V342.366C137.374 342.635 136.029 344.248 136.836 332.146H141.946V328.381L137.105 328.112C136.836 327.575 136.836 328.112 136.567 327.037C136.567 326.768 136.567 325.692 136.567 325.692C136.567 325.154 136.567 324.079 136.567 323.541H131.189V327.844Z" fill="#201E1F"/>
<path fill-rule="evenodd" clip-rule="evenodd" d="M328.852 328.112L326.97 329.188V332.146C329.928 332.415 328.045 331.877 328.852 333.222C328.852 342.904 327.508 348.82 339.609 346.131V342.366C334.769 342.635 333.693 343.71 334.5 332.146H339.609V328.381L334.769 328.112C334.231 327.575 334.231 328.112 333.962 327.037V323.541L328.852 323.81V328.112Z" fill="#201E1F"/>
<path fill-rule="evenodd" clip-rule="evenodd" d="M247.097 346.131H252.745V321.658L247.366 321.389L247.097 346.131Z" fill="#201E1F"/>
<path fill-rule="evenodd" clip-rule="evenodd" d="M218.053 346.131H223.162V321.927L218.053 321.658V346.131Z" fill="#201E1F"/>
<path fill-rule="evenodd" clip-rule="evenodd" d="M361.124 346.131H366.771V334.029L373.225 333.222V328.381C370.536 328.112 368.922 328.919 367.578 330.533C367.578 330.533 367.578 329.995 367.309 329.995C366.771 331.609 367.578 328.65 365.695 328.381H361.392L361.124 346.131Z" fill="#201E1F"/>
<path fill-rule="evenodd" clip-rule="evenodd" d="M128.23 333.491V328.65L126.079 328.919L122.852 330.264L122.045 330.802C121.507 327.844 122.583 328.919 120.163 328.65L116.667 328.919V346.131H122.314V334.029L128.23 333.491Z" fill="#201E1F"/>
<path fill-rule="evenodd" clip-rule="evenodd" d="M107.523 274.595L35.4497 274.864C35.4497 270.562 35.4497 265.99 35.4497 261.418L35.7186 251.736C35.4497 249.047 35.4497 249.585 34.9118 248.778C35.1808 254.695 34.105 271.099 35.4497 275.133C38.9458 276.209 65.5698 275.402 71.4863 275.402H103.489C104.027 275.402 105.371 275.402 105.64 275.402L107.523 274.595Z" fill="#113D40"/>
<path fill-rule="evenodd" clip-rule="evenodd" d="M220.473 217.851C222.087 216.776 220.742 218.658 221.28 216.776C221.549 216.238 221.549 215.162 221.549 214.624V188.269L201.917 187.462C202.724 189.076 207.565 188.269 211.061 188.269C214.288 188.269 217.515 188.269 220.742 188.269C220.742 194.185 221.549 213.817 220.473 217.851Z" fill="#113D40"/>
</svg>
