<?xml version="1.0" encoding="UTF-8"?>
<!DOCTYPE svg PUBLIC "-//W3C//DTD SVG 1.1//EN" "http://www.w3.org/Graphics/SVG/1.1/DTD/svg11.dtd">
<!-- Creator: CorelDRAW X7 -->
<svg xmlns="http://www.w3.org/2000/svg" xml:space="preserve" width="76.3358mm" height="130.623mm" version="1.1" style="shape-rendering:geometricPrecision; text-rendering:geometricPrecision; image-rendering:optimizeQuality; fill-rule:evenodd; clip-rule:evenodd"
viewBox="0 0 7634 13062"
 xmlns:xlink="http://www.w3.org/1999/xlink">
 <defs>
  <style type="text/css">
   <![CDATA[
    .fil2 {fill:#FEFEFE}
    .fil0 {fill:#D47227}
    .fil1 {fill:#FEFEFE;fill-rule:nonzero}
   ]]>
  </style>
 </defs>
 <g id="Layer_x0020_1">
  <metadata id="CorelCorpID_0Corel-Layer"/>
  <path class="fil0" d="M7634 0c-2847,501 -4805,1483 -5992,2600 -1052,991 -1618,2202 -1623,3485 -3,779 -7,1559 -10,2338 -3,781 -6,1562 -9,2343 921,278 1951,587 3107,935 1309,394 2805,844 4527,1361 0,-2187 0,-4373 0,-6550 0,-2175 0,-4346 0,-6512z"/>
  <g id="_512154912">
   <path class="fil1" d="M999 9311c0,21 -2,40 -6,58 -5,18 -11,33 -19,45 -9,13 -20,22 -33,26 -12,5 -27,5 -42,2 -12,-2 -24,-5 -34,-8 -11,-4 -20,-7 -27,-12 0,-32 0,-65 0,-98 1,0 4,1 6,1 6,5 11,10 17,14 6,5 13,7 22,9 12,2 22,1 28,-4 7,-5 12,-13 14,-23 3,-9 5,-21 5,-36 0,-13 0,-29 1,-46 0,-64 0,-129 1,-194 -21,-3 -42,-7 -62,-10 0,-30 0,-60 0,-89 44,6 87,13 131,20 0,115 -1,230 -2,345zm166 77c0,-25 0,-51 0,-78 -11,1 -20,1 -27,1 -7,0 -13,2 -20,5 -6,3 -10,7 -13,14 -4,6 -5,15 -5,27 0,17 2,30 7,38 6,7 13,12 24,14 6,1 12,-1 17,-4 7,-4 12,-9 17,-17zm-1 58c-4,6 -8,11 -12,16 -4,4 -8,9 -15,13 -5,4 -11,7 -17,9 -5,1 -13,1 -23,-1 -18,-4 -34,-17 -45,-41 -13,-25 -18,-54 -18,-87 0,-27 4,-49 10,-65 6,-16 15,-28 26,-36 12,-8 26,-13 42,-14 17,-1 35,-1 54,0 0,0 0,-1 0,-2 0,-19 -4,-35 -13,-44 -9,-9 -21,-15 -38,-18 -8,-2 -17,-1 -27,3 -10,3 -21,8 -30,13 -3,0 -4,0 -6,-1 0,-29 0,-59 0,-89 7,-2 18,-4 32,-6 14,-3 29,-2 44,0 36,6 63,21 79,45 16,25 24,58 24,103 0,84 -1,169 -1,254 -22,-4 -44,-8 -66,-12 0,-14 0,-27 0,-40zm321 -279c-38,166 -76,332 -114,495 -24,-4 -49,-9 -72,-14 11,-46 22,-93 33,-139 -25,-127 -51,-254 -76,-380 23,4 47,8 70,11 15,82 29,162 44,244 15,-76 30,-152 44,-229 24,4 47,8 71,12zm147 307c0,-26 0,-53 0,-81 -11,1 -21,1 -28,1 -7,0 -15,2 -22,5 -6,3 -10,7 -14,14 -3,7 -5,16 -5,29 0,17 3,30 8,38 6,8 14,12 25,14 6,2 12,0 19,-3 6,-4 12,-10 17,-17zm0 59c-5,6 -9,12 -14,17 -3,4 -9,9 -15,13 -6,4 -12,7 -18,9 -6,1 -14,1 -25,-1 -19,-4 -36,-18 -48,-43 -13,-26 -19,-55 -19,-89 0,-28 3,-51 10,-67 7,-17 16,-29 28,-37 14,-8 29,-13 46,-13 17,-1 36,-1 56,0 0,-1 0,-2 0,-2 0,-21 -4,-37 -13,-46 -9,-10 -23,-17 -41,-20 -8,-1 -18,0 -29,3 -10,4 -21,8 -32,14 -2,0 -4,0 -6,-1 0,-30 0,-61 1,-92 7,-2 18,-4 33,-6 16,-3 31,-2 47,1 38,6 66,22 84,46 18,25 27,60 26,106 0,87 -1,175 -1,263 -24,-5 -48,-9 -71,-14 0,-14 0,-27 1,-41zm355 109c-30,-6 -58,-12 -88,-17 -20,-60 -41,-120 -61,-181 -4,8 -8,16 -12,24 0,47 0,95 0,143 -25,-5 -49,-9 -72,-14 1,-178 2,-357 3,-535 24,4 48,7 72,11 -1,100 -1,201 -2,301 23,-46 47,-93 70,-140 28,5 57,10 86,15 -28,51 -56,103 -83,153 29,80 58,159 87,240zm154 -75c1,-27 1,-55 1,-83 -13,0 -23,0 -31,0 -7,0 -15,2 -22,5 -7,3 -12,8 -15,15 -4,7 -6,16 -6,29 0,19 2,32 8,40 7,8 15,13 27,15 7,1 13,0 19,-4 7,-3 13,-9 19,-17zm0 61c-5,7 -10,12 -14,17 -4,5 -9,10 -17,14 -6,4 -13,7 -19,9 -6,1 -15,1 -26,-1 -21,-4 -38,-19 -52,-45 -14,-26 -20,-57 -20,-92 0,-29 4,-52 11,-69 7,-17 17,-29 31,-38 13,-8 29,-13 48,-14 18,0 38,0 60,1 0,-1 0,-2 0,-2 0,-22 -5,-38 -14,-48 -10,-10 -24,-17 -44,-20 -8,-1 -19,-1 -30,3 -12,3 -24,8 -34,14 -3,0 -5,-1 -7,-1 0,-31 0,-63 1,-95 7,-2 19,-4 35,-6 17,-3 33,-2 49,1 42,6 72,23 91,49 19,25 29,62 28,109 0,90 -1,180 -2,271 -25,-5 -50,-10 -75,-14 0,-15 0,-29 0,-43zm298 -185c-2,0 -4,-1 -6,-1 -3,-2 -7,-5 -13,-6 -6,-2 -12,-4 -19,-5 -8,-1 -16,-1 -25,1 -9,3 -18,6 -26,10 -1,89 -1,178 -2,268 -25,-5 -51,-10 -77,-15 1,-132 2,-265 3,-399 26,5 51,9 77,13 0,20 0,39 -1,57 4,-4 9,-10 16,-16 6,-7 11,-13 16,-17 6,-5 13,-8 20,-11 7,-3 14,-3 22,-2 1,0 4,0 8,2 3,0 5,1 8,2 -1,40 -1,79 -1,119zm125 316c-32,-6 -56,-21 -70,-45 -14,-24 -21,-60 -21,-108 0,-63 1,-126 1,-189 -10,-2 -20,-4 -30,-5 0,-29 0,-58 0,-88 11,2 21,4 31,5 0,-38 0,-76 1,-115 25,4 52,8 78,12 0,40 0,78 0,116 25,4 50,9 75,13 0,30 0,59 0,88 -26,-4 -51,-9 -76,-13 0,49 -1,96 -1,145 0,14 0,27 0,37 0,11 1,20 3,30 2,8 6,16 11,22 6,5 13,9 23,11 5,1 10,0 17,-1 7,-2 11,-3 14,-5 2,0 5,1 8,1 -1,29 -1,59 -1,89 -9,2 -18,4 -27,3 -11,1 -23,0 -36,-3zm238 -71c0,-29 0,-57 0,-87 -13,0 -25,0 -32,1 -9,-1 -17,1 -26,4 -7,3 -12,8 -16,16 -3,7 -6,17 -6,30 0,20 3,33 9,42 7,8 17,13 29,15 7,2 14,0 22,-3 7,-3 14,-10 20,-18zm-1 63c-5,7 -11,13 -15,18 -4,5 -10,10 -17,14 -8,4 -15,7 -22,9 -6,2 -16,2 -28,-1 -23,-4 -41,-19 -56,-47 -15,-27 -22,-59 -22,-96 0,-30 4,-55 12,-72 8,-17 18,-30 33,-38 15,-9 32,-14 52,-15 20,-1 42,0 66,1 0,-1 0,-1 0,-2 0,-23 -6,-40 -16,-50 -11,-11 -26,-18 -47,-21 -10,-2 -21,-1 -33,3 -13,3 -25,8 -38,14 -2,0 -4,0 -6,-1 0,-33 0,-65 0,-99 9,-2 21,-4 39,-6 18,-3 35,-2 53,1 45,7 78,25 98,52 21,28 31,65 31,114 -1,94 -2,188 -2,282 -28,-5 -55,-10 -82,-15 0,-15 0,-30 0,-45zm597 158c-31,-6 -62,-12 -93,-18 1,-82 1,-166 2,-249 -41,-8 -83,-15 -124,-22 -1,82 -1,166 -2,248 -30,-6 -61,-12 -90,-18 1,-185 2,-370 4,-556 30,5 60,10 90,14 0,69 -1,137 -1,206 41,7 82,14 124,20 0,-68 1,-137 1,-206 31,4 62,9 93,14 -1,189 -3,378 -4,567zm228 -70c1,-30 1,-60 1,-91 -14,0 -27,-1 -36,0 -9,0 -18,1 -27,5 -8,3 -14,7 -18,15 -4,8 -7,18 -7,32 0,21 3,35 10,45 8,8 18,14 32,17 8,1 15,0 24,-4 8,-4 15,-11 21,-19zm0 66c-6,7 -11,14 -16,19 -5,5 -12,10 -20,14 -7,5 -15,8 -23,10 -7,2 -18,1 -31,-2 -25,-4 -46,-21 -62,-49 -16,-30 -24,-63 -24,-101 0,-32 5,-58 13,-76 8,-18 21,-31 36,-40 17,-9 36,-14 58,-15 22,0 46,0 71,2 0,-1 0,-2 0,-2 1,-24 -5,-42 -16,-53 -12,-11 -29,-19 -52,-22 -10,-2 -22,-1 -37,2 -13,4 -27,9 -40,15 -3,0 -6,-1 -8,-1 0,-34 0,-69 1,-104 9,-2 22,-4 42,-6 20,-3 40,-2 60,2 49,8 84,26 107,55 22,29 33,68 33,120 -1,98 -2,197 -2,296 -31,-6 -61,-12 -90,-17 0,-16 0,-31 0,-47zm247 94c-31,-6 -61,-12 -91,-18 2,-201 4,-402 5,-604 30,5 60,9 91,14 -1,203 -3,405 -5,608zm238 -71c0,-31 0,-62 1,-94 -16,0 -29,-1 -39,0 -10,-1 -19,1 -29,4 -8,3 -14,8 -19,16 -5,8 -7,19 -7,33 0,21 4,36 11,46 8,9 19,15 33,17 8,2 17,1 26,-3 8,-4 16,-11 23,-19zm-1 68c-6,7 -12,13 -18,18 -4,5 -11,11 -20,15 -8,5 -17,8 -25,10 -7,2 -19,1 -32,-2 -27,-5 -49,-21 -66,-51 -17,-30 -25,-64 -25,-104 0,-33 5,-59 14,-78 8,-18 21,-31 38,-40 17,-9 37,-15 61,-15 23,-1 49,0 76,2 0,-1 0,-2 0,-3 0,-24 -6,-42 -18,-54 -12,-11 -31,-19 -55,-23 -11,-1 -24,-1 -39,3 -14,3 -29,8 -43,14 -3,0 -5,0 -7,-1 0,-34 0,-70 0,-106 9,-3 25,-5 45,-7 21,-2 42,-1 62,2 53,9 91,28 114,58 24,30 35,70 35,123 -1,101 -2,203 -3,304 -31,-6 -62,-12 -94,-18 0,-15 0,-31 0,-47zm262 97c-33,-6 -65,-12 -97,-18 2,-207 4,-414 5,-622 32,5 64,10 96,15 -1,209 -3,418 -4,625zm435 94c-65,-12 -116,-49 -154,-111 -36,-62 -54,-143 -54,-243 1,-96 20,-169 58,-220 39,-51 91,-72 156,-62 16,3 32,7 46,12 13,4 26,10 39,17 10,6 21,14 33,23 12,9 21,16 28,22 0,50 0,99 0,147 -5,-1 -8,-1 -12,-2 -5,-7 -11,-16 -20,-27 -8,-9 -17,-20 -27,-31 -10,-10 -22,-20 -34,-28 -11,-7 -24,-13 -38,-15 -15,-2 -30,-1 -43,4 -13,4 -25,15 -37,30 -11,13 -20,33 -27,58 -7,25 -11,55 -11,92 -1,38 3,70 10,97 7,27 16,50 28,67 10,18 23,31 37,41 14,9 27,15 41,18 14,2 28,1 41,-3 13,-4 24,-10 33,-16 10,-7 19,-14 26,-22 8,-7 15,-14 20,-20 3,1 7,1 11,2 -1,49 -1,98 -2,145 -8,4 -18,8 -28,13 -11,4 -21,9 -33,11 -14,3 -27,5 -39,6 -11,1 -28,-1 -48,-5zm380 73c-65,-12 -113,-42 -146,-91 -34,-48 -50,-111 -49,-189 0,-77 16,-134 48,-174 32,-40 77,-56 134,-46 52,8 91,34 117,77 26,44 39,101 39,175 0,19 -1,36 -1,54 -78,-14 -156,-28 -233,-42 0,21 3,40 9,56 5,16 13,28 22,39 9,10 19,19 32,25 12,6 26,10 40,13 12,2 24,3 36,1 12,-2 23,-4 33,-9 9,-4 17,-8 25,-13 7,-6 14,-10 18,-14 3,1 7,1 11,2 0,41 -1,82 -1,122 -8,3 -16,7 -23,9 -9,3 -18,5 -31,7 -11,2 -23,3 -36,3 -12,1 -27,-1 -44,-5zm39 -302c-1,-31 -6,-56 -16,-74 -10,-19 -25,-29 -45,-33 -21,-3 -37,3 -50,18 -12,14 -18,37 -20,67 43,7 87,15 131,22zm487 389c-37,-7 -75,-14 -111,-21 1,-79 1,-158 2,-238 0,-20 0,-39 -1,-59 0,-19 -3,-34 -6,-44 -4,-11 -9,-20 -17,-26 -7,-5 -16,-9 -29,-11 -9,-2 -17,-1 -27,2 -9,3 -19,8 -30,16 -1,114 -2,226 -2,339 -37,-7 -74,-14 -110,-21 2,-158 3,-317 4,-475 36,6 73,12 110,18 -1,18 -1,35 -1,52 18,-17 36,-30 53,-38 17,-10 37,-12 57,-9 37,6 65,26 84,60 18,34 28,81 27,140 -1,106 -2,210 -3,315zm224 52c-47,-8 -80,-27 -101,-57 -22,-29 -31,-73 -31,-131 1,-76 2,-152 3,-227 -15,-3 -30,-5 -44,-8 0,-34 1,-70 1,-105 14,3 29,5 43,8 0,-47 1,-92 1,-140 38,6 76,12 114,18 0,48 -1,94 -1,140 37,6 74,12 111,18 -1,36 -1,72 -1,107 -37,-6 -74,-13 -111,-19 -1,58 -1,116 -2,174 0,18 0,32 1,45 0,13 1,24 5,36 2,10 8,19 16,27 8,7 18,12 34,15 6,1 13,1 24,-1 9,-2 16,-4 20,-6 4,1 7,1 10,2 0,36 -1,72 -1,107 -12,2 -26,4 -40,3 -14,1 -30,-2 -51,-6zm330 66c-71,-13 -125,-45 -162,-97 -37,-52 -56,-119 -55,-200 1,-82 19,-142 55,-184 36,-42 85,-58 148,-48 58,10 103,38 132,84 30,46 43,108 43,185 -1,19 -1,38 -1,57 -88,-16 -175,-31 -261,-47 2,24 4,43 11,59 6,17 14,31 24,42 10,11 22,20 35,27 14,6 28,11 44,14 15,2 28,3 42,1 13,-2 26,-4 37,-9 10,-4 19,-9 27,-14 9,-5 15,-10 21,-14 4,1 8,1 13,2 0,44 0,87 -1,129 -11,3 -20,7 -27,10 -9,2 -20,5 -34,6 -13,3 -27,4 -41,4 -13,0 -30,-3 -50,-7zm44 -318c-1,-34 -6,-59 -18,-79 -11,-20 -27,-31 -49,-35 -24,-4 -42,3 -55,19 -13,16 -20,39 -22,70 48,8 95,16 144,25zm443 39c-3,-1 -7,-2 -10,-2 -5,-4 -11,-6 -20,-9 -9,-2 -19,-5 -30,-7 -13,-2 -26,-2 -40,0 -15,2 -29,6 -42,9 -1,114 -2,227 -3,340 -42,-8 -83,-16 -123,-24 2,-167 4,-335 5,-502 40,6 81,13 123,20 0,25 -1,48 -1,72 5,-6 14,-13 23,-21 10,-8 19,-15 28,-19 9,-6 19,-9 32,-12 12,-4 23,-4 33,-3 4,1 9,2 14,3 5,1 9,2 13,3 -1,51 -1,101 -2,152z"/>
   <path class="fil2" d="M3996 3463c-7,802 -14,1602 -21,2400 -7,798 -14,1594 -21,2389 -410,-36 -802,-71 -1177,-105 38,362 194,682 413,865 26,6 56,13 93,17 412,58 845,118 1299,182 477,67 979,136 1510,210 142,20 324,57 479,70 -536,-112 -980,-542 -1247,-1117 -260,-22 -513,-43 -759,-64 7,-957 14,-1916 22,-2876 8,-960 15,-1923 23,-2888 -327,64 -576,450 -614,917z"/>
   <path class="fil2" d="M2354 3255c-29,44 -54,96 -78,155 -44,112 -79,255 -85,407 -5,715 -10,1430 -15,2142 -5,712 -10,1423 -14,2134 -321,-28 -628,-56 -923,-82 1,-183 2,-366 3,-550 -174,-169 -315,-430 -405,-744 -2,450 -5,899 -7,1347 62,318 218,577 417,683 216,31 437,62 665,94 235,32 478,67 728,102 3,-431 7,-862 10,-1294 4,-431 7,-864 11,-1297 3,-558 8,-1118 11,-1677 4,-560 8,-1122 12,-1683 -108,-6 -253,141 -330,263z"/>
   <path class="fil2" d="M3036 3583c-5,595 -10,1189 -14,1781 -4,592 -9,1184 -13,1775 72,408 273,740 535,874 5,-869 12,-1739 18,-2610 6,-872 12,-1746 19,-2622 -92,16 -196,26 -316,160 -133,150 -212,385 -229,642z"/>
   <path class="fil2" d="M3357 6583c167,-1 336,-1 510,-1 -2,246 -4,491 -6,737 -173,-6 -343,-13 -509,-19 1,-239 3,-478 5,-717z"/>
   <path class="fil2" d="M6804 8319c-4,372 -8,745 -12,1117 -485,-66 -902,-386 -1192,-840 -281,-440 -448,-1019 -443,-1644 4,-393 75,-765 198,-1093 106,341 328,612 616,739 -28,117 -45,240 -46,367 -5,640 364,1199 879,1354z"/>
  </g>
 </g>
</svg>
