<svg width="183" height="183" viewBox="0 0 183 183" fill="none" xmlns="http://www.w3.org/2000/svg">
<path fill-rule="evenodd" clip-rule="evenodd" d="M92.2666 132.081C102.94 138.16 112.458 143.138 109.909 157.141C108.376 165.527 96.415 179.22 92.2998 182.998C86.3129 179.326 64.7211 156.349 78.4736 140.929C80.1927 139.004 88.8483 133.241 92.2666 132.081ZM92.2666 144.192C82.5694 151.55 83.6181 156.745 92.2666 164.222C101.307 155.789 100.046 153.014 92.2666 144.192Z" fill="#1A5256"/>
<path d="M56.8291 157.523C58.1964 154.207 68.5712 148.867 67.9805 162.613C55.3039 170.274 55.9132 159.746 56.8291 157.523Z" fill="#1A5256"/>
<path d="M125.208 154.392C130.226 161.347 126.178 160.708 125.938 164.577C117.031 167.142 113.506 161.643 117.701 154.596L125.208 154.392Z" fill="#1A5256"/>
<path fill-rule="evenodd" clip-rule="evenodd" d="M120.608 120.293C162.324 110.595 152.966 135.286 160.705 156.91C127.578 152.862 117.549 153.943 120.608 120.293ZM145.16 142.273C144.848 131.046 141.104 128.37 129.967 128.818C130.929 140.019 133.797 142.55 145.16 142.273Z" fill="#1A5256"/>
<path fill-rule="evenodd" clip-rule="evenodd" d="M23.2578 156.759C29.477 140.494 22.4544 108.426 63.752 120.432C65.564 133.987 64.98 144.516 55.9531 150.265C49.6275 154.299 32.2448 156.719 23.2578 156.759ZM53.6104 129.325C51.7578 127.644 37.7136 126.063 39.499 142.472C43.9527 142.478 49.0901 141.463 51.2871 139.307C52.4422 138.172 55.7475 131.257 53.6104 129.325Z" fill="#1A5256"/>
<path d="M113.413 127.012L112.729 138.898L100.563 131.573C99.8202 131.066 99.4552 130.848 98.7119 130.255C98.5327 130.116 98.28 129.912 98.1074 129.773L96.9463 128.713C96.8202 128.594 96.554 128.344 96.3682 128.152C99.7068 124.434 101.858 122.456 108.196 121.869L113.931 121.474L113.413 127.012Z" fill="#1A5256"/>
<path d="M69.4072 121.428C78.1221 121.632 83.4924 122.839 87.1895 128.152C84.6805 130.928 83.4257 130.921 79.6025 133.585C76.9211 135.457 74.2259 137.289 71.04 138.7L69.4072 121.428Z" fill="#1A5256"/>
<path fill-rule="evenodd" clip-rule="evenodd" d="M91.2051 58.0303C102.336 64.2538 94.1323 67.6624 115.332 67.3262C114.788 84.2961 113.466 79.1542 122.135 86.8281C124.976 89.34 125.189 89.2612 126.662 92.6631C113.314 102.566 114.004 103.06 115.684 116.707C110.964 116.938 104.878 115.883 100.902 117.716C97.2783 119.39 94.0652 123.465 90.793 125.159C85.9012 117.802 80.2726 116.259 68.0996 116.944C69.9846 93.6254 63.7454 104.154 57.8447 92.1748C60.7984 87.4214 63.3211 86.7748 66.6465 82.6279C69.6793 78.8304 68.1591 72.7192 68.3516 67.3857C90.4143 66.621 80.1206 67.1284 91.2051 58.0303ZM91.0391 100.851C86.9504 108.386 85.5229 112.217 92.1338 117.215C93.5675 115.033 96.402 112.744 96.1631 109.25C95.9306 105.802 93.3422 102.426 91.0391 100.851ZM86.3262 97.6406C77.14 99.5328 72.958 101.517 73.7412 111.644L78.4141 111.814C81.8256 108.142 84.1691 102.552 86.3262 97.6406ZM97.3447 97.5215C98.8447 101.985 102.495 108.749 104.387 111.762L109.862 111.795C110.466 107.885 109.796 103.527 107.34 101.569C106.091 100.58 99.6547 98.0952 97.3447 97.5215ZM92.6514 87.0518C88.5429 88.6011 89.3924 88.5619 87.3613 92.1748C89.4521 95.8206 89.2069 94.4098 92.1006 96.9609C97.51 93.3019 97.3174 90.9877 92.6514 87.0518ZM118.564 91.1924C112.146 87.83 112.763 85.7273 105.933 88.793C101.639 90.7112 102.667 90.23 101.214 92.7549C109.776 95.8601 111.429 99.0642 118.564 91.1924ZM82.6162 90.8369C73.0916 87.8108 72.328 83.7757 65.0801 92.1748C71.5448 96.4996 78.0895 98.4844 82.6162 90.8369ZM104.413 72.5547C102.661 75.3238 98.685 82.5956 97.6562 86.5381C105.887 83.8153 110.247 82.3449 110.161 72.3438L104.413 72.5547ZM82.1709 76.7803C79.8945 71.7504 80.2395 71.9082 73.5762 72.541C73.0518 82.2193 78.7262 83.5318 86.3193 86.3799C85.045 82.5428 83.6975 80.1756 82.1709 76.7803ZM91.9014 66.4102C86.2133 71.9481 86.7707 77.3941 92.2266 83.3936C93.0761 81.5608 95.9171 76.0359 96.0234 74.0117C96.2425 70.0561 92.5784 68.2034 91.9014 66.4102Z" fill="#1A5256"/>
<path d="M158.986 122.106C154.201 115.652 161.19 111.123 168.511 113.668C171.212 123.662 162.464 126.807 158.986 122.106Z" fill="#1A5256"/>
<path d="M15.166 113.944C23.8544 110.259 27.5521 115.923 24.2998 123.017C15.9832 125.041 12.0199 122.574 15.166 113.944Z" fill="#1A5256"/>
<path d="M55.4424 96.1309C61.7013 104.985 62.5974 99.8823 63.5664 114.749L46.0771 111.445C47.4977 107.311 51.938 99.0383 55.4424 96.1309Z" fill="#1A5256"/>
<path d="M137.806 111.433C134.022 111.868 130.717 112.619 127.133 113.364C122.128 114.399 120.775 115.527 119.965 111.149C118.823 104.959 125.115 99.0911 129.98 96.1836L137.806 111.433Z" fill="#1A5256"/>
<path fill-rule="evenodd" clip-rule="evenodd" d="M134.255 93.7637C133.731 91.423 138.543 72.2652 155.985 75.3174C167.86 77.3941 174.571 87.1309 183 90.8955C180.033 95.4578 162.902 107.727 159.065 108.861C153.609 110.463 146.461 110.186 142.598 106.765C141.09 105.425 134.786 96.1435 134.255 93.7637ZM158.88 88.3906C151.731 83.7031 146.236 87.1052 142.924 93.7705C147.55 96.3815 154.553 103.778 163.035 92.1748L158.88 88.3906Z" fill="#1A5256"/>
<path fill-rule="evenodd" clip-rule="evenodd" d="M0 90.4209C8.22382 86.4914 30.2137 64.8412 43.1035 79.6553C60.6524 99.8227 35.5896 112.257 25.1025 109.257C18.5181 107.371 2.60184 95.827 0 90.4209ZM30.041 86.3867C25.0563 85.7077 22.1888 89.8739 20.0781 92.1748C26.5562 100.772 33.346 100.033 39.9502 92.1748C38.0054 89.6828 33.2932 86.8351 30.041 86.3867Z" fill="#1A5256"/>
<path d="M45.8047 73.4316C50.7029 71.8956 58.4088 69.5087 63.2275 69.9238C64.5882 79.358 58.5489 84.0524 54.2744 87.5664C51.8518 84.1777 47.1323 76.7677 45.8047 73.4316Z" fill="#1A5256"/>
<path d="M138.157 73.0752C136.159 77.4726 133.206 83.149 129.556 87.1377C121.299 83.8875 120.615 76.2402 120.044 69.5947L138.157 73.0752Z" fill="#1A5256"/>
<path d="M14.9678 61.8086C17.397 60.6153 20.5033 58.9669 23.9082 61.6436C27.8637 64.7553 24.6914 68.3351 24.625 70.5107C16.4412 73.8599 12.2665 71.1504 14.9678 61.8086Z" fill="#1A5256"/>
<path d="M164.714 60.2783C172.958 65.7306 169.705 73.4379 159.125 71.1699C156.424 65.2694 156.65 60.8453 164.714 60.2783Z" fill="#1A5256"/>
<path fill-rule="evenodd" clip-rule="evenodd" d="M160.817 27.4727C156.51 37.9948 157.639 50.9501 151.798 59.1846C145.565 67.9661 131.978 68.6054 120.741 63.9707C112.77 29.9847 133.339 31.481 160.817 27.4727ZM144.928 42.0293C134.686 42.2535 129.024 44.7463 130.133 55.6377C142.279 56.6596 144.503 53.5206 144.928 42.0293Z" fill="#1A5256"/>
<path fill-rule="evenodd" clip-rule="evenodd" d="M22.8125 27.3867C38.2245 29.4305 75.0221 28.6659 62.9424 64.0625C51.6191 67.7083 38.6428 68.4541 32.1846 59.7451C25.5671 50.8118 28.4941 43.1832 22.8125 27.3867ZM54.2744 56.0332C54.2014 46.2626 49.6277 40.4213 39.0742 42.6299C39.6584 53.8507 43.1369 56.02 54.2744 56.0332Z" fill="#1A5256"/>
<path d="M114.31 62.7842C105.489 62.7908 99.0572 60.45 96.0703 55.1299L112.902 45.1221L114.31 62.7842Z" fill="#1A5256"/>
<path d="M87.2822 55.1299C83.8175 60.2261 78.5404 62.962 69.54 62.7246L71.0068 45.1875L87.2822 55.1299Z" fill="#1A5256"/>
<path fill-rule="evenodd" clip-rule="evenodd" d="M92.2666 0C100.112 8.28721 119.128 27.9935 105.156 42.5439C102.687 45.1085 95.3999 49.5192 91.2051 51.1279C87.9064 49.1897 79.9285 44.4824 78.2754 42.5703C71.6049 34.8502 72.7393 21.3548 81.7725 11.9072C84.4075 9.15143 84.1753 8.70917 86.3457 5.82812L92.2666 0ZM90.7471 18.8818C84.8464 28.2502 82.6225 31.1382 92.2666 38.8848C99.1163 31.8305 101.791 24.0506 90.7471 18.8818Z" fill="#1A5256"/>
<path d="M115.976 22.7129C117.303 18.0584 127.724 14.0629 127.564 27.0635C125.513 28.6128 123.317 31.2961 119.633 30.0566C117.184 29.2391 114.907 26.4509 115.976 22.7129Z" fill="#1A5256"/>
<path d="M59.8691 19.3506C67.7278 15.3619 70.7217 26.5366 65.2061 29.4375C62.4316 30.8945 58.0305 30.5447 56.5039 27.0703C54.2542 21.9679 57.1745 20.7218 59.8691 19.3506Z" fill="#1A5256"/>
</svg>
