<?xml version="1.0" encoding="UTF-8"?>
<!DOCTYPE svg PUBLIC "-//W3C//DTD SVG 1.1//EN" "http://www.w3.org/Graphics/SVG/1.1/DTD/svg11.dtd">
<!-- Creator: CorelDRAW X7 -->
<svg xmlns="http://www.w3.org/2000/svg" xml:space="preserve" width="102.779mm" height="62.2637mm" version="1.1" style="shape-rendering:geometricPrecision; text-rendering:geometricPrecision; image-rendering:optimizeQuality; fill-rule:evenodd; clip-rule:evenodd"
viewBox="0 0 6283 3806"
 xmlns:xlink="http://www.w3.org/1999/xlink">
 <defs>
  <style type="text/css">
   <![CDATA[
    .fil4 {fill:#F08519}
    .fil1 {fill:#D18D25}
    .fil0 {fill:#E9EAE9}
    .fil3 {fill:#1D1819;fill-rule:nonzero}
    .fil2 {fill:#113C40;fill-rule:nonzero}
   ]]>
  </style>
 </defs>
 <g id="Layer_x0020_1">
  <metadata id="CorelCorpID_0Corel-Layer"/>
  <path class="fil0" d="M1705 3007c192,-65 253,-145 640,-256 655,-187 1305,-131 1927,113 106,42 217,117 314,141 63,10 102,38 146,90l1531 -2066c18,-34 2,-2 20,-45 -187,-204 -1002,-583 -1362,-699 -1442,-463 -2923,-361 -4274,301 -162,80 -549,283 -647,398l17 33c13,23 13,25 26,43l714 975c64,91 129,170 194,266l190 269c89,123 321,385 382,538 109,-18 31,13 113,-44l69 -57z"/>
  <path class="fil1" d="M1705 3007c12,76 10,48 57,112l507 687c115,-14 243,-99 396,-125 416,-71 752,-83 1157,55 61,21 124,63 201,70 46,-46 551,-697 563,-801 -97,-24 -208,-99 -314,-141 -622,-244 -1272,-300 -1927,-113 -387,111 -448,191 -640,256z"/>
  <path class="fil2" d="M2706 727l-118 -176 115 -115 -79 0 -111 119 0 -119 -60 0 0 291 60 0 0 -99 32 -32 87 131 74 0zm91 -42c-34,0 -52,-22 -52,-66 0,-43 18,-65 52,-65 35,0 52,22 52,65 0,44 -17,66 -52,66zm0 48c67,0 110,-45 110,-114 0,-68 -42,-113 -110,-113 -68,0 -110,45 -110,113 0,67 41,114 110,114zm326 -6l0 -149c0,-47 -30,-72 -72,-72 -34,0 -56,13 -69,37l0 -31 -55 0 0 215 57 0 0 -123c0,-33 15,-50 45,-50 27,0 36,9 36,43l0 130 58 0zm209 -150c-3,-47 -31,-71 -93,-71 -66,0 -91,28 -91,64 0,19 7,36 27,48 16,10 36,16 72,25 19,4 35,9 35,25 0,16 -18,22 -38,22 -28,0 -45,-12 -45,-32l-59 0c1,44 38,75 104,75 61,0 94,-27 94,-72 0,-28 -12,-43 -35,-52 -17,-6 -40,-11 -65,-18 -23,-7 -35,-12 -35,-25 0,-12 13,-18 34,-18 26,0 37,8 40,29l55 0zm217 150l0 -215 -57 0 0 124c0,28 -15,49 -44,49 -24,0 -37,-13 -37,-40l0 -133 -56 0 0 142c0,47 30,79 73,79 29,0 52,-12 67,-36l0 30 54 0zm81 0l0 -294 -56 0 0 294 56 0zm147 -86c0,27 -11,42 -33,42 -24,0 -33,-15 -33,-43l0 -88 119 0 0 -40 -119 0 0 -59 -56 0 0 193c0,47 25,87 88,87 61,0 87,-41 87,-86l0 -62 -53 0 0 56zm207 4c-1,26 -23,47 -52,47 -18,0 -28,-8 -28,-24 0,-18 11,-28 43,-34 21,-4 31,-7 37,-12l0 23zm57 82l0 -136c0,-54 -24,-85 -92,-85 -69,0 -94,31 -95,76l53 0c3,-20 13,-32 39,-32 23,0 37,8 37,22 0,15 -8,21 -37,25 -57,7 -99,14 -99,77 0,35 23,59 72,59 29,0 52,-10 65,-25 1,6 2,14 4,19l53 0zm209 -150c-3,-47 -31,-71 -93,-71 -66,0 -91,28 -91,64 0,19 7,36 28,48 15,10 35,16 71,25 19,4 35,9 35,25 0,16 -18,22 -38,22 -28,0 -45,-12 -45,-32l-59 0c1,44 38,75 104,75 62,0 94,-27 94,-72 0,-28 -12,-43 -35,-52 -17,-6 -40,-11 -64,-18 -24,-7 -35,-12 -35,-25 0,-12 12,-18 33,-18 26,0 38,8 41,29l54 0zm81 150l0 -215 -57 0 0 215 57 0zm0 -241l0 -53 -57 0 0 53 57 0zm275 153c0,33 -14,51 -43,51 -34,0 -49,-21 -49,-45 0,-29 21,-44 56,-44l0 -41c-38,0 -54,-11 -54,-36 0,-28 14,-40 54,-40l0 -48c-65,0 -110,33 -110,82 0,28 11,49 34,61 -20,8 -35,40 -35,67 0,52 38,91 104,91 58,0 98,-39 98,-98l0 -79 -55 0 0 79zm-1987 315l-74 0 37 -116 1 0 36 116zm102 110l-102 -291 -71 0 -104 291 65 0 20 -60 108 0 18 60 66 0zm188 -150c-3,-47 -31,-71 -93,-71 -66,0 -90,27 -90,64 0,19 7,36 27,48 15,10 35,16 72,25 18,4 34,9 34,24 0,17 -18,23 -38,23 -28,0 -45,-12 -45,-32l-58 0c0,44 37,75 103,75 62,0 95,-27 95,-72 0,-28 -13,-43 -36,-52 -17,-6 -40,-11 -64,-18 -23,-7 -35,-12 -35,-25 0,-13 12,-18 33,-18 26,0 38,8 41,29l54 0zm77 21c2,-30 21,-47 44,-47 22,0 43,15 44,47l-88 0zm146 36c0,-85 -35,-128 -101,-128 -66,0 -104,43 -104,109 0,78 36,118 108,118 46,0 81,-25 94,-70l-58 0c-4,15 -20,24 -39,24 -28,0 -46,-21 -48,-53l148 0zm205 -57c-3,-47 -32,-71 -94,-71 -65,0 -90,27 -90,64 0,19 7,36 27,48 15,10 35,16 72,25 18,4 34,9 34,24 0,17 -18,23 -38,23 -28,0 -45,-12 -45,-32l-58 0c1,44 37,75 104,75 61,0 94,-27 94,-72 0,-28 -13,-43 -36,-52 -16,-6 -40,-11 -64,-18 -23,-7 -35,-12 -35,-25 0,-13 12,-18 34,-18 25,0 37,8 40,29l55 0zm330 150l0 -149c0,-41 -30,-72 -73,-72 -27,0 -47,10 -59,34 -16,-25 -30,-34 -60,-34 -28,0 -48,8 -63,37l0 -32 -53 0 0 216 57 0 0 -131c0,-28 12,-42 34,-42 25,0 35,9 35,43l0 130 57 0 0 -129c0,-26 15,-46 36,-46 20,0 34,19 34,44l0 131 55 0zm76 -129c2,-30 21,-47 44,-47 22,0 43,15 44,47l-88 0zm147 36c0,-85 -35,-128 -101,-128 -67,0 -105,43 -105,109 0,78 36,118 108,118 46,0 82,-25 95,-70l-59 0c-4,15 -20,24 -38,24 -29,0 -47,-21 -49,-53l149 0zm215 93l0 -149c0,-47 -30,-72 -72,-72 -34,0 -56,13 -69,37l0 -32 -54 0 0 216 56 0 0 -124c0,-32 15,-49 45,-49 27,0 37,9 37,42l0 131 57 0zm295 -110l-74 0 37 -116 1 0 36 116zm102 110l-102 -291 -71 0 -104 291 65 0 20 -60 108 0 18 60 66 0zm200 0l62 -216 -59 0 -32 139 -34 -139 -58 0 -30 139 -35 -139 -60 0 62 216 58 0 34 -125 34 125 58 0zm190 -82c0,25 -22,47 -52,47 -18,0 -27,-8 -27,-24 0,-19 10,-28 43,-34 21,-4 31,-7 36,-13l0 24zm57 82l0 -136c0,-55 -23,-85 -92,-85 -69,0 -93,31 -94,75l53 0c2,-19 13,-31 39,-31 22,0 36,8 36,22 0,15 -8,20 -36,24 -58,8 -99,15 -99,77 0,36 23,60 72,60 29,0 51,-10 65,-25 0,6 2,14 3,19l53 0zm82 0l0 -294 -57 0 0 294 57 0z"/>
  <g id="_506921296">
   <path class="fil3" d="M971 1383l21 -3c0,13 3,22 7,27 4,5 10,7 18,7 5,0 10,-1 14,-3 4,-3 7,-7 9,-11 1,-4 2,-12 2,-21l0 -117 23 0 0 115c0,15 -2,26 -5,33 -4,8 -9,14 -17,18 -7,4 -16,6 -26,6 -15,0 -26,-4 -34,-13 -8,-8 -12,-21 -12,-38zm131 48l0 -169 23 0 0 70 88 0 0 -70 22 0 0 169 -22 0 0 -79 -88 0 0 79 -23 0zm292 -59l22 6c-4,18 -13,32 -25,42 -12,9 -27,14 -45,14 -18,0 -33,-3 -45,-11 -11,-7 -20,-18 -26,-32 -6,-14 -9,-29 -9,-46 0,-17 4,-33 11,-46 6,-13 16,-23 28,-30 13,-7 26,-10 41,-10 17,0 32,4 43,13 12,8 20,21 24,36l-22 5c-4,-12 -9,-21 -17,-27 -7,-5 -17,-8 -28,-8 -13,0 -24,3 -33,9 -8,7 -15,15 -18,26 -4,10 -5,21 -5,32 0,15 2,27 6,38 4,11 11,19 19,24 9,5 19,8 29,8 13,0 23,-4 32,-11 9,-7 15,-18 18,-32zm113 59l0 -123 19 0 0 18c4,-6 9,-11 16,-15 6,-3 13,-5 21,-5 9,0 17,2 23,5 6,4 10,9 12,16 10,-14 23,-21 38,-21 12,0 22,3 28,10 7,7 10,17 10,31l0 84 -20 0 0 -77c0,-8 -1,-14 -3,-18 -1,-4 -3,-7 -7,-9 -3,-2 -8,-3 -12,-3 -9,0 -16,3 -22,8 -6,6 -9,15 -9,28l0 71 -21 0 0 -79c0,-10 -1,-17 -5,-21 -3,-5 -9,-7 -16,-7 -6,0 -12,1 -17,4 -5,4 -8,8 -10,14 -3,6 -4,14 -4,26l0 63 -21 0zm282 -39l22 2c-4,13 -10,23 -19,30 -9,7 -21,10 -35,10 -18,0 -33,-5 -43,-16 -11,-12 -16,-27 -16,-47 0,-21 5,-37 16,-48 11,-12 25,-17 41,-17 17,0 30,5 41,17 10,11 15,26 15,47 0,1 0,3 0,5l-92 0c1,14 5,24 12,31 7,7 15,11 26,11 7,0 14,-2 19,-6 6,-4 10,-11 13,-19zm-68 -34l68 0c-1,-10 -3,-18 -8,-23 -6,-8 -15,-12 -25,-12 -10,0 -18,3 -25,9 -6,7 -10,15 -10,26zm115 73l0 -169 21 0 0 169 -21 0zm134 -15c-8,7 -15,11 -22,14 -7,3 -15,4 -23,4 -14,0 -24,-3 -32,-10 -7,-6 -10,-15 -10,-25 0,-6 1,-12 4,-16 2,-5 6,-9 10,-12 5,-3 10,-6 15,-7 5,-1 11,-2 19,-3 17,-2 29,-5 37,-8 0,-2 0,-4 0,-5 0,-8 -2,-14 -6,-18 -5,-5 -13,-7 -23,-7 -10,0 -17,2 -22,5 -5,4 -8,10 -10,19l-21 -3c2,-9 5,-16 9,-21 5,-6 11,-10 19,-13 8,-3 17,-4 28,-4 10,0 19,1 25,3 7,3 12,6 15,10 3,4 5,8 7,14 0,4 1,10 1,19l0 28c0,19 0,31 1,37 1,5 2,10 5,14l-22 0c-2,-4 -3,-9 -4,-15zm-2 -46c-7,3 -19,6 -34,8 -8,1 -14,2 -18,4 -4,1 -6,4 -8,7 -2,2 -3,6 -3,9 0,6 2,11 6,14 4,4 11,6 19,6 8,0 15,-2 21,-6 6,-3 11,-8 14,-14 2,-5 3,-11 3,-21l0 -7zm54 61l0 -169 21 0 0 96 49 -50 27 0 -47 46 52 77 -26 0 -41 -62 -14 14 0 48 -21 0zm199 0l0 -18c-10,14 -23,21 -39,21 -8,0 -14,-1 -21,-4 -6,-3 -11,-6 -14,-11 -3,-4 -5,-9 -6,-15 -1,-4 -1,-11 -1,-19l0 -77 21 0 0 68c0,11 0,19 1,22 1,6 4,10 8,13 4,3 10,5 16,5 6,0 12,-2 17,-5 6,-3 10,-7 12,-13 2,-5 4,-13 4,-24l0 -66 20 0 0 123 -18 0zm51 0l0 -169 21 0 0 96 49 -50 27 0 -47 46 52 77 -26 0 -40 -62 -15 14 0 48 -21 0zm199 -15c-8,7 -15,11 -22,14 -7,3 -15,4 -23,4 -14,0 -24,-3 -31,-10 -8,-6 -11,-15 -11,-25 0,-6 1,-12 4,-16 3,-5 6,-9 11,-12 4,-3 9,-6 15,-7 4,-1 10,-2 18,-3 17,-2 29,-5 37,-8 0,-2 1,-4 1,-5 0,-8 -2,-14 -6,-18 -6,-5 -14,-7 -24,-7 -10,0 -17,2 -22,5 -5,4 -8,10 -10,19l-21 -3c2,-9 5,-16 9,-21 5,-6 11,-10 19,-13 8,-3 17,-4 28,-4 10,0 19,1 26,3 6,3 11,6 14,10 3,4 5,8 7,14 0,4 1,10 1,19l0 28c0,19 0,31 1,37 1,5 3,10 5,14l-22 0c-2,-4 -3,-9 -4,-15zm-1 -46c-8,3 -19,6 -35,8 -8,1 -14,2 -18,4 -3,1 -6,4 -8,7 -2,2 -3,6 -3,9 0,6 2,11 6,14 5,4 11,6 19,6 8,0 15,-2 21,-6 7,-3 11,-8 14,-14 2,-5 3,-11 3,-21l1 -7zm53 61l0 -123 18 0 0 18c9,-14 23,-20 40,-20 7,0 14,1 20,4 6,2 11,6 14,10 3,5 5,10 6,16 1,3 2,10 2,20l0 75 -21 0 0 -74c0,-9 -1,-15 -3,-19 -1,-5 -4,-8 -8,-10 -4,-3 -9,-4 -15,-4 -9,0 -16,3 -23,8 -6,6 -9,17 -9,32l0 67 -21 0zm198 48l0 -171 19 0 0 17c4,-7 9,-11 15,-15 5,-3 12,-4 20,-4 11,0 20,2 28,8 8,5 14,13 18,23 4,10 6,20 6,32 0,13 -2,24 -6,34 -5,10 -12,18 -20,23 -9,5 -18,8 -27,8 -7,0 -13,-1 -19,-4 -5,-3 -10,-7 -14,-11l0 60 -20 0zm19 -108c0,15 3,27 9,35 7,7 14,11 23,11 10,0 18,-4 24,-12 7,-8 10,-20 10,-36 0,-16 -3,-27 -10,-35 -6,-8 -14,-12 -23,-12 -9,0 -16,4 -23,13 -7,8 -10,20 -10,36zm196 21l22 2c-3,13 -10,23 -19,30 -9,7 -21,10 -35,10 -18,0 -32,-5 -43,-16 -10,-12 -15,-27 -15,-47 0,-21 5,-37 16,-48 10,-12 24,-17 41,-17 16,0 30,5 40,17 11,11 16,26 16,47 0,1 0,3 0,5l-92 0c1,14 5,24 11,31 7,7 16,11 26,11 8,0 14,-2 20,-6 5,-4 9,-11 12,-19zm-68 -34l69 0c-1,-10 -4,-18 -8,-23 -7,-8 -15,-12 -26,-12 -9,0 -18,3 -24,9 -7,7 -10,15 -11,26zm116 73l0 -123 19 0 0 18c4,-6 9,-11 16,-15 6,-3 13,-5 21,-5 10,0 17,2 23,5 6,4 10,9 12,16 10,-14 23,-21 38,-21 13,0 22,3 29,10 6,7 9,17 9,31l0 84 -20 0 0 -77c0,-8 -1,-14 -2,-18 -2,-4 -4,-7 -8,-9 -3,-2 -8,-3 -12,-3 -9,0 -16,3 -22,8 -6,6 -9,15 -9,28l0 71 -20 0 0 -79c0,-10 -2,-17 -6,-21 -3,-5 -9,-7 -16,-7 -6,0 -12,1 -17,4 -5,4 -8,8 -10,14 -3,6 -4,14 -4,26l0 63 -21 0zm282 -39l22 2c-4,13 -10,23 -19,30 -9,7 -21,10 -35,10 -18,0 -33,-5 -43,-16 -11,-12 -16,-27 -16,-47 0,-21 5,-37 16,-48 11,-12 25,-17 42,-17 16,0 29,5 40,17 10,11 15,26 15,47 0,1 0,3 0,5l-91 0c0,14 4,24 11,31 7,7 15,11 26,11 7,0 14,-2 19,-6 6,-4 10,-11 13,-19zm-68 -34l68 0c-1,-10 -3,-18 -8,-23 -6,-8 -15,-12 -25,-12 -10,0 -18,3 -24,9 -7,7 -11,15 -11,26zm161 55l3 18c-6,2 -11,2 -16,2 -7,0 -13,-1 -17,-3 -4,-3 -7,-6 -9,-10 -2,-4 -2,-12 -2,-25l0 -70 -16 0 0 -17 16 0 0 -30 20 -13 0 43 21 0 0 17 -21 0 0 72c0,6 1,9 2,11 0,2 1,3 3,4 2,1 4,2 7,2 3,0 6,-1 9,-1zm101 3c-7,7 -15,11 -22,14 -7,3 -15,4 -23,4 -14,0 -24,-3 -31,-10 -8,-6 -11,-15 -11,-25 0,-6 1,-12 4,-16 3,-5 6,-9 11,-12 4,-3 9,-6 15,-7 4,-1 10,-2 18,-3 17,-2 30,-5 38,-8 0,-2 0,-4 0,-5 0,-8 -2,-14 -6,-18 -6,-5 -14,-7 -24,-7 -10,0 -17,2 -22,5 -5,4 -8,10 -10,19l-21 -3c2,-9 5,-16 10,-21 4,-6 10,-10 18,-13 8,-3 17,-4 28,-4 11,0 19,1 26,3 6,3 11,6 14,10 3,4 5,8 7,14 0,4 1,10 1,19l0 28c0,19 0,31 1,37 1,5 3,10 5,14l-22 0c-2,-4 -3,-9 -4,-15zm-1 -46c-8,3 -19,6 -34,8 -9,1 -15,2 -19,4 -3,1 -6,4 -8,7 -2,2 -3,6 -3,9 0,6 2,11 6,14 5,4 11,6 19,6 8,0 15,-2 21,-6 7,-3 11,-8 14,-14 2,-5 4,-11 4,-21l0 -7zm133 46c-7,7 -15,11 -22,14 -7,3 -15,4 -23,4 -14,0 -24,-3 -31,-10 -8,-6 -11,-15 -11,-25 0,-6 1,-12 4,-16 3,-5 6,-9 11,-12 4,-3 9,-6 15,-7 4,-1 10,-2 18,-3 17,-2 30,-5 37,-8 1,-2 1,-4 1,-5 0,-8 -2,-14 -6,-18 -6,-5 -14,-7 -24,-7 -10,0 -17,2 -22,5 -5,4 -8,10 -10,19l-21 -3c2,-9 5,-16 9,-21 5,-6 11,-10 19,-13 8,-3 17,-4 28,-4 10,0 19,1 26,3 6,3 11,6 14,10 3,4 5,8 7,14 0,4 1,10 1,19l0 28c0,19 0,31 1,37 1,5 3,10 5,14l-22 0c-2,-4 -3,-9 -4,-15zm-1 -46c-8,3 -19,6 -35,8 -8,1 -14,2 -18,4 -3,1 -6,4 -8,7 -2,2 -3,6 -3,9 0,6 2,11 6,14 5,4 11,6 19,6 8,0 15,-2 21,-6 7,-3 11,-8 14,-14 2,-5 3,-11 3,-21l1 -7zm53 61l0 -123 19 0 0 18c9,-14 22,-20 39,-20 7,0 14,1 20,4 6,2 11,6 14,10 3,5 5,10 7,16 0,3 1,10 1,20l0 75 -21 0 0 -74c0,-9 -1,-15 -3,-19 -1,-5 -4,-8 -8,-10 -4,-3 -9,-4 -15,-4 -9,0 -16,3 -23,8 -6,6 -9,17 -9,32l0 67 -21 0zm278 -15c-8,7 -15,11 -22,14 -7,3 -15,4 -23,4 -14,0 -24,-3 -32,-10 -7,-6 -10,-15 -10,-25 0,-6 1,-12 4,-16 2,-5 6,-9 10,-12 5,-3 10,-6 15,-7 5,-1 11,-2 19,-3 17,-2 29,-5 37,-8 0,-2 0,-4 0,-5 0,-8 -2,-14 -6,-18 -5,-5 -13,-7 -23,-7 -10,0 -17,2 -22,5 -5,4 -8,10 -11,19l-20 -3c2,-9 5,-16 9,-21 5,-6 11,-10 19,-13 8,-3 17,-4 28,-4 10,0 19,1 25,3 7,3 12,6 15,10 3,4 5,8 6,14 1,4 2,10 2,19l0 28c0,19 0,31 1,37 1,5 2,10 5,14l-22 0c-2,-4 -3,-9 -4,-15zm-2 -46c-7,3 -19,6 -34,8 -8,1 -14,2 -18,4 -4,1 -6,4 -8,7 -2,2 -3,6 -3,9 0,6 2,11 6,14 4,4 11,6 19,6 8,0 15,-2 21,-6 6,-3 11,-8 14,-14 2,-5 3,-11 3,-21l0 -7zm76 61l-37 -123 21 0 20 71 7 27c0,-1 2,-10 6,-26l20 -72 21 0 19 72 6 23 7 -23 21 -72 20 0 -38 123 -22 0 -19 -73 -5 -21 -25 94 -22 0zm229 -15c-7,7 -15,11 -22,14 -7,3 -15,4 -23,4 -14,0 -24,-3 -31,-10 -8,-6 -11,-15 -11,-25 0,-6 1,-12 4,-16 3,-5 6,-9 11,-12 4,-3 9,-6 15,-7 4,-1 10,-2 18,-3 17,-2 30,-5 38,-8 0,-2 0,-4 0,-5 0,-8 -2,-14 -6,-18 -6,-5 -14,-7 -24,-7 -10,0 -17,2 -22,5 -5,4 -8,10 -10,19l-21 -3c2,-9 5,-16 10,-21 4,-6 10,-10 18,-13 8,-3 17,-4 28,-4 11,0 19,1 26,3 6,3 11,6 14,10 3,4 5,8 7,14 0,4 1,10 1,19l0 28c0,19 0,31 1,37 1,5 3,10 5,14l-22 0c-2,-4 -3,-9 -4,-15zm-1 -46c-8,3 -19,6 -35,8 -8,1 -14,2 -18,4 -3,1 -6,4 -8,7 -2,2 -3,6 -3,9 0,6 2,11 6,14 5,4 11,6 19,6 8,0 15,-2 21,-6 7,-3 11,-8 14,-14 2,-5 4,-11 4,-21l0 -7zm52 61l0 -169 21 0 0 169 -21 0zm120 0l0 -169 20 0 0 96 50 -50 27 0 -47 46 51 77 -25 0 -41 -62 -15 14 0 48 -20 0zm202 -39l22 2c-4,13 -10,23 -19,30 -9,7 -21,10 -35,10 -18,0 -33,-5 -43,-16 -11,-12 -16,-27 -16,-47 0,-21 5,-37 16,-48 11,-12 25,-17 42,-17 16,0 29,5 40,17 10,11 15,26 15,47 0,1 0,3 0,5l-91 0c0,14 4,24 11,31 7,7 15,11 26,11 7,0 14,-2 19,-6 6,-4 10,-11 13,-19zm-68 -34l68 0c-1,-10 -3,-18 -8,-23 -6,-8 -15,-12 -25,-12 -10,0 -18,3 -24,9 -7,7 -11,15 -11,26zm108 37l20 -4c1,9 5,15 10,19 5,5 13,7 22,7 10,0 17,-2 22,-6 4,-4 7,-8 7,-14 0,-4 -2,-8 -7,-11 -3,-2 -10,-4 -21,-7 -15,-4 -26,-7 -32,-10 -6,-3 -10,-6 -13,-11 -3,-5 -5,-11 -5,-17 0,-5 2,-10 4,-15 3,-5 6,-9 10,-12 3,-2 8,-4 13,-6 6,-1 12,-2 18,-2 10,0 19,1 26,4 7,3 13,7 16,11 3,5 6,11 7,19l-20 3c-1,-6 -4,-11 -8,-15 -5,-3 -11,-5 -19,-5 -10,0 -16,1 -20,5 -5,3 -7,6 -7,11 0,2 1,5 3,7 2,2 4,4 8,6 2,0 8,2 18,5 15,4 25,7 31,10 6,2 11,6 14,10 3,5 5,11 5,18 0,7 -2,14 -6,20 -4,6 -10,11 -18,14 -7,3 -16,5 -26,5 -16,0 -28,-3 -36,-10 -9,-6 -14,-16 -16,-29zm127 -110l0 -23 20 0 0 23 -20 0zm0 146l0 -123 20 0 0 123 -20 0zm133 -15c-8,7 -15,11 -23,14 -7,3 -14,4 -23,4 -13,0 -24,-3 -31,-10 -7,-6 -11,-15 -11,-25 0,-6 2,-12 4,-16 3,-5 7,-9 11,-12 5,-3 10,-6 15,-7 4,-1 10,-2 19,-3 17,-2 29,-5 37,-8 0,-2 0,-4 0,-5 0,-8 -2,-14 -6,-18 -5,-5 -13,-7 -24,-7 -9,0 -17,2 -21,5 -5,4 -9,10 -11,19l-20 -3c2,-9 5,-16 9,-21 4,-6 10,-10 18,-13 8,-3 18,-4 28,-4 11,0 20,1 26,3 7,3 12,6 15,10 3,4 5,8 6,14 1,4 1,10 1,19l0 28c0,19 1,31 1,37 1,5 3,10 6,14l-22 0c-2,-4 -4,-9 -4,-15zm-2 -46c-8,3 -19,6 -34,8 -9,1 -15,2 -18,4 -4,1 -7,4 -9,7 -2,2 -2,6 -2,9 0,6 2,11 6,14 4,4 10,6 18,6 8,0 16,-2 22,-6 6,-3 11,-8 14,-14 2,-5 3,-11 3,-21l0 -7zm53 109l0 -171 19 0 0 17c5,-7 10,-11 15,-15 6,-3 13,-4 21,-4 10,0 20,2 28,8 8,5 14,13 18,23 4,10 6,20 6,32 0,13 -2,24 -7,34 -4,10 -11,18 -19,23 -9,5 -18,8 -28,8 -7,0 -13,-1 -18,-4 -6,-3 -10,-7 -14,-11l0 60 -21 0zm19 -108c0,15 3,27 10,35 6,7 14,11 23,11 9,0 17,-4 24,-12 6,-8 10,-20 10,-36 0,-16 -4,-27 -10,-35 -6,-8 -14,-12 -23,-12 -9,0 -17,4 -24,13 -6,8 -10,20 -10,36z"/>
   <path class="fil3" d="M5162 1416c-8,7 -16,11 -23,14 -7,3 -15,4 -23,4 -13,0 -24,-3 -31,-10 -7,-6 -11,-15 -11,-25 0,-6 1,-12 4,-16 3,-5 7,-9 11,-12 4,-3 9,-6 15,-7 4,-1 10,-2 19,-3 16,-2 29,-5 37,-8 0,-2 0,-4 0,-5 0,-8 -2,-14 -6,-18 -5,-5 -13,-7 -24,-7 -10,0 -17,2 -22,5 -4,4 -8,10 -10,19l-20 -3c2,-9 5,-16 9,-21 4,-6 10,-10 18,-13 8,-3 18,-4 28,-4 11,0 19,1 26,3 7,3 11,6 15,10 3,4 5,8 6,14 1,4 1,10 1,19l0 28c0,19 1,31 1,37 1,5 3,10 5,14l-21 0c-2,-4 -4,-9 -4,-15zm-2 -46c-8,3 -19,6 -34,8 -9,1 -15,2 -18,4 -4,1 -7,4 -9,7 -2,2 -3,6 -3,9 0,6 2,11 7,14 4,4 10,6 18,6 8,0 15,-2 22,-6 6,-3 11,-8 13,-14 3,-5 4,-11 4,-21l0 -7zm53 61l0 -123 19 0 0 18c9,-14 22,-20 39,-20 7,0 14,1 20,4 7,2 11,6 14,10 3,5 6,10 7,16 1,3 1,10 1,20l0 75 -21 0 0 -74c0,-9 -1,-15 -2,-19 -2,-5 -5,-8 -9,-10 -4,-3 -9,-4 -14,-4 -9,0 -17,3 -23,8 -7,6 -10,17 -10,32l0 67 -21 0zm-3684 266l0 -19c-10,14 -23,21 -39,21 -8,0 -14,-1 -21,-4 -6,-3 -11,-6 -14,-11 -3,-4 -5,-9 -6,-15 -1,-4 -1,-11 -1,-19l0 -77 21 0 0 69c0,10 0,18 1,22 1,5 4,9 8,12 4,4 10,5 16,5 6,0 12,-1 17,-5 6,-3 10,-7 12,-13 2,-5 4,-13 4,-24l0 -66 20 0 0 124 -18 0zm43 -37l20 -4c2,9 5,15 10,19 5,5 13,7 22,7 10,0 17,-2 22,-6 4,-4 7,-8 7,-14 0,-4 -2,-8 -6,-11 -3,-1 -11,-4 -22,-7 -15,-4 -26,-7 -32,-10 -5,-3 -10,-6 -13,-11 -3,-5 -5,-11 -5,-17 0,-5 2,-10 4,-15 3,-5 6,-9 10,-12 4,-2 8,-4 14,-6 5,-1 11,-2 18,-2 9,0 18,1 25,4 7,3 13,7 16,11 4,5 6,11 7,19l-20 3c-1,-6 -4,-11 -8,-15 -5,-3 -11,-5 -19,-5 -9,0 -16,1 -20,5 -4,3 -6,6 -6,11 0,2 0,5 2,7 2,2 4,4 8,6 2,0 8,2 18,5 15,4 25,7 31,10 6,2 11,6 14,10 3,5 5,11 5,18 0,7 -2,14 -6,20 -4,6 -10,11 -18,14 -7,3 -16,5 -26,5 -15,0 -28,-3 -36,-10 -8,-6 -14,-16 -16,-29zm207 21c-8,7 -15,11 -22,14 -7,3 -15,4 -23,4 -14,0 -24,-3 -31,-10 -8,-6 -11,-15 -11,-25 0,-6 1,-11 4,-16 3,-5 6,-9 11,-12 4,-3 9,-6 15,-7 4,-1 10,-2 18,-3 17,-2 29,-5 37,-8 0,-2 1,-4 1,-5 0,-8 -2,-14 -6,-18 -6,-5 -14,-7 -24,-7 -10,0 -17,2 -22,5 -5,4 -8,10 -10,19l-21 -3c2,-9 5,-16 9,-21 5,-6 11,-10 19,-13 8,-3 17,-4 28,-4 10,0 19,1 26,3 6,3 11,6 14,10 3,4 5,8 7,14 0,4 1,10 1,19l0 28c0,19 0,31 1,37 1,5 3,10 5,15l-22 0c-2,-5 -3,-10 -4,-16zm-1 -46c-8,3 -19,6 -35,8 -8,1 -14,2 -18,4 -3,1 -6,4 -8,7 -2,3 -3,6 -3,9 0,6 2,11 6,14 5,4 11,6 19,6 8,0 15,-2 21,-6 7,-3 11,-8 14,-14 2,-5 3,-11 3,-21l1 -7zm53 62l0 -170 21 0 0 61c9,-12 21,-17 36,-17 9,0 17,2 24,5 7,4 11,9 14,15 3,6 5,16 5,28l0 78 -21 0 0 -78c0,-11 -3,-18 -7,-23 -5,-5 -11,-7 -19,-7 -6,0 -12,1 -17,5 -6,3 -10,7 -12,13 -2,5 -3,13 -3,22l0 68 -21 0zm212 -16c-8,7 -15,11 -22,14 -7,3 -15,4 -23,4 -14,0 -24,-3 -32,-10 -7,-6 -10,-15 -10,-25 0,-6 1,-11 4,-16 2,-5 6,-9 10,-12 5,-3 10,-6 15,-7 5,-1 11,-2 19,-3 17,-2 29,-5 37,-8 0,-2 0,-4 0,-5 0,-8 -2,-14 -6,-18 -5,-5 -13,-7 -23,-7 -10,0 -17,2 -22,5 -5,4 -8,10 -11,19l-20 -3c2,-9 5,-16 9,-21 5,-6 11,-10 19,-13 8,-3 17,-4 28,-4 10,0 19,1 25,3 7,3 12,6 15,10 3,4 5,8 6,14 1,4 2,10 2,19l0 28c0,19 0,31 1,37 1,5 2,10 5,15l-22 0c-2,-5 -3,-10 -4,-16zm-2 -46c-7,3 -19,6 -34,8 -8,1 -14,2 -18,4 -4,1 -6,4 -8,7 -2,3 -3,6 -3,9 0,6 2,11 6,14 4,4 11,6 19,6 8,0 15,-2 21,-6 6,-3 11,-8 14,-14 2,-5 3,-11 3,-21l0 -7zm200 62l0 -19c-10,14 -23,21 -39,21 -7,0 -14,-1 -20,-4 -7,-3 -11,-6 -14,-11 -3,-4 -5,-9 -7,-15 -1,-4 -1,-11 -1,-19l0 -77 21 0 0 69c0,10 0,18 1,22 1,5 4,9 9,12 4,4 9,5 15,5 6,0 12,-1 18,-5 5,-3 9,-7 11,-13 3,-5 4,-13 4,-24l0 -66 21 0 0 124 -19 0zm51 0l0 -124 19 0 0 18c9,-14 22,-20 39,-20 8,0 15,1 21,4 6,2 11,6 14,10 3,5 5,10 6,16 1,4 1,10 1,20l0 76 -21 0 0 -75c0,-9 0,-15 -2,-19 -2,-5 -4,-8 -9,-10 -4,-3 -9,-4 -14,-4 -9,0 -17,3 -23,8 -6,6 -10,17 -10,32l0 68 -21 0zm178 -19l3 18c-6,2 -12,2 -16,2 -8,0 -14,-1 -18,-3 -4,-3 -7,-6 -9,-10 -1,-4 -2,-12 -2,-25l0 -70 -15 0 0 -17 15 0 0 -30 21 -13 0 43 21 0 0 17 -21 0 0 72c0,6 0,9 1,11 1,2 2,3 3,4 2,1 5,2 8,2 2,0 5,-1 9,-1zm101 19l0 -19c-10,14 -23,21 -39,21 -7,0 -14,-1 -21,-4 -6,-3 -10,-6 -14,-11 -3,-4 -5,-9 -6,-15 -1,-4 -1,-11 -1,-19l0 -77 21 0 0 69c0,10 0,18 1,22 1,5 4,9 8,12 5,4 10,5 16,5 6,0 12,-1 18,-5 5,-3 9,-7 11,-13 2,-5 4,-13 4,-24l0 -66 20 0 0 124 -18 0zm51 0l0 -170 21 0 0 96 50 -50 26 0 -46 46 51 78 -25 0 -41 -63 -15 14 0 49 -21 0zm185 0l0 -124 18 0 0 18c4,-6 9,-11 16,-15 6,-3 14,-5 22,-5 9,0 16,2 22,5 6,4 10,9 12,16 10,-14 23,-21 39,-21 12,0 21,3 28,10 6,7 10,17 10,31l0 85 -21 0 0 -78c0,-8 -1,-14 -2,-18 -2,-4 -4,-7 -8,-9 -3,-2 -7,-3 -12,-3 -9,0 -16,3 -22,8 -5,6 -8,15 -8,28l0 72 -21 0 0 -80c0,-10 -2,-17 -5,-21 -4,-5 -9,-7 -17,-7 -6,0 -11,1 -16,4 -5,4 -9,8 -11,14 -2,6 -3,15 -3,26l0 64 -21 0zm281 -40l22 3c-3,12 -10,22 -19,29 -9,7 -21,10 -35,10 -18,0 -32,-5 -43,-16 -10,-12 -16,-27 -16,-47 0,-21 6,-37 16,-48 11,-12 25,-17 42,-17 16,0 30,5 40,17 10,11 16,26 16,47 0,1 0,3 0,5l-92 0c1,14 4,24 11,31 7,7 16,11 26,11 8,0 14,-2 19,-6 6,-4 10,-10 13,-19zm-68 -34l69 0c-1,-10 -4,-18 -8,-23 -7,-8 -16,-12 -26,-12 -10,0 -18,3 -24,9 -7,7 -10,15 -11,26zm116 74l0 -124 19 0 0 18c9,-14 22,-20 39,-20 8,0 14,1 21,4 6,2 10,6 14,10 3,5 5,10 6,16 1,4 1,10 1,20l0 76 -21 0 0 -75c0,-9 0,-15 -2,-19 -2,-5 -5,-8 -9,-10 -4,-3 -9,-4 -14,-4 -9,0 -17,3 -23,8 -7,6 -10,17 -10,32l0 68 -21 0zm216 -40l22 3c-4,12 -10,22 -19,29 -9,7 -21,10 -35,10 -18,0 -32,-5 -43,-16 -10,-12 -16,-27 -16,-47 0,-21 6,-37 16,-48 11,-12 25,-17 42,-17 16,0 30,5 40,17 10,11 16,26 16,47 0,1 -1,3 -1,5l-91 0c1,14 4,24 11,31 7,7 16,11 26,11 7,0 14,-2 19,-6 6,-4 10,-10 13,-19zm-68 -34l68 0c0,-10 -3,-18 -7,-23 -7,-8 -16,-12 -26,-12 -10,0 -18,3 -24,9 -7,7 -10,15 -11,26zm116 74l0 -124 19 0 0 18c9,-14 22,-20 39,-20 7,0 14,1 20,4 7,2 11,6 14,10 4,5 6,10 7,16 1,4 1,10 1,20l0 76 -21 0 0 -75c0,-9 -1,-15 -2,-19 -2,-5 -5,-8 -9,-10 -4,-3 -9,-4 -14,-4 -9,0 -17,3 -23,8 -7,6 -10,17 -10,32l0 68 -21 0zm177 -19l3 18c-6,2 -11,2 -15,2 -8,0 -14,-1 -18,-3 -4,-3 -7,-6 -9,-10 -1,-4 -2,-12 -2,-25l0 -70 -16 0 0 -17 16 0 0 -30 21 -13 0 43 20 0 0 17 -20 0 0 72c0,6 0,9 1,11 0,2 2,3 3,4 2,1 4,2 7,2 3,0 6,-1 9,-1zm101 19l0 -19c-9,14 -22,21 -38,21 -8,0 -14,-1 -21,-4 -6,-3 -11,-6 -14,-11 -3,-4 -5,-9 -6,-15 -1,-4 -1,-11 -1,-19l0 -77 20 0 0 69c0,10 1,18 2,22 1,5 4,9 8,12 4,4 9,5 16,5 6,0 12,-1 17,-5 6,-3 10,-7 12,-13 2,-5 3,-13 3,-24l0 -66 21 0 0 124 -19 0zm52 0l0 -170 21 0 0 96 49 -50 27 0 -47 46 52 78 -26 0 -41 -63 -14 14 0 49 -21 0zm199 -16c-8,7 -15,11 -22,14 -8,3 -15,4 -23,4 -14,0 -24,-3 -32,-10 -7,-6 -11,-15 -11,-25 0,-6 2,-11 5,-16 2,-5 6,-9 10,-12 5,-3 10,-6 15,-7 5,-1 11,-2 19,-3 17,-2 29,-5 37,-8 0,-2 0,-4 0,-5 0,-8 -2,-14 -6,-18 -5,-5 -13,-7 -23,-7 -10,0 -18,2 -22,5 -5,4 -8,10 -11,19l-20 -3c2,-9 5,-16 9,-21 4,-6 11,-10 19,-13 8,-3 17,-4 28,-4 10,0 19,1 25,3 7,3 12,6 15,10 3,4 5,8 6,14 1,4 1,10 1,19l0 28c0,19 1,31 2,37 1,5 2,10 5,15l-22 0c-2,-5 -3,-10 -4,-16zm-2 -46c-7,3 -19,6 -34,8 -8,1 -15,2 -18,4 -4,1 -6,4 -8,7 -2,3 -3,6 -3,9 0,6 2,11 6,14 4,4 10,6 19,6 8,0 15,-2 21,-6 6,-3 11,-8 14,-14 2,-5 3,-11 3,-21l0 -7zm54 62l0 -124 18 0 0 18c9,-14 22,-20 39,-20 8,0 15,1 21,4 6,2 11,6 14,10 3,5 5,10 6,16 1,4 1,10 1,20l0 76 -20 0 0 -75c0,-9 -1,-15 -3,-19 -2,-5 -4,-8 -9,-10 -4,-3 -8,-4 -14,-4 -9,0 -17,3 -23,8 -6,6 -10,17 -10,32l0 68 -20 0zm189 -37l21 -4c1,9 4,15 9,19 6,5 13,7 23,7 9,0 16,-2 21,-6 5,-4 7,-8 7,-14 0,-4 -2,-8 -6,-11 -3,-1 -10,-4 -22,-7 -15,-4 -25,-7 -31,-10 -6,-3 -11,-6 -14,-11 -3,-5 -4,-11 -4,-17 0,-5 1,-10 3,-15 3,-5 6,-9 11,-12 3,-2 7,-4 13,-6 5,-1 11,-2 18,-2 10,0 18,1 25,4 8,3 13,7 16,11 4,5 6,11 8,19l-21 3c-1,-6 -3,-11 -8,-15 -4,-3 -11,-5 -19,-5 -9,0 -16,1 -20,5 -4,3 -6,6 -6,11 0,2 1,5 2,7 2,2 5,4 8,6 2,0 9,2 19,5 14,4 25,7 31,10 5,2 10,6 13,10 4,5 5,11 5,18 0,7 -2,14 -6,20 -4,6 -10,11 -17,14 -8,3 -17,5 -26,5 -16,0 -28,-3 -37,-10 -8,-6 -14,-16 -16,-29zm127 37l0 -170 21 0 0 96 49 -50 27 0 -47 46 52 78 -26 0 -41 -63 -14 14 0 49 -21 0zm203 -40l21 3c-3,12 -9,22 -19,29 -9,7 -21,10 -35,10 -18,0 -32,-5 -42,-16 -11,-12 -16,-27 -16,-47 0,-21 5,-37 16,-48 10,-12 24,-17 41,-17 16,0 30,5 40,17 11,11 16,26 16,47 0,1 0,3 0,5l-92 0c1,14 5,24 12,31 6,7 15,11 25,11 8,0 14,-2 20,-6 5,-4 9,-10 13,-19zm-69 -34l69 0c-1,-10 -4,-18 -8,-23 -7,-8 -15,-12 -26,-12 -9,0 -17,3 -24,9 -6,7 -10,15 -11,26zm117 74l0 -124 18 0 0 18c4,-6 9,-11 16,-15 6,-3 13,-5 22,-5 9,0 16,2 22,5 6,4 10,9 12,16 10,-14 23,-21 38,-21 13,0 22,3 29,10 6,7 10,17 10,31l0 85 -21 0 0 -78c0,-8 -1,-14 -2,-18 -2,-4 -4,-7 -8,-9 -3,-2 -8,-3 -12,-3 -9,0 -16,3 -22,8 -6,6 -9,15 -9,28l0 72 -20 0 0 -80c0,-10 -2,-17 -5,-21 -4,-5 -9,-7 -17,-7 -6,0 -11,1 -16,4 -5,4 -9,8 -11,14 -2,6 -4,15 -4,26l0 64 -20 0zm278 -16c-8,7 -16,11 -23,14 -7,3 -15,4 -23,4 -13,0 -24,-3 -31,-10 -7,-6 -11,-15 -11,-25 0,-6 1,-11 4,-16 3,-5 7,-9 11,-12 4,-3 9,-6 15,-7 4,-1 10,-2 19,-3 16,-2 29,-5 37,-8 0,-2 0,-4 0,-5 0,-8 -2,-14 -6,-18 -5,-5 -13,-7 -24,-7 -10,0 -17,2 -22,5 -4,4 -8,10 -10,19l-20 -3c1,-9 5,-16 9,-21 4,-6 10,-10 18,-13 8,-3 18,-4 28,-4 11,0 19,1 26,3 7,3 11,6 14,10 4,4 6,8 7,14 1,4 1,10 1,19l0 28c0,19 0,31 1,37 1,5 3,10 5,15l-21 0c-2,-5 -4,-10 -4,-16zm-2 -46c-8,3 -19,6 -34,8 -9,1 -15,2 -19,4 -3,1 -6,4 -8,7 -2,3 -3,6 -3,9 0,6 2,11 7,14 4,4 10,6 18,6 8,0 15,-2 22,-6 6,-3 11,-8 13,-14 3,-5 4,-11 4,-21l0 -7zm-3384 290l21 -4c1,9 4,15 9,19 6,5 13,7 23,7 9,0 16,-2 21,-6 5,-4 7,-8 7,-14 0,-4 -2,-8 -6,-11 -3,-1 -10,-4 -22,-7 -15,-4 -26,-7 -31,-10 -6,-3 -11,-6 -14,-11 -3,-5 -4,-11 -4,-17 0,-5 1,-10 3,-15 3,-5 6,-9 11,-12 3,-2 7,-4 13,-6 5,-1 11,-2 18,-2 9,0 18,1 25,4 7,3 13,7 16,11 4,5 6,11 7,19l-20 3c-1,-6 -4,-11 -8,-15 -4,-3 -11,-5 -19,-5 -9,0 -16,1 -20,5 -4,3 -6,7 -6,11 0,2 1,5 2,7 2,2 5,4 8,6 2,0 8,2 19,5 14,4 25,7 30,10 6,2 11,6 14,10 4,5 5,11 5,18 0,7 -2,14 -6,20 -4,6 -10,11 -17,14 -8,3 -17,5 -26,5 -16,0 -29,-3 -37,-10 -8,-6 -14,-16 -16,-29zm211 -3l21 3c-3,12 -9,22 -18,29 -10,7 -21,10 -36,10 -17,0 -32,-5 -42,-16 -11,-11 -16,-27 -16,-47 0,-21 5,-37 16,-48 11,-11 24,-17 41,-17 17,0 30,5 41,17 10,11 15,26 15,47 0,1 0,3 0,5l-92 0c1,14 5,24 12,31 7,7 15,11 25,11 8,0 15,-2 20,-6 5,-4 10,-10 13,-19zm-68 -34l68 0c-1,-10 -3,-18 -8,-23 -6,-8 -15,-12 -26,-12 -9,0 -17,3 -24,9 -6,7 -10,15 -10,26zm116 74l0 -124 18 0 0 19c5,-8 10,-14 14,-17 4,-3 8,-4 13,-4 7,0 14,2 21,6l-7 20c-5,-3 -10,-5 -15,-5 -5,0 -9,2 -12,5 -4,2 -6,6 -8,11 -2,7 -4,15 -4,24l0 65 -20 0z"/>
   <path class="fil3" d="M1823 1943l3 18c-6,2 -11,2 -16,2 -7,0 -13,-1 -17,-3 -4,-3 -7,-6 -9,-10 -2,-4 -3,-12 -3,-25l0 -70 -15 0 0 -17 15 0 0 -30 21 -13 0 43 21 0 0 17 -21 0 0 72c0,6 1,9 1,11 1,2 2,3 4,4 2,1 4,2 7,2 2,0 5,-1 9,-1zm21 -128l0 -23 21 0 0 23 -21 0zm0 147l0 -124 21 0 0 124 -21 0zm58 0l0 -107 -19 0 0 -17 19 0 0 -11c0,-13 3,-22 8,-28 5,-7 13,-10 25,-10 7,0 15,1 21,2l-3 18c-4,-1 -8,-1 -12,-1 -7,0 -12,1 -14,4 -3,3 -4,9 -4,18l0 8 24 0 0 17 -24 0 0 107 -21 0zm60 -147l0 -23 21 0 0 23 -21 0zm0 147l0 -124 21 0 0 124 -21 0zm53 0l0 -170 21 0 0 96 49 -50 27 0 -47 46 52 78 -26 0 -41 -63 -14 14 0 49 -21 0zm199 -16c-8,7 -15,11 -22,14 -7,3 -15,4 -23,4 -14,0 -24,-3 -32,-10 -7,-6 -10,-15 -10,-25 0,-6 1,-11 4,-16 2,-5 6,-9 10,-12 5,-3 10,-6 15,-7 5,-1 11,-2 19,-3 17,-2 29,-5 37,-8 0,-2 0,-4 0,-5 0,-8 -2,-14 -5,-18 -6,-5 -14,-7 -24,-7 -10,0 -17,2 -22,5 -5,4 -8,10 -10,19l-21 -3c2,-9 5,-16 9,-21 5,-6 11,-10 19,-13 8,-3 17,-4 28,-4 10,0 19,1 25,4 7,2 12,5 15,9 3,4 5,8 7,14 0,4 1,10 1,19l0 28c0,19 0,31 1,37 1,5 2,10 5,15l-22 0c-2,-5 -3,-10 -4,-16zm-2 -46c-7,3 -19,6 -34,8 -8,1 -14,2 -18,4 -4,1 -6,4 -8,7 -2,3 -3,6 -3,9 0,6 2,11 6,14 4,4 11,6 19,6 8,0 15,-2 21,-5 6,-4 11,-9 14,-15 2,-5 3,-11 3,-21l0 -7zm45 25l21 -4c1,9 4,15 10,19 5,5 12,7 22,7 9,0 17,-2 21,-6 5,-4 7,-8 7,-14 0,-4 -2,-8 -6,-11 -3,-1 -10,-4 -21,-7 -16,-4 -26,-7 -32,-10 -6,-3 -10,-6 -14,-11 -3,-5 -4,-11 -4,-17 0,-5 1,-10 4,-15 2,-5 6,-9 10,-12 3,-2 8,-4 13,-6 6,-1 12,-2 18,-2 10,0 18,1 25,4 8,3 13,7 17,11 3,5 6,11 7,19l-21 3c0,-6 -3,-11 -8,-15 -4,-3 -10,-5 -18,-5 -10,0 -17,1 -21,5 -4,3 -6,7 -6,11 0,2 1,5 3,7 1,2 4,4 8,6 2,0 8,2 18,5 15,4 25,7 31,10 6,2 10,6 14,10 3,5 5,11 5,18 0,7 -2,14 -7,20 -4,6 -9,11 -17,14 -8,3 -16,5 -26,5 -16,0 -28,-3 -37,-10 -8,-6 -13,-16 -16,-29zm127 -110l0 -23 21 0 0 23 -21 0zm0 147l0 -124 21 0 0 124 -21 0zm119 0l0 -170 21 0 0 61c9,-12 22,-17 36,-17 9,0 17,2 24,5 7,4 12,9 14,15 3,6 5,16 5,28l0 78 -21 0 0 -78c0,-11 -2,-18 -7,-23 -4,-5 -11,-7 -19,-7 -6,0 -12,1 -17,5 -6,3 -9,7 -12,13 -2,5 -3,13 -3,22l0 68 -21 0zm212 -16c-8,7 -15,11 -22,14 -7,3 -15,4 -23,4 -14,0 -24,-3 -31,-10 -8,-6 -11,-15 -11,-25 0,-6 1,-11 4,-16 3,-5 6,-9 11,-12 4,-3 9,-6 15,-7 4,-1 10,-2 18,-3 17,-2 29,-5 37,-8 1,-2 1,-4 1,-5 0,-8 -2,-14 -6,-18 -6,-5 -14,-7 -24,-7 -10,0 -17,2 -22,5 -5,4 -8,10 -10,19l-21 -3c2,-9 5,-16 9,-21 5,-6 11,-10 19,-13 8,-3 17,-4 28,-4 10,0 19,1 26,4 6,2 11,5 14,9 3,4 5,8 7,14 0,4 1,10 1,19l0 28c0,19 0,31 1,37 1,5 3,10 5,15l-22 0c-2,-5 -3,-10 -4,-16zm-1 -46c-8,3 -19,6 -35,8 -8,1 -14,2 -18,4 -3,1 -6,4 -8,7 -2,3 -3,6 -3,9 0,6 2,11 6,14 5,4 11,6 19,6 8,0 15,-2 21,-5 7,-4 11,-9 14,-15 2,-5 3,-11 3,-21l1 -7zm52 62l0 -170 21 0 0 170 -21 0zm134 -16c-8,7 -15,11 -23,14 -7,3 -14,4 -23,4 -13,0 -23,-3 -31,-10 -7,-6 -11,-15 -11,-25 0,-6 2,-11 4,-16 3,-5 7,-9 11,-12 5,-3 10,-6 15,-7 4,-1 11,-2 19,-3 17,-2 29,-5 37,-8 0,-2 0,-4 0,-5 0,-8 -2,-14 -6,-18 -5,-5 -13,-7 -24,-7 -9,0 -17,2 -21,5 -5,4 -8,10 -11,19l-20 -3c2,-9 5,-16 9,-21 4,-6 10,-10 19,-13 8,-3 17,-4 28,-4 10,0 19,1 25,4 7,2 12,5 15,9 3,4 5,8 6,14 1,4 1,10 1,19l0 28c0,19 1,31 2,37 0,5 2,10 5,15l-22 0c-2,-5 -4,-10 -4,-16zm-2 -46c-7,3 -19,6 -34,8 -9,1 -15,2 -18,4 -4,1 -7,4 -8,7 -2,3 -3,6 -3,9 0,6 2,11 6,14 4,4 10,6 18,6 8,0 16,-2 22,-5 6,-4 11,-9 14,-15 2,-5 3,-11 3,-21l0 -7zm53 62l0 -170 21 0 0 170 -21 0zm118 47l-2 -19c4,1 8,1 12,1 4,0 8,0 11,-2 3,-1 5,-4 7,-6 1,-2 3,-8 6,-16 0,-1 1,-3 2,-5l-47 -124 22 0 26 72c3,8 6,18 9,28 3,-9 5,-19 9,-28l26 -72 21 0 -47 126c-5,13 -9,22 -12,28 -3,6 -7,11 -12,15 -5,3 -11,4 -17,4 -5,0 -9,0 -14,-2zm200 -63c-8,7 -15,11 -22,14 -8,3 -15,4 -23,4 -14,0 -24,-3 -32,-10 -7,-6 -11,-15 -11,-25 0,-6 2,-11 5,-16 2,-5 6,-9 10,-12 5,-3 10,-6 15,-7 5,-1 11,-2 19,-3 17,-2 29,-5 37,-8 0,-2 0,-4 0,-5 0,-8 -2,-14 -6,-18 -5,-5 -13,-7 -23,-7 -10,0 -17,2 -22,5 -5,4 -8,10 -11,19l-20 -3c2,-9 5,-16 9,-21 4,-6 11,-10 19,-13 8,-3 17,-4 28,-4 10,0 19,1 25,4 7,2 12,5 15,9 3,4 5,8 6,14 1,4 1,10 1,19l0 28c0,19 1,31 2,37 1,5 2,10 5,15l-22 0c-2,-5 -3,-10 -4,-16zm-2 -46c-7,3 -19,6 -34,8 -8,1 -15,2 -18,4 -4,1 -6,4 -8,7 -2,3 -3,6 -3,9 0,6 2,11 6,14 4,4 11,6 19,6 8,0 15,-2 21,-5 6,-4 11,-9 14,-15 2,-5 3,-11 3,-21l0 -7zm54 62l0 -124 18 0 0 18c9,-14 22,-20 39,-20 8,0 15,1 21,4 6,2 11,6 14,10 3,5 5,10 6,16 1,4 1,10 1,20l0 76 -20 0 0 -75c0,-9 -1,-15 -3,-19 -1,-5 -4,-8 -8,-10 -5,-3 -9,-4 -15,-4 -9,0 -16,3 -23,8 -6,6 -10,17 -10,32l0 68 -20 0zm128 10l20 3c1,6 3,10 7,13 5,4 12,6 21,6 10,0 17,-2 23,-6 5,-4 8,-9 10,-16 1,-4 2,-13 2,-27 -9,11 -21,17 -34,17 -17,0 -30,-7 -40,-19 -9,-12 -14,-27 -14,-44 0,-11 3,-22 7,-32 4,-10 10,-18 18,-23 8,-6 18,-8 29,-8 14,0 26,6 36,18l0 -16 19 0 0 107c0,19 -2,32 -6,40 -4,8 -10,15 -19,19 -8,5 -18,7 -31,7 -14,0 -26,-3 -35,-10 -9,-6 -14,-16 -13,-29zm17 -74c0,16 3,28 9,35 7,8 15,11 24,11 10,0 18,-3 25,-11 6,-7 9,-19 9,-34 0,-15 -3,-27 -10,-34 -6,-8 -14,-12 -24,-12 -9,0 -17,4 -24,11 -6,8 -9,19 -9,34zm184 111l0 -171 19 0 0 17c5,-7 10,-11 15,-14 6,-4 13,-5 21,-5 10,0 20,2 28,8 8,5 14,13 18,23 4,10 6,20 6,32 0,13 -2,24 -7,34 -4,10 -11,18 -19,23 -9,5 -18,8 -27,8 -7,0 -14,-1 -19,-4 -6,-3 -10,-7 -14,-11l0 60 -21 0zm19 -108c0,16 4,27 10,35 6,7 14,11 23,11 9,0 17,-4 24,-12 6,-8 10,-20 10,-36 0,-16 -3,-27 -10,-35 -6,-8 -14,-12 -23,-12 -9,0 -17,4 -23,13 -7,8 -11,20 -11,36zm194 45c-8,7 -16,11 -23,14 -7,3 -15,4 -23,4 -13,0 -24,-3 -31,-10 -7,-6 -11,-15 -11,-25 0,-6 2,-11 4,-16 3,-5 7,-9 11,-12 5,-3 10,-6 15,-7 4,-1 10,-2 19,-3 17,-2 29,-5 37,-8 0,-2 0,-4 0,-5 0,-8 -2,-14 -6,-18 -5,-5 -13,-7 -24,-7 -10,0 -17,2 -21,5 -5,4 -9,10 -11,19l-20 -3c2,-9 5,-16 9,-21 4,-6 10,-10 18,-13 8,-3 18,-4 28,-4 11,0 19,1 26,4 7,2 12,5 15,9 3,4 5,8 6,14 1,4 1,10 1,19l0 28c0,19 1,31 1,37 1,5 3,10 6,15l-22 0c-2,-5 -4,-10 -4,-16zm-2 -46c-8,3 -19,6 -34,8 -9,1 -15,2 -18,4 -4,1 -7,4 -9,7 -2,3 -3,6 -3,9 0,6 3,11 7,14 4,4 10,6 18,6 8,0 15,-2 22,-5 6,-4 11,-9 14,-15 2,-5 3,-11 3,-21l0 -7zm53 62l0 -170 21 0 0 170 -21 0zm53 -147l0 -23 21 0 0 23 -21 0zm0 147l0 -124 21 0 0 124 -21 0zm53 0l0 -124 18 0 0 18c9,-14 22,-20 39,-20 8,0 15,1 21,4 6,2 11,6 14,10 3,5 5,10 6,16 1,4 1,10 1,20l0 76 -20 0 0 -75c0,-9 -1,-15 -3,-19 -1,-5 -4,-8 -8,-10 -5,-3 -9,-4 -15,-4 -9,0 -16,3 -23,8 -6,6 -10,17 -10,32l0 68 -20 0zm128 10l20 3c1,6 3,10 7,13 5,4 12,6 21,6 10,0 17,-2 23,-6 5,-4 8,-9 10,-16 1,-4 2,-13 2,-27 -9,11 -21,17 -34,17 -17,0 -30,-7 -40,-19 -9,-12 -14,-27 -14,-44 0,-11 3,-22 7,-32 4,-10 10,-18 18,-23 8,-6 18,-8 29,-8 14,0 26,6 36,18l0 -16 19 0 0 107c0,19 -2,32 -6,40 -4,8 -10,15 -18,19 -9,5 -19,7 -32,7 -14,0 -26,-3 -35,-10 -9,-6 -14,-16 -13,-29zm17 -74c0,16 3,28 9,35 7,8 15,11 25,11 9,0 17,-3 24,-11 6,-7 9,-19 9,-34 0,-15 -3,-27 -10,-34 -6,-8 -14,-12 -24,-12 -9,0 -17,4 -23,11 -7,8 -10,19 -10,34zm230 45l3 18c-6,2 -12,2 -16,2 -8,0 -14,-1 -18,-3 -4,-3 -7,-6 -9,-10 -1,-4 -2,-12 -2,-25l0 -70 -15 0 0 -17 15 0 0 -30 21 -13 0 43 21 0 0 17 -21 0 0 72c0,6 0,9 1,11 1,2 2,3 4,4 1,1 4,2 7,2 2,0 5,-1 9,-1zm104 -21l22 3c-3,12 -10,22 -19,29 -9,7 -21,10 -35,10 -18,0 -32,-5 -43,-16 -10,-11 -16,-27 -16,-47 0,-21 6,-37 16,-48 11,-11 25,-17 42,-17 16,0 30,5 40,17 10,11 16,26 16,47 0,1 0,3 -1,5l-91 0c1,14 4,24 11,31 7,7 16,11 26,11 8,0 14,-2 19,-6 6,-4 10,-10 13,-19zm-68 -34l69 0c-1,-10 -4,-18 -8,-23 -7,-8 -16,-12 -26,-12 -10,0 -18,3 -24,9 -7,7 -10,15 -11,26zm116 121l0 -171 19 0 0 17c5,-7 10,-11 15,-14 6,-4 13,-5 21,-5 10,0 20,2 28,8 8,5 14,13 18,23 4,10 6,20 6,32 0,13 -2,24 -7,34 -4,10 -11,18 -19,23 -9,5 -18,8 -28,8 -7,0 -13,-1 -18,-4 -6,-3 -10,-7 -14,-11l0 60 -21 0zm19 -108c0,16 3,27 10,35 6,7 14,11 23,11 9,0 17,-4 24,-12 6,-8 10,-20 10,-36 0,-16 -4,-27 -10,-35 -6,-8 -14,-12 -23,-12 -9,0 -17,4 -24,13 -6,8 -10,20 -10,36zm194 45c-8,7 -16,11 -23,14 -7,3 -15,4 -23,4 -13,0 -24,-3 -31,-10 -7,-6 -11,-15 -11,-25 0,-6 1,-11 4,-16 3,-5 7,-9 11,-12 4,-3 9,-6 15,-7 4,-1 10,-2 19,-3 16,-2 29,-5 37,-8 0,-2 0,-4 0,-5 0,-8 -2,-14 -6,-18 -5,-5 -13,-7 -24,-7 -10,0 -17,2 -22,5 -4,4 -8,10 -10,19l-20 -3c1,-9 5,-16 9,-21 4,-6 10,-10 18,-13 8,-3 18,-4 28,-4 11,0 19,1 26,4 7,2 11,5 15,9 3,4 5,8 6,14 1,4 1,10 1,19l0 28c0,19 0,31 1,37 1,5 3,10 5,15l-21 0c-2,-5 -4,-10 -4,-16zm-2 -46c-8,3 -19,6 -34,8 -9,1 -15,2 -18,4 -4,1 -7,4 -9,7 -2,3 -3,6 -3,9 0,6 2,11 7,14 4,4 10,6 18,6 8,0 15,-2 22,-5 6,-4 11,-9 13,-15 3,-5 4,-11 4,-21l0 -7zm98 43l3 18c-6,2 -11,2 -15,2 -8,0 -14,-1 -18,-3 -4,-3 -7,-6 -9,-10 -1,-4 -2,-12 -2,-25l0 -70 -16 0 0 -17 16 0 0 -30 21 -13 0 43 20 0 0 17 -20 0 0 72c0,6 0,9 1,11 0,2 2,3 3,4 2,1 4,2 7,2 3,0 6,-1 9,-1zm-2221 284l0 -16c-7,12 -19,18 -34,18 -10,0 -19,-3 -27,-8 -8,-5 -15,-13 -19,-23 -5,-9 -7,-20 -7,-33 0,-12 2,-23 6,-33 4,-10 11,-18 19,-23 8,-6 17,-8 27,-8 8,0 14,1 20,5 6,3 10,7 14,12l0 -61 21 0 0 170 -20 0zm-66 -62c0,16 4,28 10,35 7,8 15,12 24,12 9,0 17,-4 23,-11 7,-7 10,-19 10,-34 0,-17 -3,-29 -10,-37 -6,-8 -14,-12 -24,-12 -9,0 -17,4 -23,11 -6,8 -10,20 -10,36zm199 46c-7,7 -15,11 -22,14 -7,3 -15,4 -23,4 -14,0 -24,-3 -31,-10 -8,-6 -11,-15 -11,-25 0,-6 1,-11 4,-16 3,-5 6,-9 11,-12 4,-3 9,-6 15,-7 4,-1 10,-2 18,-3 17,-2 30,-5 38,-7 0,-3 0,-5 0,-6 0,-8 -2,-14 -6,-18 -6,-5 -14,-7 -24,-7 -10,0 -17,2 -22,5 -5,4 -8,10 -10,19l-21 -3c2,-9 5,-16 10,-21 4,-6 10,-10 18,-13 8,-3 17,-4 28,-4 11,0 19,1 26,4 6,2 11,5 14,9 3,4 5,8 7,14 0,4 1,10 1,19l0 28c0,19 0,32 1,37 1,5 3,10 5,15l-22 0c-2,-5 -3,-10 -4,-16zm-1 -46c-8,3 -19,6 -35,8 -8,1 -14,2 -18,4 -3,1 -6,4 -8,7 -2,3 -3,6 -3,9 0,6 2,11 6,14 5,4 11,6 19,6 8,0 15,-2 21,-5 7,-4 11,-9 14,-15 2,-4 4,-11 4,-21l0 -7zm53 62l0 -124 19 0 0 18c9,-13 22,-20 39,-20 7,0 14,1 20,4 6,2 11,6 14,10 3,5 5,10 7,16 0,4 1,10 1,20l0 76 -21 0 0 -75c0,-9 -1,-15 -3,-19 -1,-4 -4,-8 -8,-10 -4,-3 -9,-4 -15,-4 -9,0 -16,3 -23,8 -6,6 -9,17 -9,32l0 68 -21 0zm889 0l0 -24 24 0 0 24 -24 0zm-607 -40l21 3c-3,12 -9,22 -19,29 -9,7 -20,10 -35,10 -18,0 -32,-5 -42,-16 -11,-11 -16,-27 -16,-47 0,-21 5,-37 16,-48 10,-11 24,-17 41,-17 17,0 30,5 40,17 11,11 16,27 16,47 0,1 0,3 0,5l-92 0c1,14 5,24 12,31 6,7 15,11 25,11 8,0 14,-2 20,-6 5,-4 10,-10 13,-19zm-69 -34l69 0c-1,-10 -4,-18 -8,-23 -7,-8 -15,-12 -26,-12 -9,0 -17,3 -24,10 -6,6 -10,14 -11,25zm122 74l0 -107 -18 0 0 -17 18 0 0 -11c0,-13 3,-22 8,-28 5,-7 14,-10 25,-10 8,0 15,1 21,2l-3 18c-4,-1 -8,-1 -11,-1 -8,0 -12,1 -15,4 -3,3 -4,9 -4,18l0 8 24 0 0 17 -24 0 0 107 -21 0zm60 -147l0 -23 21 0 0 23 -21 0zm0 147l0 -124 21 0 0 124 -21 0z"/>
   <path class="fil3" d="M3260 2190l21 -4c1,9 4,15 9,19 6,5 13,7 22,7 10,0 17,-2 22,-6 5,-4 7,-8 7,-13 0,-5 -2,-9 -6,-12 -3,-1 -10,-4 -22,-7 -15,-4 -26,-7 -32,-10 -5,-2 -10,-6 -13,-11 -3,-5 -4,-11 -4,-17 0,-5 1,-10 3,-15 3,-5 6,-9 10,-12 4,-2 8,-4 14,-6 5,-1 11,-2 18,-2 9,0 18,1 25,4 7,3 13,7 16,11 4,5 6,11 7,19l-20 3c-1,-6 -4,-11 -8,-15 -4,-3 -11,-5 -19,-5 -9,0 -16,1 -20,5 -4,3 -6,7 -6,11 0,2 0,5 2,7 2,2 5,4 8,6 2,0 8,2 19,5 14,4 25,7 30,10 6,2 11,6 14,11 4,4 5,10 5,17 0,7 -2,14 -6,20 -4,6 -10,11 -17,14 -8,4 -17,5 -26,5 -16,0 -29,-3 -37,-10 -8,-6 -14,-16 -16,-29zm127 -110l0 -23 21 0 0 23 -21 0zm0 147l0 -124 21 0 0 124 -21 0zm137 -40l21 3c-3,12 -10,22 -19,29 -9,7 -21,10 -35,10 -18,0 -32,-5 -43,-16 -10,-11 -15,-27 -15,-47 0,-21 5,-37 16,-48 10,-11 24,-17 41,-17 16,0 30,5 40,17 11,11 16,27 16,47 0,1 0,3 0,5l-92 0c1,14 5,24 12,31 6,7 15,11 25,11 8,0 14,-2 20,-6 5,-4 9,-10 13,-19zm-69 -34l69 0c-1,-10 -4,-18 -8,-23 -7,-8 -15,-12 -26,-12 -9,0 -17,3 -24,10 -6,6 -10,14 -11,25zm117 74l0 -124 18 0 0 18c9,-13 22,-20 39,-20 8,0 15,1 21,4 6,2 11,6 14,10 3,5 5,10 6,16 1,4 1,10 1,20l0 76 -20 0 0 -75c0,-9 -1,-15 -3,-19 -2,-4 -4,-8 -9,-10 -4,-3 -9,-4 -14,-4 -9,0 -17,3 -23,8 -6,6 -10,17 -10,32l0 68 -20 0z"/>
  </g>
  <path class="fil2" d="M892 1053c-27,0 -41,-29 -41,-110 0,-80 14,-109 41,-109 28,0 41,30 41,110 0,80 -13,109 -41,109zm-1 46c62,0 100,-49 100,-157 0,-109 -38,-153 -100,-153 -63,0 -99,44 -99,154 0,109 36,156 99,156zm226 -10l0 -291 -46 0c-4,34 -21,51 -70,51l0 39 59 0 0 201 57 0z"/>
  <path class="fil4" d="M2113 937c-49,8 -85,42 -98,84 -13,45 7,35 46,35l178 -1c33,-7 -19,-134 -126,-118zm-569 45c-14,13 -30,46 -24,72l119 2c23,0 100,4 115,-3 10,-41 -30,-93 -76,-110 -50,-19 -115,3 -134,39zm357 -345l-178 0c-20,0 -54,8 -48,-17 15,-14 63,-6 85,-6 32,0 63,0 95,0l55 1c2,15 3,17 -9,22zm-124 49c32,-1 63,0 95,0 25,0 77,9 93,-11 11,-13 6,-88 5,-112 0,-22 0,-45 0,-67 0,-22 3,-43 -16,-49 -13,-5 -102,-1 -125,-2 -27,0 -186,-4 -198,3 -25,8 -16,48 -16,75 0,31 0,63 0,94 1,73 -9,62 56,69l1 67c33,-11 77,-61 105,-67zm316 -164c-1,-21 -20,-18 -42,-18 -20,1 -39,0 -59,1l1 92c0,21 2,47 0,67 -2,24 -13,29 -24,41 -50,10 -154,0 -185,4 -10,2 -33,19 -36,26 17,17 56,9 80,9 114,0 96,-10 156,31 15,11 45,35 56,38l1 -68c7,0 13,0 20,0l17 -3c1,0 2,-1 3,-1 7,-2 2,1 8,-4 3,-2 5,-6 7,-10 1,-6 5,-198 -3,-205zm-295 -28l112 2 -1 19 -3 1c-39,3 -83,1 -122,1 -29,0 -90,6 -111,-6 2,-26 26,-18 54,-18 23,0 48,1 71,1zm311 302c-86,31 -32,150 45,120 75,-29 37,-149 -45,-120zm-497 0c-28,11 -48,46 -36,83 10,28 48,52 85,37 77,-30 34,-154 -49,-120zm290 -220c-35,2 -207,6 -226,-2 -4,-14 -2,-18 15,-20 16,0 208,-5 217,4 7,7 3,14 -6,18z"/>
 </g>
</svg>
