<?xml version="1.0" encoding="UTF-8"?>
<!DOCTYPE svg PUBLIC "-//W3C//DTD SVG 1.1//EN" "http://www.w3.org/Graphics/SVG/1.1/DTD/svg11.dtd">
<!-- Creator: CorelDRAW X7 -->
<svg xmlns="http://www.w3.org/2000/svg" xml:space="preserve" width="67.6131mm" height="97.3889mm" version="1.1" style="shape-rendering:geometricPrecision; text-rendering:geometricPrecision; image-rendering:optimizeQuality; fill-rule:evenodd; clip-rule:evenodd"
viewBox="0 0 23823 34315"
 xmlns:xlink="http://www.w3.org/1999/xlink">
 <defs>
  <style type="text/css">
   <![CDATA[
    .fil1 {fill:#F08519}
    .fil4 {fill:#F08519}
    .fil0 {fill:#E9EAE9}
    .fil3 {fill:#1D1819;fill-rule:nonzero}
    .fil2 {fill:#113C40;fill-rule:nonzero}
   ]]>
  </style>
 </defs>
 <g id="Layer_x0020_1">
  <metadata id="CorelCorpID_0Corel-Layer"/>
  <g id="_506943808">
   <path class="fil0" d="M3499 12988c3559,3831 6117,8157 5003,15774l-257 1003 14334 4550c1601,-4815 1520,-10917 532,-15843 -872,-4347 -3139,-9236 -5626,-12395 -1525,-1937 -3893,-4920 -5978,-6077 -449,332 -3787,5225 -4479,6131 -745,978 -1498,1990 -2227,3067 -487,720 -2004,2468 -2211,3140l822 596c21,13 61,33 87,54z"/>
   <path class="fil1" d="M8502 28762c1114,-7617 -1444,-11943 -5003,-15774 -561,118 -310,68 -1003,1003l-2496 3475c1459,1921 2772,3503 3102,6473 89,803 -26,2672 95,3155 654,307 4761,1633 5305,1668z"/>
   <path class="fil2" d="M5962 10447l0 -436 295 0c180,0 254,92 254,215 0,130 -74,221 -254,221l-295 0zm0 793l0 -540 345 0c291,0 477,-194 477,-465 0,-269 -186,-482 -477,-482l-656 0 0 1487 311 0zm1167 -658c11,-153 107,-242 224,-242 114,0 221,78 226,242l-450 0zm750 183c0,-436 -179,-656 -517,-656 -339,0 -533,220 -533,560 0,399 183,600 550,600 236,0 417,-127 484,-354l-300 0c-20,77 -103,124 -197,124 -143,0 -237,-108 -246,-274l759 0zm1100 475l0 -763c0,-240 -155,-368 -366,-368 -176,0 -288,67 -356,191l0 -162 -277 0 0 1102 291 0 0 -631c0,-168 74,-253 226,-253 139,0 188,47 188,217l0 667 294 0zm649 -208c-146,0 -249,-137 -249,-334 0,-226 81,-340 251,-340 161,0 244,119 244,358 0,186 -107,316 -246,316zm522 208l0 -1505 -287 0 0 547c-83,-117 -190,-173 -327,-173 -284,0 -452,235 -452,569 0,372 199,591 477,591 134,0 237,-51 307,-163l2 134 280 0zm795 -419c-2,130 -114,240 -264,240 -92,0 -142,-40 -142,-123 0,-94 54,-141 220,-173 107,-20 159,-35 188,-65l-2 121zm293 419l0 -696c0,-278 -121,-435 -470,-435 -354,0 -479,159 -484,388l271 0c14,-99 67,-164 199,-164 115,0 186,43 186,114 0,77 -40,106 -186,126 -293,40 -506,76 -506,394 0,179 117,302 368,302 147,0 264,-51 333,-127 3,33 9,71 18,98l271 0zm1705 0l0 -763c0,-207 -155,-368 -377,-368 -139,0 -237,54 -298,175 -85,-128 -156,-175 -306,-175 -146,0 -249,45 -323,191l0 -162 -273 0 0 1102 291 0 0 -669c0,-144 60,-215 177,-215 128,0 175,44 175,221l0 663 291 0 0 -658c0,-135 78,-235 186,-235 103,0 172,94 172,226l0 667 285 0zm631 -219c-161,0 -244,-119 -244,-359 0,-185 107,-315 246,-315 146,0 249,136 249,333 0,226 -81,341 -251,341zm-233 741l0 -665c83,116 190,172 327,172 285,0 453,-235 453,-569 0,-371 -200,-591 -478,-591 -134,0 -237,52 -306,164l-3 -135 -280 0 0 1624 287 0zm1183 -522l0 -1102 -292 0 0 1102 292 0zm0 -1234l0 -271 -292 0 0 271 292 0zm1131 1234l0 -763c0,-240 -155,-368 -365,-368 -177,0 -289,67 -357,191l0 -162 -277 0 0 1102 291 0 0 -631c0,-168 74,-253 226,-253 139,0 188,47 188,217l0 667 294 0zm656 -219c-144,0 -249,-126 -249,-323 0,-226 85,-336 249,-336 165,0 248,115 248,354 0,186 -107,305 -248,305zm239 253c0,145 -123,237 -277,237 -146,0 -242,-78 -242,-210l-271 0c0,284 226,461 533,461 307,0 549,-179 549,-511l0 -1113 -292 0 0 137c-69,-112 -170,-166 -309,-166 -266,0 -481,231 -481,574 0,288 125,566 488,566 143,0 262,-58 302,-157l0 182zm1087 -453c-3,130 -115,240 -265,240 -92,0 -141,-40 -141,-123 0,-94 54,-141 220,-173 107,-20 159,-35 188,-65l-2 121zm293 419l0 -696c0,-278 -121,-435 -470,-435 -354,0 -480,159 -484,388l271 0c13,-99 67,-164 199,-164 114,0 186,43 186,114 0,77 -40,106 -186,126 -293,40 -506,76 -506,394 0,179 117,302 367,302 148,0 265,-51 334,-127 2,33 9,71 18,98l271 0zm1126 0l0 -763c0,-240 -154,-368 -365,-368 -177,0 -288,67 -356,191l0 -162 -277 0 0 1102 291 0 0 -631c0,-168 74,-253 226,-253 139,0 188,47 188,217l0 667 293 0zm-13103 1469l0 -976 231 0c297,0 414,134 414,470 0,336 -117,506 -388,506l-257 0zm320 253c385,0 643,-307 643,-759 0,-453 -287,-728 -690,-728l-575 0 0 1487 622 0zm1286 -215c-177,0 -267,-112 -267,-336 0,-224 90,-334 267,-334 177,0 266,110 266,334 0,224 -89,336 -266,336zm0 244c342,0 560,-231 560,-580 0,-351 -215,-580 -560,-580 -350,0 -567,231 -567,580 0,343 211,580 567,580zm1668 -29l-360 -696 369 -406 -356 0 -363 419 0 -822 -293 0 0 1505 293 0 0 -349 141 -146 242 495 327 0zm1071 0l0 -1102 -289 0 0 636c0,146 -79,251 -226,251 -124,0 -186,-67 -186,-206l0 -681 -292 0 0 726c0,242 155,405 374,405 153,0 267,-58 343,-184l0 155 276 0zm1704 0l0 -764c0,-206 -155,-367 -376,-367 -139,0 -238,54 -298,175 -85,-128 -157,-175 -307,-175 -146,0 -249,45 -323,190l0 -161 -273 0 0 1102 291 0 0 -670c0,-143 61,-215 177,-215 128,0 175,45 175,222l0 663 291 0 0 -658c0,-135 79,-236 186,-236 103,0 172,95 172,227l0 667 285 0zm387 -658c12,-153 108,-242 224,-242 115,0 222,78 226,242l-450 0zm751 183c0,-436 -180,-656 -518,-656 -338,0 -533,220 -533,560 0,399 184,600 551,600 235,0 417,-128 484,-354l-300 0c-20,76 -103,123 -197,123 -144,0 -238,-107 -247,-273l760 0zm1099 475l0 -764c0,-239 -154,-367 -365,-367 -177,0 -289,67 -356,190l0 -161 -278 0 0 1102 292 0 0 -632c0,-167 73,-253 226,-253 139,0 188,47 188,218l0 667 293 0zm1189 -208c-145,0 -248,-137 -248,-334 0,-226 80,-340 251,-340 161,0 244,118 244,358 0,186 -108,316 -247,316zm522 208l0 -1505 -286 0 0 547c-83,-117 -191,-173 -327,-173 -285,0 -453,235 -453,569 0,372 200,591 477,591 135,0 238,-51 307,-163l2 134 280 0zm795 -419c-2,130 -114,240 -264,240 -92,0 -141,-40 -141,-123 0,-94 54,-141 219,-173 108,-20 159,-36 188,-65l-2 121zm294 419l0 -696c0,-278 -121,-435 -471,-435 -354,0 -479,159 -483,388l271 0c13,-99 67,-164 199,-164 114,0 186,43 186,114 0,76 -41,106 -186,126 -293,40 -506,76 -506,394 0,179 116,302 367,302 148,0 264,-51 334,-128 2,34 9,72 18,99l271 0zm1126 0l0 -764c0,-239 -154,-367 -365,-367 -177,0 -289,67 -356,190l0 -161 -278 0 0 1102 291 0 0 -632c0,-167 74,-253 227,-253 138,0 188,47 188,218l0 667 293 0zm-12212 1469l0 -977 231 0c297,0 414,135 414,471 0,336 -117,506 -388,506l-257 0zm320 253c385,0 643,-307 643,-759 0,-453 -287,-728 -690,-728l-575 0 0 1487 622 0zm1382 -419c-2,130 -114,240 -264,240 -92,0 -141,-41 -141,-123 0,-95 53,-142 219,-173 108,-20 159,-36 188,-65l-2 121zm293 419l0 -697c0,-277 -121,-434 -470,-434 -354,0 -479,159 -484,387l271 0c14,-98 67,-163 200,-163 114,0 185,42 185,114 0,76 -40,105 -185,126 -294,40 -507,76 -507,394 0,179 117,302 368,302 148,0 264,-52 333,-128 3,34 9,72 18,99l271 0zm753 -439c0,137 -54,215 -170,215 -119,0 -168,-81 -168,-220l0 -452 609 0 0 -206 -609 0 0 -298 -287 0 0 986c0,237 128,443 450,443 311,0 446,-208 446,-441l0 -314 -271 0 0 287zm1057 20c-2,130 -114,240 -264,240 -92,0 -142,-41 -142,-123 0,-95 54,-142 220,-173 107,-20 159,-36 188,-65l-2 121zm293 419l0 -697c0,-277 -121,-434 -470,-434 -354,0 -479,159 -484,387l271 0c14,-98 67,-163 199,-163 115,0 186,42 186,114 0,76 -40,105 -186,126 -293,40 -506,76 -506,394 0,179 117,302 368,302 147,0 264,-52 333,-128 3,34 9,72 18,99l271 0zm972 -793l0 -437 296 0c179,0 253,92 253,215 0,130 -74,222 -253,222l-296 0zm0 793l0 -540 345 0c291,0 477,-195 477,-466 0,-268 -186,-481 -477,-481l-656 0 0 1487 311 0zm1183 0l0 -573c0,-177 87,-267 266,-267 27,0 54,2 81,7l0 -298 -38 0c-119,0 -231,13 -327,161l0 -132 -273 0 0 1102 291 0zm902 -215c-177,0 -266,-112 -266,-336 0,-224 89,-334 266,-334 177,0 267,110 267,334 0,224 -90,336 -267,336zm0 244c343,0 560,-231 560,-580 0,-352 -215,-580 -560,-580 -349,0 -566,231 -566,580 0,343 210,580 566,580zm1187 -237c-145,0 -248,-137 -248,-334 0,-226 80,-340 250,-340 162,0 245,118 245,358 0,186 -108,316 -247,316zm522 208l0 -1505 -287 0 0 546c-83,-116 -190,-172 -327,-172 -284,0 -452,235 -452,569 0,372 199,591 477,591 134,0 237,-52 307,-164l2 135 280 0zm1120 0l0 -1102 -289 0 0 636c0,146 -79,251 -226,251 -124,0 -186,-67 -186,-206l0 -681 -291 0 0 726c0,241 154,405 374,405 152,0 266,-58 342,-184l0 155 276 0zm1131 0l-361 -697 370 -405 -356 0 -363 419 0 -822 -294 0 0 1505 294 0 0 -350 141 -145 242 495 327 0z"/>
   <g>
    <path class="fil3" d="M10192 17610l116 -16c3,75 17,126 42,154 25,27 59,41 103,41 33,0 61,-7 84,-22 24,-15 40,-36 49,-61 9,-26 13,-67 13,-123l0 -674 130 0 0 667c0,81 -10,145 -29,190 -20,45 -52,79 -95,103 -42,23 -93,35 -150,35 -86,0 -152,-25 -198,-74 -45,-50 -67,-123 -65,-220zm755 278l0 -979 129 0 0 403 506 0 0 -403 130 0 0 979 -130 0 0 -461 -506 0 0 461 -129 0zm1679 -344l130 33c-27,106 -76,187 -147,243 -70,56 -156,84 -258,84 -105,0 -191,-21 -257,-65 -66,-42 -116,-105 -151,-186 -34,-82 -51,-169 -51,-262 0,-102 19,-191 58,-267 39,-76 94,-133 166,-173 72,-39 151,-59 237,-59 98,0 180,25 247,75 67,50 113,120 139,210l-127 30c-22,-71 -55,-123 -98,-155 -44,-33 -98,-49 -163,-49 -75,0 -138,18 -188,54 -51,36 -86,84 -107,145 -20,61 -30,124 -30,188 0,83 12,156 36,218 24,62 62,108 113,139 51,31 106,46 165,46 73,0 134,-21 184,-62 50,-42 84,-104 102,-187zm655 344l0 -710 108 0 0 100c22,-34 52,-62 88,-83 37,-22 79,-32 126,-32 53,0 96,11 129,33 34,21 58,52 71,91 57,-83 130,-124 220,-124 71,0 125,19 163,58 38,39 57,99 57,180l0 487 -120 0 0 -447c0,-48 -4,-83 -12,-104 -8,-21 -22,-38 -42,-51 -21,-13 -45,-19 -73,-19 -50,0 -91,16 -124,50 -33,33 -50,86 -50,159l0 412 -120 0 0 -461c0,-53 -10,-93 -29,-120 -20,-27 -52,-40 -97,-40 -33,0 -65,9 -93,26 -29,18 -50,44 -63,79 -13,34 -19,83 -19,148l0 368 -120 0zm1623 -230l124 16c-19,73 -55,129 -108,169 -53,40 -121,60 -203,60 -103,0 -185,-32 -246,-96 -61,-64 -91,-153 -91,-268 0,-119 31,-212 92,-277 61,-66 141,-99 239,-99 94,0 171,32 231,97 60,64 90,155 90,272 0,7 0,17 0,32l-529 0c5,77 27,137 66,178 40,41 89,62 148,62 44,0 82,-11 113,-35 31,-23 56,-60 74,-111zm-394 -193l395 0c-5,-60 -20,-104 -45,-134 -38,-46 -88,-70 -149,-70 -55,0 -101,19 -139,56 -37,37 -58,86 -62,148zm670 423l0 -710 108 0 0 101c52,-78 127,-116 226,-116 42,0 82,8 117,23 36,15 63,35 81,60 18,25 30,55 37,89 5,22 7,61 7,117l0 436 -120 0 0 -432c0,-49 -5,-85 -14,-109 -10,-25 -26,-44 -50,-59 -24,-14 -52,-21 -84,-21 -51,0 -95,16 -132,49 -37,32 -55,94 -55,184l0 388 -121 0zm1219 0l0 -90c-45,70 -111,105 -199,105 -56,0 -108,-16 -155,-47 -48,-31 -84,-75 -110,-130 -26,-56 -39,-120 -39,-193 0,-70 11,-134 35,-192 24,-57 59,-102 106,-132 47,-31 100,-46 158,-46 43,0 81,9 114,27 33,18 61,42 82,71l0 -352 120 0 0 979 -112 0zm-380 -354c0,90 19,158 57,203 39,45 84,67 136,67 53,0 97,-21 134,-64 37,-43 55,-108 55,-196 0,-97 -18,-168 -56,-213 -37,-46 -83,-68 -138,-68 -54,0 -99,21 -135,65 -35,43 -53,112 -53,206zm1146 265c-45,38 -88,64 -129,80 -42,16 -86,24 -133,24 -78,0 -138,-19 -180,-57 -42,-38 -63,-87 -63,-146 0,-34 8,-66 24,-95 16,-28 37,-51 62,-69 26,-17 54,-30 87,-39 23,-6 59,-12 107,-18 97,-11 169,-25 214,-41 1,-17 1,-27 1,-31 0,-49 -11,-84 -34,-104 -31,-27 -77,-40 -137,-40 -57,0 -99,10 -126,30 -27,19 -47,55 -60,105l-117 -16c10,-51 28,-91 53,-122 24,-31 60,-55 106,-72 46,-17 100,-25 162,-25 60,0 110,7 148,21 37,15 65,32 83,54 18,22 31,49 38,82 4,21 6,58 6,111l0 159c0,112 2,182 7,212 5,30 15,58 30,86l-126 0c-12,-26 -20,-55 -23,-89zm-10 -267c-44,18 -109,33 -197,45 -49,7 -85,15 -105,24 -21,9 -36,22 -48,39 -11,17 -16,36 -16,57 0,32 12,58 36,79 25,22 60,32 107,32 46,0 87,-10 123,-30 36,-20 63,-48 80,-83 13,-27 19,-67 19,-119l1 -44zm307 356l0 -710 108 0 0 100c22,-34 51,-62 88,-83 37,-22 79,-32 126,-32 53,0 96,11 129,33 34,21 57,52 71,91 57,-83 130,-124 220,-124 71,0 125,19 163,58 38,39 57,99 57,180l0 487 -120 0 0 -447c0,-48 -4,-83 -12,-104 -8,-21 -22,-38 -43,-51 -20,-13 -44,-19 -72,-19 -50,0 -91,16 -124,50 -34,33 -50,86 -50,159l0 412 -120 0 0 -461c0,-53 -10,-93 -30,-120 -19,-27 -51,-40 -96,-40 -34,0 -65,9 -93,26 -29,18 -50,44 -63,79 -13,34 -19,83 -19,148l0 368 -120 0zm1139 272l0 -982 109 0 0 93c26,-36 55,-63 87,-81 33,-18 72,-27 119,-27 60,0 113,15 160,47 46,31 81,75 105,131 23,57 35,119 35,187 0,72 -13,137 -39,195 -26,58 -64,102 -114,133 -49,31 -101,47 -156,47 -40,0 -76,-9 -108,-26 -32,-17 -58,-38 -78,-63l0 346 -120 0zm109 -623c0,91 18,158 55,202 37,43 82,65 134,65 53,0 99,-22 137,-67 38,-46 57,-115 57,-210 0,-90 -19,-158 -56,-203 -37,-44 -81,-67 -133,-67 -51,0 -96,24 -135,72 -39,48 -59,117 -59,208zm651 -492l0 -136 120 0 0 136 -120 0zm0 843l0 -710 120 0 0 710 -120 0zm304 0l0 -710 108 0 0 101c52,-78 127,-116 225,-116 43,0 82,8 118,23 36,15 63,35 80,60 18,25 31,55 38,89 4,22 6,61 6,117l0 436 -120 0 0 -432c0,-49 -4,-85 -14,-109 -9,-25 -26,-44 -49,-59 -24,-14 -52,-21 -84,-21 -51,0 -95,16 -132,49 -37,32 -56,94 -56,184l0 388 -120 0zm738 58l116 17c5,36 19,62 41,79 30,22 71,33 123,33 55,0 98,-11 129,-33 30,-22 50,-54 61,-94 6,-24 9,-75 9,-153 -53,62 -118,93 -197,93 -97,0 -173,-36 -226,-106 -54,-70 -80,-154 -80,-253 0,-67 12,-130 36,-187 25,-57 60,-101 107,-132 46,-32 101,-47 164,-47 83,0 152,34 207,102l0 -87 110 0 0 613c0,110 -11,188 -33,234 -23,46 -58,83 -107,110 -49,26 -109,40 -180,40 -84,0 -152,-19 -204,-57 -53,-38 -78,-95 -76,-172zm99 -425c0,92 18,160 55,203 37,42 83,64 139,64 55,0 102,-21 139,-64 38,-42 56,-109 56,-199 0,-87 -19,-152 -58,-196 -38,-44 -85,-66 -139,-66 -53,0 -99,21 -136,65 -38,43 -56,107 -56,193zm684 -476l0 -136 120 0 0 136 -120 0zm0 843l0 -710 120 0 0 710 -120 0zm-10944 1799l0 -982 110 0 0 94c26,-36 55,-63 87,-81 33,-18 72,-28 118,-28 61,0 114,16 161,47 46,31 81,75 104,132 24,56 36,118 36,186 0,72 -13,137 -39,196 -26,57 -64,102 -114,133 -49,31 -101,46 -156,46 -40,0 -76,-8 -108,-25 -32,-17 -58,-38 -78,-64l0 346 -121 0zm110 -622c0,91 18,158 55,201 37,44 81,66 134,66 53,0 99,-23 137,-68 38,-45 57,-115 57,-209 0,-91 -19,-158 -56,-203 -37,-45 -81,-67 -133,-67 -51,0 -96,24 -135,71 -40,48 -59,117 -59,209zm1135 120l124 17c-19,72 -55,128 -108,168 -53,40 -120,60 -203,60 -103,0 -185,-32 -246,-96 -60,-63 -91,-153 -91,-268 0,-119 31,-211 92,-277 61,-66 141,-99 239,-99 94,0 171,33 231,97 60,65 90,155 90,272 0,7 0,18 0,32l-529 0c5,78 27,137 66,179 40,41 89,62 148,62 44,0 82,-12 113,-35 31,-23 56,-61 74,-112zm-394 -192l395 0c-5,-60 -20,-105 -45,-135 -38,-46 -88,-69 -149,-69 -55,0 -101,18 -139,55 -37,37 -58,87 -62,149zm670 422l0 -710 108 0 0 101c52,-77 128,-116 226,-116 43,0 82,8 118,23 35,16 62,36 80,61 18,25 30,54 37,88 5,23 7,62 7,117l0 436 -120 0 0 -431c0,-49 -5,-86 -14,-110 -10,-24 -26,-43 -50,-58 -24,-14 -52,-22 -84,-22 -51,0 -95,16 -132,49 -37,32 -55,94 -55,185l0 387 -121 0zm755 273l-13 -111c26,7 49,10 68,10 27,0 49,-4 65,-13 16,-9 29,-22 39,-37 8,-13 20,-42 37,-90 2,-7 6,-17 11,-30l-270 -712 129 0 148 410c19,52 37,107 52,164 14,-54 30,-107 49,-160l152 -414 120 0 -269 722c-29,78 -51,131 -67,161 -22,39 -46,68 -74,87 -28,18 -61,27 -99,27 -23,0 -49,-5 -78,-14zm1153 -273l0 -105c-55,80 -130,120 -224,120 -42,0 -81,-8 -117,-24 -37,-16 -64,-36 -81,-60 -18,-25 -30,-54 -37,-89 -5,-24 -7,-61 -7,-112l0 -440 120 0 0 393c0,63 3,105 7,127 8,31 24,56 48,74 25,18 55,27 91,27 36,0 70,-9 101,-27 32,-19 54,-44 67,-76 13,-31 20,-78 20,-138l0 -380 120 0 0 710 -108 0zm249 -212l119 -19c7,48 25,84 56,110 30,25 73,38 128,38 55,0 96,-11 123,-34 27,-22 40,-49 40,-79 0,-27 -12,-49 -36,-64 -17,-11 -58,-24 -123,-41 -88,-22 -149,-41 -183,-57 -34,-17 -59,-39 -77,-68 -18,-28 -26,-60 -26,-95 0,-31 7,-60 21,-87 15,-27 34,-50 59,-67 19,-14 44,-26 77,-35 32,-10 66,-15 103,-15 56,0 105,8 147,25 42,16 73,37 93,65 20,27 34,64 41,110l-118 16c-5,-36 -20,-65 -46,-86 -25,-21 -61,-31 -108,-31 -55,0 -94,9 -118,27 -23,18 -35,40 -35,64 0,16 5,30 14,42 10,13 25,24 46,32 13,5 48,15 106,31 85,23 144,41 178,56 34,14 60,35 79,63 20,27 29,61 29,102 0,40 -11,78 -35,113 -23,35 -57,63 -101,82 -44,20 -94,29 -150,29 -92,0 -162,-19 -210,-57 -49,-38 -79,-95 -93,-170zm1195 212l0 -105c-55,80 -130,120 -224,120 -42,0 -81,-8 -117,-24 -36,-16 -63,-36 -81,-60 -18,-25 -30,-54 -37,-89 -5,-24 -7,-61 -7,-112l0 -440 120 0 0 393c0,63 3,105 7,127 8,31 24,56 49,74 24,18 54,27 90,27 36,0 70,-9 101,-27 32,-19 54,-44 67,-76 13,-31 20,-78 20,-138l0 -380 120 0 0 710 -108 0zm297 0l0 -710 108 0 0 101c52,-77 127,-116 225,-116 43,0 82,8 118,23 36,16 63,36 81,61 17,25 30,54 37,88 4,23 7,62 7,117l0 436 -121 0 0 -431c0,-49 -4,-86 -14,-110 -9,-24 -26,-43 -49,-58 -24,-14 -52,-22 -84,-22 -51,0 -95,16 -132,49 -37,32 -56,94 -56,185l0 387 -120 0zm1224 -89c-45,38 -88,65 -129,81 -41,15 -85,23 -133,23 -78,0 -138,-19 -180,-57 -42,-38 -63,-86 -63,-145 0,-35 8,-67 24,-95 16,-29 37,-52 62,-69 26,-17 55,-31 87,-40 24,-6 59,-12 107,-18 97,-11 169,-25 215,-41 0,-16 0,-27 0,-31 0,-49 -11,-83 -34,-103 -30,-27 -76,-41 -137,-41 -57,0 -99,10 -125,30 -28,20 -47,55 -60,106l-118 -17c11,-50 28,-91 53,-122 24,-31 60,-55 107,-72 46,-16 100,-25 161,-25 60,0 110,7 148,22 38,14 66,32 84,54 17,21 30,49 37,82 4,20 6,57 6,110l0 160c0,111 3,182 8,211 4,30 14,59 29,86l-126 0c-12,-25 -20,-55 -23,-89zm-10 -266c-43,17 -109,32 -196,45 -50,7 -85,15 -106,24 -20,9 -36,22 -47,38 -11,17 -17,36 -17,57 0,32 12,59 36,80 25,21 60,32 107,32 46,0 88,-10 124,-31 36,-20 63,-47 79,-82 13,-27 20,-67 20,-120l0 -43zm307 355l0 -710 108 0 0 101c52,-77 127,-116 225,-116 43,0 82,8 118,23 36,16 63,36 81,61 17,25 30,54 37,88 4,23 7,62 7,117l0 436 -121 0 0 -431c0,-49 -4,-86 -14,-110 -9,-24 -26,-43 -49,-58 -24,-14 -52,-22 -84,-22 -51,0 -95,16 -132,49 -37,32 -56,94 -56,185l0 387 -120 0zm1598 0l0 -90c-44,70 -111,105 -198,105 -56,0 -108,-15 -156,-47 -47,-31 -84,-74 -110,-130 -26,-56 -39,-120 -39,-192 0,-71 12,-135 36,-192 23,-58 59,-102 106,-133 47,-30 100,-46 158,-46 43,0 81,10 114,28 33,18 60,41 81,70l0 -352 121 0 0 979 -113 0zm-380 -354c0,91 19,159 58,203 38,45 84,68 136,68 52,0 97,-22 134,-65 37,-42 55,-108 55,-196 0,-96 -19,-168 -56,-213 -38,-45 -84,-68 -139,-68 -53,0 -98,22 -134,65 -36,44 -54,113 -54,206zm1146 265c-44,38 -87,65 -129,81 -41,15 -85,23 -133,23 -77,0 -137,-19 -179,-57 -42,-38 -63,-86 -63,-145 0,-35 8,-67 24,-95 15,-29 36,-52 62,-69 25,-17 54,-31 86,-40 24,-6 60,-12 107,-18 97,-11 169,-25 215,-41 1,-16 1,-27 1,-31 0,-49 -12,-83 -34,-103 -31,-27 -77,-41 -138,-41 -56,0 -98,10 -125,30 -27,20 -47,55 -60,106l-118 -17c11,-50 29,-91 53,-122 25,-31 60,-55 107,-72 46,-16 100,-25 161,-25 61,0 110,7 148,22 38,14 66,32 84,54 18,21 30,49 38,82 3,20 5,57 5,110l0 160c0,111 3,182 8,211 5,30 15,59 29,86l-125 0c-13,-25 -20,-55 -24,-89zm-9 -266c-44,17 -110,32 -197,45 -50,7 -85,15 -105,24 -21,9 -37,22 -48,38 -11,17 -17,36 -17,57 0,32 12,59 37,80 24,21 60,32 106,32 47,0 88,-10 124,-31 36,-20 63,-47 80,-82 13,-27 19,-67 19,-120l1 -43zm306 355l0 -710 108 0 0 101c52,-77 127,-116 226,-116 43,0 82,8 117,23 36,16 63,36 81,61 18,25 30,54 37,88 5,23 7,62 7,117l0 436 -120 0 0 -431c0,-49 -5,-86 -14,-110 -10,-24 -26,-43 -50,-58 -24,-14 -52,-22 -84,-22 -51,0 -95,16 -132,49 -37,32 -55,94 -55,185l0 387 -121 0zm-9158 1528l-267 -710 128 0 152 425c16,46 32,93 46,143 10,-38 25,-82 45,-135l157 -433 124 0 -269 710 -116 0zm974 -230l125 16c-20,73 -56,129 -109,169 -53,40 -120,60 -203,60 -103,0 -185,-32 -246,-96 -60,-64 -91,-153 -91,-268 0,-119 31,-212 92,-277 62,-66 141,-99 239,-99 94,0 172,32 232,97 60,64 90,155 90,272 0,7 -1,17 -1,32l-529 0c5,77 27,137 67,178 39,41 88,62 147,62 44,0 82,-11 113,-35 31,-23 56,-60 74,-111zm-394 -193l395 0c-5,-60 -20,-104 -45,-134 -38,-46 -88,-70 -148,-70 -56,0 -102,19 -139,56 -38,37 -59,86 -63,148zm669 423l0 -710 108 0 0 109c28,-51 53,-84 77,-100 23,-16 49,-24 77,-24 41,0 82,13 124,38l-43 111c-29,-16 -58,-25 -88,-25 -26,0 -49,8 -70,24 -21,16 -36,38 -44,66 -14,42 -21,89 -21,140l0 371 -120 0zm457 -843l0 -136 120 0 0 136 -120 0zm0 843l0 -710 120 0 0 710 -120 0zm335 0l0 -617 -107 0 0 -93 107 0 0 -69c0,-70 15,-124 46,-161 30,-37 78,-56 143,-56 45,0 85,5 123,15l-19 102c-24,-4 -45,-6 -65,-6 -41,0 -70,8 -85,25 -15,16 -23,51 -23,104l0 46 138 0 0 93 -138 0 0 617 -120 0zm347 -843l0 -136 121 0 0 136 -121 0zm0 843l0 -710 121 0 0 710 -121 0zm306 0l0 -979 120 0 0 557 284 -288 156 0 -271 264 298 446 -148 0 -236 -363 -83 81 0 282 -120 0zm1146 -89c-44,38 -87,64 -129,80 -41,16 -85,24 -132,24 -78,0 -138,-19 -180,-57 -42,-38 -63,-87 -63,-146 0,-34 8,-66 24,-95 16,-28 36,-51 62,-69 26,-17 54,-30 86,-39 24,-6 60,-12 107,-18 98,-11 169,-25 215,-41 1,-17 1,-27 1,-31 0,-49 -12,-84 -34,-104 -31,-27 -77,-40 -138,-40 -56,0 -98,10 -125,30 -27,19 -47,54 -60,105l-118 -16c11,-51 29,-91 53,-122 25,-31 60,-55 107,-72 46,-17 100,-25 161,-25 61,0 110,7 148,21 38,15 66,32 84,54 18,22 30,49 38,82 3,21 6,58 6,111l0 159c0,112 2,182 7,212 5,30 15,58 29,86l-125 0c-12,-26 -20,-55 -24,-89zm-9 -267c-44,18 -110,33 -197,45 -50,7 -85,15 -105,24 -21,9 -37,22 -48,39 -11,17 -17,36 -17,57 0,32 12,58 37,79 24,22 60,32 106,32 47,0 88,-10 124,-30 36,-20 63,-48 80,-83 13,-27 19,-67 19,-119l1 -44z"/>
    <path class="fil3" d="M14526 20731l118 -19c7,47 26,84 56,109 31,25 74,38 128,38 56,0 97,-11 124,-34 26,-22 40,-48 40,-79 0,-27 -12,-48 -36,-64 -17,-10 -58,-24 -123,-40 -88,-23 -149,-42 -183,-58 -34,-16 -60,-39 -78,-67 -17,-29 -26,-61 -26,-95 0,-32 7,-61 22,-88 14,-27 34,-49 59,-67 18,-14 44,-25 76,-35 32,-9 67,-14 104,-14 55,0 104,8 146,24 42,16 73,38 93,65 20,28 34,64 41,111l-117 16c-5,-37 -21,-66 -46,-87 -26,-20 -62,-31 -109,-31 -55,0 -94,9 -117,28 -24,18 -36,39 -36,64 0,15 5,29 15,42 10,13 25,23 46,32 12,4 47,15 106,31 85,22 144,41 178,55 33,15 60,36 79,63 19,28 29,62 29,103 0,40 -12,77 -35,113 -24,35 -57,62 -101,82 -45,19 -95,29 -150,29 -92,0 -163,-20 -211,-58 -48,-38 -79,-94 -92,-169zm731 -631l0 -136 120 0 0 136 -120 0zm0 843l0 -710 120 0 0 710 -120 0zm1142 0l0 -90c-45,70 -111,105 -199,105 -56,0 -108,-16 -155,-47 -48,-31 -84,-75 -110,-130 -26,-56 -39,-120 -39,-193 0,-70 11,-134 35,-192 24,-57 59,-102 106,-132 47,-31 100,-46 158,-46 43,0 81,9 114,27 33,18 61,42 82,71l0 -352 120 0 0 979 -112 0zm-380 -354c0,90 19,158 57,203 39,45 84,67 136,67 53,0 97,-21 134,-64 37,-43 55,-108 55,-196 0,-97 -18,-168 -56,-213 -37,-46 -83,-68 -138,-68 -54,0 -99,21 -135,65 -35,43 -53,112 -53,206zm637 -1c0,-131 36,-228 110,-291 60,-53 135,-79 223,-79 97,0 177,32 239,96 62,63 93,151 93,264 0,91 -14,162 -41,215 -28,52 -68,92 -120,121 -52,29 -110,44 -171,44 -100,0 -180,-32 -241,-96 -61,-63 -92,-155 -92,-274zm123 0c0,91 20,159 60,203 39,46 89,68 150,68 59,0 109,-22 149,-68 40,-45 59,-114 59,-207 0,-87 -20,-154 -59,-199 -40,-45 -90,-67 -149,-67 -61,0 -111,22 -150,67 -40,45 -60,113 -60,203zm683 355l0 -979 120 0 0 557 285 -288 155 0 -271 264 299 446 -149 0 -235 -363 -84 81 0 282 -120 0zm1147 0l0 -106c-55,81 -130,121 -225,121 -41,0 -80,-8 -117,-24 -36,-16 -63,-37 -80,-61 -18,-24 -30,-54 -37,-89 -5,-24 -7,-61 -7,-112l0 -439 120 0 0 393c0,62 2,105 7,126 8,32 24,57 48,75 25,18 55,27 91,27 36,0 69,-9 101,-28 31,-18 54,-44 67,-75 13,-32 19,-78 19,-139l0 -379 121 0 0 710 -108 0zm297 0l0 -710 108 0 0 100c22,-34 51,-62 88,-83 37,-22 79,-32 126,-32 53,0 96,11 129,32 34,22 58,53 71,92 57,-83 130,-124 220,-124 71,0 125,19 163,58 38,39 57,99 57,180l0 487 -120 0 0 -447c0,-48 -4,-83 -12,-104 -8,-21 -22,-38 -42,-51 -21,-13 -45,-19 -73,-19 -50,0 -91,16 -124,49 -33,34 -50,87 -50,160l0 412 -120 0 0 -461c0,-53 -10,-93 -30,-120 -19,-27 -51,-40 -96,-40 -33,0 -65,9 -93,26 -29,18 -50,44 -63,79 -13,34 -19,83 -19,148l0 368 -120 0zm1623 -230l124 16c-19,73 -55,129 -108,169 -53,40 -121,60 -203,60 -103,0 -185,-32 -246,-96 -61,-64 -91,-153 -91,-268 0,-119 31,-212 92,-277 61,-66 141,-99 238,-99 95,0 172,32 232,97 60,64 90,155 90,272 0,7 0,17 0,32l-529 0c5,77 27,137 66,178 40,41 89,62 148,62 44,0 82,-11 113,-35 31,-23 55,-60 74,-111zm-394 -193l395 0c-5,-60 -20,-104 -45,-134 -38,-46 -88,-70 -149,-70 -55,0 -101,19 -139,56 -37,37 -58,86 -62,148zm670 423l0 -710 108 0 0 101c52,-78 127,-116 226,-116 42,0 82,8 117,23 36,15 63,35 81,60 18,25 30,55 37,89 5,22 7,61 7,117l0 436 -121 0 0 -432c0,-49 -4,-85 -13,-109 -10,-25 -26,-44 -50,-59 -24,-14 -52,-21 -84,-21 -51,0 -95,16 -132,49 -37,32 -56,94 -56,184l0 388 -120 0zm-10099 1527l0 -105c-55,80 -130,120 -225,120 -41,0 -80,-8 -116,-24 -37,-16 -64,-36 -81,-60 -18,-25 -30,-54 -37,-89 -5,-24 -7,-61 -7,-112l0 -440 120 0 0 393c0,63 2,105 7,127 8,31 24,56 48,74 25,18 55,27 91,27 36,0 70,-9 101,-27 31,-19 54,-44 67,-76 13,-32 20,-78 20,-138l0 -380 120 0 0 710 -108 0zm249 -212l119 -19c7,48 25,84 56,110 30,25 73,38 128,38 55,0 96,-12 123,-34 27,-22 40,-49 40,-79 0,-27 -12,-49 -36,-64 -17,-11 -58,-24 -123,-41 -88,-22 -149,-41 -183,-57 -34,-17 -60,-39 -77,-68 -18,-28 -26,-60 -26,-95 0,-31 7,-60 21,-87 15,-27 34,-50 59,-67 19,-14 44,-26 77,-35 32,-10 66,-15 103,-15 56,0 105,8 147,25 42,15 73,37 93,65 20,27 33,64 41,110l-118 16c-5,-37 -20,-65 -46,-86 -25,-21 -61,-31 -108,-31 -55,0 -94,9 -118,27 -23,18 -35,40 -35,64 0,16 5,30 14,42 10,13 25,24 46,32 12,5 48,15 106,31 85,23 144,41 178,56 34,14 60,35 79,63 20,27 29,61 29,102 0,40 -11,78 -35,113 -23,35 -57,63 -101,82 -44,20 -94,29 -150,29 -92,0 -162,-19 -210,-57 -49,-38 -80,-95 -93,-170zm1195 123c-45,38 -88,65 -129,81 -41,15 -85,23 -133,23 -78,0 -138,-19 -180,-57 -42,-38 -63,-86 -63,-145 0,-35 8,-67 24,-95 16,-29 37,-52 62,-69 26,-17 55,-31 87,-40 24,-6 59,-12 107,-18 97,-11 169,-25 215,-41 0,-16 0,-27 0,-31 0,-49 -11,-83 -34,-103 -30,-27 -76,-41 -137,-41 -57,0 -99,10 -125,30 -28,20 -47,55 -60,106l-118 -17c11,-50 28,-91 53,-122 24,-31 60,-55 107,-72 46,-16 100,-25 161,-25 60,0 110,7 148,22 38,14 66,32 84,54 17,21 30,49 37,82 4,20 6,57 6,110l0 160c0,111 3,182 8,211 4,30 14,59 29,86l-126 0c-12,-25 -20,-55 -23,-89zm-10 -266c-43,17 -109,32 -196,45 -50,7 -85,15 -106,24 -20,8 -36,21 -47,38 -11,17 -17,36 -17,57 0,32 12,59 36,80 25,21 60,32 107,32 46,0 88,-10 124,-31 36,-20 63,-47 79,-82 13,-27 20,-67 20,-120l0 -43zm307 355l0 -979 120 0 0 352c56,-65 127,-98 212,-98 52,0 97,11 136,31 39,21 66,50 83,86 16,37 25,90 25,159l0 449 -121 0 0 -449c0,-60 -13,-103 -38,-131 -26,-27 -63,-41 -110,-41 -36,0 -69,9 -100,28 -31,18 -53,43 -67,75 -13,32 -20,75 -20,131l0 387 -120 0zm1224 -89c-45,38 -88,65 -129,81 -41,15 -85,23 -133,23 -78,0 -138,-19 -180,-57 -42,-38 -63,-86 -63,-145 0,-35 8,-67 24,-95 16,-29 37,-52 62,-69 26,-17 55,-31 87,-40 24,-6 59,-12 107,-18 97,-11 169,-25 215,-41 0,-16 0,-27 0,-31 0,-49 -11,-83 -34,-103 -31,-27 -76,-41 -137,-41 -57,0 -99,10 -126,30 -27,20 -46,55 -59,106l-118 -17c11,-50 28,-91 53,-122 24,-31 60,-55 106,-72 47,-16 101,-25 162,-25 60,0 110,7 148,22 38,14 66,32 84,54 17,21 30,49 37,82 4,20 6,57 6,110l0 160c0,111 3,182 8,211 4,30 14,59 29,86l-126 0c-12,-25 -20,-55 -23,-89zm-10 -266c-43,17 -109,32 -196,45 -50,7 -85,15 -106,24 -20,8 -36,21 -47,38 -11,17 -17,36 -17,57 0,32 12,59 36,80 25,21 60,32 107,32 46,0 88,-10 124,-31 36,-20 62,-47 79,-82 13,-27 20,-67 20,-120l0 -43zm338 355l0 -137 137 0 0 137c0,50 -9,91 -27,122 -18,31 -46,55 -85,72l-33 -52c26,-11 44,-27 56,-49 12,-21 19,-52 21,-93l-69 0zm839 0l-112 0 0 -979 121 0 0 349c51,-63 115,-95 194,-95 44,0 85,9 124,27 39,17 71,42 96,74 25,32 45,70 59,115 15,44 22,92 22,144 0,121 -30,215 -90,281 -61,66 -133,99 -217,99 -83,0 -149,-35 -197,-104l0 89zm-1 -360c0,85 12,146 35,184 38,62 89,93 153,93 53,0 98,-23 136,-69 38,-45 58,-113 58,-203 0,-93 -19,-161 -55,-205 -37,-44 -81,-66 -133,-66 -53,0 -98,23 -136,68 -39,46 -58,112 -58,198zm1115 271c-45,38 -88,65 -129,81 -42,15 -86,23 -133,23 -78,0 -138,-19 -180,-57 -42,-38 -63,-86 -63,-145 0,-35 8,-67 24,-95 16,-29 37,-52 62,-69 26,-17 55,-31 87,-40 23,-6 59,-12 107,-18 97,-11 169,-25 214,-41 1,-16 1,-27 1,-31 0,-49 -11,-83 -34,-103 -31,-27 -77,-41 -137,-41 -57,0 -99,10 -126,30 -27,20 -47,55 -60,106l-117 -17c10,-50 28,-91 53,-122 24,-31 60,-55 106,-72 46,-16 100,-25 162,-25 60,0 110,7 148,22 37,14 66,32 83,54 18,21 31,49 38,82 4,20 6,57 6,110l0 160c0,111 2,182 7,211 5,30 15,59 30,86l-126 0c-12,-25 -20,-55 -23,-89zm-10 -266c-44,17 -109,32 -197,45 -49,7 -85,15 -105,24 -21,8 -36,21 -47,38 -12,17 -17,36 -17,57 0,32 12,59 36,80 25,21 60,32 107,32 46,0 87,-10 124,-31 36,-20 62,-47 79,-82 13,-27 19,-67 19,-120l1 -43zm307 355l0 -979 120 0 0 352c56,-65 126,-98 211,-98 53,0 98,11 137,31 38,21 66,50 82,86 17,37 25,90 25,159l0 449 -120 0 0 -449c0,-60 -13,-103 -39,-131 -26,-27 -62,-41 -110,-41 -35,0 -68,9 -99,28 -32,18 -54,43 -67,75 -13,32 -20,75 -20,131l0 387 -120 0zm1224 -89c-45,38 -88,65 -129,81 -42,15 -86,23 -133,23 -78,0 -138,-19 -180,-57 -42,-38 -63,-86 -63,-145 0,-35 8,-67 24,-95 16,-29 36,-52 62,-69 26,-17 54,-31 87,-40 23,-6 59,-12 107,-18 97,-11 169,-25 214,-41 1,-16 1,-27 1,-31 0,-49 -11,-83 -34,-103 -31,-27 -77,-41 -137,-41 -57,0 -99,10 -126,30 -27,20 -47,55 -60,106l-117 -17c10,-50 28,-91 53,-122 24,-31 60,-55 106,-72 46,-16 100,-25 161,-25 61,0 111,7 149,22 37,14 65,32 83,54 18,21 31,49 38,82 4,20 6,57 6,110l0 160c0,111 2,182 7,211 5,30 15,59 30,86l-126 0c-12,-25 -20,-55 -23,-89zm-10 -266c-44,17 -109,32 -197,45 -49,7 -85,15 -105,24 -21,8 -36,21 -48,38 -11,17 -16,36 -16,57 0,32 12,59 36,80 24,21 60,32 107,32 46,0 87,-10 123,-31 36,-20 63,-47 80,-82 13,-27 19,-67 19,-120l1 -43zm307 355l0 -710 108 0 0 101c52,-77 127,-116 225,-116 43,0 82,8 118,23 36,16 62,36 80,61 18,25 31,54 38,88 4,23 6,62 6,117l0 436 -120 0 0 -431c0,-49 -5,-86 -14,-110 -9,-24 -26,-43 -50,-58 -23,-14 -51,-22 -83,-22 -51,0 -95,16 -132,49 -38,32 -56,94 -56,185l0 387 -120 0zm1251 0l-112 0 0 -979 120 0 0 349c51,-63 115,-95 194,-95 44,0 85,9 124,27 39,17 71,42 96,74 25,32 45,70 59,115 15,44 22,92 22,144 0,121 -30,215 -90,281 -60,66 -132,99 -216,99 -84,0 -150,-35 -197,-104l0 89zm-2 -360c0,85 12,146 35,184 38,62 89,93 153,93 53,0 98,-23 136,-69 39,-45 58,-113 58,-203 0,-93 -18,-161 -55,-205 -37,-44 -81,-66 -133,-66 -53,0 -98,23 -136,68 -39,46 -58,112 -58,198zm1115 271c-45,38 -88,65 -129,81 -41,15 -86,23 -133,23 -78,0 -138,-19 -180,-57 -42,-38 -63,-86 -63,-145 0,-35 8,-67 24,-95 16,-29 37,-52 62,-69 26,-17 55,-31 87,-40 24,-6 59,-12 107,-18 97,-11 169,-25 215,-41 0,-16 0,-27 0,-31 0,-49 -11,-83 -34,-103 -31,-27 -76,-41 -137,-41 -57,0 -99,10 -126,30 -27,20 -47,55 -60,106l-117 -17c11,-50 28,-91 53,-122 24,-31 60,-55 106,-72 47,-16 101,-25 162,-25 60,0 110,7 148,22 38,14 66,32 84,54 17,21 30,49 37,82 4,20 6,57 6,110l0 160c0,111 3,182 8,211 4,30 14,59 29,86l-126 0c-12,-25 -20,-55 -23,-89zm-10 -266c-43,17 -109,32 -197,45 -49,7 -84,15 -105,24 -20,8 -36,21 -47,38 -11,17 -17,36 -17,57 0,32 12,59 36,80 25,21 60,32 107,32 46,0 88,-10 124,-31 36,-20 62,-47 79,-82 13,-27 20,-67 20,-120l0 -43zm307 355l0 -979 121 0 0 558 284 -289 156 0 -271 264 298 446 -148 0 -236 -363 -83 82 0 281 -121 0zm1147 0l0 -105c-55,80 -130,120 -224,120 -42,0 -81,-8 -117,-24 -37,-16 -63,-36 -81,-60 -18,-25 -30,-54 -37,-89 -5,-24 -7,-61 -7,-112l0 -440 120 0 0 393c0,63 3,105 7,127 8,31 24,56 49,74 24,18 54,27 90,27 36,0 70,-9 101,-27 32,-19 54,-44 67,-76 13,-32 20,-78 20,-138l0 -380 120 0 0 710 -108 0zm328 0l0 -137 137 0 0 137c0,50 -9,91 -27,122 -17,31 -46,55 -85,72l-33 -52c26,-11 44,-27 56,-49 12,-21 19,-52 21,-93l-69 0zm-11664 1800l0 -982 110 0 0 93c26,-36 55,-63 87,-81 33,-18 72,-27 118,-27 61,0 114,15 161,47 46,31 81,75 104,131 24,57 36,119 36,186 0,73 -13,138 -39,196 -26,58 -64,102 -114,133 -49,31 -101,47 -156,47 -40,0 -76,-9 -108,-26 -32,-17 -58,-38 -78,-64l0 347 -121 0zm110 -623c0,91 18,158 55,202 37,43 81,65 134,65 53,0 99,-22 137,-68 38,-45 57,-114 57,-209 0,-90 -19,-158 -56,-203 -37,-44 -81,-67 -133,-67 -51,0 -96,24 -135,72 -40,48 -59,117 -59,208zm649 351l0 -710 109 0 0 109c27,-51 53,-84 76,-100 24,-16 49,-24 77,-24 41,0 82,13 124,38l-43 111c-29,-16 -58,-25 -87,-25 -26,0 -50,8 -71,24 -20,16 -35,38 -44,66 -14,42 -20,89 -20,140l0 371 -121 0zm412 -355c0,-131 36,-228 110,-292 60,-52 135,-78 223,-78 97,0 177,32 239,96 62,63 93,151 93,264 0,91 -14,162 -41,215 -28,52 -68,92 -120,121 -52,29 -109,44 -171,44 -100,0 -180,-32 -241,-96 -61,-63 -92,-155 -92,-274zm123 0c0,91 20,159 60,203 39,46 89,68 150,68 59,0 109,-22 149,-68 40,-45 60,-114 60,-207 0,-87 -21,-154 -60,-199 -40,-45 -90,-67 -149,-67 -61,0 -111,22 -150,67 -40,45 -60,113 -60,203zm635 143l119 -20c6,48 25,85 56,110 30,25 73,38 128,38 55,0 96,-11 123,-34 27,-22 40,-48 40,-79 0,-27 -12,-48 -36,-64 -17,-10 -58,-24 -123,-40 -88,-23 -149,-42 -183,-58 -34,-16 -60,-39 -77,-67 -18,-29 -27,-61 -27,-95 0,-32 8,-61 22,-88 15,-27 34,-49 59,-67 19,-14 44,-25 76,-35 33,-9 67,-14 104,-14 56,0 104,8 146,24 42,16 73,38 94,65 19,28 33,64 41,110l-118 17c-5,-37 -21,-66 -46,-87 -26,-20 -62,-31 -108,-31 -55,0 -95,9 -118,28 -24,18 -35,39 -35,64 0,15 4,29 14,42 10,13 25,23 46,32 12,4 47,15 106,31 85,22 144,41 178,55 34,14 60,36 79,63 20,28 29,62 29,103 0,40 -12,77 -35,113 -23,35 -57,62 -101,82 -44,19 -94,29 -150,29 -92,0 -162,-20 -211,-58 -48,-38 -79,-94 -92,-169z"/>
    <path class="fil3" d="M13386 23768l125 16c-20,73 -56,129 -109,169 -53,40 -120,60 -202,60 -104,0 -186,-32 -246,-96 -61,-64 -91,-153 -91,-268 0,-119 30,-212 91,-277 62,-66 141,-99 239,-99 95,0 172,32 232,96 60,65 90,156 90,273 0,7 0,17 -1,31l-528 0c4,78 26,138 66,179 39,41 89,62 148,62 44,0 81,-11 112,-35 31,-23 56,-60 74,-111zm-393 -193l395 0c-6,-60 -21,-104 -46,-134 -38,-46 -87,-70 -148,-70 -55,0 -102,19 -139,56 -38,37 -58,86 -62,148zm622 211l119 -20c6,48 25,85 56,110 30,25 73,38 128,38 55,0 96,-11 123,-34 27,-22 40,-48 40,-79 0,-27 -12,-48 -36,-64 -17,-10 -58,-24 -123,-40 -88,-23 -149,-42 -183,-58 -34,-16 -60,-39 -77,-67 -18,-29 -27,-61 -27,-95 0,-32 8,-61 22,-88 15,-27 34,-49 59,-67 19,-14 44,-25 76,-35 33,-9 67,-14 104,-14 56,0 104,8 146,24 43,16 74,38 94,65 19,28 33,64 41,110l-118 17c-5,-37 -20,-66 -46,-87 -25,-20 -62,-31 -108,-31 -55,0 -95,9 -118,28 -24,18 -35,39 -35,64 0,15 4,29 14,42 10,13 25,23 46,32 12,4 47,15 106,31 85,22 144,41 178,55 34,14 60,36 79,63 20,28 29,62 29,103 0,40 -11,77 -35,113 -23,35 -57,62 -101,82 -44,19 -94,29 -150,29 -92,0 -162,-20 -211,-58 -48,-38 -79,-94 -92,-169zm1111 484l0 -982 110 0 0 93c25,-36 55,-63 87,-81 33,-18 72,-27 118,-27 61,0 114,15 160,47 47,31 82,75 105,131 24,57 36,119 36,186 0,73 -13,138 -39,196 -26,58 -64,102 -114,133 -49,31 -102,47 -156,47 -40,0 -76,-9 -108,-26 -32,-17 -58,-38 -78,-64l0 347 -121 0zm110 -623c0,91 18,158 55,202 37,43 81,65 134,65 53,0 99,-22 137,-68 38,-45 57,-114 57,-209 0,-90 -19,-158 -56,-203 -37,-44 -81,-67 -133,-67 -51,0 -96,24 -135,72 -40,48 -59,117 -59,208zm649 351l0 -710 108 0 0 109c28,-51 54,-84 77,-100 23,-16 49,-24 77,-24 41,0 82,13 124,38l-43 111c-29,-16 -58,-25 -87,-25 -27,0 -50,8 -71,24 -21,16 -35,38 -44,66 -14,42 -20,89 -20,140l0 371 -121 0zm412 -355c0,-131 36,-228 110,-292 60,-52 135,-78 223,-78 97,0 177,32 239,96 61,63 92,151 92,264 0,91 -13,162 -41,215 -27,52 -67,92 -119,121 -52,29 -110,44 -171,44 -100,0 -180,-32 -241,-96 -62,-63 -92,-155 -92,-274zm123 0c0,91 20,159 59,203 40,46 90,68 151,68 59,0 109,-22 149,-68 40,-45 59,-114 59,-207 0,-87 -20,-154 -60,-199 -39,-45 -89,-67 -148,-67 -61,0 -111,22 -151,67 -39,45 -59,113 -59,203zm1141 355l0 -90c-45,70 -111,105 -199,105 -56,0 -108,-16 -155,-47 -48,-31 -84,-75 -111,-130 -26,-56 -39,-120 -39,-193 0,-70 12,-134 36,-192 23,-57 59,-102 106,-132 47,-31 100,-46 158,-46 43,0 81,9 114,27 33,18 60,42 81,71l0 -352 121 0 0 979 -112 0zm-381 -354c0,90 20,158 58,203 38,45 84,67 136,67 53,0 97,-21 134,-64 37,-43 55,-108 55,-196 0,-97 -18,-168 -56,-213 -37,-46 -84,-68 -139,-68 -53,0 -98,21 -134,65 -36,43 -54,112 -54,206zm1147 354l0 -106c-56,81 -130,121 -225,121 -42,0 -81,-8 -117,-24 -36,-16 -63,-37 -81,-61 -17,-24 -29,-54 -36,-89 -5,-24 -8,-61 -8,-112l0 -439 121 0 0 393c0,62 2,105 7,126 7,32 23,57 48,75 24,18 54,27 90,27 36,0 70,-9 102,-28 31,-18 53,-44 67,-75 13,-32 19,-78 19,-139l0 -379 121 0 0 710 -108 0zm297 0l0 -979 120 0 0 557 285 -288 155 0 -271 264 298 446 -148 0 -235 -363 -84 81 0 282 -120 0zm635 -212l119 -20c7,48 26,85 56,110 31,25 73,38 128,38 56,0 97,-11 123,-34 27,-22 41,-48 41,-79 0,-27 -13,-48 -36,-64 -17,-10 -58,-24 -124,-40 -87,-23 -148,-42 -183,-58 -33,-16 -59,-39 -77,-67 -17,-29 -26,-61 -26,-95 0,-32 7,-61 21,-88 15,-27 35,-49 59,-67 19,-14 45,-25 77,-35 32,-9 67,-14 103,-14 56,0 105,8 147,24 42,16 73,38 93,65 20,28 34,64 41,110l-117 17c-6,-37 -21,-66 -47,-87 -25,-20 -61,-31 -108,-31 -55,0 -94,9 -118,28 -23,18 -35,39 -35,64 0,15 5,29 15,42 9,13 25,23 46,32 12,4 47,15 106,31 84,22 144,41 177,55 34,14 61,36 80,63 19,28 29,62 29,103 0,40 -12,77 -36,113 -23,35 -57,62 -101,82 -44,19 -94,29 -149,29 -92,0 -163,-20 -211,-58 -48,-38 -79,-94 -93,-169zm732 -631l0 -136 120 0 0 136 -120 0zm0 843l0 -710 120 0 0 710 -120 0zm-9349 1527l0 -979 121 0 0 352c56,-65 126,-98 211,-98 52,0 98,11 136,31 39,21 67,50 83,86 17,37 25,90 25,159l0 449 -120 0 0 -449c0,-60 -13,-103 -39,-131 -26,-27 -62,-41 -110,-41 -35,0 -68,9 -100,28 -31,18 -53,43 -66,75 -14,32 -20,75 -20,131l0 387 -121 0zm761 -842l0 -137 120 0 0 137 -120 0zm0 842l0 -710 120 0 0 710 -120 0zm304 0l0 -710 108 0 0 101c52,-77 127,-116 225,-116 43,0 82,8 118,23 36,16 63,36 80,61 18,25 31,54 38,88 4,23 6,62 6,117l0 436 -120 0 0 -431c0,-49 -5,-86 -14,-110 -9,-24 -26,-43 -50,-58 -23,-14 -51,-22 -83,-22 -51,0 -95,16 -132,49 -38,32 -56,94 -56,185l0 387 -120 0zm738 59l116 16c5,36 19,62 41,79 30,22 71,33 122,33 56,0 99,-11 129,-33 31,-22 51,-53 62,-93 6,-24 9,-76 9,-154 -53,62 -118,93 -197,93 -97,0 -173,-35 -226,-105 -54,-71 -81,-155 -81,-253 0,-68 13,-130 37,-188 24,-57 60,-101 106,-132 47,-31 102,-47 165,-47 83,0 152,35 206,103l0 -88 111 0 0 613c0,111 -11,189 -34,235 -22,46 -58,82 -106,109 -49,27 -109,40 -180,40 -84,0 -153,-19 -205,-57 -52,-38 -77,-95 -75,-171zm98 -426c0,93 19,161 56,203 37,43 83,64 139,64 55,0 101,-21 139,-63 37,-43 56,-109 56,-200 0,-87 -19,-152 -58,-196 -38,-44 -85,-66 -139,-66 -54,0 -99,22 -137,65 -37,43 -56,108 -56,193zm662 426l117 16c4,36 18,62 40,79 30,22 71,33 123,33 55,0 99,-11 129,-33 30,-22 51,-53 61,-93 7,-24 9,-76 9,-154 -53,62 -118,93 -196,93 -98,0 -174,-35 -227,-105 -54,-71 -80,-155 -80,-253 0,-68 12,-130 37,-188 24,-57 59,-101 106,-132 46,-31 101,-47 164,-47 84,0 153,35 207,103l0 -88 111 0 0 613c0,111 -11,189 -34,235 -22,46 -58,82 -107,109 -48,27 -108,40 -179,40 -85,0 -153,-19 -205,-57 -52,-38 -77,-95 -76,-171zm99 -426c0,93 18,161 55,203 37,43 84,64 139,64 56,0 102,-21 140,-63 37,-43 56,-109 56,-200 0,-87 -20,-152 -58,-196 -39,-44 -85,-66 -140,-66 -53,0 -98,22 -136,65 -37,43 -56,108 -56,193zm1148 278c-45,38 -88,65 -129,81 -42,15 -86,23 -133,23 -78,0 -138,-19 -180,-57 -42,-38 -63,-86 -63,-145 0,-35 8,-67 24,-95 16,-29 36,-52 62,-69 26,-17 54,-31 87,-40 23,-6 59,-12 107,-18 97,-11 168,-25 214,-41 1,-16 1,-27 1,-31 0,-49 -11,-83 -34,-103 -31,-27 -77,-41 -137,-41 -57,0 -99,10 -126,30 -27,20 -47,55 -60,106l-117 -17c10,-50 28,-91 52,-122 25,-31 61,-55 107,-72 46,-16 100,-25 161,-25 61,0 110,7 149,22 37,14 65,32 83,54 18,21 30,49 38,82 4,20 6,57 6,110l0 160c0,111 2,182 7,211 5,30 15,59 30,86l-126 0c-12,-25 -20,-55 -23,-89zm-10 -266c-44,17 -109,32 -197,45 -50,7 -85,15 -105,24 -21,8 -36,21 -48,38 -11,17 -16,36 -16,57 0,32 12,59 36,80 24,21 60,32 107,32 46,0 87,-10 123,-31 36,-20 63,-47 80,-82 13,-27 19,-67 19,-120l1 -43zm1144 355l0 -90c-44,70 -111,105 -198,105 -56,0 -108,-15 -155,-47 -48,-31 -85,-74 -111,-130 -26,-56 -39,-120 -39,-192 0,-71 12,-135 36,-192 23,-58 59,-102 106,-133 47,-30 100,-46 158,-46 43,0 81,9 114,27 33,18 60,42 81,71l0 -352 121 0 0 979 -113 0zm-380 -354c0,91 19,159 58,203 38,45 84,68 136,68 52,0 97,-22 134,-65 37,-42 55,-108 55,-196 0,-96 -19,-168 -56,-213 -37,-45 -84,-68 -139,-68 -53,0 -98,22 -134,65 -36,44 -54,112 -54,206zm683 -488l0 -137 120 0 0 137 -120 0zm0 842l0 -710 120 0 0 710 -120 0zm256 -212l119 -19c6,48 25,84 56,110 30,25 73,38 128,38 55,0 96,-12 123,-34 27,-22 40,-49 40,-79 0,-27 -12,-49 -36,-64 -17,-11 -58,-24 -123,-41 -88,-22 -149,-41 -183,-57 -34,-17 -60,-39 -77,-68 -18,-28 -27,-60 -27,-95 0,-31 8,-61 22,-87 14,-27 34,-50 59,-67 19,-14 44,-26 76,-35 33,-10 67,-15 104,-15 56,0 104,8 146,25 42,15 73,37 93,65 20,27 34,64 42,110l-118 16c-5,-37 -21,-65 -46,-86 -26,-21 -62,-31 -108,-31 -55,0 -95,9 -118,27 -24,18 -35,40 -35,64 0,16 4,30 14,42 10,13 25,24 46,32 12,5 47,15 106,31 85,23 144,41 178,56 34,14 60,35 79,63 20,27 29,61 29,102 0,40 -12,78 -35,113 -24,35 -57,63 -101,82 -44,20 -94,29 -150,29 -92,0 -162,-19 -211,-57 -48,-38 -79,-95 -92,-170zm992 105l17 106c-34,7 -64,11 -91,11 -43,0 -77,-7 -101,-21 -24,-14 -41,-32 -51,-55 -9,-22 -14,-70 -14,-142l0 -409 -89 0 0 -93 89 0 0 -175 120 -72 0 247 120 0 0 93 -120 0 0 416c0,34 2,57 6,66 5,10 11,18 21,24 10,6 23,9 41,9 13,0 31,-2 52,-5zm118 107l0 -710 108 0 0 109c27,-50 53,-84 76,-99 24,-17 50,-25 78,-25 40,0 81,13 123,38l-42 111c-30,-16 -59,-24 -88,-24 -26,0 -50,8 -70,23 -21,16 -36,38 -45,66 -13,43 -20,89 -20,140l0 371 -120 0zm456 -842l0 -137 121 0 0 137 -121 0zm0 842l0 -710 121 0 0 710 -121 0zm415 0l-112 0 0 -979 120 0 0 349c51,-63 116,-95 195,-95 43,0 85,9 124,27 39,17 70,42 96,74 25,32 45,70 59,115 14,44 21,92 21,144 0,121 -30,215 -90,281 -60,66 -132,99 -216,99 -84,0 -149,-35 -197,-104l0 89zm-1 -360c0,85 11,146 34,184 38,62 89,93 154,93 52,0 98,-23 136,-69 38,-45 57,-113 57,-203 0,-93 -18,-161 -55,-205 -36,-44 -81,-66 -133,-66 -53,0 -98,23 -136,68 -38,46 -57,112 -57,198zm1114 360l0 -105c-55,80 -130,120 -224,120 -42,0 -81,-8 -117,-24 -36,-16 -63,-36 -81,-60 -17,-25 -30,-54 -37,-89 -5,-24 -7,-61 -7,-112l0 -440 120 0 0 393c0,63 3,105 8,127 7,31 23,56 48,74 24,18 54,27 90,27 36,0 70,-9 101,-27 32,-19 54,-44 67,-76 13,-32 20,-78 20,-138l0 -380 120 0 0 710 -108 0zm249 -212l119 -19c7,48 26,84 56,110 31,25 73,38 128,38 56,0 97,-12 123,-34 27,-22 41,-49 41,-79 0,-27 -13,-49 -36,-64 -17,-11 -58,-24 -124,-41 -87,-22 -148,-41 -182,-57 -34,-17 -60,-39 -78,-68 -17,-28 -26,-60 -26,-95 0,-31 7,-61 21,-87 15,-27 35,-50 60,-67 18,-14 44,-26 76,-35 32,-10 67,-15 104,-15 55,0 104,8 146,25 42,15 73,37 93,65 20,27 34,64 41,110l-117 16c-6,-37 -21,-65 -47,-86 -25,-21 -61,-31 -108,-31 -55,0 -94,9 -118,27 -23,18 -35,40 -35,64 0,16 5,30 15,42 9,13 25,24 46,32 12,5 47,15 106,31 84,23 144,41 177,56 34,14 61,35 80,63 19,27 29,61 29,102 0,40 -12,78 -35,113 -24,35 -58,63 -102,82 -44,20 -94,29 -149,29 -92,0 -163,-19 -211,-57 -48,-38 -79,-95 -93,-170zm732 -630l0 -137 120 0 0 137 -120 0zm0 842l0 -710 120 0 0 710 -120 0zm338 0l0 -137 137 0 0 137 -137 0z"/>
   </g>
   <path class="fil2" d="M11315 4568c-159,0 -239,-166 -239,-634 0,-462 80,-628 239,-628 159,0 238,169 238,634 0,456 -79,628 -238,628zm-10 265c361,0 581,-285 581,-909 0,-623 -220,-881 -581,-881 -361,0 -570,258 -570,886 0,632 209,904 570,904zm1775 -58l0 -285 -722 0c8,-86 104,-207 232,-301 359,-255 485,-401 485,-656 0,-331 -230,-490 -568,-490 -343,0 -545,217 -545,578l315 0c0,-224 96,-297 245,-297 129,0 233,50 233,219 0,142 -71,227 -311,399 -429,308 -502,523 -505,833l1141 0z"/>
   <path class="fil4" d="M10600 5670l0 2536c1,877 113,795 993,796l956 1c219,248 402,455 833,471 380,14 675,-158 886,-441 198,-266 238,-709 85,-1029 -160,-333 -356,-447 -741,-577l-5 -1049c1,-313 -50,-291 -400,-651 -101,-104 -175,-167 -257,-254 -304,-319 -201,-243 -846,-245l-1081 0c-277,0 -423,167 -423,442zm2691 1893c-454,68 -834,486 -754,1014 67,447 486,826 1009,755 447,-61 830,-479 760,-1008 -60,-455 -484,-840 -1015,-761zm-818 1304c-49,-179 -87,-253 -78,-455l-1078 1c-112,1 -250,26 -207,-119 242,-88 1129,50 1285,-33 37,-32 134,-823 1065,-846l9 -1172c-180,4 -683,42 -796,-80 -120,-128 -34,-589 -66,-800 -233,-7 -1622,-27 -1727,26 -203,103 -142,414 -142,753 -1,423 -40,2497 47,2617 122,168 544,105 788,104 297,-1 603,-5 900,4zm-1372 -911c72,41 1139,41 1221,1 7,-161 -98,-115 -257,-114l-708 0c-161,0 -267,-49 -256,113zm19 -598c30,31 40,33 98,36 530,30 442,-7 442,-367 0,-204 108,-298 -462,-254 -133,10 -96,114 -95,254 0,98 -23,256 17,331zm722 3c64,50 488,51 525,5 46,-60 20,-875 19,-1087 0,-204 -56,-146 -459,-146 -135,0 -100,121 -99,245 1,197 -21,898 14,983zm704 -433l7 446c74,26 453,38 527,0 41,-38 25,-628 25,-683 2,-193 -40,-161 -214,-160 -426,3 -346,-48 -345,397zm188 1357l2 603c60,35 590,221 667,225 70,3 624,-184 686,-218l3 -924c-102,-48 -268,-94 -383,-129 -390,-122 -247,-111 -815,71 -226,73 -160,117 -160,372zm317 -275c47,46 319,120 351,121 63,2 204,-49 283,-76l88 -45c-292,-135 -429,-137 -722,0zm-178 786l461 158 5 -689 -466 -153 0 684z"/>
  </g>
 </g>
</svg>
