<?xml version="1.0" encoding="UTF-8"?>
<!DOCTYPE svg PUBLIC "-//W3C//DTD SVG 1.1//EN" "http://www.w3.org/Graphics/SVG/1.1/DTD/svg11.dtd">
<!-- Creator: CorelDRAW X7 -->
<svg xmlns="http://www.w3.org/2000/svg" xml:space="preserve" width="83.1119mm" height="76.0302mm" version="1.1" style="shape-rendering:geometricPrecision; text-rendering:geometricPrecision; image-rendering:optimizeQuality; fill-rule:evenodd; clip-rule:evenodd"
viewBox="0 0 11492 10513"
 xmlns:xlink="http://www.w3.org/1999/xlink">
 <defs>
  <style type="text/css">
   <![CDATA[
    .fil4 {fill:#F08519}
    .fil1 {fill:#D4532B}
    .fil0 {fill:#E9EAE9}
    .fil3 {fill:#1D1819;fill-rule:nonzero}
    .fil2 {fill:#113C40;fill-rule:nonzero}
   ]]>
  </style>
 </defs>
 <g id="Layer_x0020_1">
  <metadata id="CorelCorpID_0Corel-Layer"/>
  <path class="fil0" d="M5711 688c-303,668 -626,1123 -1031,1589 -181,209 -89,154 -398,453 -527,511 -1390,1062 -2088,1359 -653,279 -1092,318 -1788,474l-395 -12 -11 5962c1578,-115 2842,-386 4100,-851 1491,-551 2309,-1161 3503,-2053l1272 -1179c132,-129 126,-194 277,-340 118,-114 186,-219 275,-335l771 -1066c268,-434 1178,-2077 1294,-2486l-331 -149c-131,-39 -227,-70 -355,-111 -236,-76 -481,-156 -712,-232 -478,-157 -937,-308 -1430,-459 -488,-149 -905,-305 -1389,-453 -438,-134 -1009,-379 -1458,-454 -53,145 -83,178 -106,343z"/>
  <path class="fil1" d="M406 4563c696,-156 1135,-195 1788,-474 698,-297 1561,-848 2088,-1359 309,-299 217,-244 398,-453 405,-466 728,-921 1031,-1589l-2155 -688c-298,839 -1336,1661 -2119,2010 -328,146 -745,206 -1041,335 -41,309 -50,1945 10,2218z"/>
  <path class="fil2" d="M4291 3628l0 -171 116 0c70,0 99,36 99,84 0,51 -29,87 -99,87l-116 0zm0 311l0 -212 135 0c114,0 187,-76 187,-183 0,-105 -73,-189 -187,-189l-258 0 0 584 123 0zm457 -258c5,-60 43,-95 88,-95 45,0 87,30 89,95l-177 0zm295 72c0,-172 -70,-258 -203,-258 -133,0 -209,86 -209,220 0,156 72,235 216,235 92,0 163,-50 190,-138l-118 0c-8,29 -41,48 -77,48 -57,0 -94,-42 -97,-107l298 0zm431 186l0 -300c0,-94 -60,-144 -143,-144 -69,0 -113,27 -140,75l0 -63 -109 0 0 432 115 0 0 -248c0,-66 29,-99 88,-99 55,0 74,18 74,85l0 262 115 0zm326 13c0,57 -38,93 -80,93 -59,0 -89,-31 -89,-82l-107 0c0,111 65,181 191,181 111,0 199,-71 199,-194l0 -443 -114 0 0 263c0,47 -37,81 -88,81 -49,0 -73,-27 -73,-81l0 -263 -115 0 0 280c0,95 68,156 159,156 53,0 101,-22 117,-61l0 70zm555 -13l0 -432 -113 0 0 249c0,57 -31,99 -89,99 -49,0 -73,-27 -73,-81l0 -267 -114 0 0 284c0,95 60,159 146,159 60,0 105,-22 135,-72l0 61 108 0zm420 -301c-6,-94 -62,-143 -187,-143 -132,0 -182,56 -182,129 0,38 14,72 54,97 31,19 72,32 145,49 36,9 69,19 69,49 0,33 -36,45 -76,45 -56,0 -90,-23 -90,-64l-118 0c2,88 76,150 208,150 123,0 189,-53 189,-143 0,-56 -25,-86 -71,-104 -33,-14 -80,-23 -129,-37 -47,-14 -70,-24 -70,-50 0,-25 24,-36 67,-36 52,0 75,15 81,58l110 0zm434 301l0 -432 -113 0 0 249c0,57 -31,99 -89,99 -48,0 -73,-27 -73,-81l0 -267 -114 0 0 284c0,95 61,159 147,159 59,0 104,-22 134,-72l0 61 108 0zm442 0l0 -300c0,-94 -60,-144 -143,-144 -69,0 -113,27 -140,75l0 -63 -109 0 0 432 115 0 0 -248c0,-66 29,-99 88,-99 55,0 74,18 74,85l0 262 115 0zm312 -164c-1,51 -45,94 -103,94 -36,0 -56,-16 -56,-49 0,-37 21,-55 86,-67 43,-8 63,-14 74,-26l-1 48zm115 164l0 -273c0,-109 -47,-171 -184,-171 -139,0 -188,63 -190,152l106 0c6,-38 27,-64 79,-64 44,0 73,17 73,45 0,30 -16,41 -73,49 -116,16 -199,30 -199,155 0,70 46,118 144,118 58,0 104,-20 131,-50 1,14 4,28 7,39l106 0zm442 0l0 -300c0,-94 -60,-144 -143,-144 -69,0 -113,27 -140,75l0 -63 -108 0 0 432 114 0 0 -248c0,-66 29,-99 89,-99 54,0 73,18 73,85l0 262 115 0zm467 -82c-57,0 -97,-53 -97,-131 0,-88 31,-133 98,-133 63,0 96,46 96,140 0,73 -42,124 -97,124zm205 82l0 -591 -113 0 0 215c-32,-46 -74,-68 -128,-68 -111,0 -177,92 -177,223 0,146 78,232 187,232 53,0 93,-20 120,-64l1 53 110 0zm312 -164c-1,51 -45,94 -104,94 -36,0 -55,-16 -55,-49 0,-37 21,-55 86,-67 42,-8 62,-14 74,-26l-1 48zm115 164l0 -273c0,-109 -47,-171 -185,-171 -138,0 -188,63 -189,152l106 0c5,-38 26,-64 78,-64 45,0 73,17 73,45 0,30 -16,41 -73,49 -115,16 -198,30 -198,155 0,70 45,118 144,118 58,0 103,-20 131,-50 1,14 3,28 7,39l106 0zm442 0l0 -300c0,-94 -61,-144 -143,-144 -70,0 -114,27 -140,75l0 -63 -109 0 0 432 114 0 0 -248c0,-66 29,-99 89,-99 55,0 74,18 74,85l0 262 115 0zm-5770 676l0 -584 -123 0 0 584 123 0zm663 0l0 -300c0,-81 -61,-144 -148,-144 -54,0 -93,21 -116,68 -34,-50 -62,-68 -121,-68 -57,0 -97,17 -126,75l0 -64 -108 0 0 433 115 0 0 -263c0,-56 23,-84 69,-84 50,0 69,17 69,87l0 260 114 0 0 -259c0,-52 31,-92 73,-92 40,0 67,37 67,89l0 262 112 0zm248 -86c-63,0 -96,-47 -96,-141 0,-73 42,-124 97,-124 57,0 97,54 97,131 0,89 -31,134 -98,134zm-92 290l0 -261c33,46 75,68 129,68 111,0 177,-92 177,-223 0,-146 -78,-232 -187,-232 -53,0 -93,20 -120,64l-1 -53 -110 0 0 637 112 0zm462 -204l0 -591 -114 0 0 591 114 0zm156 -259c5,-59 43,-95 88,-95 45,0 87,31 89,95l-177 0zm295 72c0,-171 -71,-257 -203,-257 -133,0 -209,86 -209,220 0,156 72,235 216,235 92,0 163,-50 190,-139l-118 0c-8,30 -41,49 -78,49 -56,0 -93,-43 -96,-108l298 0zm658 187l0 -300c0,-81 -61,-144 -148,-144 -54,0 -93,21 -117,68 -33,-50 -61,-68 -120,-68 -57,0 -97,17 -126,75l0 -64 -108 0 0 433 115 0 0 -263c0,-56 23,-84 69,-84 50,0 69,17 69,87l0 260 114 0 0 -259c0,-52 31,-92 73,-92 40,0 67,37 67,89l0 262 112 0zm152 -259c4,-59 42,-95 88,-95 45,0 87,31 89,95l-177 0zm294 72c0,-171 -70,-257 -203,-257 -132,0 -209,86 -209,220 0,156 72,235 216,235 93,0 164,-50 190,-139l-117 0c-8,30 -41,49 -78,49 -56,0 -93,-43 -96,-108l297 0zm432 187l0 -300c0,-94 -61,-144 -143,-144 -70,0 -114,26 -140,75l0 -64 -109 0 0 433 114 0 0 -248c0,-66 29,-99 89,-99 55,0 74,18 74,85l0 262 115 0zm295 -173c0,54 -21,85 -67,85 -46,0 -65,-32 -65,-86l0 -178 239 0 0 -81 -239 0 0 -117 -113 0 0 387c0,93 50,174 177,174 122,0 175,-82 175,-173l0 -123 -107 0 0 112zm415 8c-1,51 -45,94 -104,94 -36,0 -55,-15 -55,-48 0,-37 21,-55 86,-68 42,-8 63,-14 74,-25l-1 47zm115 165l0 -274c0,-109 -47,-170 -184,-170 -139,0 -188,62 -190,152l106 0c5,-39 27,-64 78,-64 45,0 73,16 73,45 0,29 -15,41 -73,49 -115,16 -198,30 -198,154 0,71 45,119 144,119 58,0 104,-20 131,-50 1,13 3,28 7,39l106 0zm420 -302c-6,-93 -62,-142 -187,-142 -132,0 -182,55 -182,128 0,39 14,72 55,98 30,19 71,31 144,49 37,9 69,18 69,49 0,33 -36,45 -76,45 -56,0 -90,-24 -90,-64l-118 0c2,88 76,150 209,150 123,0 189,-53 189,-143 0,-56 -26,-86 -72,-105 -33,-13 -80,-23 -129,-37 -46,-13 -70,-23 -70,-49 0,-25 25,-36 68,-36 51,0 74,15 80,57l110 0zm162 302l0 -433 -114 0 0 433 114 0zm0 -485l0 -106 -114 0 0 106 114 0zm-4351 749c-5,-112 -87,-191 -235,-191 -142,0 -213,74 -213,179 0,74 35,116 97,144 41,18 88,29 160,45 73,16 91,39 91,74 0,51 -42,82 -114,82 -78,0 -128,-37 -130,-96l-118 0c3,130 103,195 247,195 137,0 233,-58 233,-186 0,-82 -40,-118 -91,-141 -43,-20 -107,-35 -173,-51 -65,-16 -91,-37 -91,-74 0,-44 36,-69 105,-69 74,0 110,29 116,89l116 0zm281 243c0,64 -13,89 -69,89 -50,0 -70,-29 -70,-88l0 -53 -111 0 0 60c0,119 68,181 181,181 125,0 191,-72 191,-178l0 -426 -122 0 0 415zm288 -143l0 -171 116 0c71,0 100,36 100,84 0,51 -29,87 -100,87l-116 0zm0 311l0 -211 136 0c114,0 187,-77 187,-183 0,-106 -73,-189 -187,-189l-258 0 0 583 122 0zm820 0l0 -583 -123 0 0 220 -227 0 0 -220 -123 0 0 583 123 0 0 -261 227 0 0 261 123 0z"/>
  <g id="_386499136">
   <path class="fil3" d="M576 5861l43 -6c1,28 6,47 15,57 9,10 22,15 38,15 12,0 22,-3 31,-8 9,-6 15,-13 18,-22 3,-10 5,-25 5,-45l0 -248 47 0 0 245c0,30 -3,53 -11,70 -7,16 -18,28 -34,37 -16,9 -34,13 -55,13 -32,0 -56,-9 -73,-27 -16,-18 -24,-45 -24,-81zm277 102l0 -359 48 0 0 148 185 0 0 -148 48 0 0 359 -48 0 0 -169 -185 0 0 169 -48 0zm615 -126l48 12c-10,39 -28,69 -54,89 -25,21 -57,31 -94,31 -39,0 -70,-8 -95,-24 -24,-15 -42,-38 -55,-68 -12,-30 -19,-62 -19,-96 0,-37 7,-70 22,-98 14,-27 34,-49 61,-63 26,-14 55,-22 86,-22 36,0 66,9 91,28 24,18 41,44 51,77l-47 11c-8,-26 -20,-45 -36,-57 -16,-12 -35,-18 -59,-18 -28,0 -51,7 -69,20 -19,13 -32,31 -39,53 -8,22 -12,45 -12,69 0,30 5,57 14,80 9,22 22,39 41,51 19,11 39,17 61,17 26,0 49,-8 67,-23 18,-16 31,-39 37,-69zm240 126l0 -260 40 0 0 37c8,-13 19,-23 32,-31 14,-8 29,-11 47,-11 19,0 35,4 47,12 12,8 21,19 26,33 21,-30 47,-45 80,-45 26,0 46,7 60,21 14,14 21,36 21,66l0 178 -44 0 0 -164c0,-17 -2,-30 -4,-38 -3,-7 -8,-14 -16,-18 -7,-5 -16,-7 -26,-7 -19,0 -34,6 -46,18 -12,12 -18,31 -18,58l0 151 -44 0 0 -169c0,-19 -4,-34 -11,-44 -7,-9 -19,-14 -35,-14 -13,0 -24,3 -35,9 -10,7 -18,16 -23,29 -4,13 -7,31 -7,54l0 135 -44 0zm595 -84l46 6c-7,26 -21,47 -40,62 -19,14 -44,22 -74,22 -38,0 -68,-12 -90,-35 -23,-24 -34,-57 -34,-99 0,-43 11,-77 34,-101 22,-24 51,-36 87,-36 35,0 63,11 85,35 22,24 33,57 33,100 0,2 0,6 0,11l-194 0c2,29 10,51 25,66 14,15 32,23 54,23 16,0 30,-5 41,-13 11,-9 20,-22 27,-41zm-144 -71l145 0c-2,-22 -8,-38 -17,-49 -14,-17 -32,-25 -54,-25 -21,0 -38,6 -51,20 -14,13 -22,32 -23,54zm245 155l0 -260 40 0 0 37c8,-13 19,-23 32,-31 14,-8 29,-11 47,-11 19,0 35,4 47,12 12,8 21,19 26,33 21,-30 47,-45 80,-45 26,0 46,7 60,21 14,14 21,36 21,66l0 178 -44 0 0 -164c0,-17 -1,-30 -4,-38 -3,-7 -8,-14 -16,-18 -7,-5 -16,-7 -26,-7 -19,0 -34,6 -46,18 -12,12 -18,31 -18,58l0 151 -44 0 0 -169c0,-19 -4,-34 -11,-44 -7,-9 -19,-14 -35,-14 -13,0 -24,3 -35,9 -10,7 -18,16 -23,29 -4,13 -7,31 -7,54l0 135 -44 0zm458 0l-41 0 0 -359 44 0 0 128c19,-23 43,-34 72,-34 16,0 31,3 45,9 14,7 26,16 35,27 9,12 17,26 22,42 5,17 8,34 8,53 0,45 -11,79 -33,103 -22,25 -49,37 -80,37 -30,0 -54,-13 -72,-39l0 33zm0 -132c0,31 4,54 13,68 13,22 32,34 56,34 19,0 36,-9 50,-26 14,-16 21,-41 21,-74 0,-34 -7,-59 -20,-75 -14,-16 -30,-24 -49,-24 -20,0 -36,8 -50,25 -14,16 -21,41 -21,72zm408 100c-16,13 -32,23 -47,29 -15,6 -31,9 -49,9 -28,0 -50,-7 -66,-21 -15,-14 -23,-32 -23,-54 0,-12 3,-24 9,-34 6,-11 14,-19 23,-26 9,-6 20,-11 32,-14 8,-2 21,-4 39,-7 35,-4 62,-9 79,-15 0,-6 0,-10 0,-11 0,-18 -4,-31 -13,-38 -11,-10 -28,-15 -50,-15 -21,0 -36,4 -46,11 -10,7 -17,20 -22,39l-43 -6c4,-19 10,-34 19,-45 9,-11 22,-20 39,-26 17,-6 37,-9 59,-9 23,0 41,2 55,7 14,6 24,12 30,20 7,8 12,18 14,30 2,8 2,21 2,41l0 58c0,41 1,67 3,78 2,11 6,21 11,31l-46 0c-5,-9 -7,-20 -9,-32zm-3 -98c-16,6 -40,12 -72,16 -19,3 -31,6 -39,9 -7,3 -13,8 -17,14 -4,7 -7,14 -7,21 0,12 5,22 14,29 9,8 22,12 39,12 17,0 32,-4 45,-11 13,-7 23,-18 29,-30 5,-10 8,-25 8,-44l0 -16zm112 130l0 -260 40 0 0 37c19,-28 46,-42 82,-42 16,0 30,2 43,8 14,6 23,13 30,22 6,9 11,20 14,33 1,8 2,22 2,42l0 160 -44 0 0 -158c0,-18 -2,-31 -5,-40 -4,-9 -10,-16 -18,-21 -9,-6 -19,-8 -31,-8 -19,0 -35,6 -48,17 -14,12 -21,35 -21,68l0 142 -44 0zm374 -39l6 39c-12,2 -23,4 -33,4 -16,0 -28,-3 -37,-8 -9,-5 -15,-12 -18,-20 -4,-8 -6,-26 -6,-52l0 -150 -32 0 0 -34 32 0 0 -64 44 -27 0 91 44 0 0 34 -44 0 0 152c0,13 1,21 3,25 1,3 4,6 7,8 4,2 9,4 15,4 5,0 11,-1 19,-2zm214 39l0 -39c-20,30 -48,45 -82,45 -16,0 -30,-3 -43,-9 -14,-6 -23,-13 -30,-22 -6,-9 -11,-20 -13,-33 -2,-9 -3,-22 -3,-41l0 -161 44 0 0 144c0,23 1,38 3,46 2,12 8,21 17,28 9,6 20,10 33,10 14,0 26,-4 38,-11 11,-6 19,-16 24,-27 5,-12 7,-29 7,-51l0 -139 44 0 0 260 -39 0zm248 100l0 -360 40 0 0 34c9,-13 20,-23 32,-30 12,-6 26,-9 43,-9 22,0 42,5 59,17 17,11 30,27 38,48 9,21 13,43 13,68 0,27 -4,51 -14,72 -10,21 -23,37 -42,49 -18,11 -37,17 -57,17 -15,0 -28,-3 -39,-10 -12,-6 -22,-14 -29,-23l0 127 -44 0zm40 -228c0,33 7,58 20,74 14,16 30,24 49,24 20,0 36,-9 50,-25 14,-17 21,-42 21,-77 0,-33 -7,-58 -20,-74 -14,-17 -30,-25 -49,-25 -19,0 -35,9 -49,26 -15,18 -22,43 -22,77zm416 44l45 6c-7,26 -20,47 -39,62 -20,14 -44,22 -75,22 -37,0 -68,-12 -90,-35 -22,-24 -33,-57 -33,-99 0,-43 11,-77 34,-101 22,-24 51,-36 87,-36 35,0 63,11 85,35 22,24 33,57 33,100 0,2 0,6 0,11l-194 0c2,29 10,51 24,66 15,15 33,23 54,23 17,0 30,-5 42,-13 11,-9 20,-22 27,-41zm-144 -71l144 0c-2,-22 -7,-38 -16,-49 -14,-17 -32,-25 -55,-25 -20,0 -37,6 -51,20 -13,13 -21,32 -22,54zm245 155l0 -260 40 0 0 37c19,-28 46,-42 82,-42 16,0 30,2 43,8 14,6 23,13 30,22 6,9 11,20 14,33 1,8 2,22 2,42l0 160 -44 0 0 -158c0,-18 -2,-31 -5,-40 -4,-9 -10,-16 -18,-21 -9,-6 -19,-8 -31,-8 -19,0 -35,6 -48,17 -14,12 -21,35 -21,68l0 142 -44 0zm277 100l-5 -41c9,3 18,4 25,4 10,0 18,-1 24,-5 5,-3 10,-8 14,-13 3,-5 7,-16 13,-33 1,-3 3,-6 4,-11l-98 -261 47 0 54 150c7,19 13,39 19,60 5,-20 11,-39 18,-58l56 -152 44 0 -99 265c-10,28 -19,48 -24,58 -8,15 -17,25 -27,32 -11,7 -23,10 -37,10 -8,0 -18,-1 -28,-5zm422 -100l0 -39c-20,30 -47,45 -82,45 -15,0 -30,-3 -43,-9 -13,-6 -23,-13 -30,-22 -6,-9 -10,-20 -13,-33 -2,-9 -3,-22 -3,-41l0 -161 44 0 0 144c0,23 1,38 3,46 3,12 9,21 18,28 9,6 20,10 33,10 13,0 25,-4 37,-11 11,-6 20,-16 24,-27 5,-12 8,-29 8,-51l0 -139 44 0 0 260 -40 0zm91 -78l44 -7c2,18 9,31 20,41 12,9 27,14 47,14 21,0 36,-5 46,-13 9,-8 14,-18 14,-29 0,-10 -4,-18 -13,-23 -6,-4 -21,-9 -45,-15 -32,-8 -55,-15 -67,-21 -13,-6 -22,-14 -28,-25 -7,-10 -10,-22 -10,-35 0,-11 3,-22 8,-32 5,-10 12,-18 21,-24 7,-5 17,-10 28,-13 12,-4 25,-5 38,-5 21,0 39,2 54,8 16,6 27,14 34,24 7,10 13,24 15,41l-43 6c-2,-14 -7,-24 -17,-32 -9,-8 -22,-11 -39,-11 -21,0 -35,3 -44,10 -8,6 -12,14 -12,23 0,6 1,11 5,16 3,4 9,8 17,11 4,2 17,6 39,12 31,8 52,15 65,20 12,5 22,13 29,23 7,10 10,23 10,38 0,14 -4,28 -13,41 -8,13 -20,23 -37,30 -16,7 -34,11 -54,11 -34,0 -60,-7 -78,-21 -17,-14 -29,-35 -34,-63zm438 78l0 -39c-20,30 -47,45 -82,45 -15,0 -30,-3 -43,-9 -13,-6 -23,-13 -29,-22 -7,-9 -11,-20 -14,-33 -2,-9 -3,-22 -3,-41l0 -161 45 0 0 144c0,23 0,38 2,46 3,12 9,21 18,28 9,6 20,10 33,10 13,0 26,-4 37,-11 12,-6 20,-16 25,-27 4,-12 7,-29 7,-51l0 -139 44 0 0 260 -40 0zm109 0l0 -260 40 0 0 37c19,-28 46,-42 82,-42 16,0 30,2 43,8 14,6 23,13 30,22 6,9 11,20 14,33 1,8 2,22 2,42l0 160 -44 0 0 -158c0,-18 -2,-31 -5,-40 -4,-9 -10,-16 -18,-21 -9,-6 -19,-8 -31,-8 -19,0 -35,6 -48,17 -14,12 -21,35 -21,68l0 142 -44 0zm449 -32c-17,13 -33,23 -48,29 -15,6 -31,9 -48,9 -29,0 -51,-7 -66,-21 -16,-14 -23,-32 -23,-54 0,-12 3,-24 8,-34 6,-11 14,-19 23,-26 10,-6 20,-11 32,-14 9,-2 22,-4 39,-7 36,-4 62,-9 79,-15 0,-6 0,-10 0,-11 0,-18 -4,-31 -12,-38 -12,-10 -28,-15 -51,-15 -20,0 -36,4 -46,11 -10,7 -17,20 -22,39l-43 -6c4,-19 11,-34 20,-45 9,-11 22,-20 39,-26 17,-6 36,-9 59,-9 22,0 40,2 54,7 14,6 24,12 31,20 6,8 11,18 14,30 1,8 2,21 2,41l0 58c0,41 1,67 2,78 2,11 6,21 11,31l-46 0c-4,-9 -7,-20 -8,-32zm-4 -98c-16,6 -40,12 -72,16 -18,3 -31,6 -39,9 -7,3 -13,8 -17,14 -4,7 -6,14 -6,21 0,12 4,22 13,29 9,8 22,12 39,12 17,0 32,-4 46,-11 13,-7 23,-18 29,-30 5,-10 7,-25 7,-44l0 -16zm112 130l0 -260 40 0 0 37c19,-28 47,-42 83,-42 15,0 30,2 43,8 13,6 23,13 29,22 7,9 11,20 14,33 2,8 2,22 2,42l0 160 -44 0 0 -158c0,-18 -1,-31 -5,-40 -3,-9 -9,-16 -18,-21 -9,-6 -19,-8 -31,-8 -18,0 -35,6 -48,17 -14,12 -20,35 -20,68l0 142 -45 0zm-5903 560l0 -33c-17,26 -41,38 -73,38 -21,0 -40,-5 -57,-17 -17,-11 -31,-27 -40,-47 -10,-21 -15,-44 -15,-71 0,-26 5,-49 13,-70 9,-21 22,-38 39,-49 18,-11 37,-17 58,-17 16,0 30,4 42,10 12,7 22,16 30,26l0 -129 44 0 0 359 -41 0zm-139 -130c0,33 7,58 21,75 14,16 30,24 49,24 20,0 36,-8 50,-23 13,-16 20,-40 20,-72 0,-36 -7,-62 -21,-78 -13,-17 -30,-25 -51,-25 -19,0 -36,8 -49,24 -13,16 -19,41 -19,75zm419 97c-16,14 -32,24 -47,30 -15,6 -31,8 -48,8 -29,0 -51,-7 -66,-21 -16,-13 -23,-31 -23,-53 0,-12 3,-24 8,-35 6,-10 14,-18 23,-25 10,-6 20,-11 32,-14 9,-3 22,-5 39,-7 36,-4 62,-9 79,-15 0,-6 0,-10 0,-11 0,-18 -4,-31 -13,-38 -11,-10 -28,-15 -50,-15 -21,0 -36,4 -46,11 -10,7 -17,20 -22,38l-43 -6c4,-18 10,-33 19,-44 10,-12 23,-20 40,-27 17,-6 36,-9 59,-9 22,0 40,3 54,8 14,5 24,12 31,20 6,8 11,18 13,30 2,7 3,21 3,40l0 59c0,41 0,67 2,77 2,11 6,22 11,32l-46 0c-4,-9 -7,-20 -9,-33zm-3 -97c-16,6 -40,12 -72,16 -18,3 -31,6 -39,9 -7,3 -13,8 -17,14 -4,6 -6,13 -6,21 0,12 4,21 13,29 9,8 22,12 39,12 17,0 32,-4 45,-11 14,-8 23,-18 30,-31 4,-9 7,-24 7,-43l0 -16zm112 130l0 -260 40 0 0 37c19,-29 46,-43 82,-43 16,0 31,3 44,9 13,5 23,13 29,22 7,9 11,20 14,32 1,9 2,23 2,43l0 160 -44 0 0 -158c0,-18 -2,-32 -5,-40 -3,-9 -9,-16 -18,-22 -9,-5 -19,-8 -31,-8 -19,0 -35,6 -48,18 -14,12 -21,35 -21,68l0 142 -44 0zm418 100l0 -360 40 0 0 34c10,-13 20,-23 32,-30 12,-6 27,-10 44,-10 22,0 41,6 58,17 17,12 30,28 39,49 8,20 13,43 13,68 0,26 -5,50 -15,72 -9,21 -23,37 -41,48 -18,12 -37,17 -58,17 -14,0 -27,-3 -39,-9 -12,-6 -21,-14 -29,-23l0 127 -44 0zm40 -229c0,34 7,58 20,74 14,16 30,24 50,24 19,0 36,-8 50,-25 14,-16 21,-42 21,-76 0,-33 -7,-58 -21,-74 -13,-17 -30,-25 -49,-25 -18,0 -35,9 -49,26 -15,18 -22,43 -22,76zm416 45l46 6c-7,26 -21,47 -40,61 -19,15 -44,22 -74,22 -38,0 -68,-11 -90,-35 -23,-23 -34,-56 -34,-98 0,-44 11,-77 34,-102 22,-24 52,-36 87,-36 35,0 63,12 85,36 22,23 33,57 33,99 0,3 0,7 0,12l-194 0c2,29 10,50 25,66 14,15 32,22 54,22 16,0 30,-4 41,-12 11,-9 21,-23 27,-41zm-144 -71l145 0c-2,-22 -8,-38 -17,-49 -14,-17 -32,-26 -54,-26 -21,0 -38,7 -51,21 -14,13 -22,31 -23,54zm245 155l0 -260 40 0 0 37c19,-29 47,-43 83,-43 15,0 30,3 43,9 13,5 23,13 29,22 7,9 11,20 14,32 2,9 2,23 2,43l0 160 -44 0 0 -158c0,-18 -1,-32 -5,-40 -3,-9 -9,-16 -18,-22 -9,-5 -19,-8 -31,-8 -18,0 -34,6 -48,18 -14,12 -20,35 -20,68l0 142 -45 0zm456 -84l46 6c-7,26 -20,47 -40,61 -19,15 -44,22 -74,22 -38,0 -68,-11 -90,-35 -22,-23 -33,-56 -33,-98 0,-44 11,-77 33,-102 23,-24 52,-36 88,-36 34,0 63,12 85,36 22,23 33,57 33,99 0,3 0,7 -1,12l-193 0c1,29 9,50 24,66 14,15 32,22 54,22 16,0 30,-4 41,-12 12,-9 21,-23 27,-41zm-144 -71l145 0c-2,-22 -8,-38 -17,-49 -14,-17 -32,-26 -54,-26 -20,0 -37,7 -51,21 -14,13 -21,31 -23,54zm245 155l0 -260 40 0 0 40c10,-19 19,-31 28,-37 9,-6 18,-9 28,-9 15,0 30,5 46,14l-16 41c-11,-6 -22,-9 -32,-9 -10,0 -18,3 -26,9 -8,5 -13,13 -16,24 -5,15 -8,32 -8,51l0 136 -44 0zm337 -33c-16,14 -32,24 -47,30 -15,6 -31,8 -48,8 -29,0 -51,-7 -66,-21 -16,-13 -23,-31 -23,-53 0,-12 3,-24 8,-35 6,-10 14,-18 23,-25 10,-6 20,-11 32,-14 8,-3 22,-5 39,-7 36,-4 62,-9 79,-15 0,-6 0,-10 0,-11 0,-18 -4,-31 -13,-38 -11,-10 -28,-15 -50,-15 -21,0 -36,4 -46,11 -10,7 -17,20 -22,38l-43 -6c4,-18 10,-33 19,-44 10,-12 23,-20 40,-27 17,-6 36,-9 59,-9 22,0 40,3 54,8 14,5 24,12 31,20 6,8 11,18 13,30 2,7 3,21 3,40l0 59c0,41 0,67 2,77 2,11 6,22 11,32l-46 0c-4,-9 -7,-20 -9,-33zm-3 -97c-16,6 -40,12 -72,16 -18,3 -31,6 -39,9 -7,3 -13,8 -17,14 -4,6 -6,13 -6,21 0,12 4,21 13,29 9,8 22,12 39,12 17,0 32,-4 45,-11 14,-8 23,-18 30,-31 4,-9 7,-24 7,-43l0 -16z"/>
   <path class="fil3" d="M3130 6623l0 -360 40 0 0 34c10,-13 20,-23 32,-30 12,-6 27,-10 44,-10 22,0 41,6 58,17 17,12 30,28 39,49 8,20 13,43 13,68 0,26 -5,50 -15,72 -9,21 -23,37 -41,48 -18,12 -37,17 -57,17 -15,0 -28,-3 -40,-9 -12,-6 -21,-14 -29,-23l0 127 -44 0zm40 -229c0,34 7,58 21,74 13,16 29,24 49,24 19,0 36,-8 50,-25 14,-16 21,-42 21,-76 0,-33 -7,-58 -21,-74 -13,-17 -30,-25 -48,-25 -19,0 -36,9 -50,26 -14,18 -22,43 -22,76zm409 96c-17,14 -32,24 -47,30 -16,6 -32,8 -49,8 -29,0 -51,-7 -66,-21 -15,-13 -23,-31 -23,-53 0,-12 3,-24 9,-35 5,-10 13,-18 22,-25 10,-6 20,-11 32,-14 9,-3 22,-5 39,-7 36,-4 62,-9 79,-15 0,-6 0,-10 0,-11 0,-18 -4,-31 -12,-38 -12,-10 -28,-15 -51,-15 -20,0 -36,4 -46,11 -9,7 -17,20 -21,38l-44 -6c4,-18 11,-33 20,-44 9,-12 22,-20 39,-27 17,-6 37,-9 59,-9 22,0 40,3 54,8 14,5 24,12 31,20 6,8 11,18 14,30 1,7 2,21 2,40l0 59c0,41 1,67 3,77 1,11 5,22 10,32l-46 0c-4,-9 -7,-20 -8,-33zm-4 -97c-16,6 -40,12 -72,16 -18,3 -31,6 -38,9 -8,3 -14,8 -18,14 -4,6 -6,13 -6,21 0,12 4,21 13,29 9,8 22,12 39,12 17,0 33,-4 46,-11 13,-8 23,-18 29,-31 5,-9 7,-24 7,-43l0 -16zm113 130l0 -260 39 0 0 37c19,-29 47,-43 83,-43 15,0 30,3 43,9 13,5 23,13 29,22 7,9 12,20 14,32 2,9 3,23 3,43l0 160 -45 0 0 -158c0,-18 -1,-32 -5,-40 -3,-9 -9,-16 -18,-22 -9,-5 -19,-8 -30,-8 -19,0 -35,6 -49,18 -14,12 -20,35 -20,68l0 142 -44 0zm407 -115l45 -4c2,18 7,32 15,44 8,12 20,21 36,28 16,7 35,11 55,11 18,0 34,-3 48,-8 14,-6 24,-13 31,-23 7,-9 10,-19 10,-30 0,-12 -3,-21 -10,-30 -6,-8 -17,-15 -32,-21 -10,-4 -31,-9 -64,-17 -33,-8 -56,-16 -69,-23 -17,-9 -30,-20 -38,-33 -9,-13 -13,-28 -13,-45 0,-18 5,-35 15,-51 11,-16 26,-27 45,-36 20,-8 42,-12 66,-12 27,0 50,4 71,13 20,8 35,21 46,38 11,16 17,35 18,56l-46 4c-2,-23 -10,-40 -24,-51 -15,-12 -35,-18 -63,-18 -29,0 -50,5 -63,16 -13,10 -19,23 -19,38 0,13 4,24 14,32 9,8 33,17 71,25 39,9 65,17 79,23 21,10 37,22 47,37 10,14 15,31 15,51 0,19 -6,37 -17,54 -11,16 -26,29 -47,39 -20,9 -43,14 -69,14 -32,0 -59,-5 -81,-14 -22,-10 -39,-24 -52,-43 -12,-19 -19,-40 -20,-64zm345 -194l0 -50 44 0 0 50 -44 0zm0 309l0 -260 44 0 0 260 -44 0zm93 -78l44 -7c2,18 9,31 20,40 12,10 27,14 47,14 21,0 36,-4 46,-12 9,-8 14,-18 14,-29 0,-10 -4,-18 -13,-24 -6,-3 -21,-8 -45,-14 -32,-9 -55,-16 -67,-22 -13,-6 -22,-14 -28,-24 -7,-11 -10,-22 -10,-35 0,-12 3,-22 8,-32 5,-10 12,-18 22,-25 6,-5 16,-9 27,-12 12,-4 25,-6 38,-6 21,0 39,3 54,9 16,6 27,14 34,24 8,10 13,24 15,40l-43 6c-2,-13 -7,-24 -17,-31 -9,-8 -22,-12 -39,-12 -20,0 -35,4 -44,10 -8,7 -12,15 -12,24 0,6 1,11 5,15 3,5 9,9 17,12 4,2 17,5 39,11 31,9 52,15 65,21 12,5 22,13 29,23 7,10 10,22 10,37 0,15 -4,29 -12,42 -9,13 -21,23 -38,30 -16,7 -34,10 -54,10 -34,0 -60,-7 -78,-21 -17,-14 -29,-34 -34,-62zm364 39l6 38c-12,3 -23,4 -33,4 -16,0 -28,-2 -37,-7 -9,-5 -15,-12 -19,-20 -3,-8 -5,-26 -5,-52l0 -150 -33 0 0 -34 33 0 0 -64 44 -27 0 91 44 0 0 34 -44 0 0 152c0,13 1,21 2,24 2,4 4,7 8,9 3,2 8,3 15,3 5,0 11,0 19,-1zm221 -45l46 6c-7,26 -21,47 -40,61 -19,15 -44,22 -74,22 -38,0 -68,-11 -91,-35 -22,-23 -33,-56 -33,-98 0,-44 11,-77 34,-102 22,-24 51,-36 87,-36 35,0 63,12 85,36 22,23 33,57 33,99 0,3 0,7 0,12l-194 0c2,29 10,50 24,66 15,15 33,22 55,22 16,0 30,-4 41,-12 11,-9 20,-23 27,-41zm-144 -71l145 0c-2,-22 -8,-38 -17,-49 -14,-17 -32,-26 -55,-26 -20,0 -37,7 -50,21 -14,13 -22,31 -23,54zm245 155l0 -260 40 0 0 37c8,-13 19,-23 32,-31 14,-8 29,-12 47,-12 19,0 35,4 47,12 12,8 21,19 26,34 21,-31 47,-46 80,-46 26,0 46,7 60,22 14,14 21,36 21,66l0 178 -44 0 0 -164c0,-17 -2,-30 -4,-38 -3,-8 -8,-14 -16,-19 -7,-4 -16,-7 -26,-7 -19,0 -34,6 -46,19 -12,12 -18,31 -18,58l0 151 -44 0 0 -169c0,-19 -4,-34 -11,-44 -7,-10 -19,-15 -35,-15 -13,0 -24,4 -35,10 -10,7 -18,16 -23,29 -4,12 -7,30 -7,54l0 135 -44 0zm538 -102l43 -6c1,28 6,46 15,57 9,10 22,15 38,15 12,0 22,-3 31,-8 9,-6 15,-13 18,-23 3,-9 5,-24 5,-45l0 -247 47 0 0 245c0,30 -3,53 -11,69 -7,17 -18,29 -34,38 -16,9 -34,13 -55,13 -32,0 -56,-9 -73,-27 -16,-18 -24,-45 -24,-81zm439 69c-16,14 -32,24 -47,30 -15,6 -31,8 -49,8 -28,0 -50,-7 -66,-21 -15,-13 -23,-31 -23,-53 0,-12 3,-24 9,-35 6,-10 14,-18 23,-25 9,-6 20,-11 32,-14 8,-3 21,-5 39,-7 35,-4 62,-9 79,-15 0,-6 0,-10 0,-11 0,-18 -4,-31 -13,-38 -11,-10 -28,-15 -50,-15 -21,0 -36,4 -46,11 -10,7 -17,20 -22,38l-43 -6c4,-18 10,-33 19,-44 9,-12 22,-20 39,-27 17,-6 37,-9 59,-9 23,0 41,3 55,8 14,5 24,12 30,20 7,8 12,18 14,30 2,7 2,21 2,40l0 59c0,41 1,67 3,77 2,11 6,22 11,32l-46 0c-5,-9 -7,-20 -9,-33zm-3 -97c-16,6 -40,12 -72,16 -19,3 -31,6 -39,9 -7,3 -13,8 -17,14 -4,6 -6,13 -6,21 0,12 4,21 13,29 9,8 22,12 39,12 17,0 32,-4 45,-11 13,-8 23,-18 29,-31 5,-9 8,-24 8,-43l0 -16zm112 130l0 -260 40 0 0 37c8,-13 19,-23 32,-31 14,-8 29,-12 46,-12 20,0 35,4 48,12 12,8 21,19 26,34 20,-31 47,-46 80,-46 26,0 46,7 60,22 14,14 21,36 21,66l0 178 -44 0 0 -164c0,-17 -2,-30 -5,-38 -2,-8 -8,-14 -15,-19 -8,-4 -17,-7 -27,-7 -18,0 -33,6 -45,19 -12,12 -18,31 -18,58l0 151 -45 0 0 -169c0,-19 -3,-34 -10,-44 -8,-10 -19,-15 -36,-15 -12,0 -23,4 -34,10 -10,7 -18,16 -23,29 -4,12 -7,30 -7,54l0 135 -44 0zm417 -309l0 -50 45 0 0 50 -45 0zm0 309l0 -260 45 0 0 260 -45 0zm112 0l0 -260 39 0 0 37c19,-29 47,-43 83,-43 16,0 30,3 43,9 13,5 23,13 30,22 6,9 11,20 13,32 2,9 3,23 3,43l0 160 -44 0 0 -158c0,-18 -2,-32 -5,-40 -4,-9 -10,-16 -19,-22 -8,-5 -19,-8 -30,-8 -19,0 -35,6 -49,18 -13,12 -20,35 -20,68l0 142 -44 0zm448 -33c-16,14 -32,24 -47,30 -15,6 -31,8 -49,8 -28,0 -50,-7 -66,-21 -15,-13 -23,-31 -23,-53 0,-12 3,-24 9,-35 6,-10 14,-18 23,-25 9,-6 20,-11 32,-14 8,-3 21,-5 39,-7 35,-4 62,-9 79,-15 0,-6 0,-10 0,-11 0,-18 -4,-31 -13,-38 -11,-10 -28,-15 -50,-15 -21,0 -36,4 -46,11 -10,7 -17,20 -22,38l-43 -6c4,-18 10,-33 19,-44 9,-12 22,-20 39,-27 17,-6 37,-9 59,-9 23,0 41,3 55,8 14,5 24,12 30,20 7,8 12,18 14,30 2,7 2,21 2,40l0 59c0,41 1,67 3,77 2,11 6,22 11,32l-46 0c-5,-9 -7,-20 -9,-33zm-3 -97c-16,6 -40,12 -72,16 -19,3 -31,6 -39,9 -7,3 -13,8 -17,14 -4,6 -7,13 -7,21 0,12 5,21 14,29 9,8 22,12 39,12 17,0 32,-4 45,-11 13,-8 23,-18 29,-31 5,-9 8,-24 8,-43l0 -16zm112 130l0 -260 40 0 0 37c19,-29 46,-43 82,-43 16,0 30,3 43,9 14,5 23,13 30,22 6,9 11,20 14,32 1,9 2,23 2,43l0 160 -44 0 0 -158c0,-18 -2,-32 -5,-40 -4,-9 -10,-16 -18,-22 -9,-5 -19,-8 -31,-8 -19,0 -35,6 -48,18 -14,12 -21,35 -21,68l0 142 -44 0zm-6791 560l0 -359 136 0c24,0 42,1 55,3 17,3 32,9 44,17 12,8 21,20 29,35 7,14 11,31 11,48 0,31 -10,57 -30,78 -19,21 -54,31 -105,31l-92 0 0 147 -48 0zm48 -189l93 0c31,0 52,-5 65,-17 13,-11 19,-27 19,-48 0,-15 -3,-28 -11,-39 -7,-10 -18,-17 -30,-21 -8,-2 -23,-3 -44,-3l-92 0 0 128zm281 189l0 -260 39 0 0 39c10,-18 20,-30 28,-36 9,-6 18,-9 29,-9 14,0 30,5 45,14l-16 41c-10,-6 -21,-9 -32,-9 -9,0 -18,3 -26,8 -7,6 -13,14 -16,24 -5,16 -7,33 -7,52l0 136 -44 0zm150 -130c0,-48 14,-84 41,-107 22,-19 49,-29 81,-29 36,0 65,12 88,35 23,23 34,56 34,97 0,33 -5,60 -15,79 -10,19 -25,34 -44,44 -19,11 -40,16 -63,16 -36,0 -65,-12 -88,-35 -22,-23 -34,-57 -34,-100zm46 0c0,33 7,58 21,74 15,17 33,25 55,25 22,0 40,-8 55,-25 15,-16 22,-42 22,-76 0,-32 -7,-56 -22,-73 -15,-16 -33,-24 -55,-24 -22,0 -40,8 -55,24 -14,17 -21,42 -21,75zm418 130l0 -33c-17,25 -41,38 -73,38 -21,0 -40,-6 -57,-17 -18,-11 -31,-27 -41,-48 -9,-20 -14,-44 -14,-70 0,-26 4,-50 13,-71 9,-21 22,-37 39,-48 17,-11 37,-17 58,-17 16,0 30,3 42,10 12,7 22,15 30,26l0 -129 44 0 0 359 -41 0zm-140 -130c0,33 7,58 21,74 14,17 31,25 50,25 19,0 36,-8 49,-24 14,-15 21,-39 21,-71 0,-36 -7,-62 -21,-78 -14,-17 -31,-25 -51,-25 -20,0 -36,8 -49,23 -13,16 -20,42 -20,76zm420 130l0 -39c-20,29 -47,44 -82,44 -15,0 -30,-3 -43,-9 -13,-6 -23,-13 -29,-22 -7,-9 -11,-20 -14,-32 -2,-9 -3,-23 -3,-42l0 -160 44 0 0 143c0,23 1,39 3,47 3,11 9,20 18,27 9,7 20,10 33,10 13,0 25,-3 37,-10 11,-7 20,-16 24,-28 5,-11 8,-28 8,-50l0 -139 44 0 0 260 -40 0zm109 0l0 -359 44 0 0 204 104 -105 57 0 -99 96 109 164 -54 0 -86 -133 -31 29 0 104 -44 0zm397 0l0 -359 48 0 0 148 185 0 0 -148 48 0 0 359 -48 0 0 -169 -185 0 0 169 -48 0zm524 -33c-16,14 -32,24 -47,30 -15,5 -31,8 -49,8 -28,0 -50,-7 -65,-21 -16,-14 -23,-31 -23,-53 0,-13 2,-24 8,-35 6,-10 14,-19 23,-25 9,-6 20,-11 32,-15 8,-2 22,-4 39,-6 36,-4 62,-9 79,-15 0,-6 0,-10 0,-12 0,-18 -4,-30 -13,-38 -11,-9 -28,-14 -50,-14 -21,0 -36,3 -46,11 -10,7 -17,20 -22,38l-43 -6c4,-18 10,-33 19,-45 9,-11 22,-20 39,-26 17,-6 37,-9 60,-9 22,0 40,3 54,8 14,5 24,12 31,20 6,8 11,18 13,30 2,7 2,21 2,40l0 59c0,40 1,66 3,77 2,11 6,22 11,32l-46 0c-5,-10 -7,-21 -9,-33zm-3 -98c-16,7 -40,12 -72,17 -18,2 -31,5 -39,9 -7,3 -13,8 -17,14 -4,6 -6,13 -6,21 0,11 4,21 13,29 9,8 22,12 39,12 17,0 32,-4 45,-12 14,-7 23,-17 30,-30 4,-10 7,-24 7,-44l0 -16zm111 131l0 -359 44 0 0 359 -44 0zm282 -33c-16,14 -32,24 -47,30 -15,5 -31,8 -49,8 -28,0 -50,-7 -65,-21 -16,-14 -24,-31 -24,-53 0,-13 3,-24 9,-35 6,-10 14,-19 23,-25 9,-6 20,-11 32,-15 8,-2 21,-4 39,-6 36,-4 62,-9 79,-15 0,-6 0,-10 0,-12 0,-18 -4,-30 -13,-38 -11,-9 -28,-14 -50,-14 -21,0 -36,3 -46,11 -10,7 -17,20 -22,38l-43 -6c4,-18 10,-33 19,-45 9,-11 22,-20 39,-26 17,-6 37,-9 60,-9 22,0 40,3 54,8 14,5 24,12 30,20 7,8 12,18 14,30 2,7 2,21 2,40l0 59c0,40 1,66 3,77 2,11 6,22 11,32l-46 0c-5,-10 -7,-21 -9,-33zm-3 -98c-16,7 -40,12 -72,17 -19,2 -31,5 -39,9 -7,3 -13,8 -17,14 -4,6 -6,13 -6,21 0,11 4,21 13,29 9,8 22,12 39,12 17,0 32,-4 45,-12 14,-7 23,-17 29,-30 5,-10 8,-24 8,-44l0 -16zm111 131l0 -359 44 0 0 359 -44 0zm336 105c-24,-31 -45,-67 -62,-108 -16,-41 -25,-83 -25,-127 0,-39 6,-76 19,-112 15,-41 37,-82 68,-123l31 0c-19,34 -32,58 -39,72 -10,23 -18,46 -23,71 -7,30 -11,61 -11,92 0,78 25,157 73,235l-31 0zm73 -221l44 -4c2,18 7,33 15,45 8,11 20,21 36,28 16,7 35,11 55,11 18,0 34,-3 48,-9 14,-5 24,-12 31,-22 7,-9 10,-20 10,-31 0,-11 -3,-21 -10,-29 -6,-8 -17,-15 -32,-21 -10,-4 -31,-10 -64,-18 -33,-8 -56,-15 -69,-22 -17,-9 -30,-20 -38,-33 -9,-14 -13,-29 -13,-45 0,-18 5,-35 15,-51 11,-16 26,-28 45,-36 20,-8 42,-12 66,-12 27,0 50,4 71,13 20,8 36,21 46,38 11,16 17,35 18,56l-46 4c-2,-23 -10,-40 -24,-52 -14,-11 -35,-17 -63,-17 -29,0 -50,5 -63,16 -13,10 -19,23 -19,38 0,13 4,23 14,32 9,8 33,16 71,25 39,9 65,17 80,23 20,10 36,22 46,37 10,14 15,31 15,50 0,20 -6,37 -17,54 -11,17 -26,30 -47,40 -20,9 -43,14 -69,14 -32,0 -59,-5 -81,-15 -22,-9 -39,-23 -52,-42 -12,-19 -19,-41 -19,-65zm325 14l43 -6c1,27 6,46 15,56 9,10 22,16 38,16 12,0 22,-3 31,-9 8,-5 14,-13 18,-22 3,-9 4,-24 4,-45l0 -247 48 0 0 244c0,30 -4,53 -11,70 -7,16 -18,29 -34,38 -16,8 -34,13 -56,13 -31,0 -55,-9 -72,-28 -16,-18 -24,-45 -24,-80zm275 102l0 -359 135 0c24,0 42,1 55,3 17,3 32,9 44,17 12,8 22,20 29,35 7,14 11,31 11,48 0,31 -10,57 -29,78 -20,21 -55,31 -106,31l-92 0 0 147 -47 0zm47 -189l93 0c31,0 52,-5 65,-17 13,-11 20,-27 20,-48 0,-15 -4,-28 -12,-39 -7,-10 -17,-17 -30,-21 -8,-2 -22,-3 -44,-3l-92 0 0 128zm289 189l0 -359 48 0 0 148 185 0 0 -148 48 0 0 359 -48 0 0 -169 -185 0 0 169 -48 0zm383 105l-31 0c48,-78 73,-157 73,-235 0,-31 -4,-61 -11,-91 -5,-25 -13,-48 -23,-71 -6,-14 -19,-39 -39,-73l31 0c31,41 53,82 68,123 13,36 19,73 19,112 0,44 -8,86 -25,127 -17,41 -38,77 -62,108z"/>
   <path class="fil3" d="M5339 7005l43 -7c3,17 10,31 21,40 11,9 27,14 47,14 20,0 35,-4 45,-12 10,-9 15,-18 15,-29 0,-10 -5,-18 -14,-24 -6,-4 -21,-9 -45,-15 -32,-8 -54,-15 -67,-21 -12,-6 -22,-14 -28,-24 -6,-11 -10,-23 -10,-35 0,-12 3,-23 8,-32 6,-10 13,-18 22,-25 7,-5 16,-9 28,-13 12,-3 24,-5 38,-5 20,0 38,3 53,9 16,6 27,14 35,24 7,10 12,23 15,40l-43 6c-2,-13 -8,-24 -17,-32 -10,-7 -23,-11 -40,-11 -20,0 -35,3 -43,10 -9,7 -13,15 -13,24 0,5 2,10 5,15 4,5 9,9 17,12 4,1 17,5 39,11 31,8 53,15 65,20 12,6 22,13 29,23 7,11 11,23 11,38 0,15 -5,28 -13,41 -9,13 -21,23 -37,31 -16,7 -35,10 -55,10 -34,0 -60,-7 -77,-21 -18,-14 -29,-35 -34,-62zm445 -7l46 6c-7,27 -21,48 -40,62 -19,15 -44,22 -74,22 -38,0 -68,-12 -90,-35 -23,-23 -34,-56 -34,-98 0,-44 11,-78 34,-102 22,-24 52,-36 87,-36 35,0 63,12 85,35 22,24 33,57 33,100 0,3 0,7 0,12l-194 0c2,28 10,50 25,65 14,15 32,23 54,23 16,0 30,-4 41,-13 11,-8 21,-22 27,-41zm-144 -70l145 0c-2,-22 -8,-38 -17,-49 -14,-17 -32,-26 -54,-26 -21,0 -38,7 -51,20 -14,14 -22,32 -23,55zm286 155l-41 0 0 -359 44 0 0 128c19,-23 42,-35 71,-35 16,0 31,3 46,10 14,6 26,15 35,27 9,11 16,26 22,42 5,16 7,34 7,53 0,44 -11,78 -33,103 -22,24 -48,36 -79,36 -30,0 -54,-13 -72,-38l0 33zm0 -132c0,31 4,53 12,67 14,23 33,34 56,34 20,0 36,-8 50,-25 14,-17 21,-42 21,-75 0,-34 -6,-59 -20,-75 -13,-16 -30,-24 -49,-24 -19,0 -35,8 -49,25 -14,17 -21,41 -21,73zm408 99c-16,14 -32,24 -47,30 -15,5 -32,8 -49,8 -29,0 -50,-7 -66,-21 -15,-14 -23,-31 -23,-53 0,-13 3,-24 9,-35 6,-10 13,-19 23,-25 9,-6 20,-11 31,-15 9,-2 22,-4 40,-6 35,-4 61,-9 78,-15 0,-6 0,-10 0,-12 0,-18 -4,-30 -12,-38 -11,-9 -28,-14 -50,-14 -21,0 -36,3 -46,11 -10,7 -18,20 -22,38l-43 -6c4,-18 10,-33 19,-45 9,-11 22,-20 39,-26 17,-6 37,-9 59,-9 22,0 41,3 54,8 14,5 25,12 31,20 7,8 11,18 14,30 1,7 2,21 2,40l0 59c0,40 1,66 3,77 2,11 5,22 11,32l-46 0c-5,-10 -8,-21 -9,-33zm-4 -98c-16,7 -40,12 -72,17 -18,2 -31,5 -38,9 -8,3 -14,8 -18,14 -4,6 -6,13 -6,21 0,11 5,21 14,29 8,8 22,12 39,12 17,0 32,-4 45,-12 13,-7 23,-17 29,-30 5,-10 7,-24 7,-44l0 -16zm105 152l42 6c2,13 7,23 15,29 11,8 26,12 45,12 20,0 36,-4 47,-12 11,-8 19,-20 23,-34 2,-9 3,-28 3,-56 -19,22 -43,34 -72,34 -36,0 -63,-13 -83,-39 -20,-26 -29,-57 -29,-93 0,-24 4,-47 13,-68 9,-21 22,-37 39,-49 17,-11 37,-17 60,-17 31,0 56,13 76,38l0 -32 41 0 0 224c0,41 -4,69 -13,86 -8,17 -21,30 -39,40 -18,10 -40,15 -66,15 -31,0 -56,-7 -75,-21 -19,-14 -28,-35 -27,-63zm36 -156c0,34 7,59 20,75 14,15 31,23 51,23 20,0 37,-8 51,-23 14,-16 21,-40 21,-73 0,-32 -8,-56 -22,-72 -14,-16 -31,-24 -51,-24 -19,0 -36,8 -50,23 -13,16 -20,40 -20,71zm420 102c-16,14 -32,24 -47,30 -15,5 -31,8 -49,8 -28,0 -50,-7 -66,-21 -15,-14 -23,-31 -23,-53 0,-13 3,-24 9,-35 6,-10 14,-19 23,-25 9,-6 20,-11 32,-15 8,-2 21,-4 39,-6 35,-4 62,-9 79,-15 0,-6 0,-10 0,-12 0,-18 -4,-30 -13,-38 -11,-9 -28,-14 -50,-14 -21,0 -36,3 -46,11 -10,7 -17,20 -22,38l-43 -6c4,-18 10,-33 19,-45 9,-11 22,-20 39,-26 17,-6 37,-9 59,-9 23,0 41,3 55,8 14,5 24,12 30,20 7,8 12,18 14,30 2,7 2,21 2,40l0 59c0,40 1,66 3,77 2,11 6,22 11,32l-46 0c-5,-10 -7,-21 -9,-33zm-3 -98c-16,7 -40,12 -72,17 -19,2 -31,5 -39,9 -7,3 -13,8 -17,14 -4,6 -6,13 -6,21 0,11 4,21 13,29 9,8 22,12 39,12 17,0 32,-4 45,-12 13,-7 23,-17 29,-30 5,-10 8,-24 8,-44l0 -16zm112 -178l0 -50 44 0 0 50 -44 0zm0 309l0 -260 44 0 0 260 -44 0zm-6394 559l0 -226 -40 0 0 -34 40 0 0 -27c0,-18 1,-31 4,-39 4,-11 12,-21 22,-28 11,-7 26,-10 45,-10 13,0 26,1 41,4l-6 39c-9,-2 -18,-3 -26,-3 -14,0 -23,3 -29,9 -5,5 -8,16 -8,31l0 24 51 0 0 34 -50 0 0 226 -44 0zm112 -130c0,-48 13,-83 40,-106 22,-20 49,-29 82,-29 35,0 64,11 87,35 23,23 34,55 34,97 0,33 -5,59 -15,78 -10,20 -24,34 -44,45 -19,11 -40,16 -62,16 -37,0 -66,-12 -89,-35 -22,-23 -33,-57 -33,-101zm45 0c0,34 7,59 22,75 14,17 32,25 55,25 21,0 40,-8 54,-25 15,-17 22,-42 22,-76 0,-32 -7,-56 -22,-73 -15,-16 -33,-25 -54,-25 -23,0 -41,9 -55,25 -15,16 -22,41 -22,74zm250 130l0 -260 39 0 0 37c19,-28 47,-42 83,-42 16,0 30,3 43,8 13,6 23,13 30,22 6,9 11,20 13,33 2,8 3,22 3,43l0 159 -44 0 0 -158c0,-18 -2,-31 -5,-40 -4,-9 -10,-16 -19,-21 -8,-5 -19,-8 -30,-8 -19,0 -35,6 -49,18 -13,12 -20,34 -20,67l0 142 -44 0zm446 0l0 -33c-16,26 -40,39 -72,39 -21,0 -40,-6 -57,-17 -18,-12 -31,-28 -41,-48 -9,-20 -14,-44 -14,-70 0,-26 4,-50 13,-71 9,-21 22,-37 39,-48 17,-12 36,-17 58,-17 15,0 29,3 42,10 12,6 22,15 29,26l0 -129 44 0 0 358 -41 0zm-139 -129c0,33 7,58 21,74 14,17 31,25 50,25 19,0 36,-8 49,-24 14,-15 20,-39 20,-72 0,-35 -6,-61 -20,-78 -14,-16 -31,-25 -51,-25 -20,0 -36,8 -49,24 -13,16 -20,41 -20,76zm420 97c-16,14 -32,23 -47,29 -15,6 -32,9 -49,9 -28,0 -50,-7 -66,-21 -15,-14 -23,-32 -23,-53 0,-13 3,-25 9,-35 6,-11 13,-19 23,-25 9,-7 20,-12 31,-15 9,-2 22,-4 40,-6 35,-5 61,-10 78,-16 0,-6 1,-9 1,-11 0,-18 -5,-30 -13,-38 -11,-10 -28,-15 -50,-15 -21,0 -36,4 -46,11 -10,8 -17,20 -22,39l-43 -6c4,-19 10,-33 19,-45 9,-11 22,-20 39,-26 17,-6 37,-9 59,-9 22,0 41,2 55,8 13,5 24,11 30,19 7,8 11,18 14,30 1,8 2,21 2,41l0 58c0,41 1,67 3,78 2,11 5,21 11,31l-46 0c-5,-9 -8,-20 -9,-32zm-3 -98c-17,7 -41,12 -73,17 -18,2 -31,5 -38,8 -8,4 -13,8 -18,15 -4,6 -6,13 -6,20 0,12 5,22 14,30 9,7 22,11 39,11 17,0 32,-3 45,-11 13,-7 23,-17 29,-30 5,-10 7,-25 7,-44l1 -16zm94 53l44 -7c2,17 9,30 20,40 12,9 27,14 47,14 21,0 36,-4 45,-13 10,-8 15,-17 15,-29 0,-10 -4,-17 -13,-23 -6,-4 -21,-9 -45,-15 -32,-8 -55,-15 -67,-21 -13,-6 -22,-14 -29,-25 -6,-10 -9,-22 -9,-34 0,-12 2,-23 8,-33 5,-9 12,-18 21,-24 7,-5 17,-9 28,-13 12,-3 25,-5 38,-5 21,0 39,3 54,9 15,5 27,14 34,24 7,10 12,23 15,40l-43 6c-2,-14 -7,-24 -17,-32 -9,-7 -22,-11 -40,-11 -20,0 -34,3 -43,10 -8,7 -13,14 -13,23 0,6 2,11 6,16 3,4 9,8 17,11 4,2 17,6 38,12 31,8 53,15 66,20 12,5 22,13 29,23 7,10 10,23 10,38 0,14 -4,28 -13,41 -8,13 -21,23 -37,30 -16,7 -34,11 -55,11 -33,0 -59,-7 -77,-21 -18,-14 -29,-35 -34,-62zm268 -231l0 -50 44 0 0 50 -44 0zm0 308l0 -260 44 0 0 260 -44 0zm251 100l0 -360 40 0 0 34c9,-13 20,-23 32,-29 12,-7 26,-10 43,-10 22,0 42,5 59,17 17,11 30,27 38,48 9,21 13,44 13,68 0,27 -4,51 -14,72 -9,21 -23,38 -42,49 -18,11 -37,17 -57,17 -15,0 -28,-3 -39,-9 -12,-7 -22,-14 -29,-24l0 127 -44 0zm40 -228c0,33 7,58 20,74 14,16 30,24 49,24 20,0 36,-8 50,-25 14,-17 21,-42 21,-77 0,-33 -7,-58 -20,-74 -14,-16 -30,-25 -49,-25 -19,0 -35,9 -49,27 -15,17 -22,43 -22,76zm416 44l45 6c-7,27 -20,47 -39,62 -20,14 -44,22 -75,22 -37,0 -67,-12 -90,-35 -22,-24 -33,-56 -33,-99 0,-43 11,-77 34,-101 22,-24 51,-36 87,-36 35,0 63,12 85,35 22,24 33,57 33,100 0,2 0,6 0,12l-194 0c2,28 10,50 24,65 15,15 33,23 54,23 17,0 30,-4 42,-13 11,-9 20,-22 27,-41zm-144 -70l144 0c-2,-22 -7,-39 -16,-50 -14,-17 -32,-25 -55,-25 -20,0 -37,7 -51,20 -13,14 -21,32 -22,55zm245 154l0 -260 40 0 0 37c19,-28 46,-42 82,-42 16,0 30,3 43,8 14,6 23,13 30,22 6,9 11,20 14,33 1,8 2,22 2,43l0 159 -44 0 0 -158c0,-18 -2,-31 -5,-40 -4,-9 -10,-16 -18,-21 -9,-5 -19,-8 -31,-8 -19,0 -35,6 -48,18 -14,12 -21,34 -21,67l0 142 -44 0zm271 22l42 6c2,13 7,23 15,29 11,8 26,12 45,12 20,0 36,-4 47,-12 11,-8 19,-20 23,-34 2,-9 3,-28 3,-57 -19,23 -43,34 -72,34 -36,0 -63,-13 -83,-38 -20,-26 -29,-57 -29,-93 0,-25 4,-48 13,-69 9,-21 22,-37 39,-48 17,-12 37,-17 60,-17 31,0 56,12 76,37l0 -32 41 0 0 225c0,40 -4,69 -13,86 -8,17 -21,30 -39,40 -18,10 -40,15 -66,15 -31,0 -56,-7 -75,-21 -19,-14 -28,-35 -27,-63zm36 -156c0,34 7,59 20,74 14,16 31,24 51,24 20,0 37,-8 51,-24 14,-15 21,-39 21,-73 0,-31 -8,-55 -22,-71 -14,-17 -31,-25 -51,-25 -19,0 -36,8 -50,24 -13,16 -20,40 -20,71zm428 50l45 6c-7,27 -20,47 -39,62 -20,14 -44,22 -75,22 -37,0 -68,-12 -90,-35 -22,-24 -33,-56 -33,-99 0,-43 11,-77 34,-101 22,-24 51,-36 87,-36 35,0 63,12 85,35 22,24 33,57 33,100 0,2 0,6 0,12l-194 0c2,28 10,50 24,65 15,15 33,23 54,23 17,0 30,-4 42,-13 11,-9 20,-22 27,-41zm-144 -70l144 0c-2,-22 -7,-39 -16,-50 -14,-17 -32,-25 -55,-25 -20,0 -37,7 -51,20 -13,14 -21,32 -22,55zm245 154l0 -260 40 0 0 37c19,-28 46,-42 82,-42 16,0 30,3 43,8 14,6 23,13 30,22 6,9 11,20 14,33 1,8 2,22 2,43l0 159 -44 0 0 -158c0,-18 -2,-31 -5,-40 -4,-9 -10,-16 -18,-21 -9,-5 -19,-8 -31,-8 -19,0 -35,6 -48,18 -14,12 -21,34 -21,67l0 142 -44 0zm447 0l0 -33c-17,26 -41,39 -73,39 -21,0 -40,-6 -57,-17 -17,-12 -31,-28 -40,-48 -10,-20 -15,-44 -15,-70 0,-26 5,-50 13,-71 9,-21 22,-37 39,-48 17,-12 37,-17 58,-17 16,0 30,3 42,10 12,6 22,15 30,26l0 -129 44 0 0 358 -41 0zm-140 -129c0,33 7,58 21,74 15,17 31,25 50,25 20,0 36,-8 49,-24 14,-15 21,-39 21,-72 0,-35 -7,-61 -21,-78 -14,-16 -31,-25 -51,-25 -19,0 -36,8 -49,24 -13,16 -20,41 -20,76zm420 97c-16,14 -32,23 -47,29 -15,6 -31,9 -49,9 -28,0 -50,-7 -66,-21 -15,-14 -23,-32 -23,-53 0,-13 3,-25 9,-35 6,-11 14,-19 23,-25 9,-7 20,-12 32,-15 8,-2 21,-4 39,-6 35,-5 62,-10 79,-16 0,-6 0,-9 0,-11 0,-18 -4,-30 -13,-38 -11,-10 -28,-15 -50,-15 -21,0 -36,4 -46,11 -10,8 -17,20 -22,39l-43 -6c4,-19 10,-33 19,-45 9,-11 22,-20 39,-26 17,-6 37,-9 59,-9 23,0 41,2 55,8 14,5 24,11 30,19 7,8 12,18 14,30 2,8 2,21 2,41l0 58c0,41 1,67 3,78 2,11 6,21 11,31l-46 0c-5,-9 -7,-20 -9,-32zm-3 -98c-16,7 -40,12 -72,17 -19,2 -31,5 -39,8 -7,4 -13,8 -17,15 -4,6 -6,13 -6,20 0,12 4,22 13,30 9,7 22,11 39,11 17,0 32,-3 45,-11 13,-7 23,-17 29,-30 5,-10 8,-25 8,-44l0 -16zm111 130l0 -358 44 0 0 358 -44 0zm112 -308l0 -50 44 0 0 50 -44 0zm0 308l0 -260 44 0 0 260 -44 0zm282 -32c-17,14 -33,23 -48,29 -15,6 -31,9 -48,9 -29,0 -51,-7 -66,-21 -16,-14 -23,-32 -23,-53 0,-13 3,-25 8,-35 6,-11 14,-19 23,-25 10,-7 20,-12 32,-15 9,-2 22,-4 39,-6 36,-5 62,-10 79,-16 0,-6 0,-9 0,-11 0,-18 -4,-30 -12,-38 -12,-10 -29,-15 -51,-15 -21,0 -36,4 -46,11 -10,8 -17,20 -22,39l-43 -6c4,-19 11,-33 20,-45 9,-11 22,-20 39,-26 17,-6 36,-9 59,-9 22,0 40,2 54,8 14,5 24,11 31,19 6,8 11,18 13,30 2,8 3,21 3,41l0 58c0,41 1,67 2,78 2,11 6,21 11,31l-46 0c-4,-9 -7,-20 -8,-32zm-4 -98c-16,7 -40,12 -72,17 -18,2 -31,5 -39,8 -7,4 -13,8 -17,15 -4,6 -6,13 -6,20 0,12 4,22 13,30 9,7 22,11 39,11 17,0 32,-3 46,-11 13,-7 23,-17 29,-30 4,-10 7,-25 7,-44l0 -16zm112 130l0 -260 40 0 0 37c19,-28 47,-42 83,-42 15,0 30,3 43,8 13,6 23,13 29,22 7,9 11,20 14,33 1,8 2,22 2,43l0 159 -44 0 0 -158c0,-18 -1,-31 -5,-40 -3,-9 -9,-16 -18,-21 -9,-5 -19,-8 -31,-8 -18,0 -35,6 -48,18 -14,12 -21,34 -21,67l0 142 -44 0zm-4485 560l0 -359 44 0 0 205 104 -106 57 0 -99 97 109 163 -54 0 -86 -133 -31 30 0 103 -44 0zm428 -84l45 6c-7,26 -20,47 -39,62 -20,14 -44,22 -75,22 -37,0 -67,-12 -90,-35 -22,-24 -33,-57 -33,-99 0,-43 11,-77 34,-101 22,-24 51,-36 87,-36 35,0 63,11 85,35 22,24 33,57 33,100 0,2 0,6 0,11l-194 0c2,29 10,51 24,66 15,15 33,23 54,23 17,0 30,-5 42,-13 11,-9 20,-22 27,-41zm-144 -71l144 0c-2,-22 -7,-38 -16,-49 -14,-17 -32,-25 -55,-25 -20,0 -37,6 -51,20 -13,13 -21,32 -22,54zm245 155l0 -359 44 0 0 129c21,-24 47,-35 78,-35 19,0 35,3 50,11 14,7 24,18 30,31 6,14 9,33 9,58l0 165 -44 0 0 -164c0,-22 -5,-38 -14,-48 -10,-10 -23,-15 -40,-15 -13,0 -26,3 -37,10 -11,6 -20,16 -24,27 -5,12 -8,28 -8,48l0 142 -44 0z"/>
   <path class="fil3" d="M1573 8170c-17,13 -32,23 -48,29 -15,6 -31,9 -48,9 -29,0 -51,-7 -66,-21 -16,-14 -23,-32 -23,-54 0,-12 3,-24 8,-34 6,-11 14,-19 23,-26 10,-6 20,-11 32,-14 9,-2 22,-4 39,-7 36,-4 62,-9 79,-15 0,-6 0,-10 0,-11 0,-18 -4,-31 -12,-38 -12,-10 -28,-15 -51,-15 -20,0 -36,4 -46,11 -10,7 -17,20 -22,39l-43 -6c4,-19 11,-34 20,-45 9,-11 22,-20 39,-26 17,-6 36,-9 59,-9 22,0 40,2 54,7 14,6 24,12 31,20 6,8 11,18 14,30 1,8 2,21 2,41l0 58c0,41 1,67 3,78 1,11 5,21 10,31l-46 0c-4,-9 -7,-20 -8,-32zm-4 -98c-16,6 -40,12 -72,16 -18,3 -31,6 -39,9 -7,3 -13,8 -17,14 -4,7 -6,13 -6,21 0,12 4,22 13,29 9,8 22,12 39,12 17,0 32,-4 46,-11 13,-7 23,-18 29,-30 5,-10 7,-25 7,-44l0 -16zm111 130l0 -359 45 0 0 359 -45 0zm283 -32c-17,13 -33,23 -48,29 -15,6 -31,9 -48,9 -29,0 -51,-7 -66,-21 -16,-14 -23,-32 -23,-54 0,-12 3,-24 8,-34 6,-11 14,-19 23,-26 10,-6 20,-11 32,-14 9,-2 22,-4 39,-7 36,-4 62,-9 79,-15 0,-6 0,-10 0,-11 0,-18 -4,-31 -12,-38 -12,-10 -28,-15 -51,-15 -20,0 -36,4 -46,11 -10,7 -17,20 -22,39l-43 -6c4,-19 11,-34 20,-45 9,-11 22,-20 39,-26 17,-6 36,-9 59,-9 22,0 40,2 54,7 14,6 24,12 31,20 6,8 11,18 14,30 1,8 2,21 2,41l0 58c0,41 1,67 2,78 2,11 6,21 11,31l-46 0c-4,-9 -7,-20 -8,-32zm-4 -98c-16,6 -40,12 -72,16 -18,3 -31,6 -39,9 -7,3 -13,8 -17,14 -4,7 -6,13 -6,21 0,12 4,22 13,29 9,8 22,12 39,12 17,0 32,-4 46,-11 13,-7 23,-18 29,-30 5,-10 7,-25 7,-44l0 -16zm111 130l0 -359 45 0 0 359 -45 0zm283 -32c-17,13 -33,23 -48,29 -15,6 -31,9 -48,9 -29,0 -51,-7 -66,-21 -16,-14 -23,-32 -23,-54 0,-12 3,-24 8,-34 6,-11 14,-19 23,-26 10,-6 20,-11 32,-14 9,-2 22,-4 39,-7 36,-4 62,-9 79,-15 0,-6 0,-10 0,-11 0,-18 -4,-31 -12,-38 -12,-10 -28,-15 -51,-15 -21,0 -36,4 -46,11 -10,7 -17,20 -22,39l-43 -6c4,-19 11,-34 20,-45 9,-11 22,-20 39,-26 17,-6 36,-9 59,-9 22,0 40,2 54,7 14,6 24,12 31,20 6,8 11,18 14,30 1,8 2,21 2,41l0 58c0,41 1,67 2,78 2,11 6,21 11,31l-46 0c-4,-9 -7,-20 -8,-32zm-4 -98c-16,6 -40,12 -72,16 -18,3 -31,6 -39,9 -7,3 -13,8 -17,14 -4,7 -6,13 -6,21 0,12 4,22 13,29 9,8 22,12 39,12 17,0 32,-4 46,-11 13,-7 23,-18 29,-30 4,-10 7,-25 7,-44l0 -16zm112 130l0 -260 40 0 0 37c19,-28 47,-42 83,-42 15,0 30,2 43,8 13,6 23,13 29,22 7,9 11,20 14,33 2,8 2,22 2,42l0 160 -44 0 0 -158c0,-18 -1,-31 -5,-40 -3,-9 -9,-16 -18,-21 -9,-6 -19,-8 -31,-8 -18,0 -35,6 -48,17 -14,12 -21,35 -21,68l0 142 -44 0zm459 0l-41 0 0 -359 44 0 0 128c18,-23 42,-34 71,-34 16,0 31,3 46,9 14,7 25,16 35,27 9,12 16,26 21,42 6,17 8,34 8,53 0,45 -11,79 -33,103 -22,24 -48,37 -79,37 -31,0 -55,-13 -72,-39l0 33zm-1 -132c0,31 5,54 13,68 14,22 33,34 56,34 20,0 36,-9 50,-26 14,-16 21,-41 21,-74 0,-34 -7,-59 -20,-75 -13,-16 -30,-24 -49,-24 -19,0 -36,8 -50,25 -14,16 -21,40 -21,72zm416 48l46 6c-7,26 -20,47 -40,62 -19,14 -44,22 -74,22 -38,0 -68,-12 -90,-35 -23,-24 -34,-57 -34,-99 0,-43 12,-77 34,-101 22,-24 52,-36 87,-36 35,0 63,11 85,35 22,24 33,57 33,100 0,2 0,6 0,11l-194 0c2,29 10,51 25,66 14,15 32,23 54,23 16,0 30,-5 41,-13 12,-9 21,-22 27,-41zm-144 -71l145 0c-2,-22 -8,-38 -17,-49 -14,-17 -32,-25 -54,-25 -20,0 -37,6 -51,20 -14,13 -22,32 -23,54zm245 155l0 -260 40 0 0 40c10,-19 19,-31 28,-37 8,-6 18,-8 28,-8 15,0 30,4 45,13l-15 41c-11,-6 -22,-9 -32,-9 -10,0 -19,3 -26,9 -8,6 -13,14 -16,24 -5,15 -8,33 -8,51l0 136 -44 0zm168 0l0 -359 44 0 0 205 104 -106 57 0 -99 97 109 163 -54 0 -87 -133 -30 30 0 103 -44 0zm427 -84l46 6c-7,26 -20,47 -40,62 -19,14 -44,22 -74,22 -38,0 -68,-12 -90,-35 -22,-24 -34,-57 -34,-99 0,-43 12,-77 34,-101 23,-24 52,-36 87,-36 35,0 63,11 85,35 22,24 33,57 33,100 0,2 0,6 0,11l-193 0c1,29 9,51 24,66 14,15 32,23 54,23 16,0 30,-5 41,-13 12,-9 21,-22 27,-41zm-144 -71l145 0c-2,-22 -8,-38 -17,-49 -14,-17 -32,-25 -54,-25 -20,0 -37,6 -51,20 -14,13 -21,32 -23,54zm245 155l0 -359 44 0 0 359 -44 0zm282 -32c-17,13 -32,23 -48,29 -15,6 -31,9 -48,9 -29,0 -51,-7 -66,-21 -15,-14 -23,-32 -23,-54 0,-12 3,-24 9,-34 5,-11 13,-19 22,-26 10,-6 20,-11 32,-14 9,-2 22,-4 39,-7 36,-4 62,-9 79,-15 0,-6 0,-10 0,-11 0,-18 -4,-31 -12,-38 -12,-10 -28,-15 -51,-15 -20,0 -36,4 -46,11 -9,7 -17,20 -22,39l-43 -6c4,-19 11,-34 20,-45 9,-11 22,-20 39,-26 17,-6 37,-9 59,-9 22,0 40,2 54,7 14,6 24,12 31,20 6,8 11,18 14,30 1,8 2,21 2,41l0 58c0,41 1,67 3,78 1,11 5,21 10,31l-46 0c-4,-9 -7,-20 -8,-32zm-4 -98c-16,6 -40,12 -72,16 -18,3 -31,6 -38,9 -8,3 -14,8 -18,14 -4,7 -6,13 -6,21 0,12 4,22 13,29 9,8 22,12 39,12 17,0 32,-4 46,-11 13,-7 23,-18 29,-30 5,-10 7,-25 7,-44l0 -16zm113 130l0 -260 39 0 0 37c19,-28 47,-42 83,-42 15,0 30,2 43,8 13,6 23,13 29,22 7,9 11,20 14,33 2,8 2,22 2,42l0 160 -44 0 0 -158c0,-18 -1,-31 -5,-40 -3,-9 -9,-16 -18,-21 -9,-6 -19,-8 -31,-8 -18,0 -34,6 -48,17 -14,12 -20,35 -20,68l0 142 -44 0zm278 -308l0 -51 44 0 0 51 -44 0zm-56 409l8 -38c9,3 16,4 21,4 9,0 16,-3 20,-9 5,-6 7,-21 7,-45l0 -273 44 0 0 274c0,32 -4,54 -12,67 -11,16 -29,24 -53,24 -12,0 -24,-1 -35,-4zm337 -101l0 -39c-20,30 -47,45 -82,45 -15,0 -29,-3 -43,-9 -13,-6 -23,-13 -29,-22 -7,-9 -11,-20 -14,-33 -2,-9 -2,-22 -2,-41l0 -161 44 0 0 144c0,23 1,38 2,46 3,12 9,21 18,28 9,6 20,10 33,10 13,0 26,-4 37,-11 12,-6 20,-16 25,-27 4,-12 7,-29 7,-51l0 -139 44 0 0 260 -40 0zm205 -39l6 39c-12,2 -24,4 -33,4 -16,0 -29,-3 -37,-8 -9,-5 -15,-12 -19,-20 -4,-8 -5,-26 -5,-52l0 -150 -33 0 0 -34 33 0 0 -64 44 -27 0 91 44 0 0 34 -44 0 0 152c0,13 1,21 2,25 2,3 4,6 8,8 3,2 8,3 15,3 5,0 11,0 19,-1zm213 7c-16,13 -32,23 -47,29 -15,6 -31,9 -49,9 -28,0 -50,-7 -66,-21 -15,-14 -23,-32 -23,-54 0,-12 3,-24 9,-34 6,-11 13,-19 23,-26 9,-6 20,-11 32,-14 8,-2 21,-4 39,-7 35,-4 62,-9 78,-15 1,-6 1,-10 1,-11 0,-18 -4,-31 -13,-38 -11,-10 -28,-15 -50,-15 -21,0 -36,4 -46,11 -10,7 -17,20 -22,39l-43 -6c4,-19 10,-34 19,-45 9,-11 22,-20 39,-26 17,-6 37,-9 59,-9 23,0 41,2 55,7 14,6 24,12 30,20 7,8 11,18 14,30 2,8 2,21 2,41l0 58c0,41 1,67 3,78 2,11 6,21 11,31l-46 0c-5,-9 -8,-20 -9,-32zm-3 -98c-16,6 -40,12 -72,16 -19,3 -31,6 -39,9 -8,3 -13,8 -17,14 -4,7 -7,13 -7,21 0,12 5,22 14,29 9,8 22,12 39,12 17,0 32,-4 45,-11 13,-7 23,-18 29,-30 5,-10 7,-25 7,-44l1 -16zm112 130l0 -260 40 0 0 37c19,-28 46,-42 82,-42 16,0 30,2 43,8 13,6 23,13 30,22 6,9 11,20 14,33 1,8 2,22 2,42l0 160 -44 0 0 -158c0,-18 -2,-31 -5,-40 -4,-9 -10,-16 -18,-21 -9,-6 -19,-8 -31,-8 -19,0 -35,6 -48,17 -14,12 -21,35 -21,68l0 142 -44 0zm291 0l0 -50 50 0 0 50 -50 0z"/>
  </g>
  <path class="fil2" d="M9201 2675c-62,0 -94,-65 -94,-249 0,-181 32,-246 94,-246 62,0 93,66 93,248 0,180 -31,247 -93,247zm-4 104c142,0 228,-112 228,-357 0,-244 -86,-346 -228,-346 -142,0 -224,102 -224,348 0,248 82,355 224,355zm427 -318c107,0 147,26 147,103 0,69 -41,109 -94,109 -65,0 -98,-34 -98,-110l-124 0c0,134 79,216 216,216 137,0 231,-81 231,-213 0,-83 -35,-137 -98,-163 52,-29 78,-88 78,-147 0,-106 -90,-180 -204,-180 -125,0 -212,86 -212,212l119 0c0,-69 38,-108 88,-108 59,0 85,35 85,101 0,48 -23,90 -134,90l0 90z"/>
  <path class="fil4" d="M6478 1712l-131 129c96,231 104,179 -106,267l-7 182c68,44 144,20 169,91 27,77 -38,122 -57,197l126 119c165,-51 208,-164 271,112l195 -2c66,-252 95,-179 272,-109l123 -125c-37,-133 -170,-211 110,-271l5 -201c-298,-40 -135,-197 -116,-259l-135 -134c-148,93 -230,103 -254,-112l-205 0c-7,62 -18,142 -74,166 -81,35 -114,-32 -186,-50zm-262 1189c324,330 871,335 1222,36 38,-32 119,-102 128,-154l-41 -33c-103,54 -231,309 -646,328 -176,8 -442,-59 -596,-218 19,-33 16,18 33,-42l-200 -106 22 108c13,43 23,82 37,123 12,-2 8,2 20,-11 19,-19 2,-1 21,-31zm555 -869c-231,92 -83,435 140,342 198,-82 110,-440 -140,-342zm205 -708c-4,76 -20,45 52,67 194,61 336,116 483,314 147,197 188,430 140,712l-48 -43 -6 259c49,-25 148,-123 180,-175l-57 -7c71,-323 13,-552 -136,-777l-177 -187c-84,-58 -266,-170 -373,-176 -68,-5 -25,-9 -58,13zm-358 -4c-452,100 -746,561 -679,1017 7,49 23,154 62,190l50 -17c9,-116 -139,-360 65,-722 87,-153 285,-343 502,-390 16,34 -25,5 17,51l196 -113 -103 -39c-43,-12 -82,-24 -124,-34 -4,11 -6,6 -1,23 6,25 -1,2 15,34zm151 557c-432,102 -282,745 143,651 428,-95 285,-752 -143,-651z"/>
 </g>
</svg>
