<?xml version="1.0" encoding="UTF-8"?>
<!DOCTYPE svg PUBLIC "-//W3C//DTD SVG 1.1//EN" "http://www.w3.org/Graphics/SVG/1.1/DTD/svg11.dtd">
<!-- Creator: CorelDRAW X7 -->
<svg xmlns="http://www.w3.org/2000/svg" xml:space="preserve" width="82.7821mm" height="75.6971mm" version="1.1" style="shape-rendering:geometricPrecision; text-rendering:geometricPrecision; image-rendering:optimizeQuality; fill-rule:evenodd; clip-rule:evenodd"
viewBox="0 0 2898 2650"
 xmlns:xlink="http://www.w3.org/1999/xlink">
 <defs>
  <style type="text/css">
   <![CDATA[
    .fil4 {fill:#F08519}
    .fil1 {fill:#1C6068}
    .fil0 {fill:#E9EAE9}
    .fil3 {fill:#1D1819;fill-rule:nonzero}
    .fil2 {fill:#113C40;fill-rule:nonzero}
   ]]>
  </style>
 </defs>
 <g id="Layer_x0020_1">
  <metadata id="CorelCorpID_0Corel-Layer"/>
  <path class="fil0" d="M2759 1151c-64,-22 -155,-33 -228,-53 -264,-74 -526,-236 -723,-415l-134 -153c-10,-12 -22,-28 -31,-41l-85 -131c-34,-57 -83,-135 -98,-191 -9,-35 -18,-36 -26,-75 -110,15 -240,79 -358,111 -197,53 -497,165 -720,236 -54,17 -126,37 -181,57 -37,13 -153,47 -175,61 56,182 237,551 365,721l205 261c312,388 816,728 1289,908 288,109 680,203 1031,203l8 -1483c-71,-7 -77,14 -139,-16z"/>
  <path class="fil1" d="M1460 167c15,56 64,134 98,191l85 131c9,13 21,29 31,41l134 153c197,179 459,341 723,415 73,20 164,31 228,53l59 4 -7 -572c-313,-12 -759,-375 -797,-583 -167,44 -398,145 -554,167z"/>
  <path class="fil2" d="M508 973l0 -43 30 0c17,0 25,9 25,21 0,13 -8,22 -25,22l-30 0zm0 79l0 -54 34 0c29,0 48,-19 48,-46 0,-27 -19,-48 -48,-48l-65 0 0 148 31 0zm116 -65c1,-16 11,-24 22,-24 12,0 22,7 23,24l-45 0zm75 18c0,-44 -18,-65 -52,-65 -33,0 -53,21 -53,55 0,40 19,60 55,60 23,0 41,-13 48,-35l-30 0c-2,7 -10,12 -19,12 -15,0 -24,-11 -25,-27l76 0zm166 47l0 -76c0,-20 -15,-36 -37,-36 -14,0 -24,5 -30,17 -8,-13 -15,-17 -30,-17 -15,0 -25,4 -32,19l0 -16 -27 0 0 109 29 0 0 -67c0,-14 6,-21 17,-21 13,0 18,5 18,22l0 66 28 0 0 -65c0,-14 8,-24 19,-24 10,0 17,10 17,23l0 66 28 0zm39 -65c1,-16 10,-24 22,-24 11,0 22,7 22,24l-44 0zm74 18c0,-44 -17,-65 -51,-65 -34,0 -53,21 -53,55 0,40 18,60 55,60 23,0 41,-13 48,-35l-30 0c-2,7 -10,12 -20,12 -14,0 -23,-11 -24,-27l75 0zm39 47l0 -57c0,-18 9,-26 27,-26 2,0 5,0 8,0l0 -29 -4 0c-12,0 -23,1 -33,16l0 -13 -27 0 0 109 29 0zm72 0l0 -109 -29 0 0 109 29 0zm0 -123l0 -27 -29 0 0 27 29 0zm113 123l-36 -69 37 -40 -35 0 -36 41 0 -82 -30 0 0 150 30 0 0 -35 14 -14 24 49 32 0zm93 -76c-2,-24 -16,-36 -47,-36 -34,0 -47,14 -47,32 0,10 4,18 14,25 8,5 18,8 37,12 9,2 17,5 17,13 0,8 -9,11 -19,11 -14,0 -23,-6 -23,-16l-30 0c1,22 20,38 53,38 31,0 48,-14 48,-36 0,-15 -6,-22 -18,-27 -8,-3 -20,-6 -33,-9 -12,-4 -18,-6 -18,-13 0,-6 7,-9 18,-9 13,0 19,4 20,15l28 0zm78 34c-1,13 -12,24 -27,24 -9,0 -14,-4 -14,-12 0,-9 6,-14 22,-17 11,-2 16,-4 19,-7l0 12zm29 42l0 -69c0,-28 -12,-43 -47,-43 -35,0 -48,15 -48,38l27 0c1,-10 7,-16 20,-16 11,0 18,4 18,11 0,8 -4,11 -18,13 -30,4 -51,7 -51,39 0,18 12,30 37,30 15,0 26,-5 33,-13 0,4 1,7 2,10l27 0zm79 -42c-1,13 -12,24 -27,24 -9,0 -14,-4 -14,-12 0,-9 6,-14 22,-17 11,-2 16,-4 19,-7l0 12zm29 42l0 -69c0,-28 -12,-43 -47,-43 -35,0 -48,15 -48,38l27 0c1,-10 7,-16 20,-16 11,0 18,4 18,11 0,8 -4,11 -18,13 -29,4 -51,7 -51,39 0,18 12,30 37,30 15,0 26,-5 33,-13 0,4 1,7 2,10l27 0zm112 0l0 -76c0,-24 -16,-36 -37,-36 -17,0 -28,6 -35,19l0 -16 -28 0 0 109 29 0 0 -63c0,-16 8,-25 23,-25 14,0 19,5 19,22l0 66 29 0zm83 0l43 -148 -25 0 -42 148 24 0zm-1143 115l-38 0 19 -59 0 0 19 59zm51 56l-52 -148 -35 0 -53 148 33 0 10 -30 55 0 9 30 33 0zm99 0l0 -109 -29 0 0 63c0,14 -7,25 -22,25 -12,0 -19,-7 -19,-21l0 -67 -29 0 0 72c0,24 16,40 38,40 15,0 26,-6 34,-18l0 15 27 0zm65 -21c-15,0 -25,-13 -25,-33 0,-22 8,-34 25,-34 16,0 24,12 24,36 0,18 -11,31 -24,31zm51 21l0 -149 -28 0 0 54c-8,-12 -19,-17 -33,-17 -28,0 -45,23 -45,56 0,37 20,59 48,59 13,0 23,-5 30,-16l1 13 27 0zm43 0l0 -109 -29 0 0 109 29 0zm0 -123l0 -26 -29 0 0 26 29 0zm75 79c0,14 -6,22 -17,22 -12,0 -17,-8 -17,-22l0 -45 61 0 0 -20 -61 0 0 -30 -28 0 0 98c0,23 12,44 44,44 31,0 45,-21 45,-44l0 -31 -27 0 0 28zm211 44l0 -148 -31 0 0 56 -58 0 0 -56 -31 0 0 148 31 0 0 -66 58 0 0 66 31 0zm78 -42c0,13 -11,24 -26,24 -9,0 -14,-4 -14,-12 0,-9 5,-14 22,-17 10,-2 15,-4 18,-7l0 12zm29 42l0 -69c0,-28 -12,-43 -47,-43 -35,0 -47,15 -48,38l27 0c2,-10 7,-16 20,-16 11,0 19,4 19,11 0,8 -4,11 -19,13 -29,4 -50,7 -50,39 0,18 11,30 36,30 15,0 27,-5 33,-13 1,4 1,7 2,10l27 0zm42 0l0 -149 -29 0 0 149 29 0zm78 -42c0,13 -11,24 -26,24 -9,0 -14,-4 -14,-12 0,-9 5,-14 22,-17 11,-2 16,-4 19,-7l-1 12zm29 42l0 -69c0,-28 -12,-43 -46,-43 -35,0 -48,15 -48,38l27 0c1,-10 6,-16 19,-16 12,0 19,4 19,11 0,8 -4,11 -19,13 -29,4 -50,7 -50,39 0,18 12,30 37,30 14,0 26,-5 33,-13 0,4 1,7 2,10l26 0zm42 0l0 -149 -29 0 0 149 29 0z"/>
  <g id="_506925448">
   <path class="fil3" d="M1251 1389l11 -2c1,7 2,13 5,15 2,3 5,4 10,4 3,0 6,0 8,-2 3,-1 4,-3 5,-6 1,-2 1,-6 1,-12l0 -67 13 0 0 66c0,8 -1,15 -3,19 -2,5 -5,8 -9,10 -4,3 -9,4 -15,4 -9,0 -15,-3 -20,-7 -4,-5 -6,-13 -6,-22zm75 27l0 -97 13 0 0 40 50 0 0 -40 13 0 0 97 -13 0 0 -46 -50 0 0 46 -13 0zm167 -34l13 3c-3,11 -8,19 -15,25 -7,5 -16,8 -26,8 -10,0 -19,-2 -25,-7 -7,-4 -12,-10 -15,-18 -4,-8 -5,-17 -5,-26 0,-10 2,-19 6,-27 3,-7 9,-13 16,-17 7,-4 15,-6 24,-6 9,0 17,3 24,8 7,5 11,12 14,21l-13 3c-2,-7 -5,-13 -10,-16 -4,-3 -9,-5 -16,-5 -7,0 -13,2 -18,6 -5,3 -9,8 -11,14 -2,6 -3,12 -3,19 0,8 1,15 4,21 2,7 6,11 11,14 5,3 10,5 16,5 7,0 14,-2 19,-6 5,-5 8,-11 10,-19zm65 34l0 -70 10 0 0 10c3,-4 6,-7 9,-9 4,-2 8,-3 13,-3 5,0 9,1 13,3 3,3 5,6 7,10 5,-9 13,-13 21,-13 7,0 13,2 17,6 3,4 5,10 5,18l0 48 -12 0 0 -44c0,-5 0,-8 -1,-10 -1,-3 -2,-4 -4,-5 -2,-2 -4,-2 -7,-2 -5,0 -9,1 -13,5 -3,3 -4,8 -4,15l0 41 -12 0 0 -46c0,-5 -1,-9 -3,-11 -2,-3 -6,-4 -10,-4 -3,0 -6,0 -9,2 -3,2 -5,5 -6,8 -2,3 -2,8 -2,15l0 36 -12 0zm161 -23l12 2c-2,7 -5,13 -10,17 -6,4 -12,6 -21,6 -10,0 -18,-3 -24,-10 -6,-6 -9,-15 -9,-26 0,-12 3,-21 9,-28 6,-6 14,-10 24,-10 9,0 17,3 23,10 6,6 9,15 9,27 0,1 0,2 0,3l-53 0c1,8 3,14 7,18 4,4 9,6 14,6 5,0 9,-1 12,-4 3,-2 5,-6 7,-11zm-39 -19l39 0c0,-6 -2,-10 -4,-13 -4,-5 -9,-7 -15,-7 -6,0 -10,2 -14,6 -4,3 -6,8 -6,14zm66 42l0 -70 11 0 0 10c5,-8 13,-12 23,-12 4,0 8,1 11,3 4,1 6,3 8,6 2,2 3,5 4,8 0,3 1,6 1,12l0 43 -12 0 0 -43c0,-4 -1,-8 -2,-10 -1,-3 -2,-5 -5,-6 -2,-2 -5,-2 -8,-2 -5,0 -9,1 -13,4 -4,4 -6,10 -6,19l0 38 -12 0zm74 6l11 2c1,3 2,6 4,8 3,2 7,3 13,3 5,0 9,-1 12,-3 3,-3 5,-6 6,-10 1,-2 1,-7 1,-15 -5,6 -11,9 -19,9 -10,0 -17,-3 -23,-10 -5,-7 -8,-16 -8,-25 0,-7 2,-13 4,-19 2,-6 6,-10 11,-13 4,-3 10,-5 16,-5 8,0 15,4 20,10l0 -8 11 0 0 61c0,11 -1,18 -3,23 -2,5 -6,8 -11,11 -4,2 -10,4 -17,4 -9,0 -16,-2 -21,-6 -5,-4 -7,-9 -7,-17zm10 -42c0,9 1,16 5,20 4,4 8,6 14,6 5,0 10,-2 14,-6 3,-4 5,-11 5,-20 0,-8 -2,-15 -6,-19 -3,-5 -8,-7 -13,-7 -6,0 -10,2 -14,7 -4,4 -5,10 -5,19zm114 27c-5,4 -9,7 -13,8 -4,2 -9,3 -13,3 -8,0 -14,-2 -18,-6 -5,-4 -7,-8 -7,-14 0,-4 1,-7 3,-10 1,-3 3,-5 6,-7 3,-1 5,-3 9,-4 2,0 5,-1 10,-1 10,-1 17,-3 22,-4 0,-2 0,-3 0,-4 0,-4 -2,-8 -4,-10 -3,-2 -7,-4 -13,-4 -6,0 -10,1 -13,3 -3,2 -5,6 -6,11l-12 -2c2,-5 3,-9 6,-12 2,-3 6,-6 10,-7 5,-2 10,-3 16,-3 6,0 11,1 15,2 4,2 7,4 8,6 2,2 3,5 4,8 0,2 1,6 1,11l0 16c0,11 0,18 0,21 1,3 2,6 3,8l-12 0c-1,-2 -2,-5 -2,-9zm-1 -26c-5,2 -11,3 -20,4 -5,1 -8,2 -10,3 -2,1 -4,2 -5,4 -1,1 -2,3 -2,5 0,3 1,6 4,8 2,2 6,3 10,3 5,0 9,-1 13,-3 3,-2 6,-4 8,-8 1,-3 2,-6 2,-12l0 -4zm43 35l-22 -70 13 0 11 40 4 16c0,-1 2,-6 4,-15l11 -41 12 0 11 41 3 13 4 -13 12 -41 12 0 -22 70 -12 0 -12 -42 -2 -12 -15 54 -12 0zm131 -9c-4,4 -9,7 -13,8 -4,2 -8,3 -13,3 -8,0 -14,-2 -18,-6 -4,-4 -6,-8 -6,-14 0,-4 1,-7 2,-10 2,-3 4,-5 7,-7 2,-1 5,-3 8,-4 3,0 6,-1 11,-1 9,-1 17,-3 21,-4 0,-2 0,-3 0,-4 0,-4 -1,-8 -3,-10 -3,-2 -8,-4 -14,-4 -5,0 -10,1 -12,3 -3,2 -5,6 -6,11l-12 -2c1,-5 3,-9 5,-12 3,-3 6,-6 11,-7 5,-2 10,-3 16,-3 6,0 11,1 15,2 3,2 6,4 8,6 2,2 3,5 4,8 0,2 0,6 0,11l0 16c0,11 1,18 1,21 1,3 2,6 3,8l-13 0c-1,-2 -1,-5 -2,-9zm-1 -26c-4,2 -11,3 -19,4 -5,1 -9,2 -11,3 -2,1 -3,2 -5,4 -1,1 -1,3 -1,5 0,3 1,6 3,8 3,2 6,3 11,3 5,0 9,-1 12,-3 4,-2 7,-4 8,-8 2,-3 2,-6 2,-12l0 -4zm30 35l0 -97 12 0 0 97 -12 0zm69 27l0 -97 10 0 0 9c3,-4 6,-6 9,-8 3,-2 7,-3 12,-3 6,0 11,2 16,5 4,3 8,7 10,13 3,6 4,12 4,18 0,8 -2,14 -4,20 -3,6 -7,10 -11,13 -5,3 -11,5 -16,5 -4,0 -8,-1 -11,-3 -3,-1 -5,-4 -7,-6l0 34 -12 0zm10 -62c0,9 2,16 6,20 4,5 8,7 13,7 6,0 10,-2 14,-7 4,-4 5,-11 5,-21 0,-9 -1,-15 -5,-20 -4,-4 -8,-6 -13,-6 -5,0 -10,2 -14,7 -4,4 -6,11 -6,20zm65 35l0 -70 11 0 0 11c2,-5 5,-9 7,-10 3,-2 5,-3 8,-3 4,0 8,2 12,4l-4 11c-3,-2 -6,-2 -9,-2 -2,0 -5,0 -7,2 -2,2 -3,4 -4,6 -1,5 -2,9 -2,14l0 37 -12 0zm41 -35c0,-13 3,-23 11,-29 6,-5 13,-8 22,-8 10,0 18,3 24,10 6,6 9,15 9,26 0,9 -1,16 -4,21 -3,6 -7,10 -12,12 -5,3 -11,5 -17,5 -10,0 -18,-3 -24,-10 -6,-6 -9,-15 -9,-27zm12 0c0,9 2,16 6,20 4,5 9,7 15,7 6,0 11,-2 15,-7 4,-4 6,-11 6,-20 0,-9 -2,-16 -6,-20 -4,-5 -9,-7 -15,-7 -6,0 -11,2 -15,7 -4,4 -6,11 -6,20zm63 14l12 -2c1,5 2,9 5,11 4,3 8,4 13,4 6,0 10,-1 12,-3 3,-3 4,-5 4,-8 0,-3 -1,-5 -3,-7 -2,-1 -6,-2 -12,-4 -9,-2 -15,-4 -19,-5 -3,-2 -5,-4 -7,-7 -2,-3 -3,-6 -3,-9 0,-4 1,-7 2,-9 2,-3 4,-5 6,-7 2,-1 5,-2 8,-3 3,-1 6,-2 10,-2 6,0 10,1 15,3 4,1 7,3 9,6 2,3 3,7 4,11l-12 2c0,-4 -2,-7 -4,-9 -3,-2 -6,-3 -11,-3 -6,0 -9,1 -12,3 -2,2 -3,4 -3,6 0,2 0,3 1,4 1,2 3,3 5,3 1,1 4,2 10,4 9,2 15,4 18,5 3,1 6,4 8,6 2,3 3,6 3,11 0,3 -1,7 -4,11 -2,3 -5,6 -10,8 -4,2 -9,3 -15,3 -9,0 -16,-2 -21,-6 -4,-4 -8,-9 -9,-17zm121 -2l12 2c-2,7 -5,13 -11,17 -5,4 -11,6 -20,6 -10,0 -18,-3 -24,-10 -6,-6 -9,-15 -9,-26 0,-12 3,-21 9,-28 6,-6 14,-10 24,-10 9,0 17,3 23,10 6,6 9,15 9,27 0,1 0,2 0,3l-53 0c1,8 3,14 7,18 4,4 8,6 14,6 5,0 8,-1 12,-4 3,-2 5,-6 7,-11zm-39 -19l39 0c-1,-6 -2,-10 -4,-13 -4,-5 -9,-7 -15,-7 -6,0 -10,2 -14,6 -4,3 -6,8 -6,14zm62 21l11 -2c1,5 3,9 6,11 3,3 7,4 13,4 5,0 9,-1 12,-3 3,-3 4,-5 4,-8 0,-3 -1,-5 -4,-7 -1,-1 -5,-2 -12,-4 -9,-2 -15,-4 -18,-5 -3,-2 -6,-4 -8,-7 -1,-3 -2,-6 -2,-9 0,-4 0,-7 2,-9 1,-3 3,-5 6,-7 1,-1 4,-2 7,-3 3,-1 7,-2 11,-2 5,0 10,1 14,3 4,1 7,3 9,6 2,3 4,7 4,11l-11 2c-1,-4 -2,-7 -5,-9 -2,-2 -6,-3 -11,-3 -5,0 -9,1 -11,3 -3,2 -4,4 -4,6 0,2 1,3 2,4 1,2 2,3 4,3 1,1 5,2 11,4 8,2 14,4 17,5 4,1 6,4 8,6 2,3 3,6 3,11 0,3 -1,7 -3,11 -3,3 -6,6 -10,8 -5,2 -10,3 -15,3 -9,0 -16,-2 -21,-6 -5,-4 -8,-9 -9,-17zm-1449 200l0 -98 11 0 0 10c2,-4 5,-7 8,-8 4,-2 8,-3 12,-3 6,0 12,2 16,5 5,3 8,7 11,13 2,5 3,11 3,18 0,7 -1,14 -4,20 -2,5 -6,10 -11,13 -5,3 -10,4 -16,4 -4,0 -7,0 -10,-2 -4,-2 -6,-4 -8,-6l0 34 -12 0zm11 -62c0,9 2,16 5,20 4,5 8,7 14,7 5,0 9,-3 13,-7 4,-5 6,-11 6,-21 0,-9 -2,-15 -6,-20 -3,-4 -8,-7 -13,-7 -5,0 -9,3 -13,7 -4,5 -6,12 -6,21zm113 12l12 2c-2,7 -6,13 -11,17 -5,3 -12,5 -20,5 -10,0 -18,-3 -24,-9 -6,-6 -9,-15 -9,-27 0,-11 3,-21 9,-27 6,-7 14,-10 23,-10 10,0 17,3 23,10 6,6 9,15 9,27 0,0 0,1 0,3l-52 0c0,8 2,13 6,18 4,4 9,6 15,6 4,0 8,-1 11,-4 3,-2 6,-6 8,-11zm-40 -19l40 0c-1,-6 -2,-10 -5,-13 -4,-5 -9,-7 -15,-7 -5,0 -10,2 -13,5 -4,4 -6,9 -7,15zm67 42l0 -71 11 0 0 10c2,-3 5,-6 9,-8 3,-2 7,-3 12,-3 5,0 10,1 13,3 3,2 6,5 7,9 6,-8 13,-12 22,-12 7,0 12,2 16,6 4,4 6,10 6,18l0 48 -12 0 0 -44c0,-5 -1,-9 -2,-11 0,-2 -2,-3 -4,-5 -2,-1 -4,-2 -7,-2 -5,0 -9,2 -12,5 -4,4 -5,9 -5,16l0 41 -12 0 0 -46c0,-5 -1,-9 -3,-12 -2,-2 -5,-4 -10,-4 -3,0 -6,1 -9,3 -3,2 -5,4 -6,8 -1,3 -2,8 -2,14l0 37 -12 0zm161 -23l13 2c-2,7 -6,13 -11,17 -5,3 -12,5 -20,5 -11,0 -19,-3 -25,-9 -6,-6 -9,-15 -9,-27 0,-11 3,-21 9,-27 6,-7 14,-10 24,-10 9,0 17,3 23,10 6,6 9,15 9,27 0,0 0,1 0,3l-53 0c1,8 3,13 7,18 4,4 9,6 15,6 4,0 8,-1 11,-4 3,-2 5,-6 7,-11zm-39 -19l39 0c0,-6 -2,-10 -4,-13 -4,-5 -9,-7 -15,-7 -5,0 -10,2 -14,5 -3,4 -5,9 -6,15zm67 42l0 -71 10 0 0 11c3,-5 6,-8 8,-10 2,-1 5,-2 8,-2 4,0 8,1 12,4l-4 11c-3,-2 -6,-3 -9,-3 -3,0 -5,1 -7,3 -2,1 -4,3 -5,6 -1,4 -1,9 -1,14l0 37 -12 0zm45 -84l0 -13 12 0 0 13 -12 0zm0 84l0 -71 12 0 0 71 -12 0zm30 0l0 -97 12 0 0 55 28 -29 16 0 -27 27 30 44 -15 0 -24 -36 -8 8 0 28 -12 0zm63 -21l12 -2c1,5 3,8 6,11 3,2 7,4 12,4 6,0 10,-1 13,-4 2,-2 4,-4 4,-8 0,-2 -2,-4 -4,-6 -2,-1 -6,-2 -12,-4 -9,-2 -15,-4 -18,-6 -4,-1 -6,-3 -8,-6 -2,-3 -3,-6 -3,-10 0,-3 1,-6 2,-8 2,-3 4,-5 6,-7 2,-1 5,-3 8,-4 3,-1 7,-1 10,-1 6,0 11,1 15,2 4,2 7,4 9,7 2,3 3,6 4,11l-12 1c0,-3 -2,-6 -4,-8 -3,-2 -6,-3 -11,-3 -5,0 -9,1 -12,2 -2,2 -3,4 -3,7 0,1 0,3 1,4 1,1 3,2 5,3 1,1 5,2 10,3 9,3 15,4 18,6 3,1 6,3 8,6 2,3 3,6 3,10 0,4 -1,8 -4,11 -2,4 -5,7 -10,9 -4,2 -9,2 -15,2 -9,0 -16,-1 -21,-5 -4,-4 -7,-10 -9,-17zm119 12c-4,4 -9,7 -13,8 -4,2 -8,2 -13,2 -8,0 -14,-1 -18,-5 -4,-4 -6,-9 -6,-15 0,-3 1,-6 2,-9 2,-3 4,-5 6,-7 3,-2 6,-3 9,-4 2,0 6,-1 11,-2 9,-1 16,-2 21,-4 0,-1 0,-2 0,-3 0,-5 -1,-8 -3,-10 -3,-3 -8,-4 -14,-4 -6,0 -10,1 -12,3 -3,2 -5,5 -6,10l-12 -1c1,-5 3,-9 5,-12 3,-3 6,-6 11,-8 4,-1 10,-2 16,-2 6,0 11,1 14,2 4,2 7,3 9,5 2,3 3,5 4,9 0,2 0,5 0,11l0 15c0,12 0,19 1,21 0,3 1,6 3,9l-13 0c-1,-3 -2,-5 -2,-9zm-1 -26c-4,1 -11,3 -20,4 -4,1 -8,2 -10,3 -2,0 -4,2 -5,3 -1,2 -1,4 -1,6 0,3 1,6 3,8 3,2 6,3 11,3 4,0 9,-1 12,-3 4,-2 6,-5 8,-8 1,-3 2,-7 2,-12l0 -4zm77 26c-5,4 -9,7 -13,8 -4,2 -9,2 -13,2 -8,0 -14,-1 -18,-5 -5,-4 -7,-9 -7,-15 0,-3 1,-6 3,-9 1,-3 3,-5 6,-7 2,-2 5,-3 9,-4 2,0 5,-1 10,-2 10,-1 17,-2 21,-4 1,-1 1,-2 1,-3 0,-5 -2,-8 -4,-10 -3,-3 -7,-4 -13,-4 -6,0 -10,1 -13,3 -3,2 -5,5 -6,10l-12 -1c1,-5 3,-9 6,-12 2,-3 6,-6 10,-8 5,-1 10,-2 16,-2 6,0 11,1 15,2 4,2 7,3 8,5 2,3 3,5 4,9 0,2 1,5 1,11l0 15c0,12 0,19 0,21 1,3 2,6 3,9l-12 0c-1,-3 -2,-5 -2,-9zm-1 -26c-5,1 -11,3 -20,4 -5,1 -8,2 -10,3 -2,0 -4,2 -5,3 -1,2 -2,4 -2,6 0,3 1,6 4,8 2,2 6,3 10,3 5,0 9,-1 13,-3 3,-2 6,-5 8,-8 1,-3 1,-7 1,-12l1 -4zm30 35l0 -71 11 0 0 11c5,-8 12,-12 22,-12 4,0 8,1 12,2 3,2 6,4 8,6 2,3 3,6 4,9 0,2 0,6 0,12l0 43 -12 0 0 -43c0,-5 0,-8 -1,-11 -1,-2 -3,-4 -5,-6 -2,-1 -5,-2 -8,-2 -5,0 -10,2 -14,5 -3,3 -5,10 -5,19l0 38 -12 0zm109 -35c0,-13 3,-23 11,-29 6,-5 13,-8 22,-8 10,0 17,3 24,10 6,6 9,15 9,26 0,9 -2,16 -4,21 -3,5 -7,9 -12,12 -5,3 -11,4 -17,4 -10,0 -18,-3 -24,-9 -6,-6 -9,-15 -9,-27zm12 0c0,9 2,16 6,20 4,4 9,7 15,7 6,0 11,-3 15,-7 4,-5 6,-11 6,-21 0,-8 -2,-15 -6,-19 -4,-5 -9,-7 -15,-7 -6,0 -11,2 -15,7 -4,4 -6,11 -6,20zm68 35l0 -97 12 0 0 97 -12 0z"/>
   <path class="fil3" d="M2070 1545l12 2c-1,7 -5,13 -10,17 -6,3 -12,5 -20,5 -11,0 -19,-3 -25,-9 -6,-6 -9,-15 -9,-27 0,-11 3,-21 9,-27 6,-7 14,-10 24,-10 9,0 17,3 23,10 6,6 9,15 9,27 0,0 0,1 0,3l-53 0c1,8 3,13 7,18 4,4 9,6 15,6 4,0 8,-1 11,-4 3,-2 5,-6 7,-11zm-39 -19l39 0c0,-6 -2,-10 -4,-13 -4,-5 -9,-7 -15,-7 -6,0 -10,2 -14,5 -4,4 -6,9 -6,15zm67 42l0 -97 12 0 0 35c5,-7 12,-10 21,-10 5,0 9,1 13,3 4,2 7,5 8,9 2,3 3,8 3,15l0 45 -12 0 0 -45c0,-6 -2,-10 -4,-13 -3,-2 -6,-4 -11,-4 -3,0 -7,1 -10,3 -3,2 -5,4 -7,8 -1,3 -1,7 -1,13l0 38 -12 0zm114 0l0 -97 13 0 0 86 47 0 0 11 -60 0zm122 -23l13 2c-2,7 -6,13 -11,17 -5,3 -12,5 -20,5 -10,0 -19,-3 -25,-9 -6,-6 -9,-15 -9,-27 0,-11 3,-21 10,-27 6,-7 14,-10 23,-10 10,0 17,3 23,10 6,6 9,15 9,27 0,0 0,1 0,3l-52 0c0,8 2,13 6,18 4,4 9,6 15,6 4,0 8,-1 11,-4 3,-2 6,-6 7,-11zm-39 -19l40 0c-1,-6 -2,-10 -5,-13 -4,-5 -9,-7 -15,-7 -5,0 -10,2 -13,5 -4,4 -6,9 -7,15zm67 42l0 -71 11 0 0 10c2,-3 5,-6 8,-8 4,-2 8,-3 13,-3 5,0 9,1 13,3 3,2 5,5 7,9 5,-8 13,-12 22,-12 7,0 12,2 16,6 4,4 6,10 6,18l0 48 -12 0 0 -44c0,-5 -1,-9 -2,-11 0,-2 -2,-3 -4,-5 -2,-1 -4,-2 -7,-2 -5,0 -9,2 -12,5 -4,4 -5,9 -5,16l0 41 -12 0 0 -46c0,-5 -1,-9 -3,-12 -2,-2 -5,-4 -10,-4 -3,0 -6,1 -9,3 -3,2 -5,4 -6,8 -2,3 -2,8 -2,14l0 37 -12 0zm124 0l-11 0 0 -97 12 0 0 34c5,-6 11,-9 19,-9 5,0 9,1 12,3 4,1 8,4 10,7 3,3 5,7 6,11 1,5 2,10 2,15 0,12 -3,21 -9,28 -6,6 -13,9 -21,9 -9,0 -15,-3 -20,-10l0 9zm0 -36c0,9 1,15 3,18 4,7 9,10 16,10 5,0 9,-3 13,-7 4,-5 6,-11 6,-20 0,-10 -2,-16 -6,-21 -3,-4 -8,-6 -13,-6 -5,0 -10,2 -13,7 -4,4 -6,11 -6,19zm111 27c-5,4 -9,7 -13,8 -4,2 -9,2 -13,2 -8,0 -14,-1 -18,-5 -4,-4 -6,-9 -6,-15 0,-3 0,-6 2,-9 1,-3 4,-5 6,-7 3,-2 5,-3 9,-4 2,0 6,-1 10,-2 10,-1 17,-2 22,-4 0,-1 0,-2 0,-3 0,-5 -1,-8 -4,-10 -3,-3 -7,-4 -13,-4 -6,0 -10,1 -13,3 -2,2 -4,5 -6,10l-11 -1c1,-5 2,-9 5,-12 2,-3 6,-6 10,-8 5,-1 10,-2 16,-2 6,0 11,1 15,2 4,2 7,3 8,5 2,3 3,5 4,9 1,2 1,5 1,11l0 15c0,12 0,19 1,21 0,3 1,6 2,9l-12 0c-1,-3 -2,-5 -2,-9zm-1 -26c-5,1 -11,3 -20,4 -5,1 -8,2 -10,3 -2,0 -4,2 -5,3 -1,2 -2,4 -2,6 0,3 1,6 4,8 2,2 6,3 11,3 4,0 8,-1 12,-3 3,-2 6,-5 8,-8 1,-3 2,-7 2,-12l0 -4zm28 41l11 1c1,4 2,7 5,8 3,2 7,4 12,4 5,0 10,-2 13,-4 3,-2 5,-5 6,-9 0,-2 1,-7 0,-15 -5,6 -11,9 -19,9 -10,0 -17,-3 -23,-10 -5,-7 -8,-16 -8,-26 0,-6 2,-13 4,-18 3,-6 6,-10 11,-13 4,-3 10,-5 16,-5 8,0 15,3 21,10l0 -9 11 0 0 61c0,11 -2,19 -4,24 -2,4 -6,8 -10,11 -5,2 -11,4 -18,4 -9,0 -15,-2 -21,-6 -5,-4 -7,-10 -7,-17zm10 -42c0,9 2,15 5,20 4,4 9,6 14,6 6,0 10,-2 14,-6 4,-4 5,-11 5,-20 0,-9 -1,-15 -5,-20 -4,-4 -9,-6 -14,-6 -5,0 -10,2 -14,6 -3,5 -5,11 -5,20zm114 27c-5,4 -9,7 -13,8 -4,2 -9,2 -13,2 -8,0 -14,-1 -18,-5 -4,-4 -6,-9 -6,-15 0,-3 0,-6 2,-9 2,-3 4,-5 6,-7 3,-2 6,-3 9,-4 2,0 6,-1 10,-2 10,-1 17,-2 22,-4 0,-1 0,-2 0,-3 0,-5 -1,-8 -4,-10 -3,-3 -7,-4 -13,-4 -6,0 -10,1 -13,3 -2,2 -4,5 -6,10l-11 -1c1,-5 2,-9 5,-12 2,-3 6,-6 10,-8 5,-1 10,-2 17,-2 6,0 10,1 14,2 4,2 7,3 9,5 1,3 3,5 3,9 1,2 1,5 1,11l0 15c0,12 0,19 1,21 0,3 1,6 3,9l-13 0c-1,-3 -2,-5 -2,-9zm-1 -26c-5,1 -11,3 -20,4 -5,1 -8,2 -10,3 -2,0 -4,2 -5,3 -1,2 -2,4 -2,6 0,3 2,6 4,8 2,2 6,3 11,3 4,0 8,-1 12,-3 3,-2 6,-5 8,-8 1,-3 2,-7 2,-12l0 -4zm-1652 187l0 -98 37 0c6,0 11,1 15,1 4,1 8,3 12,5 3,2 6,5 7,9 2,4 3,9 3,14 0,8 -2,15 -7,20 -6,6 -15,9 -29,9l-25 0 0 40 -13 0zm13 -51l25 0c8,0 14,-2 18,-5 3,-3 5,-7 5,-13 0,-4 -1,-8 -3,-11 -2,-2 -5,-4 -8,-5 -2,-1 -6,-1 -12,-1l-25 0 0 35zm124 28l13 2c-2,7 -6,12 -11,16 -5,4 -12,6 -20,6 -11,0 -19,-3 -25,-9 -6,-7 -9,-16 -9,-27 0,-12 3,-21 9,-27 6,-7 14,-10 24,-10 10,0 17,3 23,9 6,7 9,16 9,27 0,1 0,2 0,4l-52 0c0,7 2,13 6,17 4,4 9,6 15,6 4,0 8,-1 11,-3 3,-2 5,-6 7,-11zm-39 -19l39 0c0,-6 -2,-11 -4,-14 -4,-4 -9,-6 -15,-6 -5,0 -10,1 -14,5 -3,4 -5,9 -6,15zm67 42l0 -71 10 0 0 10c3,-3 6,-6 9,-8 4,-2 8,-3 13,-3 5,0 9,1 13,3 3,2 5,5 7,9 5,-8 13,-12 22,-12 7,0 12,2 16,6 3,3 5,9 5,17l0 49 -12 0 0 -45c0,-4 0,-8 -1,-10 -1,-2 -2,-4 -4,-5 -2,-1 -4,-2 -7,-2 -5,0 -9,2 -13,5 -3,3 -4,9 -4,16l0 41 -12 0 0 -46c0,-5 -1,-9 -3,-12 -2,-3 -5,-4 -10,-4 -3,0 -6,1 -9,3 -3,1 -5,4 -6,7 -2,4 -2,9 -2,15l0 37 -12 0zm161 -23l12 2c-2,7 -5,12 -10,16 -6,4 -12,6 -21,6 -10,0 -18,-3 -24,-9 -6,-7 -9,-16 -9,-27 0,-12 3,-21 9,-27 6,-7 14,-10 24,-10 9,0 17,3 23,9 6,7 9,16 9,27 0,1 0,2 0,4l-53 0c1,7 3,13 7,17 4,4 9,6 14,6 5,0 9,-1 12,-3 3,-2 5,-6 7,-11zm-39 -19l39 0c0,-6 -2,-11 -4,-14 -4,-4 -9,-6 -15,-6 -6,0 -10,1 -14,5 -4,4 -6,9 -6,15zm66 42l0 -71 11 0 0 11c3,-5 5,-8 8,-10 2,-1 5,-2 7,-2 4,0 8,1 13,4l-5 11c-3,-2 -5,-3 -8,-3 -3,0 -5,1 -7,2 -2,2 -4,4 -5,7 -1,4 -2,9 -2,14l0 37 -12 0zm46 -84l0 -14 12 0 0 14 -12 0zm0 84l0 -71 12 0 0 71 -12 0zm30 0l0 -98 12 0 0 56 28 -29 16 0 -27 26 29 45 -14 0 -24 -36 -8 8 0 28 -12 0zm63 -21l12 -2c0,5 2,8 5,11 3,2 8,3 13,3 6,0 10,-1 12,-3 3,-2 4,-5 4,-8 0,-2 -1,-5 -3,-6 -2,-1 -6,-3 -12,-4 -9,-2 -15,-4 -19,-6 -3,-2 -6,-4 -7,-7 -2,-2 -3,-6 -3,-9 0,-3 1,-6 2,-9 2,-2 4,-5 6,-6 2,-2 4,-3 8,-4 3,-1 6,-1 10,-1 5,0 10,1 14,2 5,2 8,4 10,7 2,2 3,6 4,11l-12 1c0,-3 -2,-6 -4,-8 -3,-2 -7,-3 -11,-3 -6,0 -10,0 -12,2 -2,2 -3,4 -3,7 0,1 0,3 1,4 1,1 3,2 5,3 1,0 4,1 10,3 9,2 14,4 18,6 3,1 6,3 8,6 2,3 3,6 3,10 0,4 -2,8 -4,11 -2,4 -6,6 -10,8 -4,2 -9,3 -15,3 -9,0 -16,-2 -21,-5 -5,-4 -8,-10 -9,-17zm119 12c-5,4 -9,6 -13,8 -4,1 -9,2 -13,2 -8,0 -14,-2 -18,-5 -4,-4 -6,-9 -6,-15 0,-3 0,-6 2,-9 2,-3 4,-5 6,-7 3,-2 6,-3 9,-4 2,-1 6,-1 10,-2 10,-1 17,-2 22,-4 0,-2 0,-3 0,-3 0,-5 -1,-8 -4,-10 -3,-3 -7,-4 -13,-4 -6,0 -10,1 -13,3 -2,2 -4,5 -6,10l-11 -2c1,-5 2,-9 5,-12 2,-3 6,-5 10,-7 5,-1 10,-2 17,-2 6,0 10,0 14,2 4,1 7,3 9,5 1,2 3,5 3,8 1,2 1,6 1,11l0 16c0,11 0,18 1,21 0,3 1,6 3,9l-13 0c-1,-3 -2,-6 -2,-9zm-1 -27c-5,2 -11,4 -20,5 -5,1 -8,1 -10,2 -2,1 -4,2 -5,4 -1,2 -2,4 -2,6 0,3 2,6 4,8 2,2 6,3 11,3 4,0 8,-1 12,-3 3,-2 6,-5 8,-8 1,-3 2,-7 2,-12l0 -5zm70 36l0 -98 13 0 0 41 50 0 0 -41 13 0 0 98 -13 0 0 -46 -50 0 0 46 -13 0zm142 -9c-4,4 -9,6 -13,8 -4,1 -8,2 -13,2 -8,0 -14,-2 -18,-5 -4,-4 -6,-9 -6,-15 0,-3 1,-6 2,-9 2,-3 4,-5 7,-7 2,-2 5,-3 8,-4 2,-1 6,-1 11,-2 9,-1 17,-2 21,-4 0,-2 0,-3 0,-3 0,-5 -1,-8 -3,-10 -3,-3 -8,-4 -14,-4 -6,0 -10,1 -12,3 -3,2 -5,5 -6,10l-12 -2c1,-5 3,-9 5,-12 3,-3 6,-5 11,-7 4,-1 10,-2 16,-2 6,0 11,0 15,2 3,1 6,3 8,5 2,2 3,5 4,8 0,2 0,6 0,11l0 16c0,11 0,18 1,21 0,3 1,6 3,9l-13 0c-1,-3 -2,-6 -2,-9zm-1 -27c-4,2 -11,4 -19,5 -5,1 -9,1 -11,2 -2,1 -3,2 -5,4 -1,2 -1,4 -1,6 0,3 1,6 3,8 3,2 6,3 11,3 5,0 9,-1 12,-3 4,-2 6,-5 8,-8 1,-3 2,-7 2,-12l0 -5zm30 36l0 -98 12 0 0 98 -12 0zm77 -9c-5,4 -9,6 -13,8 -4,1 -8,2 -13,2 -8,0 -14,-2 -18,-5 -4,-4 -6,-9 -6,-15 0,-3 0,-6 2,-9 2,-3 4,-5 6,-7 3,-2 6,-3 9,-4 2,-1 6,-1 10,-2 10,-1 17,-2 22,-4 0,-2 0,-3 0,-3 0,-5 -1,-8 -4,-10 -3,-3 -7,-4 -13,-4 -6,0 -10,1 -13,3 -2,2 -4,5 -6,10l-11 -2c1,-5 3,-9 5,-12 2,-3 6,-5 11,-7 4,-1 10,-2 16,-2 6,0 11,0 14,2 4,1 7,3 9,5 1,2 3,5 3,8 1,2 1,6 1,11l0 16c0,11 0,18 1,21 0,3 1,6 3,9l-13 0c-1,-3 -2,-6 -2,-9zm-1 -27c-4,2 -11,4 -20,5 -5,1 -8,1 -10,2 -2,1 -4,2 -5,4 -1,2 -2,4 -2,6 0,3 2,6 4,8 3,2 6,3 11,3 4,0 8,-1 12,-3 4,-2 6,-5 8,-8 1,-3 2,-7 2,-12l0 -5zm30 36l0 -98 12 0 0 98 -12 0zm91 28c-7,-8 -12,-18 -17,-29 -4,-11 -6,-23 -6,-35 0,-10 1,-20 5,-30 4,-11 10,-22 18,-33l9 0c-6,9 -9,16 -11,20 -3,6 -5,12 -6,19 -2,8 -3,16 -3,25 0,21 6,42 20,63l-9 0zm23 -28l0 -98 13 0 0 86 48 0 0 12 -61 0zm76 0l0 -98 37 0c7,0 12,1 15,1 5,1 9,3 12,5 3,2 6,5 8,9 2,4 3,9 3,14 0,8 -3,15 -8,20 -5,6 -15,9 -29,9l-25 0 0 40 -13 0zm13 -51l26 0c8,0 14,-2 17,-5 4,-3 5,-7 5,-13 0,-4 -1,-8 -3,-11 -2,-2 -4,-4 -8,-5 -2,-1 -6,-1 -12,-1l-25 0 0 35zm79 51l0 -98 13 0 0 41 50 0 0 -41 13 0 0 98 -13 0 0 -46 -50 0 0 46 -13 0zm104 28l-9 0c13,-21 20,-42 20,-63 0,-9 -1,-17 -3,-25 -2,-7 -4,-13 -6,-19 -2,-4 -6,-11 -11,-20l9 0c8,11 14,22 18,33 3,10 5,20 5,30 0,12 -2,24 -7,35 -4,11 -10,21 -16,29zm121 -37c-5,4 -9,6 -13,8 -4,1 -9,2 -13,2 -8,0 -14,-2 -18,-5 -4,-4 -6,-9 -6,-15 0,-3 0,-6 2,-9 2,-3 4,-5 6,-7 3,-2 6,-3 9,-4 2,-1 6,-1 10,-2 10,-1 17,-2 22,-4 0,-2 0,-3 0,-3 0,-5 -1,-8 -4,-10 -3,-3 -7,-4 -13,-4 -6,0 -10,1 -13,3 -2,2 -4,5 -6,10l-11 -2c1,-5 2,-9 5,-12 2,-3 6,-5 10,-7 5,-1 10,-2 16,-2 7,0 11,0 15,2 4,1 7,3 9,5 1,2 3,5 3,8 1,2 1,6 1,11l0 16c0,11 0,18 1,21 0,3 1,6 3,9l-13 0c-1,-3 -2,-6 -2,-9zm-1 -27c-5,2 -11,4 -20,5 -5,1 -8,1 -10,2 -2,1 -4,2 -5,4 -1,2 -2,4 -2,6 0,3 2,6 4,8 2,2 6,3 11,3 4,0 8,-1 12,-3 3,-2 6,-5 8,-8 1,-3 2,-7 2,-12l0 -5zm28 42l12 1c0,4 1,6 4,8 3,2 7,3 12,3 5,0 10,-1 13,-3 3,-2 5,-5 6,-9 0,-3 1,-8 1,-16 -6,7 -12,10 -20,10 -10,0 -17,-4 -22,-11 -6,-7 -8,-15 -8,-25 0,-7 1,-13 3,-18 3,-6 6,-11 11,-14 4,-3 10,-4 16,-4 8,0 15,3 21,10l0 -9 11 0 0 61c0,11 -1,19 -4,23 -2,5 -5,9 -10,11 -5,3 -11,4 -18,4 -9,0 -15,-2 -21,-5 -5,-4 -7,-10 -7,-17zm10 -43c0,9 2,16 5,20 4,5 9,7 14,7 6,0 10,-2 14,-7 4,-4 5,-10 5,-19 0,-9 -1,-15 -5,-20 -4,-4 -9,-6 -14,-6 -5,0 -10,2 -14,6 -3,4 -5,11 -5,19zm114 28c-5,4 -9,6 -13,8 -4,1 -9,2 -13,2 -8,0 -14,-2 -18,-5 -4,-4 -6,-9 -6,-15 0,-3 0,-6 2,-9 2,-3 4,-5 6,-7 3,-2 6,-3 9,-4 2,-1 6,-1 10,-2 10,-1 17,-2 22,-4 0,-2 0,-3 0,-3 0,-5 -1,-8 -4,-10 -3,-3 -7,-4 -13,-4 -6,0 -10,1 -13,3 -2,2 -4,5 -6,10l-11 -2c1,-5 3,-9 5,-12 2,-3 6,-5 11,-7 4,-1 10,-2 16,-2 6,0 11,0 14,2 4,1 7,3 9,5 1,2 3,5 3,8 1,2 1,6 1,11l0 16c0,11 0,18 1,21 0,3 1,6 3,9l-13 0c-1,-3 -2,-6 -2,-9zm-1 -27c-5,2 -11,4 -20,5 -5,1 -8,1 -10,2 -2,1 -4,2 -5,4 -1,2 -2,4 -2,6 0,3 2,6 4,8 2,2 6,3 11,3 4,0 8,-1 12,-3 4,-2 6,-5 8,-8 1,-3 2,-7 2,-12l0 -5zm30 36l0 -71 11 0 0 11c3,-5 5,-8 7,-10 3,-1 5,-2 8,-2 4,0 8,1 12,4l-4 11c-3,-2 -6,-3 -8,-3 -3,0 -5,1 -7,2 -3,2 -4,4 -5,7 -1,4 -2,9 -2,14l0 37 -12 0z"/>
   <path class="fil3" d="M1248 1871l-11 0 0 -97 12 0 0 35c5,-6 11,-10 19,-10 4,0 8,1 12,3 4,2 7,4 10,7 2,4 4,7 6,12 1,4 2,9 2,14 0,12 -3,22 -9,28 -6,7 -13,10 -22,10 -8,0 -14,-4 -19,-10l0 8zm0 -35c0,8 1,14 3,18 4,6 9,9 15,9 6,0 10,-2 14,-7 4,-4 6,-11 6,-20 0,-9 -2,-16 -6,-20 -3,-5 -8,-7 -13,-7 -5,0 -10,3 -14,7 -3,5 -5,11 -5,20zm112 13l13 1c-2,7 -6,13 -11,17 -5,4 -12,6 -20,6 -10,0 -18,-3 -25,-10 -6,-6 -9,-15 -9,-26 0,-12 3,-21 10,-28 6,-6 14,-10 23,-10 10,0 17,4 23,10 6,6 9,15 9,27 0,1 0,2 0,3l-52 0c0,8 2,14 6,18 4,4 9,6 15,6 4,0 8,-1 11,-3 3,-3 6,-6 7,-11zm-39 -20l40 0c-1,-5 -2,-10 -5,-13 -4,-4 -9,-7 -15,-7 -5,0 -10,2 -13,6 -4,3 -6,8 -7,14zm67 42l0 -70 11 0 0 11c2,-5 5,-9 7,-10 2,-2 5,-3 8,-3 4,0 8,2 12,4l-4 11c-3,-1 -6,-2 -9,-2 -2,0 -5,1 -7,2 -2,2 -3,4 -4,7 -2,4 -2,9 -2,14l0 36 -12 0zm45 -83l0 -14 12 0 0 14 -12 0zm-15 111l2 -10c3,0 4,1 6,1 2,0 4,-1 5,-3 1,-1 2,-6 2,-12l0 -74 12 0 0 74c0,9 -1,15 -3,18 -3,5 -8,7 -15,7 -3,0 -6,0 -9,-1zm91 -36c-4,3 -8,6 -12,8 -5,1 -9,2 -14,2 -7,0 -13,-2 -17,-6 -5,-3 -7,-8 -7,-14 0,-4 1,-7 3,-10 1,-2 3,-5 6,-6 2,-2 5,-3 8,-4 3,-1 6,-2 11,-2 10,-1 17,-3 21,-4 0,-2 0,-3 0,-3 0,-5 -1,-9 -3,-11 -3,-2 -8,-4 -14,-4 -5,0 -9,1 -12,3 -3,2 -5,6 -6,11l-12 -2c1,-5 3,-9 6,-12 2,-3 6,-5 10,-7 5,-2 10,-3 16,-3 6,0 11,1 15,3 4,1 6,3 8,5 2,2 3,5 4,8 0,2 1,6 1,11l0 16c0,11 0,18 0,21 1,3 2,6 3,8l-12 0c-2,-2 -2,-5 -3,-8zm-1 -27c-4,2 -10,3 -19,5 -5,0 -9,1 -11,2 -2,1 -3,2 -4,4 -1,2 -2,3 -2,6 0,3 1,5 4,7 2,3 6,4 10,4 5,0 9,-1 13,-3 3,-2 6,-5 7,-9 2,-2 2,-6 2,-12l0 -4zm31 35l0 -97 12 0 0 97 -12 0zm76 -8c-4,3 -9,6 -13,8 -4,1 -8,2 -13,2 -8,0 -14,-2 -18,-6 -4,-3 -6,-8 -6,-14 0,-4 1,-7 2,-10 2,-2 4,-5 7,-6 2,-2 5,-3 8,-4 2,-1 6,-2 11,-2 9,-1 17,-3 21,-4 0,-2 0,-3 0,-3 0,-5 -1,-9 -3,-11 -3,-2 -8,-4 -14,-4 -6,0 -10,1 -12,3 -3,2 -5,6 -6,11l-12 -2c1,-5 3,-9 5,-12 3,-3 6,-5 11,-7 4,-2 10,-3 16,-3 6,0 11,1 15,3 3,1 6,3 8,5 2,2 3,5 4,8 0,2 0,6 0,11l0 16c0,11 0,18 1,21 0,3 1,6 3,8l-13 0c-1,-2 -2,-5 -2,-8zm-1 -27c-4,2 -11,3 -19,5 -5,0 -9,1 -11,2 -2,1 -3,2 -5,4 -1,2 -1,3 -1,6 0,3 1,5 3,7 3,3 6,4 11,4 5,0 9,-1 12,-3 4,-2 6,-5 8,-9 1,-2 2,-6 2,-12l0 -4zm31 35l0 -70 10 0 0 10c5,-8 13,-12 23,-12 4,0 8,1 11,3 4,1 7,3 8,6 2,2 3,5 4,9 1,2 1,6 1,11l0 43 -12 0 0 -42c0,-5 -1,-9 -2,-11 0,-3 -2,-5 -4,-6 -3,-1 -6,-2 -9,-2 -5,0 -9,1 -13,5 -4,3 -5,9 -5,18l0 38 -12 0zm108 -21l12 -1c1,4 2,8 5,10 4,3 8,4 13,4 6,0 10,-1 12,-3 3,-2 4,-5 4,-8 0,-3 -1,-5 -3,-6 -2,-1 -6,-3 -12,-4 -9,-3 -15,-5 -19,-6 -3,-2 -5,-4 -7,-7 -2,-3 -3,-6 -3,-9 0,-3 1,-6 2,-9 2,-3 4,-5 6,-7 2,-1 5,-2 8,-3 3,-1 6,-2 10,-2 6,0 10,1 15,3 4,1 7,4 9,6 2,3 3,7 4,11l-12 2c0,-4 -2,-7 -4,-9 -3,-2 -6,-3 -11,-3 -6,0 -9,1 -12,3 -2,2 -3,4 -3,6 0,2 0,3 1,5 1,1 3,2 5,3 1,0 4,1 10,3 9,2 15,4 18,5 3,2 6,4 8,7 2,2 3,6 3,10 0,4 -1,7 -4,11 -2,3 -6,6 -10,8 -4,2 -9,3 -15,3 -9,0 -16,-2 -21,-6 -4,-4 -8,-9 -9,-17zm121 -1l12 1c-2,7 -5,13 -11,17 -5,4 -11,6 -20,6 -10,0 -18,-3 -24,-10 -6,-6 -9,-15 -9,-26 0,-12 3,-21 9,-28 6,-6 14,-10 24,-10 9,0 17,4 23,10 6,6 9,15 9,27 0,1 0,2 0,3l-53 0c1,8 3,14 7,18 4,4 8,6 14,6 5,0 8,-1 12,-3 3,-3 5,-6 7,-11zm-39 -20l39 0c-1,-5 -2,-10 -4,-13 -4,-4 -9,-7 -15,-7 -6,0 -10,2 -14,6 -4,3 -6,8 -6,14zm62 21l11 -1c1,4 3,8 6,10 3,3 7,4 13,4 5,0 9,-1 12,-3 3,-2 4,-5 4,-8 0,-3 -1,-5 -4,-6 -1,-1 -5,-3 -12,-4 -9,-3 -15,-5 -18,-6 -3,-2 -6,-4 -8,-7 -2,-3 -2,-6 -2,-9 0,-3 0,-6 2,-9 1,-3 3,-5 6,-7 1,-1 4,-2 7,-3 3,-1 7,-2 11,-2 5,0 10,1 14,3 4,1 7,4 9,6 2,3 4,7 4,11l-11 2c-1,-4 -2,-7 -5,-9 -2,-2 -6,-3 -11,-3 -5,0 -9,1 -11,3 -3,2 -4,4 -4,6 0,2 1,3 2,5 1,1 2,2 4,3 1,0 5,1 11,3 8,2 14,4 17,5 4,2 6,4 8,7 2,2 3,6 3,10 0,4 -1,7 -3,11 -3,3 -6,6 -10,8 -5,2 -10,3 -15,3 -9,0 -16,-2 -21,-6 -5,-4 -8,-9 -9,-17zm118 21l0 -10c-5,8 -13,12 -22,12 -4,0 -8,-1 -12,-2 -3,-2 -6,-4 -8,-6 -1,-3 -3,-6 -3,-9 -1,-3 -1,-6 -1,-11l0 -44 12 0 0 39c0,6 0,10 1,13 0,3 2,5 4,7 3,2 6,3 9,3 4,0 7,-1 10,-3 4,-2 6,-4 7,-8 1,-3 2,-7 2,-13l0 -38 12 0 0 70 -11 0zm76 -8c-5,3 -9,6 -13,8 -4,1 -8,2 -13,2 -8,0 -14,-2 -18,-6 -4,-3 -6,-8 -6,-14 0,-4 1,-7 2,-10 2,-2 4,-5 6,-6 3,-2 6,-3 9,-4 2,-1 6,-2 10,-2 10,-1 17,-3 22,-4 0,-2 0,-3 0,-3 0,-5 -1,-9 -4,-11 -3,-2 -7,-4 -13,-4 -6,0 -10,1 -13,3 -2,2 -4,6 -6,11l-11 -2c1,-5 3,-9 5,-12 2,-3 6,-5 11,-7 4,-2 10,-3 16,-3 6,0 11,1 14,3 4,1 7,3 9,5 1,2 3,5 3,8 1,2 1,6 1,11l0 16c0,11 0,18 1,21 0,3 1,6 3,8l-13 0c-1,-2 -2,-5 -2,-8zm-1 -27c-4,2 -11,3 -20,5 -5,0 -8,1 -10,2 -2,1 -4,2 -5,4 -1,2 -2,3 -2,6 0,3 2,5 4,7 3,3 6,4 11,4 4,0 8,-1 12,-3 4,-2 6,-5 8,-9 1,-2 2,-6 2,-12l0 -4zm30 -48l0 -14 12 0 0 14 -12 0zm0 83l0 -70 12 0 0 70 -12 0zm63 -21l12 -1c1,4 3,8 6,10 3,3 7,4 13,4 5,0 9,-1 12,-3 2,-2 4,-5 4,-8 0,-3 -1,-5 -4,-6 -1,-1 -6,-3 -12,-4 -9,-3 -15,-5 -18,-6 -4,-2 -6,-4 -8,-7 -2,-3 -2,-6 -2,-9 0,-3 0,-6 2,-9 1,-3 3,-5 6,-7 1,-1 4,-2 7,-3 3,-1 7,-2 10,-2 6,0 11,1 15,3 4,1 7,4 9,6 2,3 4,7 4,11l-11 2c-1,-4 -2,-7 -5,-9 -2,-2 -6,-3 -11,-3 -5,0 -9,1 -11,3 -3,2 -4,4 -4,6 0,2 1,3 2,5 0,1 2,2 4,3 1,0 5,1 11,3 8,2 14,4 17,5 4,2 6,4 8,7 2,2 3,6 3,10 0,4 -1,7 -3,11 -3,3 -6,6 -11,8 -4,2 -9,3 -14,3 -10,0 -17,-2 -21,-6 -5,-4 -8,-9 -10,-17zm99 11l2 10c-4,1 -7,1 -9,1 -5,0 -8,0 -10,-2 -3,-1 -4,-3 -5,-5 -1,-2 -2,-7 -2,-14l0 -41 -9 0 0 -9 9 0 0 -17 12 -8 0 25 12 0 0 9 -12 0 0 41c0,4 0,6 1,7 0,1 1,2 2,2 1,1 2,1 4,1 1,0 3,0 5,0zm58 2c-4,3 -9,6 -13,8 -4,1 -8,2 -13,2 -8,0 -14,-2 -18,-6 -4,-3 -6,-8 -6,-14 0,-4 1,-7 2,-10 2,-2 4,-5 6,-6 3,-2 6,-3 9,-4 2,-1 6,-2 11,-2 9,-1 16,-3 21,-4 0,-2 0,-3 0,-3 0,-5 -1,-9 -3,-11 -3,-2 -8,-4 -14,-4 -6,0 -10,1 -13,3 -2,2 -4,6 -5,11l-12 -2c1,-5 3,-9 5,-12 3,-3 6,-5 11,-7 4,-2 10,-3 16,-3 6,0 11,1 14,3 4,1 7,3 9,5 2,2 3,5 3,8 1,2 1,6 1,11l0 16c0,11 0,18 1,21 0,3 1,6 3,8l-13 0c-1,-2 -2,-5 -2,-8zm-1 -27c-4,2 -11,3 -20,5 -5,0 -8,1 -10,2 -2,1 -4,2 -5,4 -1,2 -1,3 -1,6 0,3 1,5 3,7 3,3 6,4 11,4 4,0 8,-1 12,-3 4,-2 6,-5 8,-9 1,-2 2,-6 2,-12l0 -4zm30 35l0 -70 11 0 0 10c5,-8 13,-12 23,-12 4,0 8,1 11,3 4,1 6,3 8,6 2,2 3,5 4,9 0,2 1,6 1,11l0 43 -12 0 0 -42c0,-5 -1,-9 -2,-11 -1,-3 -2,-5 -5,-6 -2,-1 -5,-2 -8,-2 -5,0 -9,1 -13,5 -4,3 -6,9 -6,18l0 38 -12 0zm121 0l0 -8c-4,6 -11,10 -19,10 -6,0 -11,-2 -16,-5 -4,-3 -8,-7 -11,-13 -2,-5 -4,-12 -4,-19 0,-7 2,-13 4,-19 2,-6 6,-10 11,-13 4,-3 9,-5 15,-5 5,0 8,1 12,3 3,2 6,4 8,7l0 -35 12 0 0 97 -12 0zm-37 -35c0,9 2,16 5,21 4,4 9,6 14,6 5,0 10,-2 13,-6 4,-4 6,-11 6,-20 0,-9 -2,-16 -6,-21 -4,-4 -8,-7 -14,-7 -5,0 -9,3 -13,7 -3,4 -5,11 -5,20zm114 27c-5,3 -9,6 -13,8 -4,1 -9,2 -13,2 -8,0 -14,-2 -18,-6 -4,-3 -7,-8 -7,-14 0,-4 1,-7 3,-10 1,-2 3,-5 6,-6 3,-2 5,-3 9,-4 2,-1 5,-2 10,-2 10,-1 17,-3 22,-4 0,-2 0,-3 0,-3 0,-5 -2,-9 -4,-11 -3,-2 -7,-4 -13,-4 -6,0 -10,1 -13,3 -3,2 -5,6 -6,11l-12 -2c2,-5 3,-9 6,-12 2,-3 6,-5 10,-7 5,-2 10,-3 16,-3 6,0 11,1 15,3 4,1 7,3 8,5 2,2 3,5 4,8 1,2 1,6 1,11l0 16c0,11 0,18 0,21 1,3 2,6 3,8l-12 0c-1,-2 -2,-5 -2,-8zm-1 -27c-5,2 -11,3 -20,5 -5,0 -8,1 -10,2 -2,1 -4,2 -5,4 -1,2 -2,3 -2,6 0,3 1,5 4,7 2,3 6,4 10,4 5,0 9,-1 13,-3 3,-2 6,-5 8,-9 1,-2 2,-6 2,-12l0 -4zm30 35l0 -70 11 0 0 11c2,-5 5,-9 7,-10 3,-2 5,-3 8,-3 4,0 8,2 12,4l-4 11c-3,-1 -6,-2 -9,-2 -2,0 -5,1 -7,2 -2,2 -3,4 -4,7 -1,4 -2,9 -2,14l0 36 -12 0zm-1185 152l0 -9c-5,7 -11,11 -20,11 -5,0 -11,-2 -15,-5 -5,-3 -9,-7 -11,-13 -3,-5 -4,-12 -4,-19 0,-7 1,-13 3,-19 3,-6 6,-10 11,-13 5,-3 10,-5 16,-5 4,0 8,1 11,3 3,2 6,4 8,7l0 -35 12 0 0 97 -11 0zm-38 -35c0,9 2,16 6,20 4,5 8,7 13,7 6,0 10,-2 14,-6 3,-5 5,-11 5,-20 0,-10 -2,-17 -6,-21 -3,-5 -8,-7 -13,-7 -6,0 -10,2 -14,7 -3,4 -5,11 -5,20zm114 26c-5,4 -9,7 -13,8 -4,2 -8,3 -13,3 -8,0 -14,-2 -18,-6 -4,-4 -6,-9 -6,-14 0,-4 1,-7 2,-10 2,-3 4,-5 6,-7 3,-1 6,-3 9,-4 2,0 6,-1 11,-1 9,-2 16,-3 21,-4 0,-2 0,-3 0,-4 0,-4 -1,-8 -3,-10 -3,-3 -8,-4 -14,-4 -6,0 -10,1 -13,3 -2,2 -4,6 -5,11l-12 -2c1,-5 3,-9 5,-12 3,-3 6,-6 11,-7 4,-2 10,-3 16,-3 6,0 11,1 14,2 4,2 7,4 9,6 1,2 3,5 3,8 1,2 1,6 1,11l0 16c0,11 0,18 1,21 0,3 1,5 3,8l-13 0c-1,-2 -2,-5 -2,-9zm-1 -26c-4,2 -11,3 -20,4 -5,1 -8,2 -10,3 -2,1 -4,2 -5,4 -1,1 -1,3 -1,5 0,3 1,6 3,8 3,2 6,3 11,3 4,0 8,-1 12,-3 4,-2 6,-4 8,-8 1,-3 2,-7 2,-12l0 -4zm30 35l0 -70 11 0 0 10c5,-8 13,-12 23,-12 4,0 8,1 11,3 4,1 6,3 8,5 2,3 3,6 4,9 0,3 1,6 1,12l0 43 -12 0 0 -43c0,-4 -1,-8 -2,-11 -1,-2 -2,-4 -5,-5 -2,-2 -5,-2 -8,-2 -5,0 -9,1 -13,4 -4,4 -6,10 -6,19l0 38 -12 0zm114 0l0 -70 10 0 0 11c3,-5 6,-9 8,-10 2,-2 5,-3 8,-3 4,0 8,1 12,4l-4 11c-3,-2 -6,-2 -9,-2 -3,0 -5,0 -7,2 -2,1 -4,4 -5,6 -1,5 -2,9 -2,14l0 37 -11 0zm93 -23l12 2c-2,7 -5,13 -10,17 -6,4 -12,6 -21,6 -10,0 -18,-3 -24,-10 -6,-6 -9,-15 -9,-26 0,-12 3,-21 9,-28 6,-7 14,-10 24,-10 9,0 17,3 23,10 6,6 9,15 9,27 0,1 0,2 0,3l-53 0c1,8 3,14 7,18 4,4 9,6 14,6 5,0 9,-1 12,-4 3,-2 5,-6 7,-11zm-39 -19l39 0c0,-6 -2,-10 -4,-13 -4,-5 -9,-7 -15,-7 -6,0 -10,2 -14,5 -4,4 -6,9 -6,15zm64 48l12 2c0,3 2,6 4,8 3,2 7,3 12,3 6,0 10,-1 13,-3 3,-3 5,-6 6,-10 1,-2 1,-7 1,-15 -5,6 -12,9 -20,9 -9,0 -17,-3 -22,-10 -6,-7 -8,-16 -8,-25 0,-7 1,-13 3,-19 3,-6 6,-10 11,-13 5,-3 10,-5 16,-5 9,0 15,4 21,10l0 -8 11 0 0 61c0,11 -1,18 -3,23 -3,4 -6,8 -11,11 -5,2 -11,4 -18,4 -8,0 -15,-2 -20,-6 -5,-4 -8,-9 -8,-17zm10 -42c0,9 2,16 6,20 3,4 8,6 13,6 6,0 10,-2 14,-6 4,-4 6,-11 6,-20 0,-8 -2,-15 -6,-19 -4,-5 -8,-7 -14,-7 -5,0 -10,2 -13,7 -4,4 -6,10 -6,19z"/>
   <path class="fil3" d="M1872 2023l0 -10c-5,8 -13,12 -22,12 -4,0 -8,-1 -12,-3 -3,-1 -6,-3 -8,-6 -2,-2 -3,-5 -4,-9 0,-2 0,-6 0,-11l0 -43 12 0 0 39c0,6 0,10 0,12 1,3 3,6 5,8 3,1 6,2 9,2 4,0 7,-1 10,-2 3,-2 6,-5 7,-8 1,-3 2,-8 2,-14l0 -37 12 0 0 70 -11 0zm29 0l0 -97 12 0 0 97 -12 0zm77 -9c-5,4 -9,7 -13,8 -4,2 -9,3 -13,3 -8,0 -14,-2 -18,-6 -4,-4 -6,-9 -6,-14 0,-4 0,-7 2,-10 2,-3 4,-5 6,-7 3,-1 6,-3 9,-4 2,0 6,-1 10,-1 10,-2 17,-3 22,-4 0,-2 0,-3 0,-4 0,-4 -1,-8 -4,-10 -3,-3 -7,-4 -13,-4 -6,0 -10,1 -13,3 -2,2 -4,6 -6,11l-11 -2c1,-5 2,-9 5,-12 2,-3 6,-6 11,-7 4,-2 9,-3 16,-3 6,0 10,1 14,2 4,2 7,4 9,6 1,2 3,5 3,8 1,2 1,6 1,11l0 16c0,11 0,18 1,21 0,3 1,5 3,8l-13 0c-1,-2 -2,-5 -2,-9zm-1 -26c-5,2 -11,3 -20,4 -5,1 -8,2 -10,3 -2,1 -4,2 -5,4 -1,1 -2,3 -2,5 0,3 2,6 4,8 2,2 6,3 11,3 4,0 8,-1 12,-3 3,-2 6,-4 8,-8 1,-3 2,-7 2,-12l0 -4zm26 14l11 -2c1,5 3,9 6,11 3,3 7,4 13,4 5,0 9,-1 12,-3 2,-3 4,-5 4,-8 0,-3 -1,-5 -4,-7 -1,-1 -6,-2 -12,-4 -9,-2 -15,-4 -18,-5 -4,-2 -6,-4 -8,-7 -2,-3 -2,-6 -2,-10 0,-3 0,-6 2,-8 1,-3 3,-5 6,-7 1,-1 4,-2 7,-3 3,-1 7,-2 10,-2 6,0 11,1 15,3 4,1 7,3 9,6 2,3 4,6 4,11l-11 2c-1,-4 -2,-7 -5,-9 -2,-2 -6,-3 -11,-3 -5,0 -9,1 -11,3 -3,2 -4,4 -4,6 0,2 1,3 2,4 1,2 2,3 4,3 1,1 5,2 11,3 8,3 14,5 17,6 4,1 6,4 8,6 2,3 3,6 3,10 0,4 -1,8 -3,12 -3,3 -6,6 -10,8 -5,2 -10,3 -15,3 -10,0 -17,-2 -21,-6 -5,-4 -8,-9 -9,-17zm72 -62l0 -14 12 0 0 14 -12 0zm0 83l0 -70 12 0 0 70 -12 0zm68 0l0 -70 11 0 0 11c2,-5 5,-9 7,-10 3,-2 5,-3 8,-3 4,0 8,1 12,4l-4 11c-3,-2 -6,-2 -9,-2 -2,0 -5,0 -7,2 -2,1 -3,4 -4,6 -1,5 -2,9 -2,14l0 37 -12 0zm93 -23l13 2c-2,7 -6,13 -11,17 -5,4 -12,6 -20,6 -10,0 -19,-3 -25,-10 -6,-6 -9,-15 -9,-26 0,-12 3,-21 9,-28 7,-7 14,-10 24,-10 10,0 17,3 23,10 6,6 9,15 9,27 0,1 0,2 0,3l-52 0c0,8 2,14 6,18 4,4 9,6 15,6 4,0 8,-1 11,-4 3,-2 6,-6 7,-11zm-39 -19l40 0c-1,-6 -3,-10 -5,-13 -4,-5 -9,-7 -15,-7 -5,0 -10,2 -14,5 -3,4 -5,9 -6,15zm62 21l12 -2c1,5 2,9 5,11 3,3 8,4 13,4 6,0 10,-1 12,-3 3,-3 4,-5 4,-8 0,-3 -1,-5 -3,-7 -2,-1 -6,-2 -12,-4 -9,-2 -15,-4 -19,-5 -3,-2 -5,-4 -7,-7 -2,-3 -3,-6 -3,-10 0,-3 1,-6 2,-8 2,-3 4,-5 6,-7 2,-1 5,-2 8,-3 3,-1 6,-2 10,-2 6,0 10,1 15,3 4,1 7,3 9,6 2,3 3,6 4,11l-12 2c0,-4 -2,-7 -4,-9 -3,-2 -6,-3 -11,-3 -6,0 -9,1 -12,3 -2,2 -3,4 -3,6 0,2 0,3 1,4 1,2 3,3 5,3 1,1 4,2 10,3 9,3 15,5 18,6 3,1 6,4 8,6 2,3 3,6 3,10 0,4 -2,8 -4,12 -2,3 -6,6 -10,8 -4,2 -9,3 -15,3 -9,0 -16,-2 -21,-6 -5,-4 -8,-9 -9,-17zm73 21l0 -70 10 0 0 10c3,-4 6,-7 9,-9 4,-2 8,-3 13,-3 5,0 9,1 13,3 3,3 5,6 7,10 5,-9 13,-13 22,-13 7,0 12,2 16,6 3,4 5,10 5,18l0 48 -12 0 0 -44c0,-5 0,-8 -1,-10 -1,-3 -2,-4 -4,-6 -2,-1 -4,-1 -7,-1 -5,0 -9,1 -13,4 -3,4 -4,9 -4,16l0 41 -12 0 0 -46c0,-5 -1,-9 -3,-11 -2,-3 -5,-4 -10,-4 -3,0 -6,0 -9,2 -3,2 -5,5 -6,8 -2,3 -2,8 -2,15l0 36 -12 0zm113 -83l0 -14 12 0 0 14 -12 0zm0 83l0 -70 12 0 0 70 -12 0zm33 0l0 -13 14 0 0 13 -14 0z"/>
  </g>
  <path class="fil2" d="M2562 2449c-16,0 -24,-16 -24,-63 0,-46 8,-62 24,-62 16,0 23,17 23,63 0,45 -7,62 -23,62zm-1 27c36,0 57,-29 57,-91 0,-62 -21,-87 -57,-87 -36,0 -57,25 -57,88 0,62 21,90 57,90zm128 -68l-34 0 34 -59 0 59zm32 62l0 -37 19 0 0 -25 -19 0 0 -105 -37 0 -60 102 0 28 64 0 0 37 33 0z"/>
  <g id="_506925760">
   <path class="fil4" d="M1269 339l-324 0c-20,14 -20,14 -20,44l0 310c0,72 2,57 65,62 -1,81 -7,68 121,69 15,0 42,2 26,-22l-124 -1 -1 -46c11,0 120,1 126,-2 4,-2 7,-10 3,-16 -4,-6 -11,-5 -19,-5 -22,0 -162,3 -171,-1 0,0 -1,-2 -1,-2l-2 -320c0,-6 -2,-43 3,-46 4,-3 246,-1 294,-1 21,0 21,0 22,12l-1 165c0,24 -7,48 22,39l1 -147c9,0 37,-1 41,3 3,11 1,78 1,97 0,11 -5,42 3,47 7,5 17,2 19,-4 1,-3 0,-21 0,-26 0,-147 12,-140 -63,-139 -2,-14 0,-29 -1,-43 -1,-17 -9,-20 -20,-27z"/>
   <path class="fil4" d="M1332 802l29 33c5,6 6,8 12,11 5,-3 3,-2 8,-6 9,-9 17,-12 21,-22l-42 -45c9,-26 21,-39 13,-75 -5,-26 -20,-47 -35,-58 -99,-74 -211,49 -141,141 11,14 32,30 58,35 36,7 52,-3 77,-14zm-65 -83c-10,-7 -11,-16 -29,-11 -8,16 0,21 10,29 19,14 18,24 52,-15 18,-20 18,-17 14,-31 -24,-12 -30,15 -47,28z"/>
   <path class="fil4" d="M1200 498c-4,-13 -16,-28 -22,-40 -4,-8 -9,-42 -10,-53 -68,11 -52,120 32,93z"/>
   <path class="fil4" d="M994 572l170 0c20,0 21,-20 0,-20l-170 0c-23,0 -23,20 0,20z"/>
   <path class="fil4" d="M992 625l143 0c10,0 18,-3 13,-14 -3,-8 -17,-6 -26,-6l-119 0c-9,0 -21,-3 -25,6 -4,11 5,14 14,14z"/>
   <path class="fil4" d="M1111 680c5,-22 -18,-16 -57,-16 -13,0 -67,-4 -73,3 -18,23 45,16 55,16 18,0 63,4 75,-3z"/>
   <polygon class="fil4" points="1029,494 1056,494 1056,401 1029,401 "/>
   <path class="fil4" d="M1181 450l54 -4c3,-16 -7,-30 -15,-37 -12,-12 -22,-15 -42,-15l3 56z"/>
   <polygon class="fil4" points="988,494 1015,494 1015,416 988,416 "/>
   <path class="fil4" d="M1187 442l42 -2c-3,-23 -20,-38 -44,-40l2 42z"/>
   <polygon class="fil4" points="1070,493 1097,494 1097,445 1070,445 "/>
   <path class="fil4" d="M1212 493c12,-11 17,-15 20,-37l-45 0 23 35c0,0 1,1 1,1 0,0 1,0 1,1z"/>
  </g>
 </g>
</svg>
