<?xml version="1.0" encoding="UTF-8"?>
<!DOCTYPE svg PUBLIC "-//W3C//DTD SVG 1.1//EN" "http://www.w3.org/Graphics/SVG/1.1/DTD/svg11.dtd">
<!-- Creator: CorelDRAW X7 -->
<svg xmlns="http://www.w3.org/2000/svg" xml:space="preserve" width="68.1131mm" height="97.7683mm" version="1.1" style="shape-rendering:geometricPrecision; text-rendering:geometricPrecision; image-rendering:optimizeQuality; fill-rule:evenodd; clip-rule:evenodd"
viewBox="0 0 1876 2693"
 xmlns:xlink="http://www.w3.org/1999/xlink">
 <defs>
  <style type="text/css">
   <![CDATA[
    .fil4 {fill:#F08519}
    .fil1 {fill:#0E2C30}
    .fil0 {fill:#E9EAE9}
    .fil3 {fill:#1D1819;fill-rule:nonzero}
    .fil2 {fill:#113C40;fill-rule:nonzero}
   ]]>
  </style>
 </defs>
 <g id="Layer_x0020_1">
  <metadata id="CorelCorpID_0Corel-Layer"/>
  <path class="fil0" d="M1204 2253c3,-48 -16,-134 -20,-190 -18,-290 72,-604 237,-833 44,-62 146,-201 197,-219 9,-31 -2,-19 54,-45 -19,-52 -132,-185 -174,-246 -117,-171 -345,-460 -433,-601l-93 -119c-60,40 -268,220 -304,270 -15,22 -7,16 -23,34 -14,16 -22,17 -35,31l-201 270c-231,339 -393,830 -407,1241 -11,339 18,532 98,847 91,-30 173,-66 271,-98 140,-46 800,-268 849,-266l-16 -76z"/>
  <path class="fil1" d="M1204 2253c74,-4 237,-74 312,-97 44,-13 83,-16 115,-29 20,-181 -33,-210 51,-448l78 -158c1,-2 2,-4 3,-6 38,-61 83,-104 113,-149 -67,-70 -188,-278 -258,-355 -51,18 -153,157 -197,219 -165,229 -255,543 -237,833 4,56 23,142 20,190z"/>
  <path class="fil2" d="M412 897l0 -34 23 0c14,0 20,7 20,17 0,10 -6,17 -20,17l-23 0zm0 62l0 -42 27 0c23,0 37,-15 37,-36 0,-21 -14,-38 -37,-38l-51 0 0 116 24 0zm91 -51c1,-12 9,-19 18,-19 9,0 17,6 17,19l-35 0zm59 14c0,-34 -14,-51 -41,-51 -26,0 -41,17 -41,43 0,32 14,47 43,47 18,0 32,-10 38,-27l-24 0c-2,6 -8,9 -15,9 -12,0 -19,-8 -20,-21l60 0zm86 37l0 -60c0,-18 -12,-28 -29,-28 -14,0 -22,5 -28,15l0 -13 -21 0 0 86 22 0 0 -49c0,-13 6,-20 18,-20 11,0 15,4 15,17l0 52 23 0zm31 -51c1,-12 9,-19 18,-19 9,0 17,6 17,19l-35 0zm59 14c0,-34 -14,-51 -41,-51 -26,0 -41,17 -41,43 0,32 14,47 43,47 18,0 32,-10 38,-27l-24 0c-1,6 -8,9 -15,9 -11,0 -19,-8 -19,-21l59 0zm-294 172l0 -96 35 0 0 -21 -95 0 0 21 35 0 0 96 25 0zm44 -52c1,-12 9,-19 18,-19 9,0 17,6 18,19l-36 0zm59 15c0,-35 -14,-52 -40,-52 -27,0 -42,17 -42,44 0,31 14,47 43,47 18,0 33,-10 38,-28l-24 0c-1,6 -8,10 -15,10 -11,0 -19,-8 -19,-21l59 0zm31 37l0 -45c0,-14 7,-21 21,-21 2,0 4,0 6,1l0 -24 -3 0c-9,0 -18,1 -26,13l0 -10 -21 0 0 86 23 0zm74 -17c-11,0 -19,-10 -19,-24 0,-19 6,-28 19,-28 13,0 19,9 19,26 0,16 -8,26 -19,26zm-19 17l0 -11c6,9 14,13 24,13 22,0 37,-17 37,-46 0,-26 -13,-45 -35,-45 -11,0 -19,5 -25,14l0 -43 -23 0 0 118 22 0zm93 0l0 -86 -23 0 0 86 23 0zm0 -97l0 -21 -23 0 0 21 23 0zm59 62c0,11 -4,17 -13,17 -9,0 -13,-6 -13,-17l0 -35 47 0 0 -16 -47 0 0 -24 -23 0 0 77c0,19 10,35 36,35 24,0 34,-16 34,-35l0 -24 -21 0 0 22zm109 35l0 -60c0,-19 -12,-29 -29,-29 -14,0 -22,6 -28,15l0 -12 -21 0 0 86 23 0 0 -50c0,-13 5,-19 17,-19 11,0 15,3 15,17l0 52 23 0zm65 2c0,12 -8,19 -16,19 -12,0 -18,-6 -18,-17l-21 0c0,23 13,36 38,36 22,0 39,-14 39,-38l0 -88 -22 0 0 52c0,9 -8,16 -18,16 -10,0 -14,-5 -14,-16l0 -52 -23 0 0 55c0,19 13,32 31,32 11,0 20,-5 24,-13l0 14zm85 -35c0,10 -9,19 -21,19 -7,0 -11,-3 -11,-10 0,-7 4,-11 17,-13 9,-2 13,-3 15,-5l0 9zm23 33l0 -55c0,-21 -10,-34 -37,-34 -28,0 -37,13 -38,31l21 0c1,-8 6,-13 16,-13 9,0 15,3 15,9 0,6 -4,8 -15,10 -23,3 -40,5 -40,30 0,14 10,24 29,24 12,0 21,-4 26,-10 0,3 1,6 2,8l21 0zm-591 52c0,-22 -17,-38 -46,-38 -29,0 -43,15 -43,36 0,15 7,23 20,29 8,3 17,5 32,9 14,3 18,7 18,14 0,11 -9,17 -23,17 -16,0 -26,-8 -26,-20l-23 0c0,27 20,39 49,39 27,0 46,-11 46,-37 0,-16 -8,-23 -18,-28 -9,-4 -21,-7 -35,-10 -12,-3 -18,-7 -18,-15 0,-8 8,-13 21,-13 15,0 22,5 23,17l23 0zm32 31c1,-12 9,-19 18,-19 9,0 17,6 17,19l-35 0zm59 14c0,-34 -14,-51 -41,-51 -26,0 -41,17 -41,44 0,31 14,47 43,47 18,0 32,-10 38,-28l-24 0c-1,6 -8,10 -15,10 -11,0 -19,-9 -20,-22l60 0zm30 37l0 -45c0,-13 7,-20 21,-20 2,0 4,0 7,0l0 -23 -3 0c-10,0 -18,1 -26,12l0 -10 -21 0 0 86 22 0zm83 -34c0,11 -4,17 -14,17 -9,0 -13,-7 -13,-17l0 -36 48 0 0 -16 -48 0 0 -23 -22 0 0 77c0,18 10,35 35,35 24,0 35,-17 35,-35l0 -24 -21 0 0 22zm53 34l0 -86 -22 0 0 86 22 0zm0 -96l0 -21 -22 0 0 21 22 0zm42 96l0 -70 15 0 0 -16 -15 0c0,-10 5,-10 16,-10l26 0 0 -21 -29 0c-23,0 -35,11 -35,31l-13 0 0 16 13 0 0 70 22 0zm42 0l0 -86 -23 0 0 86 23 0zm88 0l-28 -54 29 -32 -28 0 -29 33 0 -64 -23 0 0 117 23 0 0 -27 11 -11 19 38 26 0zm51 -32c0,10 -9,18 -20,18 -8,0 -12,-3 -12,-9 0,-8 5,-11 18,-14 8,-1 12,-3 14,-5l0 10zm23 32l0 -54c0,-22 -9,-34 -37,-34 -27,0 -37,12 -37,30l21 0c1,-8 5,-13 15,-13 9,0 15,4 15,9 0,6 -3,9 -15,10 -23,3 -39,6 -39,31 0,14 9,24 28,24 12,0 21,-4 27,-10 0,2 0,5 1,7l21 0zm84 -60c-1,-18 -13,-28 -38,-28 -26,0 -36,11 -36,25 0,8 3,15 11,20 6,4 14,6 29,10 7,1 14,3 14,9 0,7 -8,9 -16,9 -11,0 -17,-4 -17,-12l-24 0c0,17 15,30 42,30 24,0 37,-11 37,-29 0,-11 -5,-17 -14,-21 -7,-2 -16,-4 -26,-7 -9,-3 -14,-5 -14,-10 0,-5 5,-7 14,-7 10,0 15,3 16,11l22 0zm32 60l0 -86 -23 0 0 86 23 0zm0 -96l0 -21 -23 0 0 21 23 0zm-613 231l0 -116 -25 0 0 43 -45 0 0 -43 -24 0 0 116 24 0 0 -52 45 0 0 52 25 0zm61 -33c0,10 -9,19 -21,19 -7,0 -11,-3 -11,-10 0,-7 5,-11 17,-13 9,-2 13,-3 15,-5l0 9zm23 33l0 -55c0,-21 -9,-34 -37,-34 -27,0 -37,13 -38,31l22 0c1,-8 5,-13 15,-13 9,0 15,3 15,9 0,6 -3,8 -15,10 -23,3 -39,6 -39,31 0,14 9,23 28,23 12,0 21,-4 26,-10 1,3 1,6 2,8l21 0zm33 0l0 -118 -23 0 0 118 23 0zm61 -33c0,10 -8,19 -20,19 -7,0 -11,-3 -11,-10 0,-7 4,-11 17,-13 8,-2 12,-3 15,-5l-1 9zm23 33l0 -55c0,-21 -9,-34 -36,-34 -28,0 -38,13 -38,31l21 0c1,-8 5,-13 16,-13 9,0 14,3 14,9 0,6 -3,8 -14,10 -23,3 -40,6 -40,31 0,14 9,23 29,23 11,0 20,-4 26,-10 0,3 1,6 1,8l21 0zm33 0l0 -118 -23 0 0 118 23 0z"/>
  <g id="_386176720">
   <path class="fil3" d="M206 1538l9 -1c0,5 1,9 3,12 2,2 5,3 9,3 2,0 4,-1 6,-2 2,-1 3,-3 4,-5 1,-2 1,-5 1,-9l0 -53 10 0 0 52c0,7 -1,12 -2,15 -2,4 -4,6 -8,8 -3,2 -7,3 -11,3 -7,0 -12,-2 -16,-6 -3,-4 -5,-10 -5,-17zm59 22l0 -77 10 0 0 32 40 0 0 -32 10 0 0 77 -10 0 0 -36 -40 0 0 36 -10 0zm131 -27l10 2c-2,9 -5,15 -11,19 -5,5 -12,7 -20,7 -8,0 -15,-2 -20,-5 -5,-4 -9,-8 -12,-15 -3,-6 -4,-13 -4,-20 0,-8 1,-15 5,-21 3,-6 7,-11 12,-14 6,-3 12,-4 19,-4 8,0 14,2 19,6 6,3 9,9 11,16l-10 2c-1,-5 -4,-9 -7,-12 -4,-2 -8,-4 -13,-4 -6,0 -11,2 -15,5 -4,2 -7,6 -8,11 -2,5 -3,10 -3,15 0,6 1,12 3,17 2,5 5,8 9,11 4,2 8,3 13,3 6,0 10,-1 14,-5 4,-3 7,-8 8,-14zm52 27l0 -56 8 0 0 8c2,-3 4,-5 7,-7 3,-1 6,-2 10,-2 4,0 7,1 10,2 2,2 4,5 5,8 5,-7 11,-10 18,-10 5,0 9,1 12,4 3,4 5,8 5,15l0 38 -10 0 0 -35c0,-4 0,-7 -1,-8 0,-2 -1,-3 -3,-4 -1,-1 -3,-2 -6,-2 -3,0 -7,1 -9,4 -3,3 -4,7 -4,12l0 33 -10 0 0 -36c0,-5 0,-8 -2,-10 -1,-2 -4,-3 -7,-3 -3,0 -5,1 -8,2 -2,2 -4,4 -5,6 -1,3 -1,7 -1,12l0 29 -9 0zm126 -18l10 1c-1,6 -4,10 -8,13 -4,3 -10,5 -16,5 -8,0 -15,-3 -19,-8 -5,-5 -8,-12 -8,-21 0,-9 3,-16 8,-21 4,-6 11,-8 18,-8 8,0 14,2 18,7 5,6 7,13 7,22 0,0 0,1 0,2l-41 0c0,6 2,11 5,14 3,3 7,5 12,5 3,0 6,-1 9,-3 2,-2 4,-4 5,-8zm-30 -15l31 0c-1,-5 -2,-9 -4,-11 -3,-4 -7,-5 -12,-5 -4,0 -8,1 -11,4 -2,3 -4,7 -4,12zm52 33l0 -56 8 0 0 8c2,-3 4,-5 7,-7 3,-1 7,-2 10,-2 4,0 8,1 10,2 3,2 5,5 6,8 4,-7 10,-10 17,-10 6,0 10,1 13,4 3,4 4,8 4,15l0 38 -9 0 0 -35c0,-4 0,-7 -1,-8 -1,-2 -2,-3 -3,-4 -2,-1 -4,-2 -6,-2 -4,0 -7,1 -10,4 -2,3 -4,7 -4,12l0 33 -9 0 0 -36c0,-5 -1,-8 -2,-10 -2,-2 -4,-3 -8,-3 -3,0 -5,1 -7,2 -2,2 -4,4 -5,6 -1,3 -2,7 -2,12l0 29 -9 0zm125 -7c-3,3 -7,5 -10,6 -3,1 -6,2 -10,2 -6,0 -11,-2 -14,-5 -4,-3 -5,-6 -5,-11 0,-3 0,-5 2,-8 1,-2 3,-4 5,-5 2,-1 4,-2 6,-3 2,0 5,-1 9,-1 7,-1 13,-2 16,-4 1,-1 1,-2 1,-2 0,-4 -1,-7 -3,-8 -3,-2 -6,-3 -11,-3 -4,0 -8,0 -10,2 -2,2 -3,4 -4,8l-10 -1c1,-4 3,-7 5,-10 1,-2 4,-4 8,-5 4,-1 8,-2 13,-2 4,0 8,0 11,2 3,1 5,2 7,4 1,1 2,4 3,6 0,2 0,5 0,9l0 12c0,9 0,15 1,17 0,2 1,4 2,7l-10 0c-1,-2 -1,-5 -2,-7zm0 -21c-4,1 -9,2 -16,3 -4,1 -6,1 -8,2 -2,1 -3,2 -4,3 -1,2 -1,3 -1,5 0,2 1,4 3,6 2,2 4,2 8,2 4,0 7,0 10,-2 3,-2 5,-4 6,-6 1,-3 1,-6 1,-10l1 -3zm20 11l9 -2c1,4 2,7 4,9 3,2 6,3 10,3 5,0 8,-1 10,-3 2,-1 3,-3 3,-6 0,-2 -1,-4 -3,-5 -1,-1 -4,-2 -9,-3 -7,-2 -12,-3 -15,-4 -2,-2 -4,-3 -6,-6 -1,-2 -2,-4 -2,-7 0,-3 1,-5 2,-7 1,-2 3,-4 5,-5 1,-1 3,-2 6,-3 2,-1 5,-1 8,-1 4,0 8,1 11,2 3,1 6,3 7,5 2,2 3,5 4,9l-10 1c0,-3 -1,-5 -3,-7 -2,-2 -5,-2 -9,-2 -4,0 -7,0 -9,2 -2,1 -3,3 -3,5 0,1 1,2 2,3 0,1 2,2 3,3 1,0 4,1 8,2 7,2 12,3 14,4 3,1 5,3 7,5 1,2 2,5 2,8 0,3 -1,6 -3,9 -2,3 -4,5 -8,6 -3,2 -7,3 -12,3 -7,0 -12,-2 -16,-5 -4,-3 -6,-7 -7,-13zm77 8l2 8c-3,1 -5,1 -7,1 -4,0 -6,0 -8,-1 -2,-1 -4,-3 -4,-5 -1,-1 -1,-5 -1,-11l0 -32 -7 0 0 -7 7 0 0 -14 9 -5 0 19 9 0 0 7 -9 0 0 33c0,3 0,4 0,5 1,1 1,1 2,2 1,0 2,1 3,1 1,0 3,-1 4,-1zm10 -57l0 -11 9 0 0 11 -9 0zm0 66l0 -56 9 0 0 56 -9 0zm23 0l0 -77 10 0 0 44 22 -23 12 0 -21 21 23 35 -11 0 -19 -29 -6 7 0 22 -10 0zm90 -7c-3,3 -7,5 -10,6 -3,1 -7,2 -10,2 -7,0 -11,-2 -14,-5 -4,-3 -5,-6 -5,-11 0,-3 0,-5 1,-8 2,-2 3,-4 5,-5 2,-1 5,-2 7,-3 2,0 5,-1 8,-1 8,-1 14,-2 17,-4 0,-1 0,-2 0,-2 0,-4 -1,-7 -2,-8 -3,-2 -6,-3 -11,-3 -5,0 -8,0 -10,2 -2,2 -4,4 -5,8l-9 -1c1,-4 2,-7 4,-10 2,-2 5,-4 9,-5 3,-1 8,-2 12,-2 5,0 9,0 12,2 3,1 5,2 6,4 2,1 3,4 3,6 1,2 1,5 1,9l0 12c0,9 0,15 0,17 1,2 2,4 3,7l-10 0c-1,-2 -2,-5 -2,-7zm-1 -21c-3,1 -8,2 -15,3 -4,1 -7,1 -8,2 -2,1 -3,2 -4,3 -1,2 -1,3 -1,5 0,2 1,4 2,6 2,2 5,2 9,2 3,0 7,0 9,-2 3,-2 5,-4 7,-6 1,-3 1,-6 1,-10l0 -3zm24 28l0 -56 9 0 0 8c4,-6 10,-9 17,-9 4,0 7,1 10,2 2,1 4,2 6,4 1,2 2,5 3,7 0,2 0,5 0,9l0 35 -9 0 0 -34c0,-4 -1,-7 -1,-9 -1,-2 -2,-3 -4,-4 -2,-1 -4,-2 -7,-2 -4,0 -7,1 -10,4 -3,2 -4,7 -4,14l0 31 -10 0zm-775 140l0 -77 9 0 0 8c2,-3 4,-5 6,-7 3,-1 6,-2 10,-2 4,0 9,2 12,4 4,2 6,6 8,10 2,5 3,10 3,15 0,5 -1,11 -3,15 -2,5 -5,8 -9,11 -4,2 -8,3 -12,3 -3,0 -6,-1 -8,-2 -3,-1 -5,-3 -7,-5l0 27 -9 0zm9 -48c0,7 1,12 4,15 3,4 6,5 10,5 4,0 8,-1 11,-5 3,-3 4,-9 4,-16 0,-7 -1,-13 -4,-16 -3,-4 -6,-5 -10,-5 -4,0 -8,2 -11,5 -3,4 -4,9 -4,17zm50 27l0 -56 9 0 0 9c2,-4 4,-7 6,-8 2,-1 4,-2 6,-2 3,0 6,1 9,3l-3 9c-2,-1 -4,-2 -7,-2 -2,0 -4,1 -5,2 -2,1 -3,3 -4,5 -1,3 -1,7 -1,11l0 29 -10 0zm32 -28c0,-10 3,-18 9,-23 5,-4 11,-6 17,-6 8,0 14,3 19,8 5,5 7,12 7,20 0,8 -1,13 -3,17 -2,4 -5,7 -9,10 -4,2 -9,3 -14,3 -7,0 -14,-2 -18,-7 -5,-5 -8,-12 -8,-22zm10 0c0,7 2,13 5,16 3,4 7,5 11,5 5,0 9,-1 12,-5 3,-3 5,-9 5,-16 0,-7 -2,-12 -5,-16 -3,-3 -7,-5 -12,-5 -4,0 -8,2 -11,5 -3,4 -5,9 -5,16zm50 11l9 -1c1,4 2,6 4,8 3,2 6,3 10,3 5,0 8,0 10,-2 2,-2 3,-4 3,-6 0,-2 -1,-4 -3,-5 -1,-1 -4,-2 -9,-4 -7,-1 -12,-3 -15,-4 -2,-1 -4,-3 -6,-5 -1,-3 -2,-5 -2,-8 0,-2 1,-4 2,-7 1,-2 3,-3 5,-5 1,-1 3,-2 6,-3 2,0 5,-1 8,-1 4,0 8,1 11,2 3,1 6,3 7,5 2,2 3,5 4,9l-10 1c0,-3 -1,-5 -3,-7 -2,-1 -5,-2 -9,-2 -4,0 -7,1 -9,2 -2,2 -3,3 -3,5 0,1 1,2 2,3 0,1 2,2 3,3 1,0 4,1 8,2 7,2 12,4 14,5 3,1 5,2 7,5 1,2 2,4 2,8 0,3 -1,6 -3,8 -2,3 -4,5 -8,7 -3,1 -7,2 -12,2 -7,0 -12,-1 -16,-4 -4,-3 -6,-8 -7,-14zm95 -1l9 1c-1,6 -4,10 -8,13 -4,4 -9,5 -16,5 -8,0 -14,-2 -19,-7 -5,-5 -7,-12 -7,-21 0,-10 2,-17 7,-22 5,-5 11,-8 19,-8 7,0 13,3 18,8 4,5 7,12 7,21 0,1 0,2 0,3l-42 0c1,6 2,10 6,14 3,3 7,4 11,4 4,0 7,0 9,-2 2,-2 4,-5 6,-9zm-31 -15l31 0c-1,-5 -2,-8 -4,-11 -3,-3 -7,-5 -11,-5 -5,0 -8,1 -11,4 -3,3 -5,7 -5,12zm49 16l9 -1c0,4 2,6 4,8 3,2 6,3 10,3 5,0 8,0 10,-2 2,-2 3,-4 3,-6 0,-2 -1,-4 -3,-5 -1,-1 -4,-2 -9,-4 -7,-1 -12,-3 -15,-4 -2,-1 -4,-3 -6,-5 -1,-3 -2,-5 -2,-8 0,-2 1,-4 2,-7 1,-2 3,-3 5,-5 1,-1 3,-2 5,-3 3,0 6,-1 9,-1 4,0 8,1 11,2 3,1 6,3 7,5 2,2 3,5 4,9l-10 1c0,-3 -1,-5 -3,-7 -2,-1 -5,-2 -9,-2 -4,0 -7,1 -9,2 -2,2 -3,3 -3,5 0,1 1,2 1,3 1,1 2,2 4,3 1,0 4,1 8,2 7,2 12,4 14,5 3,1 5,2 6,5 2,2 3,4 3,8 0,3 -1,6 -3,8 -2,3 -5,5 -8,7 -3,1 -7,2 -12,2 -7,0 -12,-1 -16,-4 -4,-3 -6,-8 -7,-14zm86 38l0 -77 9 0 0 8c2,-3 4,-5 7,-7 2,-1 5,-2 9,-2 5,0 9,2 13,4 3,2 6,6 8,10 2,5 3,10 3,15 0,5 -1,11 -3,15 -2,5 -5,8 -9,11 -4,2 -8,3 -13,3 -3,0 -6,-1 -8,-2 -2,-1 -5,-3 -6,-5l0 27 -10 0zm9 -48c0,7 1,12 4,15 3,4 7,5 11,5 4,0 8,-1 11,-5 2,-3 4,-9 4,-16 0,-7 -1,-13 -4,-16 -3,-4 -7,-5 -11,-5 -4,0 -7,2 -10,5 -3,4 -5,9 -5,17zm89 9l9 1c-1,6 -4,10 -8,13 -4,4 -9,5 -16,5 -8,0 -14,-2 -19,-7 -5,-5 -7,-12 -7,-21 0,-10 2,-17 7,-22 5,-5 11,-8 19,-8 7,0 13,3 18,8 4,5 7,12 7,21 0,1 0,2 0,3l-42 0c1,6 3,10 6,14 3,3 7,4 11,4 4,0 7,0 9,-2 2,-2 4,-5 6,-9zm-31 -15l31 0c-1,-5 -2,-8 -4,-11 -3,-3 -7,-5 -11,-5 -5,0 -8,1 -11,4 -3,3 -5,7 -5,12zm52 33l0 -56 9 0 0 8c4,-6 10,-9 17,-9 4,0 7,1 10,2 2,1 5,3 6,5 1,2 2,4 3,7 0,2 0,5 0,9l0 34 -9 0 0 -34c0,-4 0,-6 -1,-8 -1,-2 -2,-4 -4,-5 -2,-1 -4,-2 -7,-2 -4,0 -7,2 -10,4 -3,3 -4,8 -4,15l0 30 -10 0zm98 -18l9 1c-1,6 -4,10 -8,13 -4,4 -10,5 -16,5 -8,0 -14,-2 -19,-7 -5,-5 -7,-12 -7,-21 0,-10 2,-17 7,-22 5,-5 11,-8 19,-8 7,0 13,3 18,8 4,5 7,12 7,21 0,1 0,2 0,3l-42 0c1,6 2,10 5,14 4,3 7,4 12,4 3,0 6,0 9,-2 2,-2 4,-5 6,-9zm-31 -15l31 0c-1,-5 -2,-8 -4,-11 -3,-3 -7,-5 -11,-5 -5,0 -8,1 -11,4 -3,3 -5,7 -5,12zm73 25l1 8c-3,0 -5,1 -7,1 -4,0 -6,-1 -8,-2 -2,-1 -3,-2 -4,-4 -1,-2 -1,-6 -1,-11l0 -32 -7 0 0 -8 7 0 0 -13 9 -6 0 19 10 0 0 8 -10 0 0 32c0,3 0,5 1,5 0,1 1,2 1,2 1,1 2,1 4,1 1,0 2,0 4,0zm45 1c-3,3 -7,5 -10,6 -3,2 -7,2 -10,2 -6,0 -11,-1 -14,-4 -4,-3 -5,-7 -5,-12 0,-2 0,-5 2,-7 1,-2 2,-4 4,-5 2,-2 5,-3 7,-4 2,0 5,-1 9,-1 7,-1 13,-2 16,-3 0,-1 0,-2 0,-3 0,-3 0,-6 -2,-8 -3,-2 -6,-3 -11,-3 -4,0 -8,1 -10,2 -2,2 -3,5 -4,9l-10 -2c1,-4 3,-7 4,-9 2,-3 5,-4 9,-6 3,-1 8,-2 12,-2 5,0 9,1 12,2 3,1 5,2 7,4 1,2 2,4 2,7 1,1 1,4 1,8l0 13c0,8 0,14 1,16 0,3 1,5 2,7l-10 0c-1,-2 -2,-4 -2,-7zm-1 -21c-3,2 -8,3 -15,4 -4,0 -7,1 -8,2 -2,0 -3,1 -4,3 -1,1 -1,2 -1,4 0,3 1,5 3,6 2,2 4,3 8,3 4,0 7,-1 10,-3 2,-1 5,-3 6,-6 1,-2 1,-5 1,-9l0 -4zm24 49l0 -77 9 0 0 8c2,-3 4,-5 7,-7 2,-1 5,-2 9,-2 5,0 9,2 13,4 3,2 6,6 8,10 2,5 2,10 2,15 0,5 -1,11 -3,15 -2,5 -5,8 -8,11 -4,2 -8,3 -13,3 -3,0 -6,-1 -8,-2 -3,-1 -5,-3 -6,-5l0 27 -10 0zm9 -48c0,7 1,12 4,15 3,4 7,5 11,5 4,0 7,-1 10,-5 3,-3 5,-9 5,-16 0,-7 -2,-13 -4,-16 -3,-4 -7,-5 -11,-5 -4,0 -7,2 -10,5 -4,4 -5,9 -5,17zm87 20c-3,3 -7,5 -10,6 -3,2 -7,2 -10,2 -6,0 -11,-1 -14,-4 -4,-3 -5,-7 -5,-12 0,-2 0,-5 1,-7 2,-2 3,-4 5,-5 2,-2 5,-3 7,-4 2,0 5,-1 8,-1 8,-1 14,-2 17,-3 0,-1 0,-2 0,-3 0,-3 -1,-6 -2,-8 -3,-2 -6,-3 -11,-3 -5,0 -8,1 -10,2 -2,2 -4,5 -5,9l-9 -2c1,-4 2,-7 4,-9 2,-3 5,-4 9,-6 3,-1 8,-2 12,-2 5,0 9,1 12,2 3,1 5,2 6,4 2,2 3,4 3,7 1,1 1,4 1,8l0 13c0,8 0,14 0,16 1,3 2,5 3,7l-10 0c-1,-2 -2,-4 -2,-7zm-1 -21c-3,2 -8,3 -15,4 -4,0 -7,1 -8,2 -2,0 -3,1 -4,3 -1,1 -1,2 -1,4 0,3 1,5 3,6 1,2 4,3 8,3 3,0 7,-1 10,-3 2,-1 4,-3 6,-6 1,-2 1,-5 1,-9l0 -4zm24 28l0 -56 9 0 0 8c4,-6 10,-9 17,-9 4,0 7,1 10,2 2,1 4,3 6,5 1,2 2,4 3,7 0,2 0,5 0,9l0 34 -9 0 0 -34c0,-4 0,-6 -1,-8 -1,-2 -2,-4 -4,-5 -2,-1 -4,-2 -7,-2 -4,0 -7,2 -10,4 -3,3 -4,8 -4,15l0 30 -10 0z"/>
   <path class="fil3" d="M100 1798l-9 0 0 -76 9 0 0 27c4,-5 9,-7 15,-7 4,0 7,0 10,2 3,1 6,3 8,6 2,2 3,5 4,9 1,3 2,7 2,11 0,9 -2,17 -7,22 -5,5 -10,8 -17,8 -7,0 -12,-3 -15,-9l0 7zm0 -28c0,7 0,12 2,15 3,4 7,7 12,7 4,0 8,-2 11,-6 3,-3 4,-8 4,-15 0,-8 -1,-13 -4,-16 -3,-4 -6,-6 -10,-6 -4,0 -8,2 -11,6 -3,3 -4,8 -4,15zm88 10l10 2c-2,5 -4,10 -8,13 -5,3 -10,5 -16,5 -8,0 -15,-3 -20,-8 -4,-5 -7,-12 -7,-21 0,-9 3,-16 8,-22 4,-5 11,-7 18,-7 8,0 14,2 18,7 5,5 7,12 7,22 0,0 0,1 0,2l-41 0c0,6 2,11 5,14 3,3 7,5 12,5 3,0 6,-1 8,-3 3,-2 5,-5 6,-9zm-31 -15l31 0c0,-4 -1,-8 -3,-10 -3,-4 -7,-6 -12,-6 -4,0 -8,2 -11,5 -3,3 -4,6 -5,11zm53 33l0 -55 8 0 0 8c2,-4 4,-6 6,-7 2,-2 4,-2 6,-2 3,0 7,1 10,3l-3 8c-3,-1 -5,-2 -7,-2 -2,0 -4,1 -6,2 -1,2 -3,3 -3,5 -1,4 -2,7 -2,11l0 29 -9 0zm35 -65l0 -11 10 0 0 11 -10 0zm-11 87l1 -8c2,0 4,1 5,1 2,0 3,-1 4,-2 1,-2 1,-5 1,-10l0 -58 10 0 0 58c0,7 -1,12 -3,15 -2,3 -6,5 -11,5 -3,0 -5,-1 -7,-1zm71 -29c-3,3 -6,5 -10,7 -3,1 -6,2 -10,2 -6,0 -11,-2 -14,-5 -3,-3 -5,-7 -5,-11 0,-3 1,-5 2,-8 1,-2 3,-4 5,-5 2,-1 4,-2 6,-3 2,-1 5,-1 9,-2 7,0 13,-2 17,-3 0,-1 0,-2 0,-2 0,-4 -1,-7 -3,-8 -2,-2 -6,-3 -11,-3 -4,0 -7,0 -10,2 -2,1 -3,4 -4,8l-9 -1c0,-4 2,-7 4,-10 2,-2 4,-4 8,-5 4,-2 8,-2 13,-2 4,0 8,0 11,1 3,2 5,3 7,5 1,1 2,3 3,6 0,2 0,4 0,9l0 12c0,9 0,14 1,17 0,2 1,4 2,6l-10 0c-1,-2 -1,-4 -2,-7zm0 -20c-4,1 -9,2 -16,3 -4,1 -6,1 -8,2 -2,1 -3,2 -4,3 -1,1 -1,3 -1,4 0,3 1,5 3,7 2,1 5,2 8,2 4,0 7,-1 10,-2 3,-2 5,-4 6,-7 1,-2 2,-5 2,-9l0 -3zm23 27l0 -76 10 0 0 76 -10 0zm61 -7c-4,3 -7,5 -10,7 -4,1 -7,2 -11,2 -6,0 -11,-2 -14,-5 -3,-3 -5,-7 -5,-11 0,-3 1,-5 2,-8 1,-2 3,-4 5,-5 2,-1 4,-2 7,-3 2,-1 4,-1 8,-2 8,0 13,-2 17,-3 0,-1 0,-2 0,-2 0,-4 -1,-7 -3,-8 -2,-2 -6,-3 -11,-3 -4,0 -7,0 -9,2 -2,1 -4,4 -5,8l-9 -1c1,-4 2,-7 4,-10 2,-2 5,-4 8,-5 4,-2 8,-2 13,-2 5,0 8,0 11,1 3,2 6,3 7,5 1,1 2,3 3,6 0,2 0,4 0,9l0 12c0,9 1,14 1,17 0,2 1,4 2,6l-10 0c-1,-2 -1,-4 -1,-7zm-1 -20c-4,1 -9,2 -16,3 -3,1 -6,1 -8,2 -1,1 -3,2 -3,3 -1,1 -2,3 -2,4 0,3 1,5 3,7 2,1 5,2 8,2 4,0 7,-1 10,-2 3,-2 5,-4 6,-7 1,-2 2,-5 2,-9l0 -3zm24 27l0 -55 8 0 0 8c4,-6 10,-9 18,-9 3,0 6,0 9,2 3,1 5,2 6,4 2,2 3,4 3,7 1,2 1,5 1,9l0 34 -10 0 0 -33c0,-4 0,-7 -1,-9 0,-2 -2,-3 -4,-4 -1,-2 -4,-2 -6,-2 -4,0 -8,1 -10,4 -3,2 -5,7 -5,14l0 30 -9 0zm89 0l0 -76 9 0 0 76 -9 0zm60 -7c-4,3 -7,5 -10,7 -3,1 -7,2 -11,2 -6,0 -10,-2 -14,-5 -3,-3 -4,-7 -4,-11 0,-3 0,-5 1,-8 2,-2 3,-4 5,-5 2,-1 4,-2 7,-3 2,-1 5,-1 8,-2 8,0 14,-2 17,-3 0,-1 0,-2 0,-2 0,-4 -1,-7 -2,-8 -3,-2 -6,-3 -11,-3 -5,0 -8,0 -10,2 -2,1 -4,4 -5,8l-9 -1c1,-4 2,-7 4,-10 2,-2 5,-4 9,-5 3,-2 7,-2 12,-2 5,0 9,0 12,1 3,2 5,3 6,5 2,1 3,3 3,6 1,2 1,4 1,9l0 12c0,9 0,14 0,17 1,2 1,4 3,6l-10 0c-1,-2 -2,-4 -2,-7zm-1 -20c-3,1 -8,2 -15,3 -4,1 -7,1 -8,2 -2,1 -3,2 -4,3 -1,1 -1,3 -1,4 0,3 1,5 2,7 2,1 5,2 9,2 3,0 7,-1 9,-2 3,-2 5,-4 7,-7 1,-2 1,-5 1,-9l0 -3zm24 27l0 -55 9 0 0 8c4,-6 10,-9 17,-9 4,0 7,0 9,2 3,1 5,2 7,4 1,2 2,4 3,7 0,2 0,5 0,9l0 34 -9 0 0 -33c0,-4 -1,-7 -1,-9 -1,-2 -2,-3 -4,-4 -2,-2 -4,-2 -7,-2 -4,0 -7,1 -10,4 -3,2 -4,7 -4,14l0 30 -10 0zm96 -20l9 1c-1,7 -4,12 -8,15 -4,4 -9,6 -15,6 -8,0 -14,-3 -18,-8 -5,-5 -7,-12 -7,-21 0,-6 1,-11 3,-16 2,-4 5,-8 9,-10 4,-2 8,-3 13,-3 6,0 11,1 15,4 4,3 6,8 7,13l-9 2c-1,-4 -2,-7 -5,-9 -2,-2 -4,-3 -8,-3 -4,0 -8,2 -11,5 -3,4 -5,9 -5,17 0,7 2,12 5,16 3,3 6,5 11,5 4,0 7,-1 9,-4 3,-2 4,-5 5,-10zm53 13c-3,3 -7,5 -10,7 -3,1 -6,2 -10,2 -6,0 -11,-2 -14,-5 -4,-3 -5,-7 -5,-11 0,-3 0,-5 2,-8 1,-2 3,-4 5,-5 2,-1 4,-2 6,-3 2,-1 5,-1 9,-2 7,0 13,-2 16,-3 1,-1 1,-2 1,-2 0,-4 -1,-7 -3,-8 -3,-2 -6,-3 -11,-3 -4,0 -8,0 -10,2 -2,1 -3,4 -4,8l-10 -1c1,-4 3,-7 5,-10 1,-2 4,-4 8,-5 4,-2 8,-2 13,-2 4,0 8,0 11,1 3,2 5,3 7,5 1,1 2,3 3,6 0,2 0,4 0,9l0 12c0,9 0,14 1,17 0,2 1,4 2,6l-10 0c-1,-2 -1,-4 -2,-7zm0 -20c-4,1 -9,2 -16,3 -4,1 -6,1 -8,2 -2,1 -3,2 -4,3 -1,1 -1,3 -1,4 0,3 1,5 3,7 2,1 4,2 8,2 4,0 7,-1 10,-2 3,-2 5,-4 6,-7 1,-2 1,-5 1,-9l1 -3zm23 27l0 -55 9 0 0 8c2,-4 4,-6 6,-7 2,-2 4,-2 6,-2 3,0 6,1 10,3l-4 8c-2,-1 -4,-2 -7,-2 -2,0 -4,1 -5,2 -2,2 -3,3 -4,5 -1,4 -1,7 -1,11l0 29 -10 0zm66 0l0 -76 9 0 0 27c5,-5 10,-7 17,-7 4,0 7,1 10,2 3,2 6,4 7,7 1,3 2,7 2,12l0 35 -10 0 0 -35c0,-4 -1,-8 -3,-10 -2,-2 -5,-3 -8,-3 -3,0 -6,1 -8,2 -2,1 -4,3 -5,6 -1,2 -2,6 -2,10l0 30 -9 0zm59 -65l0 -11 10 0 0 11 -10 0zm0 65l0 -55 10 0 0 55 -10 0zm24 0l0 -55 8 0 0 8c4,-6 10,-9 18,-9 3,0 6,0 9,2 3,1 5,2 7,4 1,2 2,4 2,7 1,2 1,5 1,9l0 34 -9 0 0 -33c0,-4 -1,-7 -2,-9 0,-2 -2,-3 -3,-4 -2,-2 -4,-2 -7,-2 -4,0 -7,1 -10,4 -3,2 -5,7 -5,14l0 30 -9 0zm58 5l9 1c0,3 1,5 3,6 2,2 5,3 10,3 4,0 7,-1 10,-3 2,-1 4,-4 4,-7 1,-2 1,-6 1,-12 -4,5 -9,7 -15,7 -8,0 -14,-2 -18,-8 -4,-5 -6,-12 -6,-20 0,-5 1,-10 3,-14 2,-5 4,-8 8,-11 4,-2 8,-3 13,-3 6,0 12,2 16,8l0 -7 9 0 0 48c0,8 -1,15 -3,18 -2,4 -5,7 -8,9 -4,2 -9,3 -14,3 -7,0 -12,-2 -16,-5 -5,-3 -6,-7 -6,-13zm7 -33c0,7 2,12 5,16 3,3 6,5 11,5 4,0 8,-2 10,-5 3,-4 5,-9 5,-16 0,-7 -2,-12 -5,-15 -3,-4 -6,-5 -11,-5 -4,0 -7,1 -10,5 -3,3 -5,8 -5,15zm52 33l9 1c1,3 2,5 3,6 3,2 6,3 10,3 4,0 8,-1 10,-3 2,-1 4,-4 5,-7 0,-2 1,-6 1,-12 -5,5 -10,7 -16,7 -7,0 -13,-2 -18,-8 -4,-5 -6,-12 -6,-20 0,-5 1,-10 3,-14 2,-5 5,-8 8,-11 4,-2 8,-3 13,-3 7,0 12,2 16,8l0 -7 9 0 0 48c0,8 -1,15 -3,18 -1,4 -4,7 -8,9 -4,2 -8,3 -14,3 -7,0 -12,-2 -16,-5 -4,-3 -6,-7 -6,-13zm8 -33c0,7 1,12 4,16 3,3 7,5 11,5 4,0 8,-2 11,-5 3,-4 4,-9 4,-16 0,-7 -1,-12 -4,-15 -3,-4 -7,-5 -11,-5 -4,0 -8,1 -11,5 -3,3 -4,8 -4,15zm90 21c-4,3 -7,5 -11,7 -3,1 -6,2 -10,2 -6,0 -11,-2 -14,-5 -3,-3 -5,-7 -5,-11 0,-3 1,-5 2,-8 1,-2 3,-4 5,-5 2,-1 4,-2 7,-3 1,-1 4,-1 8,-2 8,0 13,-2 17,-3 0,-1 0,-2 0,-2 0,-4 -1,-7 -3,-8 -2,-2 -6,-3 -11,-3 -4,0 -7,0 -9,2 -3,1 -4,4 -5,8l-9 -1c1,-4 2,-7 4,-10 2,-2 5,-4 8,-5 4,-2 8,-2 13,-2 5,0 8,0 11,1 3,2 5,3 7,5 1,1 2,3 3,6 0,2 0,4 0,9l0 12c0,9 0,14 1,17 0,2 1,4 2,6l-10 0c-1,-2 -1,-4 -1,-7zm-1 -20c-4,1 -9,2 -16,3 -3,1 -6,1 -8,2 -1,1 -3,2 -4,3 0,1 -1,3 -1,4 0,3 1,5 3,7 2,1 5,2 8,2 4,0 7,-1 10,-2 3,-2 5,-4 6,-7 1,-2 2,-5 2,-9l0 -3zm-997 122l9 -1c1,4 2,7 3,10 2,2 4,4 8,6 3,1 7,2 12,2 4,0 7,-1 10,-2 3,-1 5,-2 6,-4 2,-2 3,-5 3,-7 0,-2 -1,-4 -2,-6 -2,-2 -4,-4 -7,-5 -2,-1 -7,-2 -14,-3 -7,-2 -12,-4 -15,-5 -3,-2 -6,-5 -8,-7 -2,-3 -3,-6 -3,-10 0,-4 2,-7 4,-11 2,-3 5,-6 9,-7 5,-2 9,-3 14,-3 6,0 11,1 15,3 5,2 8,4 10,8 3,3 4,7 4,12l-10 1c0,-5 -2,-9 -5,-11 -3,-3 -7,-4 -13,-4 -6,0 -11,1 -14,3 -2,3 -4,5 -4,8 0,3 1,5 3,7 2,2 7,4 15,6 9,2 14,3 17,5 5,2 8,4 10,7 2,3 3,7 3,11 0,4 -1,8 -3,12 -2,3 -6,6 -10,8 -5,2 -9,3 -15,3 -7,0 -13,-1 -17,-3 -5,-2 -9,-5 -11,-9 -3,-4 -4,-9 -4,-14zm111 7l10 1c-2,6 -5,10 -9,13 -4,3 -9,5 -16,5 -8,0 -14,-3 -19,-8 -5,-5 -7,-12 -7,-21 0,-9 2,-16 7,-21 5,-5 11,-8 19,-8 7,0 13,3 18,8 5,5 7,12 7,21 0,0 0,1 0,2l-41 0c0,7 2,11 5,14 3,4 7,5 11,5 4,0 7,-1 9,-2 2,-2 4,-5 6,-9zm-31 -15l31 0c0,-5 -2,-8 -4,-11 -3,-3 -6,-5 -11,-5 -5,0 -8,1 -11,4 -3,3 -5,7 -5,12zm52 33l0 -56 9 0 0 9c2,-4 4,-7 6,-8 2,-1 4,-2 6,-2 3,0 6,1 9,3l-3 9c-2,-2 -4,-2 -7,-2 -2,0 -4,0 -5,2 -2,1 -3,3 -4,5 -1,3 -1,7 -1,11l0 29 -10 0zm56 -9l2 9c-3,0 -5,1 -7,1 -4,0 -6,-1 -8,-2 -2,-1 -3,-3 -4,-4 -1,-2 -1,-6 -1,-11l0 -32 -7 0 0 -8 7 0 0 -13 9 -6 0 19 9 0 0 8 -9 0 0 32c0,3 0,4 1,5 0,1 0,2 1,2 1,1 2,1 3,1 1,0 3,0 4,-1zm10 -57l0 -11 9 0 0 11 -9 0zm0 66l0 -56 9 0 0 56 -9 0zm26 0l0 -48 -8 0 0 -8 8 0 0 -5c0,-6 1,-10 3,-13 3,-3 7,-4 12,-4 3,0 6,0 9,1l-1 8c-2,0 -4,0 -5,0 -3,0 -6,0 -7,2 -1,1 -2,4 -2,8l0 3 11 0 0 8 -11 0 0 48 -9 0zm27 -66l0 -11 9 0 0 11 -9 0zm0 66l0 -56 9 0 0 56 -9 0zm24 0l0 -77 9 0 0 44 23 -23 12 0 -21 21 23 35 -12 0 -18 -29 -7 7 0 22 -9 0zm90 -7c-4,3 -7,5 -11,6 -3,1 -6,2 -10,2 -6,0 -11,-2 -14,-5 -3,-2 -5,-6 -5,-11 0,-3 1,-5 2,-7 1,-3 3,-4 5,-6 2,-1 4,-2 7,-3 1,0 4,-1 8,-1 8,-1 13,-2 17,-3 0,-2 0,-3 0,-3 0,-4 -1,-6 -3,-8 -2,-2 -6,-3 -11,-3 -4,0 -7,1 -9,2 -3,2 -4,5 -5,8l-9 -1c1,-4 2,-7 4,-9 2,-3 5,-5 8,-6 4,-1 8,-2 13,-2 5,0 8,1 11,2 3,1 6,2 7,4 1,2 2,4 3,6 0,2 0,5 0,9l0 13c0,8 1,14 1,16 0,2 1,5 2,7l-10 0c-1,-2 -1,-5 -1,-7zm-1 -21c-4,1 -9,3 -16,3 -3,1 -6,2 -8,2 -1,1 -3,2 -3,3 -1,2 -2,3 -2,5 0,2 1,4 3,6 2,2 5,3 8,3 4,0 7,-1 10,-3 3,-1 5,-4 6,-6 1,-2 2,-5 2,-10l0 -3zm44 19l1 9c-2,0 -5,1 -7,1 -3,0 -6,-1 -8,-2 -1,-1 -3,-3 -3,-4 -1,-2 -2,-6 -2,-11l0 -32 -7 0 0 -8 7 0 0 -13 10 -6 0 19 9 0 0 8 -9 0 0 32c0,3 0,4 0,5 1,1 1,2 2,2 1,1 2,1 3,1 1,0 3,0 4,-1zm40 9l0 -77 29 0c5,0 9,0 12,1 4,1 7,2 9,4 3,1 5,4 7,7 1,3 2,7 2,10 0,7 -2,12 -6,17 -5,4 -12,7 -23,7l-19 0 0 31 -11 0zm11 -40l19 0c7,0 11,-2 14,-4 3,-3 4,-6 4,-10 0,-4 0,-6 -2,-9 -2,-2 -4,-3 -6,-4 -2,-1 -5,-1 -10,-1l-19 0 0 28zm97 22l10 1c-1,6 -4,10 -8,13 -5,3 -10,5 -16,5 -8,0 -15,-3 -20,-8 -4,-5 -7,-12 -7,-21 0,-9 3,-16 8,-21 4,-5 11,-8 18,-8 8,0 14,3 18,8 5,5 7,12 7,21 0,0 0,1 0,2l-41 0c0,7 2,11 5,14 3,4 7,5 12,5 3,0 6,-1 9,-2 2,-2 4,-5 5,-9zm-30 -15l30 0c0,-5 -1,-8 -3,-11 -3,-3 -7,-5 -12,-5 -4,0 -8,1 -11,4 -3,3 -4,7 -4,12zm52 33l0 -56 8 0 0 8c4,-6 10,-9 18,-9 3,0 6,1 9,2 3,1 5,3 6,5 2,2 3,4 3,7 1,1 1,4 1,9l0 34 -9 0 0 -34c0,-4 -1,-7 -2,-9 0,-1 -2,-3 -3,-4 -2,-1 -5,-2 -7,-2 -4,0 -7,1 -10,4 -3,3 -5,7 -5,14l0 31 -9 0z"/>
   <path class="fil3" d="M758 1922l9 2c0,2 1,4 3,6 2,2 5,2 9,2 5,0 8,0 11,-2 2,-2 4,-4 4,-7 1,-2 1,-6 1,-13 -4,5 -9,8 -15,8 -8,0 -14,-3 -18,-8 -4,-6 -6,-13 -6,-20 0,-6 1,-10 3,-15 1,-4 4,-8 8,-10 4,-3 8,-4 13,-4 6,0 12,3 16,8l0 -7 9 0 0 48c0,9 -1,15 -3,19 -2,3 -5,6 -8,8 -4,2 -9,3 -14,3 -7,0 -12,-1 -16,-4 -5,-3 -7,-8 -6,-14zm7 -33c0,7 2,13 5,16 3,3 6,5 11,5 4,0 7,-2 10,-5 3,-3 5,-9 5,-16 0,-6 -2,-11 -5,-15 -3,-3 -6,-5 -11,-5 -4,0 -7,2 -10,5 -3,3 -5,8 -5,15zm90 22c-3,3 -7,5 -10,6 -3,1 -7,2 -10,2 -7,0 -11,-2 -14,-5 -4,-2 -5,-6 -5,-11 0,-3 0,-5 1,-7 2,-3 3,-4 5,-6 2,-1 5,-2 7,-3 2,0 5,-1 8,-1 8,-1 14,-2 17,-3 0,-2 0,-3 0,-3 0,-4 -1,-6 -2,-8 -3,-2 -6,-3 -11,-3 -5,0 -8,1 -10,2 -2,2 -4,5 -5,8l-9 -1c1,-4 2,-7 4,-9 2,-3 5,-5 9,-6 3,-1 8,-2 12,-2 5,0 9,1 12,2 3,1 5,2 6,4 2,2 3,4 3,6 1,2 1,5 1,9l0 13c0,8 0,14 0,16 1,2 2,5 3,7l-10 0c-1,-2 -2,-5 -2,-7zm-1 -21c-3,1 -8,3 -15,3 -4,1 -7,2 -8,2 -2,1 -3,2 -4,3 -1,2 -1,3 -1,5 0,2 1,4 2,6 2,2 5,3 9,3 3,0 7,-1 9,-3 3,-1 5,-4 7,-6 1,-2 1,-5 1,-10l0 -3zm24 28l0 -77 10 0 0 44 22 -23 12 0 -21 21 23 35 -11 0 -19 -29 -6 7 0 22 -10 0zm90 0l0 -8c-4,6 -10,9 -18,9 -3,0 -6,-1 -9,-2 -3,-1 -5,-3 -6,-5 -1,-2 -2,-4 -3,-7 0,-1 -1,-4 -1,-8l0 -35 10 0 0 31c0,5 0,8 0,10 1,2 2,4 4,6 2,1 4,2 7,2 3,0 6,-1 8,-2 3,-2 4,-4 5,-6 1,-3 2,-6 2,-11l0 -30 9 0 0 56 -8 0zm59 -7c-3,3 -6,5 -10,6 -3,1 -6,2 -10,2 -6,0 -11,-2 -14,-5 -3,-2 -5,-6 -5,-11 0,-3 1,-5 2,-7 1,-3 3,-4 5,-6 2,-1 4,-2 6,-3 2,0 5,-1 9,-1 7,-1 13,-2 17,-3 0,-2 0,-3 0,-3 0,-4 -1,-6 -3,-8 -2,-2 -6,-3 -11,-3 -4,0 -7,1 -10,2 -2,2 -3,5 -4,8l-9 -1c0,-4 2,-7 4,-9 2,-3 4,-5 8,-6 4,-1 8,-2 13,-2 4,0 8,1 11,2 3,1 5,2 7,4 1,2 2,4 3,6 0,2 0,5 0,9l0 13c0,8 0,14 1,16 0,2 1,5 2,7l-10 0c-1,-2 -1,-5 -2,-7zm0 -21c-4,1 -9,3 -16,3 -4,1 -6,2 -8,2 -2,1 -3,2 -4,3 -1,2 -1,3 -1,5 0,2 1,4 3,6 2,2 5,3 8,3 4,0 7,-1 10,-3 3,-1 5,-4 6,-6 1,-2 2,-5 2,-10l0 -3zm24 28l0 -56 8 0 0 8c4,-6 10,-9 18,-9 3,0 6,1 9,2 3,1 5,3 6,5 2,2 2,4 3,7 0,1 1,4 1,9l0 34 -10 0 0 -34c0,-4 0,-7 -1,-9 -1,-1 -2,-3 -4,-4 -2,-1 -4,-2 -6,-2 -4,0 -8,1 -11,4 -3,3 -4,7 -4,14l0 31 -9 0zm-961 119l0 -76 10 0 0 31 39 0 0 -31 11 0 0 76 -11 0 0 -36 -39 0 0 36 -10 0zm112 -7c-4,3 -7,5 -10,7 -4,1 -7,1 -11,1 -6,0 -11,-1 -14,-4 -3,-3 -5,-7 -5,-11 0,-3 1,-6 2,-8 1,-2 3,-4 5,-5 2,-2 4,-3 7,-3 2,-1 4,-1 8,-2 8,-1 13,-2 17,-3 0,-1 0,-2 0,-2 0,-4 -1,-7 -3,-9 -2,-2 -6,-3 -11,-3 -4,0 -7,1 -9,3 -2,1 -4,4 -5,8l-9 -1c1,-4 2,-8 4,-10 2,-2 5,-4 8,-6 4,-1 8,-1 13,-1 5,0 8,0 11,1 3,1 6,3 7,4 1,2 2,4 3,7 0,1 0,4 0,8l0 13c0,9 1,14 1,16 0,3 1,5 2,7l-10 0c-1,-2 -1,-4 -1,-7zm-1 -21c-4,2 -9,3 -16,4 -3,0 -6,1 -8,2 -1,0 -3,1 -3,3 -1,1 -2,3 -2,4 0,3 1,5 3,6 2,2 5,3 8,3 4,0 7,-1 10,-2 3,-2 5,-4 6,-7 1,-2 2,-5 2,-9l0 -4zm24 28l0 -76 9 0 0 76 -9 0zm60 -7c-4,3 -7,5 -10,7 -4,1 -7,1 -11,1 -6,0 -10,-1 -14,-4 -3,-3 -5,-7 -5,-11 0,-3 1,-6 2,-8 1,-2 3,-4 5,-5 2,-2 4,-3 7,-3 2,-1 4,-1 8,-2 8,-1 13,-2 17,-3 0,-1 0,-2 0,-2 0,-4 -1,-7 -3,-9 -2,-2 -6,-3 -10,-3 -5,0 -8,1 -10,3 -2,1 -4,4 -5,8l-9 -1c1,-4 2,-8 4,-10 2,-2 5,-4 8,-6 4,-1 8,-1 13,-1 5,0 9,0 12,1 3,1 5,3 6,4 2,2 3,4 3,7 0,1 1,4 1,8l0 13c0,9 0,14 0,16 1,3 1,5 2,7l-9 0c-1,-2 -2,-4 -2,-7zm-1 -21c-3,2 -9,3 -15,4 -4,0 -7,1 -9,2 -1,0 -2,1 -3,3 -1,1 -2,3 -2,4 0,3 1,5 3,6 2,2 5,3 9,3 3,0 6,-1 9,-2 3,-2 5,-4 6,-7 1,-2 2,-5 2,-9l0 -4zm24 28l0 -76 9 0 0 76 -9 0zm53 0l0 -55 9 0 0 8c2,-4 4,-6 6,-8 2,-1 4,-1 6,-1 3,0 6,1 9,2l-3 9c-2,-1 -4,-2 -7,-2 -2,0 -4,1 -5,2 -2,1 -3,3 -4,5 -1,4 -1,7 -1,11l0 29 -10 0zm74 -18l10 1c-2,6 -5,11 -9,14 -4,3 -9,4 -16,4 -8,0 -14,-2 -19,-7 -5,-5 -7,-12 -7,-21 0,-9 2,-17 7,-22 5,-5 11,-7 19,-7 7,0 13,2 18,7 5,5 7,12 7,21 0,1 0,2 0,3l-41 0c0,6 2,11 5,14 3,3 7,5 11,5 4,0 7,-1 9,-3 3,-2 4,-5 6,-9zm-31 -15l31 0c0,-5 -2,-8 -4,-10 -3,-4 -6,-6 -11,-6 -4,0 -8,2 -11,5 -3,2 -5,6 -5,11zm49 17l9 -2c1,4 2,7 4,9 3,2 6,3 10,3 5,0 8,-1 10,-3 2,-2 3,-4 3,-6 0,-2 -1,-4 -3,-5 -1,-1 -4,-2 -9,-3 -7,-2 -12,-4 -15,-5 -2,-1 -4,-3 -6,-5 -1,-2 -2,-5 -2,-8 0,-2 1,-4 2,-6 1,-3 3,-4 5,-6 1,-1 3,-2 6,-2 2,-1 5,-1 8,-1 4,0 8,0 11,1 3,2 6,3 7,5 2,3 3,6 4,9l-10 1c0,-2 -1,-5 -3,-6 -2,-2 -5,-3 -9,-3 -4,0 -7,1 -9,2 -2,2 -3,3 -3,5 0,2 1,3 2,4 0,1 2,1 3,2 1,0 4,1 8,3 7,1 12,3 14,4 3,1 5,3 7,5 1,2 2,5 2,8 0,3 -1,6 -3,9 -2,2 -4,5 -8,6 -3,2 -7,2 -12,2 -7,0 -12,-1 -16,-4 -4,-3 -6,-8 -7,-13zm57 16l0 -55 8 0 0 8c2,-3 4,-5 7,-7 3,-2 6,-2 10,-2 4,0 8,0 10,2 3,2 5,4 6,7 4,-6 10,-9 17,-9 5,0 10,1 13,4 3,3 4,8 4,14l0 38 -9 0 0 -35c0,-3 -1,-6 -1,-8 -1,-2 -2,-3 -3,-4 -2,-1 -4,-1 -6,-1 -4,0 -7,1 -10,4 -2,2 -4,6 -4,12l0 32 -9 0 0 -36c0,-4 -1,-7 -2,-9 -2,-2 -4,-3 -8,-3 -3,0 -5,0 -7,2 -3,1 -4,3 -5,6 -1,3 -2,6 -2,11l0 29 -9 0zm89 -66l0 -10 9 0 0 10 -9 0zm0 66l0 -55 9 0 0 55 -9 0zm89 0l0 -7c-3,6 -8,8 -15,8 -5,0 -9,-1 -12,-3 -4,-3 -7,-6 -9,-10 -2,-5 -3,-10 -3,-16 0,-5 1,-10 3,-15 1,-4 4,-8 8,-10 4,-2 8,-3 12,-3 4,0 7,0 9,2 3,1 5,3 7,5l0 -27 9 0 0 76 -9 0zm-30 -28c0,8 2,13 5,16 3,4 7,6 11,6 4,0 7,-2 10,-5 3,-4 4,-9 4,-16 0,-7 -1,-13 -4,-16 -3,-4 -7,-6 -11,-6 -4,0 -7,2 -10,5 -3,4 -5,9 -5,16zm54 -38l0 -10 9 0 0 10 -9 0zm0 66l0 -55 9 0 0 55 -9 0zm44 -8l1 8c-2,1 -5,1 -7,1 -3,0 -6,-1 -8,-2 -2,-1 -3,-2 -4,-4 0,-2 -1,-5 -1,-11l0 -32 -7 0 0 -7 7 0 0 -14 10 -6 0 20 9 0 0 7 -9 0 0 32c0,3 0,5 0,6 0,0 1,1 2,1 0,1 2,1 3,1 1,0 2,0 4,0zm47 -10l10 1c-2,6 -5,11 -9,14 -4,3 -9,4 -15,4 -9,0 -15,-2 -20,-7 -4,-5 -7,-12 -7,-21 0,-9 3,-17 7,-22 5,-5 11,-7 19,-7 7,0 13,2 18,7 5,5 7,12 7,21 0,1 0,2 0,3l-41 0c0,6 2,11 5,14 3,3 7,5 12,5 3,0 6,-1 8,-3 3,-2 5,-5 6,-9zm-31 -15l31 0c0,-5 -1,-8 -3,-10 -3,-4 -7,-6 -12,-6 -4,0 -8,2 -11,5 -3,2 -4,6 -5,11zm53 33l0 -55 8 0 0 8c2,-4 4,-6 6,-8 2,-1 4,-1 6,-1 3,0 6,1 10,2l-4 9c-2,-1 -4,-2 -6,-2 -2,0 -4,1 -6,2 -2,1 -3,3 -3,5 -1,4 -2,7 -2,11l0 29 -9 0zm44 0l-9 0 0 -76 10 0 0 27c4,-5 9,-7 15,-7 3,0 6,0 9,2 4,1 6,3 8,5 2,3 4,6 5,9 1,4 1,8 1,12 0,9 -2,16 -7,22 -4,5 -10,7 -17,7 -6,0 -11,-2 -15,-8l0 7zm0 -28c0,7 1,11 3,14 3,5 7,8 12,8 4,0 7,-2 10,-6 3,-3 5,-9 5,-16 0,-7 -2,-12 -5,-16 -2,-3 -6,-5 -10,-5 -4,0 -8,2 -11,6 -3,3 -4,8 -4,15zm51 -38l0 -10 9 0 0 10 -9 0zm0 66l0 -55 9 0 0 55 -9 0zm44 -8l1 8c-2,1 -5,1 -7,1 -3,0 -6,-1 -8,-2 -2,-1 -3,-2 -4,-4 -1,-2 -1,-5 -1,-11l0 -32 -7 0 0 -7 7 0 0 -14 10 -6 0 20 9 0 0 7 -9 0 0 32c0,3 0,5 0,6 0,0 1,1 2,1 0,1 1,1 3,1 1,0 2,0 4,0zm9 8l0 -76 10 0 0 43 22 -22 12 0 -21 20 23 35 -11 0 -19 -28 -6 6 0 22 -10 0zm90 -7c-4,3 -7,5 -10,7 -3,1 -7,1 -11,1 -6,0 -10,-1 -14,-4 -3,-3 -5,-7 -5,-11 0,-3 1,-6 2,-8 2,-2 3,-4 5,-5 2,-2 4,-3 7,-3 2,-1 5,-1 8,-2 8,-1 13,-2 17,-3 0,-1 0,-2 0,-2 0,-4 -1,-7 -3,-9 -2,-2 -6,-3 -10,-3 -5,0 -8,1 -10,3 -2,1 -4,4 -5,8l-9 -1c1,-4 2,-8 4,-10 2,-2 5,-4 8,-6 4,-1 8,-1 13,-1 5,0 9,0 12,1 3,1 5,3 6,4 2,2 3,4 3,7 0,1 1,4 1,8l0 13c0,9 0,14 0,16 1,3 1,5 3,7l-10 0c-1,-2 -2,-4 -2,-7zm-1 -21c-3,2 -8,3 -15,4 -4,0 -7,1 -9,2 -1,0 -2,1 -3,3 -1,1 -2,3 -2,4 0,3 1,5 3,6 2,2 5,3 9,3 3,0 7,-1 9,-2 3,-2 5,-4 7,-7 1,-2 1,-5 1,-9l0 -4zm24 28l0 -55 9 0 0 8c4,-6 9,-9 17,-9 3,0 7,0 9,1 3,2 5,3 7,5 1,2 2,4 3,7 0,2 0,5 0,9l0 34 -9 0 0 -34c0,-3 -1,-6 -1,-8 -1,-2 -2,-4 -4,-5 -2,-1 -4,-1 -7,-1 -4,0 -7,1 -10,3 -3,3 -5,8 -5,15l0 30 -9 0zm-776 92c0,-10 3,-18 9,-23 5,-4 10,-6 17,-6 8,0 14,2 19,7 5,5 7,12 7,21 0,7 -1,13 -3,17 -2,4 -5,7 -9,9 -4,3 -9,4 -14,4 -7,0 -14,-3 -18,-8 -5,-5 -8,-12 -8,-21zm10 0c0,7 2,12 5,16 3,3 7,5 11,5 5,0 9,-2 12,-5 3,-4 5,-9 5,-16 0,-7 -2,-12 -5,-16 -3,-4 -7,-5 -12,-5 -4,0 -8,1 -11,5 -3,3 -5,9 -5,16zm53 28l0 -77 10 0 0 77 -10 0zm62 -18l10 1c-2,6 -5,10 -9,13 -4,3 -9,5 -16,5 -8,0 -14,-3 -19,-8 -5,-5 -7,-12 -7,-21 0,-9 2,-16 7,-21 5,-6 11,-8 19,-8 7,0 13,2 18,7 5,6 7,13 7,22 0,0 0,1 0,2l-41 0c0,6 2,11 5,14 3,3 7,5 11,5 4,0 7,-1 9,-3 3,-2 4,-4 6,-8zm-31 -15l31 0c0,-5 -2,-9 -4,-11 -3,-4 -6,-5 -11,-5 -4,0 -8,1 -11,4 -3,3 -5,7 -5,12zm53 33l0 -77 9 0 0 28c4,-6 10,-8 16,-8 5,0 8,1 11,2 3,2 5,4 7,7 1,3 2,7 2,12l0 36 -10 0 0 -36c0,-4 -1,-8 -3,-10 -2,-2 -5,-3 -9,-3 -2,0 -5,1 -7,2 -3,2 -4,4 -6,6 -1,3 -1,6 -1,10l0 31 -9 0zm89 0l0 -77 29 0c6,0 11,1 14,2 4,2 6,4 8,8 2,3 3,6 3,10 0,3 0,6 -2,9 -2,3 -5,5 -8,7 4,1 8,4 10,7 3,3 4,7 4,11 0,4 -1,7 -2,10 -2,3 -3,6 -6,7 -2,2 -5,3 -8,4 -3,1 -8,2 -12,2l-30 0zm11 -45l16 0c5,0 8,0 10,-1 2,0 4,-2 6,-4 1,-1 2,-4 2,-6 0,-3 -1,-5 -2,-7 -2,-2 -3,-3 -6,-4 -2,-1 -6,-1 -11,-1l-15 0 0 23zm0 36l19 0c3,0 5,-1 7,-1 2,0 4,-1 5,-2 2,-1 3,-2 4,-4 1,-2 2,-4 2,-7 0,-2 -1,-5 -2,-7 -2,-2 -4,-4 -7,-5 -2,0 -6,-1 -11,-1l-17 0 0 27zm61 9l0 -77 29 0c5,0 9,0 12,1 3,0 7,2 9,3 3,2 5,5 6,8 2,3 3,6 3,10 0,7 -2,12 -7,17 -4,4 -11,6 -22,6l-20 0 0 32 -10 0zm10 -41l20 0c7,0 11,-1 14,-3 3,-3 4,-6 4,-11 0,-3 -1,-6 -2,-8 -2,-2 -4,-4 -7,-4 -1,-1 -5,-1 -9,-1l-20 0 0 27zm56 19l9 -1c1,5 2,9 4,12 2,2 4,3 8,3 2,0 4,-1 6,-2 2,-1 3,-3 4,-5 1,-2 1,-5 1,-9l0 -53 10 0 0 52c0,7 0,12 -2,15 -2,4 -4,6 -7,8 -4,2 -8,3 -12,3 -7,0 -12,-2 -16,-6 -3,-4 -5,-10 -5,-17zm59 22l0 -77 29 0c5,0 9,0 11,1 4,0 7,2 10,3 2,2 4,5 6,8 2,3 2,6 2,10 0,7 -2,12 -6,17 -4,4 -12,6 -22,6l-20 0 0 32 -10 0zm10 -41l20 0c6,0 11,-1 14,-3 2,-3 4,-6 4,-11 0,-3 -1,-6 -3,-8 -1,-2 -3,-4 -6,-4 -2,-1 -5,-1 -9,-1l-20 0 0 27zm62 41l0 -77 10 0 0 32 39 0 0 -32 10 0 0 77 -10 0 0 -36 -39 0 0 36 -10 0zm78 0l0 -11 11 0 0 11 -11 0z"/>
  </g>
  <path class="fil2" d="M240 2445c-12,0 -18,-13 -18,-49 0,-36 6,-49 18,-49 13,0 19,13 19,49 0,36 -6,49 -19,49zm0 21c28,0 45,-22 45,-71 0,-49 -17,-69 -45,-69 -29,0 -45,20 -45,69 0,50 16,71 45,71zm80 -56c4,-7 9,-11 19,-11 12,0 18,8 18,21 0,15 -6,25 -20,25 -10,0 -17,-6 -18,-17l-25 0c1,22 19,38 43,38 27,0 45,-18 45,-47 0,-26 -16,-41 -38,-41 -9,0 -19,2 -26,9l2 -35 57 0 0 -21 -80 0 -3 79 26 0z"/>
  <g id="_386180704">
   <path class="fil4" d="M866 561c-1,18 11,25 11,36 1,13 -13,18 -11,37 7,5 25,14 29,18 8,10 0,28 12,35 9,6 25,-1 37,0 6,6 18,21 26,21 12,1 23,-19 29,-21 14,-2 22,4 37,2 8,-13 6,-11 8,-26 5,-27 36,-15 33,-37 -1,-9 -10,-18 -11,-26 -3,-17 27,-33 1,-47 -9,-4 -18,-6 -21,-14 -4,-8 -1,-22 -7,-29 -14,-15 -29,13 -52,-12 -23,-25 -25,-3 -41,8 -17,13 -41,-19 -46,17 -5,33 -3,15 -34,38zm88 -42c-103,24 -67,176 35,154 37,-8 71,-47 60,-96 -9,-37 -47,-69 -95,-58z"/>
   <path class="fil4" d="M1034 291l-255 0c-20,12 -26,10 -26,44l0 270c0,67 1,70 66,70 34,0 36,6 52,-15 -20,-18 -57,-3 -92,-10 -5,-13 -2,-211 -2,-253 0,-14 -4,-73 4,-79 7,-6 161,-4 191,-4 86,0 62,-25 65,173 4,4 9,5 13,8 5,4 9,13 9,12 0,0 1,1 1,1 -1,-46 3,-148 0,-185 -2,-24 -17,-28 -26,-32z"/>
   <path class="fil4" d="M955 530c-32,9 -59,40 -49,82 20,83 150,57 131,-31 -7,-33 -40,-62 -82,-51z"/>
   <path class="fil4" d="M811 444c5,3 7,4 14,4 27,0 161,3 176,-3 4,-12 2,-20 -13,-20l-163 0c-14,0 -18,6 -14,19z"/>
   <path class="fil4" d="M825 390l161 0c10,0 16,-1 17,-10 1,-11 -7,-12 -17,-12l-159 0c-27,0 -23,22 -2,22z"/>
   <path class="fil4" d="M1048 750l6 0c5,-5 4,-6 6,-15 3,-18 -1,-13 31,-21 0,-13 -27,-37 -38,-45 -6,12 -2,24 -17,29 -13,4 -27,-7 -36,0 -3,6 19,23 22,26 9,9 17,17 26,26z"/>
   <path class="fil4" d="M889 750l6 0 44 -43c5,-6 3,-1 5,-8 -12,-8 -22,3 -38,-2 -13,-4 -13,-13 -16,-28 -7,7 -13,13 -21,21 -12,12 -17,13 -17,23 7,5 19,6 29,7 1,11 2,23 8,30z"/>
  </g>
  <path class="fil2" d="M795 926c0,11 -4,17 -13,17 -9,0 -13,-6 -13,-17l0 -36 48 0 0 -16 -48 0 0 -23 -22 0 0 77c0,19 10,35 35,35 24,0 35,-16 35,-35l0 -24 -22 0 0 22zm83 2c0,10 -9,19 -21,19 -7,0 -11,-4 -11,-10 0,-7 5,-11 17,-14 9,-1 13,-2 15,-5l0 10zm23 33l0 -55c0,-22 -10,-34 -37,-34 -27,0 -37,13 -38,30l22 0c1,-7 5,-12 15,-12 9,0 15,3 15,9 0,5 -3,8 -15,9 -23,3 -39,6 -39,31 0,14 9,24 28,24 12,0 21,-4 26,-10 1,2 1,5 2,8l21 0zm51 -18c-13,0 -20,-9 -20,-28 0,-14 9,-24 20,-24 11,0 19,10 19,26 0,17 -6,26 -19,26zm-19 58l0 -52c7,9 15,14 26,14 22,0 35,-19 35,-45 0,-29 -15,-46 -37,-46 -11,0 -19,4 -24,13l0 -11 -22 0 0 127 22 0zm122 -73c-1,10 -9,19 -21,19 -7,0 -11,-4 -11,-10 0,-7 4,-11 17,-14 9,-1 13,-2 15,-5l0 10zm23 33l0 -55c0,-22 -10,-34 -37,-34 -28,0 -38,13 -38,30l21 0c1,-7 5,-12 16,-12 9,0 14,3 14,9 0,5 -3,8 -14,9 -23,3 -40,6 -40,31 0,14 9,24 29,24 11,0 21,-4 26,-10 0,2 1,5 1,8l22 0zm88 0l0 -60c0,-19 -12,-29 -29,-29 -14,0 -22,5 -28,15l0 -13 -21 0 0 87 22 0 0 -50c0,-13 6,-20 18,-20 11,0 15,4 15,17l0 53 23 0zm93 -17c-12,0 -20,-10 -20,-26 0,-18 6,-26 20,-26 12,0 19,9 19,28 0,14 -9,24 -19,24zm40 17l0 -118 -22 0 0 43c-7,-10 -15,-14 -26,-14 -22,0 -35,18 -35,45 0,29 16,46 37,46 11,0 19,-4 24,-13l1 11 21 0zm63 -33c-1,10 -9,19 -21,19 -7,0 -11,-4 -11,-10 0,-7 4,-11 17,-14 8,-1 12,-2 15,-5l0 10zm22 33l0 -55c0,-22 -9,-34 -36,-34 -28,0 -38,13 -38,30l21 0c1,-7 5,-12 16,-12 9,0 14,3 14,9 0,5 -3,8 -14,9 -23,3 -40,6 -40,31 0,14 9,24 29,24 11,0 20,-4 26,-10 0,2 1,5 1,8l21 0zm89 0l0 -60c0,-19 -13,-29 -29,-29 -14,0 -23,5 -28,15l0 -13 -22 0 0 87 23 0 0 -50c0,-13 6,-20 18,-20 11,0 15,4 15,17l0 53 23 0zm-531 63c0,0 0,0 0,0z"/>
 </g>
</svg>
