<?xml version="1.0" encoding="UTF-8"?>
<!DOCTYPE svg PUBLIC "-//W3C//DTD SVG 1.1//EN" "http://www.w3.org/Graphics/SVG/1.1/DTD/svg11.dtd">
<!-- Creator: CorelDRAW X7 -->
<svg xmlns="http://www.w3.org/2000/svg" xml:space="preserve" width="99.9592mm" height="16.6279mm" version="1.1" style="shape-rendering:geometricPrecision; text-rendering:geometricPrecision; image-rendering:optimizeQuality; fill-rule:evenodd; clip-rule:evenodd"
viewBox="0 0 4655 774"
 xmlns:xlink="http://www.w3.org/1999/xlink">
 <defs>
  <style type="text/css">
   <![CDATA[
    .fil2 {fill:#FEFEFE}
    .fil1 {fill:#FEFEFE;fill-rule:nonzero}
    .fil0 {fill:#F08519;fill-rule:nonzero}
   ]]>
  </style>
 </defs>
 <g id="Layer_x0020_1">
  <metadata id="CorelCorpID_0Corel-Layer"/>
  <g id="_65414136">
   <path class="fil0" d="M1790 464l-165 0 83 -257 1 0 81 257zm227 244l-228 -647 -157 0 -230 647 143 0 45 -133 239 0 41 133 147 0z"/>
   <path class="fil1" d="M2735 708l0 -332c0,-90 -67,-160 -163,-160 -60,0 -103,24 -130,76 -37,-55 -68,-76 -133,-76 -63,0 -108,20 -140,83l0 -70 -119 0 0 479 127 0 0 -291c0,-62 26,-94 76,-94 56,0 76,20 76,97l0 288 127 0 0 -286c0,-59 34,-103 81,-103 45,0 75,41 75,99l0 290 123 0zm339 -182c-1,56 -49,104 -115,104 -40,0 -61,-17 -61,-53 0,-41 23,-62 95,-75 47,-9 70,-16 82,-29l-1 53zm128 182l0 -303c0,-121 -53,-189 -205,-189 -153,0 -208,69 -210,169l118 0c6,-43 29,-71 87,-71 49,0 80,18 80,49 0,33 -17,46 -80,55 -128,17 -221,33 -221,171 0,78 51,132 160,132 64,0 115,-23 145,-56 1,15 4,31 8,43l118 0zm490 0l0 -332c0,-104 -68,-160 -159,-160 -77,0 -126,29 -155,83l0 -70 -121 0 0 479 127 0 0 -275c0,-73 32,-110 98,-110 61,0 82,21 82,95l0 290 128 0zm345 -182c-1,56 -49,104 -115,104 -40,0 -61,-17 -61,-53 0,-41 23,-62 95,-75 47,-9 70,-16 82,-29l-1 53zm128 182l0 -303c0,-121 -53,-189 -205,-189 -153,0 -208,69 -210,169l118 0c6,-43 29,-71 87,-71 49,0 80,18 80,49 0,33 -17,46 -80,55 -128,17 -221,33 -221,171 0,78 51,132 160,132 64,0 115,-23 145,-56 1,15 4,31 8,43l118 0zm490 0l0 -339c0,-95 -69,-153 -167,-153 -64,0 -123,32 -141,75l0 -237 -127 0 0 654 127 0 0 -275c0,-64 35,-116 98,-116 58,0 82,22 82,94l0 297 128 0z"/>
  </g>
  <path class="fil2" d="M825 128c-8,0 -95,26 -112,30 -25,7 -19,6 -55,-7l-104 -39c-46,-17 -58,-25 -114,-2 -17,6 -34,13 -52,19 -18,7 -34,13 -52,19l-54 17c-37,20 6,67 33,81 52,29 118,7 177,-10 15,-4 13,-3 23,6l37 34c3,3 7,5 10,9 4,3 6,5 9,8 4,3 6,6 9,8 4,4 7,5 10,9l169 152c3,3 6,5 9,8 4,3 5,6 11,7 25,6 73,0 98,-6 17,-5 36,-13 50,-21 9,-6 37,-27 38,-33 2,-11 -75,-177 -86,-199 -8,-16 -17,-31 -25,-46 -11,-20 -17,-27 -29,-44zm-825 141c0,41 7,68 35,98 4,4 2,3 6,5 3,-5 9,-10 13,-15 5,-6 10,-10 16,-14 -3,-5 -11,-13 -19,-28 -9,-16 -8,-30 -8,-49 0,-46 14,-96 34,-130 14,-24 35,-54 54,-71 27,-22 15,-19 55,-6l126 40c8,3 22,10 30,8 20,-7 42,-17 62,-22 -5,-4 -233,-77 -259,-85l-29 22c-18,14 -37,35 -50,53 -8,10 -14,19 -21,31 -27,45 -45,100 -45,163zm609 409c-4,18 -21,33 -40,37 -29,6 -41,-12 -52,-23l-98 -98c-5,-5 -12,-16 -25,-13 -8,3 -17,13 -10,25 2,4 16,16 19,20 27,26 52,52 79,78 -4,11 -15,19 -27,24 -46,18 -69,-40 -92,-51 -2,3 -4,5 -6,8l-21 24c4,7 25,26 33,34 26,26 58,39 97,27 19,-6 30,-16 40,-26 14,6 20,12 38,14 37,6 72,-11 92,-39 4,-5 7,-11 10,-16 39,-5 64,-20 82,-51 2,-5 5,-10 7,-16 3,-10 0,-9 9,-12 38,-12 77,-57 64,-110l-46 -3c6,16 8,29 0,46 -6,11 -18,22 -32,26 -14,5 -14,0 -34,-20l-174 -175c-13,-13 -35,2 -28,19 2,5 171,174 196,197 2,3 5,5 6,9 2,17 -19,40 -42,45 -14,3 -15,1 -21,-6 -10,-10 -20,-19 -30,-29l-146 -146c-14,-10 -34,9 -23,25l29 29c10,10 19,19 29,29l88 88c7,7 24,22 29,30zm-320 -109c2,-5 6,-6 10,-12 16,-25 5,-59 -22,-73 -15,-7 -20,-5 -36,-5 5,-11 10,-17 9,-33 -2,-30 -31,-54 -63,-48 -7,1 -11,4 -17,6 -7,-13 -7,-25 -29,-36 -22,-10 -47,-4 -60,12 -3,4 -5,6 -9,9 -7,6 -10,11 -15,17 -10,10 -24,21 -19,45 5,24 35,58 51,79 27,35 51,68 79,101l38 45c3,3 6,5 9,8 7,8 15,19 26,25 17,9 36,5 50,-5 8,-6 10,-11 16,-17l31 -33c34,-35 8,-93 -49,-85z"/>
 </g>
</svg>
