<?xml version="1.0" encoding="UTF-8"?>
<!DOCTYPE svg PUBLIC "-//W3C//DTD SVG 1.1//EN" "http://www.w3.org/Graphics/SVG/1.1/DTD/svg11.dtd">
<!-- Creator: CorelDRAW X7 -->
<svg xmlns="http://www.w3.org/2000/svg" xml:space="preserve" width="90.6421mm" height="20.9713mm" version="1.1" style="shape-rendering:geometricPrecision; text-rendering:geometricPrecision; image-rendering:optimizeQuality; fill-rule:evenodd; clip-rule:evenodd"
viewBox="0 0 3959 916"
 xmlns:xlink="http://www.w3.org/1999/xlink">
 <defs>
  <style type="text/css">
   <![CDATA[
    .fil2 {fill:#FEFEFE}
    .fil1 {fill:#FEFEFE;fill-rule:nonzero}
    .fil0 {fill:#F08519;fill-rule:nonzero}
   ]]>
  </style>
 </defs>
 <g id="Layer_x0020_1">
  <metadata id="CorelCorpID_0Corel-Layer"/>
  <g id="_387798032">
   <path class="fil0" d="M1523 429l-154 0 77 -241 1 0 76 241zm213 229l-214 -606 -147 0 -216 606 134 0 43 -125 224 0 38 125 138 0z"/>
   <path class="fil1" d="M1943 574c-59,0 -101,-56 -101,-137 0,-92 33,-138 102,-138 66,0 100,48 100,146 0,76 -44,129 -101,129zm213 84l0 -613 -117 0 0 223c-34,-48 -77,-71 -133,-71 -116,0 -185,96 -185,232 0,152 82,241 195,241 55,0 97,-21 125,-66l1 54 114 0zm324 -170c-1,53 -46,97 -107,97 -38,0 -58,-16 -58,-50 0,-38 22,-57 90,-70 43,-8 64,-15 76,-27l-1 50zm120 170l0 -284c0,-113 -49,-177 -192,-177 -144,0 -195,65 -197,158l110 0c6,-40 28,-66 82,-66 46,0 75,17 75,46 0,31 -16,43 -75,51 -120,17 -207,31 -207,161 0,73 48,123 150,123 60,0 108,-21 136,-52 1,14 4,29 7,40l111 0zm264 -89c-66,0 -100,-48 -100,-146 0,-76 44,-129 101,-129 59,0 101,56 101,136 0,92 -33,139 -102,139zm-95 302l0 -271c34,47 78,70 133,70 116,0 185,-96 185,-232 0,-151 -82,-241 -195,-241 -55,0 -97,21 -125,67l-1 -55 -114 0 0 662 117 0zm615 -392c0,56 -21,88 -69,88 -48,0 -68,-33 -68,-89l0 -185 248 0 0 -84 -248 0 0 -121 -117 0 0 401c0,97 52,181 183,181 127,0 182,-85 182,-180l0 -127 -111 0 0 116zm281 179l0 -449 -119 0 0 449 119 0zm0 -503l0 -110 -119 0 0 110 119 0zm217 503l0 -365 77 0 0 -84 -77 0c0,-52 14,-68 74,-68l0 -96c-128,0 -191,55 -191,164l-66 0 0 84 66 0 0 365 117 0z"/>
  </g>
  <g id="_387797528">
   <path class="fil2" d="M309 283c-3,32 -18,10 -23,-5 -59,-101 -39,-101 -177,-82 -34,5 -41,25 -64,63 -5,8 -49,69 -45,75 7,9 20,-5 52,-3 10,3 22,10 40,-14 9,-12 18,-26 24,-38 16,-1 27,1 44,-1 49,-9 24,-21 56,38 5,11 24,39 25,42 8,27 -7,97 -21,115 -14,2 -51,-4 -67,-5 -25,-3 -19,0 -39,-40 -16,-34 -34,-77 -75,-81 -57,8 -37,36 -16,107 29,95 42,157 126,215 55,37 82,36 137,36l1 -1 2 15 -18 4c9,17 61,71 70,87 9,-5 18,-12 25,-18 34,-22 107,-79 146,-108 9,-6 15,-9 21,-18 -12,-12 -26,-34 -36,-48 -47,-64 -34,-33 -18,-123 25,-140 -10,-65 46,-213 8,-21 16,-42 24,-62 9,-23 24,-54 -14,-54 -4,-3 -28,-13 -35,7l-19 77c-7,30 -18,63 -22,92 -11,17 -21,7 -15,-14l50 -200c5,-19 26,-69 3,-77 -15,-13 -60,-7 -73,31 -7,20 -21,81 -9,100 -3,17 2,33 0,50l-15 88c-3,18 0,34 -19,26 -3,-13 10,-72 13,-89 7,-37 3,-60 0,-98 -3,-44 0,-51 -17,-87 -9,-18 -24,-61 -38,-69 -22,-13 -45,15 -50,34 -8,29 8,52 18,74 10,20 8,57 10,83 3,40 -4,52 -8,89z"/>
   <path class="fil2" d="M300 863l93 53 118 -87c17,-12 112,-81 118,-89l-57 -78 -272 201z"/>
  </g>
 </g>
</svg>
