<svg width="100" height="100" viewBox="0 0 100 100" fill="none" xmlns="http://www.w3.org/2000/svg">
<path fill-rule="evenodd" clip-rule="evenodd" d="M73.8338 77.6903C64.5936 72.9795 52.0459 68.8575 51.7834 49.7466C51.5209 29.4045 66.6937 25.0149 73.8338 21L51.1009 22.1777C49.8934 25.8179 51.4684 23.4089 49.8934 26.1391C45.4833 26.5138 41.0207 26.4067 36.5582 26.3532C33.0406 26.3532 26.163 24.9614 25.953 29.1369C25.7955 33.1517 29.7856 32.2952 36.6107 32.1882C40.7582 32.1346 45.9558 31.1711 43.6458 36.2031C41.4933 37.9696 43.8033 37.0596 40.1282 37.5414C39.2882 37.6484 36.6632 37.5414 35.6657 37.5414C32.6206 37.4878 29.4181 37.4878 27.003 38.1302L26.6355 42.5734C30.7306 43.5905 33.1456 42.734 36.6632 43.2693C41.1257 44.0187 41.1257 47.2306 38.0807 48.3548C32.8831 50.282 21.8579 46.6418 17.0803 49.8002L16.9228 53.3868C23.748 57.0805 37.3457 49.8002 35.1931 59.2753C31.6756 59.9712 27.108 58.5794 26.2155 61.8449C24.9555 66.288 30.6781 65.5386 33.8281 65.485C39.2882 65.485 54.461 63.3438 51.5734 69.4464L49.6309 70.4635C49.4209 70.517 49.1584 70.5706 48.8959 70.6241L35.6657 70.7847C30.5731 70.7847 24.4305 70.0888 20.0204 71.5877L19.8629 75.8167L45.3783 77.9044C54.671 77.9044 64.6986 78.2256 73.8338 77.6903ZM0.663219 47.6381C3.44577 49.03 7.06833 48.6552 9.53587 47.6381L9.74587 44.0515C6.12331 41.4284 -2.43433 41.3214 0.663219 47.6381ZM15.5578 36.8455C18.2879 37.9161 22.9079 37.8626 25.9005 37.1131L26.2155 32.5629C21.5954 31.4387 14.0353 29.9934 15.5578 36.8455ZM2.06509 69.6605C10.5702 75.3884 20.1254 65.378 8.20769 65.1638C3.64011 65.1103 1.69758 64.7356 2.06509 69.6605Z" fill="#FEFEFE"/>
<path fill-rule="evenodd" clip-rule="evenodd" d="M76.6688 28.8157C48.4759 33.9012 56.8235 74.5855 82.969 69.9282C93.3116 68.1081 101.817 58.4724 99.6642 45.8923C97.8792 35.7213 88.0615 26.7814 76.6688 28.8157ZM75.0938 32.9376C73.8338 38.0232 73.7813 47.4448 74.9888 52.1021C79.0839 53.1727 87.7465 53.2798 91.7891 52.0485L91.8416 46.9095L80.9739 45.9459L80.5539 33.3123L75.0938 32.9376Z" fill="#FDFDFD"/>
</svg>
