<svg width="100" height="100" viewBox="0 0 100 100" fill="none" xmlns="http://www.w3.org/2000/svg">
<path d="M80.6548 86.5721C77.2732 86.2008 73.0147 83.8486 69.633 84.2198C68.6312 84.7149 66.5021 90.2847 65.7504 91.8948L64.3717 94L56.9825 75.555C60.4895 73.4506 58.8613 72.7071 64.7479 73.4498C69.6326 74.0688 69.7585 74.0687 73.3907 72.2118L80.6548 86.5721Z" fill="#FEFEFE"/>
<path d="M25.9211 72.4601C35.3144 76.7924 36.1915 69.1182 42.0781 76.0504L34.5628 93.8764C33.5608 92.6385 32.809 90.6574 32.1828 89.0481C28.6759 81.1257 30.0538 84.5915 18.2808 86.5721L25.9211 72.4601Z" fill="#FEFEFE"/>
<path fill-rule="evenodd" clip-rule="evenodd" d="M45.5846 20.7145C57.8589 18.1149 67.754 26.9044 69.7581 36.4363C72.3883 48.9393 63.8711 58.7195 53.8512 60.824C27.0481 66.3944 18.2805 26.5328 45.5846 20.7145ZM62.3678 30.1229C58.8612 28.7615 57.6089 31.4855 52.9748 36.0656C51.2212 37.675 45.8354 43.6169 44.082 44.3596C43.2052 42.5027 42.2029 40.8925 41.0756 39.1594C39.9484 36.9315 38.32 35.6938 36.5667 38.2933C36.1909 40.1502 40.0736 45.721 41.0756 47.7017C44.0816 53.0247 47.0879 48.0728 49.2172 45.9683C51.722 43.4926 53.9765 41.2646 56.4813 38.6651C60.4893 34.8276 63.2446 33.3415 62.3678 30.1229Z" fill="#FEFEFE"/>
<path fill-rule="evenodd" clip-rule="evenodd" d="M39.3218 12.7923C46.962 11.6782 46.2113 -0.205963 55.6049 10.3164C60.1139 15.5154 64.873 11.0596 70.6344 12.6687C72.012 15.516 72.0127 21.3336 74.267 23.8094C76.3962 26.1615 81.1552 27.2761 82.9087 29.8757C83.6601 33.5894 79.5274 36.8078 79.5273 40.8928C79.6525 45.1017 83.5349 47.9492 82.9087 52.1582C81.155 54.2625 75.8947 55.5003 73.8908 58.0998C71.7616 60.8232 72.5129 65.528 70.1332 69.118C65.3739 69.8605 61.1154 67.2612 57.1076 69.737C55.1036 70.9752 51.9723 75.679 49.3422 75.4315C47.4635 75.3076 43.8313 70.7266 41.5769 69.4887C37.6942 67.2606 33.1846 70.1074 29.0514 68.9933C25.7958 65.2797 28.4251 59.3385 23.291 56.3675C16.9034 52.53 14.5228 53.3958 17.4034 47.0827C20.7851 39.4076 20.0336 40.5213 16.7771 33.3414C15.3996 30.4946 15.7758 29.1332 18.5309 27.7716C20.0339 27.0288 23.4156 25.2949 24.2924 24.4284C28.175 21.086 25.7955 12.4212 30.6801 12.0497C33.185 11.926 36.4412 13.1635 39.3218 12.7923ZM64.6228 21.0863C59.6129 17.2488 52.974 15.2683 45.0833 16.5062C32.8091 18.611 21.7875 30.8663 24.9186 45.7211C27.4237 57.7289 39.1974 68.003 54.3524 65.1558C72.2629 61.8133 80.028 41.0166 70.6344 27.5233C69.7577 26.2855 68.8809 24.9242 68.0043 24.0577C66.7518 22.9436 65.8753 21.9528 64.6228 21.0863Z" fill="#FEFEFE"/>
</svg>
