<svg width="100" height="100" viewBox="0 0 100 100" fill="none" xmlns="http://www.w3.org/2000/svg">
<path d="M50.6775 52.0401C49.9594 50.2842 52.2163 48.7348 53.5499 50.0776L71.4003 68.154C73.4516 70.2195 73.4525 70.736 74.8886 70.2196C76.3246 69.8063 77.5554 68.6698 78.1708 67.5338C78.9915 65.7778 78.7863 64.4349 78.1708 62.7823L82.8899 63.0917C84.2235 68.5662 80.2225 73.2146 76.3242 74.4541C75.4011 74.7639 75.7084 74.6608 75.4009 75.6932C75.1957 76.313 74.8877 76.8298 74.6825 77.3462C72.8359 80.5483 70.271 82.0983 66.2702 82.6148C65.9625 83.1311 65.6546 83.7503 65.2444 84.2665C63.1928 87.1586 59.603 88.9154 55.8076 88.2959C53.961 88.0893 53.3444 87.469 51.9082 86.8492C50.8824 87.8821 49.7541 88.9154 47.8051 89.5351C43.8044 90.7744 40.5219 89.4315 37.8547 86.7461C37.0341 85.9197 34.8792 83.9568 34.4688 83.2337L36.6228 80.7554C36.828 80.4456 37.0337 80.2387 37.2388 79.9289C39.5983 81.0652 41.9579 87.0555 46.6769 85.1962C47.9077 84.6798 49.0364 83.854 49.4468 82.7179C46.677 80.0323 44.1117 77.346 41.3419 74.6604C41.0334 74.2467 39.5979 73.0077 39.3928 72.5947C38.6751 71.3555 39.598 70.322 40.4186 70.0121C41.7522 69.7022 42.4707 70.8391 42.9836 71.3556L53.0376 81.4775C54.166 82.6137 55.3966 84.4735 58.3714 83.8539C60.3205 83.4407 62.0654 81.8913 62.4757 80.0321C61.9628 79.2057 60.2177 77.6566 59.4996 76.9336L44.5229 61.8526C43.3945 60.2 45.4456 58.2375 46.8818 59.2699L61.8597 74.3509C62.8855 75.3838 63.9113 76.3134 64.9371 77.3462C65.5525 78.0692 65.6553 78.2762 67.091 77.9664C69.4505 77.45 71.6054 75.074 71.4003 73.3181C71.2977 72.9049 70.9895 72.6983 70.7843 72.3884C68.2195 70.0125 50.8865 52.5604 50.6775 52.0401Z" fill="#FEFEFE"/>
<path d="M8.30985 49.2511C9.64349 47.5985 12.2076 46.9791 14.4645 48.012C16.721 49.148 16.7215 50.3868 17.4393 51.7294C18.0548 51.5228 18.4655 51.2138 19.1835 51.1105C22.4663 50.4907 25.4415 52.9695 25.6467 56.0683C25.7493 57.7209 25.2363 58.3413 24.7234 59.4775C26.3647 59.4775 26.8779 59.2702 28.4167 59.9933C31.1864 61.4394 32.3145 64.9515 30.6731 67.5338C30.2629 68.1533 29.8525 68.2567 29.6473 68.7729C35.4948 67.9466 38.1617 73.9373 34.6737 77.5526L31.494 80.9617C30.8785 81.5815 30.6729 82.0982 29.8523 82.7179C28.4161 83.7506 26.4672 84.1633 24.7234 83.2337C23.5951 82.614 22.774 81.4786 22.0559 80.6523C21.7482 80.3424 21.4403 80.1356 21.1326 79.8258L17.2344 75.1774C14.3621 71.7689 11.9005 68.3599 9.13071 64.7448C7.48945 62.5758 4.41145 59.0643 3.89817 56.5853C3.38529 54.1065 4.82142 52.9698 5.84726 51.937C6.36019 51.3172 6.66843 50.8005 7.38653 50.1808C7.79681 49.871 8.00212 49.6643 8.30985 49.2511Z" fill="#FEFEFE"/>
<path d="M45.1376 21.3623C50.8824 18.9866 52.1144 19.8127 56.8333 21.5686L67.5021 25.5968C71.195 26.9395 70.5798 27.0432 73.1444 26.3201C74.8893 25.9067 83.8134 23.2217 84.6341 23.2217C85.8649 24.9774 86.4805 25.7011 87.6089 27.7668C88.4295 29.316 89.3534 30.8647 90.174 32.5171C91.3024 34.7895 99.2012 51.9367 98.9961 53.073C98.8931 53.6928 96.0216 55.8608 95.0979 56.4809C93.6617 57.3072 91.7118 58.1345 89.9678 58.651C87.4031 59.2707 82.4796 59.8896 79.915 59.2699C79.2998 59.1667 79.1967 58.8575 78.7868 58.5478C78.4792 58.2381 78.1711 58.0309 77.8635 57.7213L60.5254 42.0201C60.2178 41.6074 59.9098 41.5034 59.4996 41.0904C59.1921 40.8838 58.9864 40.5749 58.5763 40.2652C58.2685 39.9553 58.0633 39.7485 57.653 39.4387C57.3452 39.0255 56.935 38.8189 56.6272 38.509L52.8315 34.9966C51.806 34.0673 52.011 33.9634 50.4726 34.3764C44.42 36.1324 37.6493 38.4047 32.3148 35.4093C29.5451 33.9632 25.1341 29.1094 28.9289 27.0435L34.4688 25.2873C36.3154 24.6676 37.9573 24.0479 39.8038 23.3248C41.6501 22.7051 43.3938 21.982 45.1376 21.3623Z" fill="#FEFEFE"/>
<path d="M14.8755 10C17.5442 10.8268 40.9189 18.3627 41.4443 18.7796C39.3927 19.2961 37.1363 20.3299 35.0848 21.0529C34.2643 21.2594 32.8283 20.5364 32.0075 20.2263L19.0811 16.0938C14.9778 14.751 16.2085 14.4416 13.4387 16.714C11.4896 18.47 9.33499 21.5692 7.8988 24.0482C5.84723 27.5601 4.41168 32.725 4.41168 37.4762C4.41166 39.4384 4.30819 40.8847 5.2313 42.5371C6.052 44.0865 6.87387 44.9128 7.18163 45.4293C6.56624 45.8424 6.05272 46.2552 5.5399 46.8748C5.12955 47.3912 4.51329 47.9082 4.20553 48.4246C3.79574 48.2183 4.00102 48.3206 3.59081 47.9076C0.718545 44.8089 9.06508e-06 42.0205 0 37.7856C0 31.2782 1.84675 25.5966 4.61658 20.9485C5.33457 19.7092 5.94999 18.7796 6.77058 17.7468C8.10416 15.8876 10.0529 13.7181 11.8994 12.272L14.8755 10Z" fill="#FEFEFE"/>
</svg>
