<svg width="100" height="100" viewBox="0 0 100 100" fill="none" xmlns="http://www.w3.org/2000/svg">
<path d="M55.5282 59.7364C57.6058 59.2437 61.2659 58.9487 63.3435 59.9339L63.5419 62.3975L61.2666 62.7914L55.2318 62.4952L55.5282 59.7364Z" fill="#FEFEFE"/>
<path fill-rule="evenodd" clip-rule="evenodd" d="M50.2846 8.00608C57.1109 8.10461 54.8358 10.1742 57.8035 12.8345C61.6619 16.3817 63.6407 13.6233 66.8066 14.0175C68.8841 14.313 72.742 18.1554 73.2369 19.929C74.2262 23.4763 71.1594 25.546 74.2263 29.5859C76.0072 32.049 79.1738 29.9797 79.2727 36.8769C79.2727 42.8874 77.7882 41.6064 74.8202 44.2667C70.9618 47.7153 73.9297 50.7705 73.3361 53.9235C72.7424 56.3864 71.7533 55.4015 72.9405 58.0617C73.633 59.6382 74.2264 60.6235 74.7211 62.2C75.2157 61.6088 76.3046 60.7224 76.8982 60.0326C78.1843 58.7518 77.9863 59.1456 79.4699 58.1605C71.8521 45.2526 89.5618 38.9459 93.9149 48.9963C95.6957 53.1347 94.2112 55.3025 92.7272 58.357C99.6525 61.1159 101.928 72.2507 98.2672 76.8817C94.4085 81.7094 78.9758 80.1335 75.8096 78.8526C75.8097 86.0454 76.2047 93.435 67.103 91.76C63.6398 91.07 52.1642 87.1293 49.7899 87.2278C46.1293 87.425 37.0277 91.0702 32.4768 91.76C23.6719 93.1394 24.1657 85.7499 24.1657 78.8526C20.3075 80.5274 16.2512 79.9358 11.6015 79.9358C6.55597 79.9358 3.68743 79.64 1.5109 76.5855C-1.7538 72.0529 0.323036 61.2146 7.24819 58.357C5.66537 55.1056 4.28038 52.8392 6.25875 48.7011C7.54489 46.0407 10.1178 43.9714 14.0751 43.9714C19.1207 44.0701 25.5512 49.0955 20.6046 58.1605L25.3535 62.2C25.8481 60.4266 26.5407 59.4413 27.2332 57.7665C28.2225 55.2047 26.9362 55.9924 26.6393 53.4308C26.2436 50.3763 29.0138 47.2232 24.9579 44.0702C21.5942 41.5083 20.4071 42.0006 20.8029 35.8915C21.1987 30.0782 24.2655 32.0488 25.9473 29.3884C28.9151 24.6591 25.3536 22.8852 27.0349 19.2399C27.8263 17.6634 31.3879 13.9194 34.0591 14.0175C37.3239 14.116 39.7975 15.889 42.6666 12.3418C45.4367 8.9917 43.953 7.90756 50.2846 8.00608ZM43.9535 49.3903C41.678 48.405 39.3029 49.3909 37.5221 51.066L37.2257 51.3612C34.0598 53.9231 33.8618 53.7264 31.4874 57.1751C30.0034 59.4413 28.7171 62.1015 28.1235 65.4515C27.332 69.2942 26.7385 85.4529 28.519 87.523C30.3988 89.2966 33.0708 88.2125 35.9398 87.4243C38.5118 86.6361 40.5895 86.1441 43.2604 85.4544C45.7337 84.7647 63.5406 80.5272 64.7286 79.0491C66.5093 76.8814 65.1248 73.8276 62.6516 73.2362C60.673 72.8421 49.4946 75.8962 47.7129 76.8817C44.1514 76.8817 29.2125 83.2859 33.6635 76.9805C36.3347 73.2362 31.8835 67.0281 37.8196 68.3091L38.0168 75.6011L55.6274 70.8714C56.9135 70.6743 59.0902 70.3788 60.3763 69.9847C63.5419 68.9994 61.6621 67.6198 63.9374 68.0138C64.7289 68.2109 65.718 70.2802 67.5977 72.7435C68.9828 74.6157 69.2801 77.3743 68.2907 79.6406C66.2132 84.173 61.3654 83.1875 57.0124 85.5521C61.2665 86.636 67.5979 88.9026 71.4563 88.1145C72.9403 85.1585 73.732 67.2254 70.1705 59.9339C68.9834 57.5693 67.0049 54.5149 65.6199 53.8248C64.7295 52.4454 62.058 50.6719 59.8816 49.6866C54.9349 47.3218 53.5498 53.627 43.9535 49.3903ZM88.3739 60.7218C84.6146 61.3129 82.8335 59.7372 80.3602 61.5108C76.799 64.0726 75.1175 68.309 75.9088 72.8412C76.3045 75.1075 76.6014 75.4034 78.2832 75.7975C79.6687 77.0784 91.1438 77.0785 93.6175 76.2903C97.9705 74.9108 96.9814 66.4372 94.2113 64.1708C93.5188 62.2987 91.0451 60.3277 88.3739 60.7218ZM11.3051 60.7218C7.05368 60.131 7.5446 62.0005 7.44649 62.1012C4.5775 63.8748 0.916955 73.0383 5.76403 75.7975C6.15976 76.5858 4.97354 76.389 7.15008 76.389C9.72309 76.7831 20.6037 76.7829 22.3851 75.8963C24.067 74.8124 24.3638 72.6443 24.2649 70.0824C24.1659 68.8017 24.0677 68.0132 23.672 66.8309L21.9896 63.9733C17.6368 58.85 18.8237 61.6085 11.3051 60.7218ZM89.4624 49.2926C86.7913 43.9718 77.3929 50.4743 82.4383 55.9921C83.2297 56.7804 82.6361 56.4851 83.8233 57.0763C89.5613 60.1308 93.9142 51.1649 89.4624 49.2926ZM16.8451 48.6024C15.2623 47.026 12.097 46.8289 10.9095 48.8976C7.1502 50.8682 8.73242 54.9083 11.5024 56.9776C15.4596 58.8496 19.7144 55.9925 18.9232 51.5587C18.6264 49.8836 17.7355 49.1936 16.8451 48.6024ZM52.9555 11.7514C49.7898 11.1602 48.1077 10.8643 46.8216 12.5393C45.1401 13.6233 45.2383 16.0865 40.6877 17.663C35.7414 19.2392 34.4551 15.8896 31.3882 19.1411C28.4206 22.294 32.081 23.3781 30.1024 28.5017C28.8163 32.0488 27.6289 33.1324 24.4632 34.4133L24.2649 39.7345C27.8265 41.4095 27.8266 41.0155 29.5085 44.4642C31.3882 48.504 30.8936 48.7997 30.0032 52.9381C32.9712 50.7704 34.7522 48.1099 39.501 46.3363C38.1159 42.9861 35.8407 41.8035 36.3354 35.8915C36.9291 28.403 43.3594 23.0827 50.7793 23.4768C57.7047 23.7724 63.4433 29.4869 63.7402 36.3842C63.938 41.6065 62.0575 43.0847 60.5735 46.3363L61.8604 46.6315C62.8497 47.8138 62.5528 47.2232 63.641 47.3217C64.3336 48.504 65.7184 49.2923 66.8066 50.0805C68.0927 51.0659 68.8841 52.3469 70.0713 52.9381C68.1916 47.0261 69.7751 42.3949 75.5132 39.7345L75.7105 34.5121C72.7427 33.0342 72.4456 33.4284 70.9616 30.8666C66.4107 22.5898 72.6438 22.0966 67.796 18.4509C65.8174 16.8745 64.2338 18.3525 60.4744 18.0569C59.881 17.7614 59.3862 17.5648 58.6938 17.3677C56.5174 16.481 58.2982 16.8746 56.4185 16.6775L52.9555 11.7514Z" fill="#FEFEFE"/>
</svg>
