<svg width="100" height="100" viewBox="0 0 100 100" fill="none" xmlns="http://www.w3.org/2000/svg">
<path d="M80 76.2896C79.4251 77.0509 70.3699 83.6005 68.7491 84.7396L57.4972 93L48.6299 87.967L74.5656 68.8832L80 76.2896Z" fill="#FEFEFE"/>
<path d="M47.5807 9.54326C48.0575 7.73936 50.2503 5.0818 52.3479 6.31583C53.6828 7.07536 55.1141 11.157 55.9723 12.8661C57.5933 16.284 57.3069 16.9491 57.5929 21.1264C57.879 24.7343 58.2604 26.9186 57.5929 30.4316C57.3068 32.046 56.0672 37.6474 56.3532 38.8816C58.1647 39.641 57.8784 38.1217 58.1644 36.4128L59.5956 28.0581C59.7863 26.4441 59.3095 24.9243 59.5956 23.3102C58.4514 21.5063 59.7858 15.7143 60.4533 13.8154C61.693 10.208 65.9834 9.63884 67.4136 10.873C69.6065 11.6325 67.6055 16.3786 67.1285 18.183L62.3602 37.1725C61.7882 39.1661 62.7415 40.1152 63.7903 38.5012C64.1718 35.7479 65.2213 32.6144 65.8888 29.7661L67.6999 22.4562C68.3671 20.5582 70.654 21.5055 71.037 21.7908C74.6602 21.7908 73.2306 24.7343 72.3724 26.918C71.6096 28.8169 70.8463 30.8111 70.0835 32.805C64.7439 46.8564 68.081 39.7358 65.6972 53.0279C64.1716 61.5728 62.9321 58.63 67.4136 64.7064C68.3672 66.0356 69.7023 68.1242 70.8465 69.2636C70.2744 70.1179 69.7019 70.403 68.8438 70.9727C65.1251 73.7261 58.165 79.1373 54.9231 81.2261C54.2557 81.7957 53.3975 82.4605 52.5395 82.9352C51.6812 81.416 46.7224 76.2888 45.8643 74.6748L47.5807 74.2955L47.3902 72.8714L47.2944 72.9668C42.0503 72.9668 39.4756 73.0615 34.2314 69.5486C26.2218 64.0418 24.9827 58.1547 22.2175 49.135C20.2152 42.3942 18.3078 39.7355 23.7424 38.9759C27.6517 39.3556 29.3687 43.4382 30.8943 46.6662C32.8013 50.464 32.2296 50.1799 34.6134 50.4648C36.1391 50.5598 39.6662 51.1292 41.0013 50.9395C42.3362 49.2305 43.7667 42.5841 43.0039 40.0206C42.9086 39.7358 41.0971 37.0768 40.6203 36.0324C37.5694 30.4312 39.9524 31.5701 35.2806 32.4246C33.6596 32.6145 32.6104 32.425 31.0848 32.52C30.5127 33.6592 29.655 34.9885 28.7969 36.1278C27.0806 38.4064 25.9356 37.7424 24.9821 37.4575C21.931 37.2678 20.6918 38.596 20.0244 37.7415C19.6439 37.1708 23.8378 31.3811 24.3149 30.6212C26.508 27.0133 27.1756 25.1147 30.4176 24.64C43.5759 22.8361 41.669 22.8357 47.2944 32.4246C47.7712 33.8488 49.2015 35.9375 49.4876 32.8993C49.869 29.3867 50.5366 28.2468 50.2505 24.4492C50.0599 21.9807 50.2506 18.468 49.2971 16.5692C48.3436 14.4805 46.8179 12.2966 47.5807 9.54326Z" fill="#FEFEFE"/>
</svg>
