<?xml version="1.0" encoding="UTF-8"?>
<!DOCTYPE svg PUBLIC "-//W3C//DTD SVG 1.1//EN" "http://www.w3.org/Graphics/SVG/1.1/DTD/svg11.dtd">
<!-- Creator: CorelDRAW X7 -->
<svg xmlns="http://www.w3.org/2000/svg" xml:space="preserve" width="88.9553mm" height="20.8769mm" version="1.1" style="shape-rendering:geometricPrecision; text-rendering:geometricPrecision; image-rendering:optimizeQuality; fill-rule:evenodd; clip-rule:evenodd"
viewBox="0 0 3632 852"
 xmlns:xlink="http://www.w3.org/1999/xlink">
 <defs>
  <style type="text/css">
   <![CDATA[
    .fil2 {fill:#FEFEFE}
    .fil1 {fill:#FEFEFE;fill-rule:nonzero}
    .fil0 {fill:#F08519;fill-rule:nonzero}
   ]]>
  </style>
 </defs>
 <g id="Layer_x0020_1">
  <metadata id="CorelCorpID_0Corel-Layer"/>
  <g id="_387703376">
   <polygon class="fil0" points="1771,707 1771,141 1651,141 1651,354 1430,354 1430,141 1311,141 1311,707 1430,707 1430,453 1651,453 1651,707 "/>
   <path class="fil1" d="M2070 548c-1,49 -44,91 -101,91 -35,0 -54,-15 -54,-47 0,-36 21,-54 84,-65 41,-8 60,-14 71,-25l0 46zm111 159l0 -265c0,-106 -46,-166 -179,-166 -135,0 -183,61 -184,148l103 0c5,-38 26,-62 76,-62 44,0 71,16 71,43 0,29 -15,40 -71,48 -112,15 -193,29 -193,150 0,69 44,116 140,116 56,0 101,-20 127,-49 1,13 4,27 7,37l103 0zm430 0l0 -291c0,-91 -59,-140 -139,-140 -68,0 -110,26 -136,73l0 -62 -106 0 0 420 111 0 0 -240c0,-64 28,-97 86,-97 53,0 72,18 72,83l0 254 112 0zm247 -79c-55,0 -94,-52 -94,-127 0,-86 30,-130 95,-130 62,0 93,45 93,137 0,71 -41,120 -94,120zm199 79l0 -573 -109 0 0 208c-32,-44 -72,-66 -125,-66 -108,0 -172,90 -172,217 0,142 76,226 182,226 51,0 90,-20 117,-63l1 51 106 0zm303 -159c0,49 -43,91 -100,91 -35,0 -54,-15 -54,-47 0,-36 20,-54 84,-65 41,-8 60,-14 71,-25l-1 46zm112 159l0 -265c0,-106 -46,-166 -179,-166 -135,0 -183,61 -184,148l103 0c5,-38 25,-62 76,-62 43,0 71,16 71,43 0,29 -16,40 -71,48 -112,15 -193,29 -193,150 0,69 44,116 140,116 56,0 101,-20 127,-49 1,13 4,27 7,37l103 0zm160 0l0 -573 -111 0 0 573 111 0z"/>
  </g>
  <g id="_387703616">
   <path class="fil2" d="M256 550l-48 -41c50,-92 -15,-143 -66,-144 -40,0 -66,21 -79,48 -20,42 -6,65 10,98 -70,29 -91,139 -58,185 22,31 51,34 102,34 47,0 88,6 127,-11 0,70 -5,145 84,131 46,-7 138,-44 175,-46 24,-1 140,39 175,46 92,17 88,-58 88,-131 32,13 188,29 227,-20 37,-47 14,-160 -56,-188 15,-31 30,-53 12,-95 -44,-102 -223,-38 -146,93 -15,10 -13,6 -26,19 -6,7 -17,16 -22,22 -5,-16 -11,-26 -18,-42 -12,-27 -2,-17 4,-42 6,-32 -24,-63 15,-98 30,-27 45,-14 45,-75 -1,-70 -33,-49 -51,-74 -31,-41 0,-62 -10,-98 -5,-18 -44,-57 -65,-60 -32,-4 -52,24 -91,-12 -30,-27 -7,-48 -76,-49 -64,-1 -49,10 -77,44 -29,36 -54,18 -87,17 -27,-1 -63,37 -71,53 -17,37 19,55 -11,103 -17,27 -48,7 -52,66 -4,62 8,57 42,83 41,32 13,64 17,95 3,26 16,18 6,44 -7,17 -14,27 -19,45zm-140 -53c40,19 83,-10 75,-55 -3,-17 -12,-24 -21,-30 -16,-16 -48,-18 -60,3 -38,20 -22,61 6,82zm788 -78c-27,-54 -122,12 -71,68 8,8 2,5 14,11 58,31 102,-60 57,-79zm-846 269c4,8 -8,6 14,6 26,4 136,4 154,-5 17,-11 20,-33 19,-59 -1,-13 -2,-21 -6,-33l-17 -29c-44,-52 -32,-24 -108,-33 -43,-6 -38,13 -39,14 -29,18 -66,111 -17,139zm894 -118c-7,-19 -32,-39 -59,-35 -38,6 -56,-10 -81,8 -36,26 -53,69 -45,115 4,23 7,26 24,30 14,13 130,13 155,5 44,-14 34,-100 6,-123zm-327 -178c10,12 7,6 18,7 7,12 21,20 32,28 13,10 21,23 33,29 -19,-60 -3,-107 55,-134l2 -53c-30,-15 -33,-11 -48,-37 -46,-84 17,-89 -32,-126 -20,-16 -36,-1 -74,-4 -6,-3 -11,-5 -18,-7 -22,-9 -4,-5 -23,-7l-35 -50c-32,-6 -49,-9 -62,8 -17,11 -16,36 -62,52 -50,16 -63,-18 -94,15 -30,32 7,43 -13,95 -13,36 -25,47 -57,60l-2 54c36,17 36,13 53,48 19,41 14,44 5,86 30,-22 48,-49 96,-67 -14,-34 -37,-46 -32,-106 6,-76 71,-130 146,-126 70,3 128,61 131,131 2,53 -17,68 -32,101l13 3zm-337 415c19,18 46,7 75,-1 26,-8 47,-13 74,-20 25,-7 205,-50 217,-65 18,-22 4,-53 -21,-59 -20,-4 -133,27 -151,37 -36,0 -187,65 -142,1 27,-38 -18,-101 42,-88l2 74 178 -48c13,-2 35,-5 48,-9 32,-10 13,-24 36,-20 8,2 18,23 37,48 14,19 17,47 7,70 -21,46 -70,36 -114,60 43,11 107,34 146,26 15,-30 23,-212 -13,-286 -12,-24 -32,-55 -46,-62 -9,-14 -36,-32 -58,-42 -50,-24 -64,40 -161,-3 -23,-10 -47,0 -65,17 -1,1 -2,2 -3,3 -32,26 -34,24 -58,59 -15,23 -28,50 -34,84 -8,39 -14,203 4,224z"/>
   <path class="fil2" d="M619 556l23 -4 -2 -25c-21,-10 -58,-7 -79,-2l-3 28 61 3z"/>
  </g>
 </g>
</svg>
