<?xml version="1.0" encoding="UTF-8"?>
<!DOCTYPE svg PUBLIC "-//W3C//DTD SVG 1.1//EN" "http://www.w3.org/Graphics/SVG/1.1/DTD/svg11.dtd">
<!-- Creator: CorelDRAW X7 -->
<svg xmlns="http://www.w3.org/2000/svg" xml:space="preserve" width="71.9801mm" height="20.6193mm" version="1.1" style="shape-rendering:geometricPrecision; text-rendering:geometricPrecision; image-rendering:optimizeQuality; fill-rule:evenodd; clip-rule:evenodd"
viewBox="0 0 2483 711"
 xmlns:xlink="http://www.w3.org/1999/xlink">
 <defs>
  <style type="text/css">
   <![CDATA[
    .fil2 {fill:#FEFEFE}
    .fil1 {fill:#FEFEFE;fill-rule:nonzero}
    .fil0 {fill:#F08519;fill-rule:nonzero}
   ]]>
  </style>
 </defs>
 <g id="Layer_x0020_1">
  <metadata id="CorelCorpID_0Corel-Layer"/>
  <g id="_386181856">
   <polygon class="fil0" points="1286,514 1286,427 1049,427 1049,35 949,35 949,514 "/>
   <path class="fil1" d="M1382 302c4,-49 35,-78 73,-78 36,0 71,25 72,78l-145 0zm242 59c0,-141 -58,-211 -167,-211 -108,0 -171,70 -171,180 0,128 59,193 177,193 76,0 134,-41 156,-114l-97 0c-6,25 -33,40 -63,40 -46,0 -77,-35 -79,-88l244 0zm203 82c-46,0 -80,-40 -80,-104 0,-72 27,-108 80,-108 53,0 80,37 80,114 0,60 -35,98 -80,98zm77 82c0,47 -40,76 -89,76 -47,0 -78,-25 -78,-67l-88 0c0,91 73,148 172,148 99,0 177,-58 177,-164l0 -359 -94 0 0 44c-22,-36 -55,-53 -100,-53 -85,0 -155,74 -155,184 0,93 41,183 158,183 46,0 84,-19 97,-51l0 59zm350 -146c-1,42 -37,77 -85,77 -30,0 -46,-13 -46,-39 0,-31 18,-46 71,-56 35,-6 51,-11 61,-21l-1 39zm94 135l0 -224c0,-90 -39,-140 -151,-140 -114,0 -154,51 -156,125l87 0c5,-32 22,-53 65,-53 36,0 59,14 59,37 0,24 -13,34 -59,40 -95,13 -163,25 -163,127 0,58 37,97 118,97 47,0 85,-16 107,-41 1,11 3,23 6,32l87 0zm135 0l0 -485 -93 0 0 485 93 0z"/>
  </g>
  <path class="fil2" d="M104 509c33,9 69,-14 100,4 18,10 47,47 62,48 21,2 46,-36 62,-46 32,-20 66,1 104,-5 19,-29 13,-67 30,-89 16,-21 58,-31 72,-48 5,-34 -26,-57 -27,-91 0,-33 33,-59 27,-89 -14,-21 -52,-30 -69,-49 -18,-20 -18,-67 -29,-90 -46,-13 -84,23 -120,-19 -75,-85 -69,11 -130,20 -23,3 -49,-7 -69,-6 -39,3 -20,73 -51,100 -7,7 -34,21 -46,27 -22,11 -25,22 -14,45 26,58 32,49 5,111 -23,51 -4,44 47,75 41,24 20,72 46,102zm-86 142c94,-16 83,-44 111,20 5,13 11,29 19,39l60 -144c-47,-56 -54,6 -129,-29l-61 114zm309 -89l59 149 11 -17c6,-13 23,-58 31,-62 27,-3 61,16 88,19l-58 -116c-29,15 -30,15 -69,10 -47,-6 -34,0 -62,17zm-91 -443c-218,47 -148,369 66,324 80,-17 148,-96 127,-197 -16,-77 -95,-148 -193,-127zm-12 191c-7,-15 -15,-28 -24,-42 -9,-18 -22,-28 -36,-7 -3,15 28,60 36,76 24,43 48,3 65,-14 20,-20 38,-38 58,-59 32,-31 54,-43 47,-69 -28,-11 -38,11 -75,48 -14,13 -57,61 -71,67zm8 -225c-98,17 -186,116 -161,236 20,97 114,180 235,157 143,-27 205,-195 130,-304 -7,-10 -14,-21 -21,-28 -10,-9 -17,-17 -27,-24 -40,-31 -93,-47 -156,-37z"/>
 </g>
</svg>
