<?xml version="1.0" encoding="UTF-8"?>
<!DOCTYPE svg PUBLIC "-//W3C//DTD SVG 1.1//EN" "http://www.w3.org/Graphics/SVG/1.1/DTD/svg11.dtd">
<!-- Creator: CorelDRAW X7 -->
<svg xmlns="http://www.w3.org/2000/svg" xml:space="preserve" width="166.522mm" height="19.2166mm" version="1.1" style="shape-rendering:geometricPrecision; text-rendering:geometricPrecision; image-rendering:optimizeQuality; fill-rule:evenodd; clip-rule:evenodd"
viewBox="0 0 12276 1417"
 xmlns:xlink="http://www.w3.org/1999/xlink">
 <defs>
  <style type="text/css">
   <![CDATA[
    .fil2 {fill:#FEFEFE}
    .fil3 {fill:#FDFDFD}
    .fil1 {fill:#FEFEFE;fill-rule:nonzero}
    .fil0 {fill:#F08519;fill-rule:nonzero}
   ]]>
  </style>
 </defs>
 <g id="Layer_x0020_1">
  <metadata id="CorelCorpID_0Corel-Layer"/>
  <g id="_65415600">
   <polygon class="fil0" points="3385,1057 3385,871 2877,871 2877,34 2663,34 2663,1057 "/>
   <path class="fil1" d="M3899 769c-1,90 -78,165 -181,165 -64,0 -98,-28 -98,-85 0,-64 37,-97 152,-118 74,-14 109,-25 129,-45l-2 83zm202 288l0 -479c0,-191 -83,-299 -323,-299 -244,0 -330,109 -333,267l186 0c9,-68 46,-113 137,-113 79,0 128,29 128,79 0,52 -27,72 -128,86 -202,28 -348,53 -348,271 0,124 80,209 253,209 102,0 182,-36 230,-88 1,23 6,49 12,67l186 0zm571 24c0,100 -67,163 -139,163 -105,0 -157,-55 -157,-145l-187 0c0,196 113,318 335,318 194,0 348,-125 348,-339l0 -779 -200 0 0 463c0,81 -63,141 -154,141 -85,0 -128,-47 -128,-141l0 -463 -201 0 0 492c0,166 119,274 278,274 94,0 177,-40 205,-108l0 124zm750 -312c-1,90 -78,165 -181,165 -64,0 -98,-28 -98,-85 0,-64 37,-97 152,-118 74,-14 109,-25 129,-45l-2 83zm202 288l0 -479c0,-191 -83,-299 -323,-299 -244,0 -330,109 -333,267l186 0c10,-68 47,-113 137,-113 79,0 128,29 128,79 0,52 -27,72 -128,86 -201,28 -348,53 -348,271 0,124 80,209 253,209 102,0 182,-36 230,-88 1,23 6,49 12,67l186 0zm776 0l0 -525c0,-165 -107,-253 -251,-253 -122,0 -199,46 -246,131l0 -111 -191 0 0 758 201 0 0 -434c0,-116 51,-174 155,-174 96,0 130,32 130,149l0 459 202 0zm547 -288c-1,90 -79,165 -182,165 -63,0 -97,-28 -97,-85 0,-64 37,-97 151,-118 74,-14 110,-25 130,-45l-2 83zm202 288l0 -479c0,-191 -83,-299 -324,-299 -243,0 -330,109 -333,267l187 0c9,-68 46,-113 137,-113 79,0 128,29 128,79 0,52 -28,72 -128,86 -202,28 -348,53 -348,271 0,124 80,209 252,209 102,0 182,-36 230,-88 2,23 6,49 12,67l187 0zm775 0l0 -525c0,-165 -106,-253 -251,-253 -122,0 -199,46 -245,131l0 -111 -191 0 0 758 200 0 0 -434c0,-116 51,-174 156,-174 96,0 129,32 129,149l0 459 202 0zm1143 -351c-30,128 -107,200 -233,200 -167,0 -250,-134 -250,-360 0,-224 83,-361 261,-361 101,0 192,69 222,185l214 0c-20,-207 -182,-370 -438,-370 -293,0 -476,211 -476,558 0,351 205,535 473,535 237,0 398,-154 441,-387l-214 0zm451 -102c8,-105 74,-166 154,-166 79,0 153,54 156,166l-310 0zm517 127c0,-301 -124,-452 -356,-452 -233,0 -367,151 -367,385 0,275 126,414 379,414 162,0 287,-88 333,-244l-207 0c-13,52 -71,85 -135,85 -99,0 -164,-74 -170,-188l523 0zm427 175c-111,0 -168,-81 -168,-246 0,-128 74,-218 169,-218 100,0 171,94 171,230 0,156 -55,234 -172,234zm-161 511l0 -458c57,80 131,119 225,119 196,0 312,-162 312,-392 0,-256 -137,-407 -328,-407 -93,0 -164,35 -212,113l-1 -93 -193 0 0 1118 197 0zm1069 -648c-2,90 -79,165 -182,165 -63,0 -97,-28 -97,-85 0,-64 37,-97 151,-118 74,-14 109,-25 129,-45l-1 83zm202 288l0 -479c0,-191 -84,-299 -324,-299 -244,0 -330,109 -333,267l186 0c10,-68 47,-113 138,-113 78,0 128,29 128,79 0,52 -28,72 -128,86 -202,28 -349,53 -349,271 0,124 80,209 253,209 102,0 182,-36 230,-88 1,23 6,49 12,67l187 0zm518 -302c0,94 -37,148 -118,148 -81,0 -115,-55 -115,-151l0 -311 419 0 0 -142 -419 0 0 -205 -197 0 0 678c0,164 87,306 309,306 215,0 307,-144 307,-304l0 -216 -186 0 0 197z"/>
  </g>
  <g id="_65415720">
   <path class="fil2" d="M1600 1235c-176,-88 -415,-165 -420,-522 -5,-380 284,-462 420,-537l-433 22c-23,68 7,23 -23,74 -84,7 -169,5 -254,4 -67,0 -198,-26 -202,52 -3,75 73,59 203,57 79,-1 178,-19 134,75 -41,33 3,16 -67,25 -16,2 -66,0 -85,0 -58,-1 -119,-1 -165,11l-7 83c78,19 124,3 191,13 85,14 85,74 27,95 -99,36 -309,-32 -400,27l-3 67c130,69 389,-67 348,110 -67,13 -154,-13 -171,48 -24,83 85,69 145,68 104,0 393,-40 338,74l-37 19c-4,1 -9,2 -14,3l-252 3c-97,0 -214,-13 -298,15l-3 79 486 39c177,0 368,6 542,-4zm-1587 -454c53,26 122,19 169,0l4 -67c-69,-49 -232,-51 -173,67zm477 -309c52,20 140,19 197,5l6 -85c-88,-21 -232,-48 -203,80zm-257 613c162,107 344,-80 117,-84 -87,-1 -124,-8 -117,84z"/>
   <path class="fil3" d="M1654 322c-537,95 -378,855 120,768 197,-34 359,-214 318,-449 -34,-190 -221,-357 -438,-319zm-30 77c-24,95 -25,271 -2,358 78,20 243,22 320,-1l1 -96 -207 -18 -8 -236 -104 -7z"/>
  </g>
 </g>
</svg>
