<svg width="96" height="96" viewBox="0 0 96 96" fill="none" xmlns="http://www.w3.org/2000/svg">
<path d="M44.559 0H51.0378C58.2058 0 66.4421 2.92924 75.7468 8.78773C81.1228 13.061 85.2582 17.4032 88.1875 21.8487C93.1155 30.8087 95.5967 38.2525 95.5967 44.2488V51.5891C95.2176 57.8612 92.9776 64.9947 88.7733 72.8865C82.7425 82.5702 73.4723 89.5659 60.9972 93.8392C58.0679 94.6318 54.0015 95.2866 48.7633 95.8379C48.4187 95.6656 48.143 95.5622 47.9362 95.5622L47.3848 95.8379C38.4248 95.0453 31.9804 93.4945 28.0863 91.289C16.7828 85.9474 8.75327 77.7456 3.96309 66.6489C1.34401 60.8593 0 54.6218 0 47.9017C0 30.3952 8.13296 16.4038 24.3989 5.96187C32.4629 1.99878 39.1829 0 44.559 0ZM29.8094 41.9743V44.2488C29.8094 50.5898 34.5306 59.0329 43.9731 69.4748C46.6956 71.6114 48.5565 72.7486 49.6593 72.8865C54.3116 71.6458 59.8944 65.4772 66.3732 54.415C68.4754 49.6937 69.5092 45.834 69.5092 42.8014C69.5092 36.874 66.7523 31.4635 61.2729 26.6389C57.5166 23.9853 53.9325 22.6758 50.4864 22.6758H48.2119C44.6279 23.0549 40.8371 24.5712 36.874 27.2592C32.1527 32.3595 29.8094 37.2531 29.8094 41.9743ZM49.935 30.6364C55.2076 30.6364 58.9639 33.738 61.2729 39.9756C61.4452 41.2506 61.5486 42.3189 61.5486 43.0771C61.5486 47.626 58.9984 51.2101 53.8981 53.8636C52.6919 54.2427 51.8304 54.415 51.3479 54.415H48.2119C44.5934 54.415 41.2851 51.9682 38.3214 47.0747L37.4254 42.8014C38.1835 38.666 38.9417 36.5638 39.6999 36.5638C40.8026 38.8383 42.1122 39.9756 43.6974 39.9756H44.8002C47.626 39.2519 49.039 37.8734 49.039 35.7368V34.8752C49.039 34.0481 48.3842 32.842 47.1091 31.1878C47.4193 30.9811 48.3497 30.7743 49.935 30.6364Z" fill="#F58634"/>
</svg>
