<svg width="100" height="100" viewBox="0 0 100 100" fill="none" xmlns="http://www.w3.org/2000/svg">
<path d="M69.2803 34.3477C69.6361 34.3683 69.9844 34.4593 70.3037 34.6162C70.623 34.7731 70.9069 34.9926 71.1387 35.2607C71.3704 35.5287 71.5449 35.8403 71.6523 36.1768C71.7597 36.5133 71.7978 36.8684 71.7637 37.2197C71.7295 37.5711 71.6244 37.9125 71.4541 38.2227C71.2838 38.5327 71.0516 38.8051 70.7725 39.0244L52.5674 54.4863C51.9906 54.9724 51.2573 55.2388 50.5 55.2373C49.7431 55.2396 49.0098 54.9734 48.4326 54.4883L30.2275 39.0273C29.9631 38.8033 29.7457 38.5299 29.5879 38.2227C29.4301 37.9154 29.3347 37.58 29.3076 37.2363C29.2806 36.8928 29.322 36.5473 29.4297 36.2197C29.5374 35.892 29.7094 35.5881 29.9355 35.3262C30.1617 35.0642 30.4379 34.8487 30.748 34.6924C31.0582 34.5361 31.3972 34.4419 31.7441 34.415C32.0909 34.3883 32.4397 34.4295 32.7705 34.5361C33.1014 34.6429 33.4084 34.813 33.6729 35.0371L50.5 49.3281L67.3271 35.04C67.5888 34.8005 67.897 34.6161 68.2324 34.4971C68.5679 34.3781 68.9245 34.3271 69.2803 34.3477Z" fill="#F58634"/>
<path fill-rule="evenodd" clip-rule="evenodd" d="M50 0C77.6142 0 100 22.3858 100 50C100 77.6142 77.6142 100 50 100C22.3858 100 0 77.6142 0 50C0 22.3858 22.3858 0 50 0ZM27.1797 29C25.4308 29.0002 24 30.418 24 32.1504V64.7002C24.0001 68.1651 26.8624 71 30.3604 71H70.6396C74.1376 71 76.9999 68.1651 77 64.7002V32.1504C77 30.418 75.5692 29.0002 73.8203 29H27.1797Z" fill="#F58634"/>
</svg>
