<svg width="100" height="100" viewBox="0 0 100 100" fill="none" xmlns="http://www.w3.org/2000/svg">
<path d="M45.7715 37.1816C45.9188 37.1821 46.0626 37.2273 46.1836 37.3115C46.3046 37.3958 46.3976 37.5152 46.4492 37.6533L48.2266 42.415C48.2727 42.5384 48.2847 42.6723 48.2607 42.8018L47.3604 47.6758C48.4801 50.3725 50.348 52.1625 53.4316 53.7588L58.2129 52.8252C58.3472 52.7984 58.4864 52.8095 58.6143 52.8584L63.3545 54.6797C63.4911 54.7324 63.6085 54.8256 63.6914 54.9463C63.7743 55.0672 63.8194 55.2108 63.8193 55.3574V59.7686C63.8193 61.6477 62.177 63.171 60.252 62.748C56.5346 61.933 49.6676 59.8651 44.8691 55.0303C40.279 50.4059 38.7363 44.0062 38.2139 40.5332C37.9384 38.6807 39.4109 37.1816 41.1885 37.1816H45.7715Z" fill="#F58634"/>
<path fill-rule="evenodd" clip-rule="evenodd" d="M50 0C77.6142 0 100 22.3858 100 50C100 77.6142 77.6142 100 50 100C22.3858 100 0 77.6142 0 50C0 22.3858 22.3858 0 50 0ZM51.001 24C36.642 24 25.001 35.6407 25.001 50C24.995 53.4 25.659 56.7679 26.9551 59.9111L25.0205 72.7061C24.9777 72.9891 25.0024 73.2782 25.0928 73.5498C25.1833 73.8216 25.337 74.0685 25.541 74.2695C25.745 74.4705 25.9936 74.6206 26.2666 74.707C26.5397 74.7934 26.8298 74.8137 27.1123 74.7666L38.5762 72.8438C42.2693 74.856 46.5025 76 51.001 76C65.3597 75.9998 77 64.3591 77 50C77 35.6409 65.3597 24.0002 51.001 24Z" fill="#F58634"/>
</svg>
