<svg width="109" height="112" viewBox="0 0 109 112" fill="none" xmlns="http://www.w3.org/2000/svg">
<path fill-rule="evenodd" clip-rule="evenodd" d="M61.0923 0H53.2158C51.6809 0.646272 49.0151 0.585684 47.1166 0.888624C45.2182 1.19156 43.5218 1.59548 41.7243 2.10038C38.2102 3.06979 34.999 4.30175 31.8889 5.75586C24.7799 9.0882 21.0436 10.9058 15.207 16.0154C-0.566102 29.8093 -3.93883 56.2862 4.4829 77.1083C6.4823 82.0563 8.72406 86.0349 11.8746 90.0539L14.904 93.6488C23.4873 103.787 37.1196 109.967 51.1155 111.341C65.8181 112.754 81.3489 108.19 91.1237 98.0516C99.8686 88.9634 105.968 73.9981 107.563 60.5678C110.694 34.4746 97.7076 9.26996 72.604 2.12058C68.9283 1.07039 61.5972 0.222156 61.0923 0Z" fill="#E55C06"/>
<path d="M47.7029 72.531C50.0658 72.1674 50.3683 74.6104 47.864 75.0144C46.7737 75.1758 45.8652 74.9945 45.8044 73.9245C45.7438 72.7935 46.6931 72.6925 47.7029 72.531Z" fill="#FEFEFE"/>
<path d="M53.5193 71.8845C54.428 71.6825 57.4364 71.763 58.487 71.864C60.9507 72.0861 60.3659 74.1057 59.1745 74.3483C58.6495 74.4493 55.0144 74.3077 54.1052 74.3278C51.9039 74.3278 51.944 72.248 53.5193 71.8845Z" fill="#FEFEFE"/>
<path d="M52.9138 66.613C54.3476 66.4918 55.7616 66.431 57.2156 66.4714C58.5686 66.5319 60.2243 66.4316 60.1638 67.8854C60.1032 69.5011 58.0433 69.0164 56.7507 68.9558C55.3572 68.8952 53.9636 68.9967 52.5701 69.1179C51.217 69.2188 49.8639 69.3801 48.531 69.6022C47.5414 69.7436 45.6231 70.0869 45.8249 68.4108C45.9461 67.1789 47.6018 67.2192 48.8943 67.0173C50.2474 66.8355 51.5405 66.714 52.9138 66.613Z" fill="#FEFEFE"/>
<path d="M50.7722 61.5036C51.5193 61.4228 52.5696 61.1806 53.115 61.6042C53.6603 62.0081 53.7007 63.0186 53.115 63.4831C52.5686 63.9474 49.4999 64.1494 48.5105 64.2907C47.6624 64.4321 46.7739 64.6947 46.1882 64.1901C45.6429 63.7054 45.7036 62.8164 46.1277 62.3923C46.6729 61.8067 49.6813 61.6248 50.7722 61.5036Z" fill="#FEFEFE"/>
<path d="M57.1345 61.403C57.7403 61.1002 59.1332 61.1602 59.699 61.5436C60.4058 62.0082 60.2645 63.2407 59.5779 63.6042C58.8912 63.9473 57.4176 63.806 56.8923 63.4226C56.5086 63.1196 55.8824 61.9887 57.1345 61.403Z" fill="#FEFEFE"/>
<path d="M79.7947 72.571C80.4409 72.349 81.7327 72.4903 82.2781 72.9343C82.9243 73.4392 82.8438 74.6919 81.9753 74.9948C81.4699 75.1765 78.7034 75.1758 78.9861 73.3786C79.1073 72.6316 79.3504 72.7325 79.7947 72.571Z" fill="#FEFEFE"/>
<path d="M69.9587 71.8845C71.1503 71.7633 73.857 71.662 74.988 71.864C76.5023 72.1469 76.5628 74.267 74.6042 74.3278C73.736 74.348 72.8472 74.227 71.9587 74.2673C71.2923 74.2875 70.0998 74.4294 69.4939 74.3688C68.1007 74.1867 67.576 72.0865 69.9587 71.8845Z" fill="#FEFEFE"/>
<path d="M70.0398 66.5524C72.1001 66.3707 80.8042 66.7547 82.1169 67.5222C83.2477 68.1684 82.8237 69.8842 81.1277 69.7634C78.4013 69.5614 75.9775 69.0164 73.029 68.9558C72.0193 68.9356 69.5555 69.299 68.8484 68.8347C68.505 68.5923 67.4143 66.7948 70.0398 66.5524Z" fill="#FEFEFE"/>
<path d="M75.6745 61.5036C76.241 61.2009 81.9144 61.7259 82.4802 62.5134C82.985 63.1999 82.6624 64.1293 82.0769 64.3718C81.7336 64.5131 75.8559 64.0888 75.2703 63.3415C74.6644 62.5943 75.0081 61.8873 75.6745 61.5036Z" fill="#FEFEFE"/>
<path d="M69.4538 61.322C72.7457 60.6151 72.6247 63.2604 71.1101 63.6442C67.6971 64.4521 67.7575 61.6654 69.4538 61.322Z" fill="#FEFEFE"/>
<path d="M70.7263 55.9089C73.372 55.7271 76.3007 55.99 78.906 56.3132C79.9159 56.4343 82.0161 56.4749 82.5007 57.2019C83.4094 58.5952 82.0969 59.3017 80.6228 59.0798C77.9569 58.6759 75.1894 58.3125 72.4226 58.3327C71.1907 58.353 69.0096 58.8781 68.5046 57.8483C67.6766 56.1519 69.5549 55.9695 70.7263 55.9089Z" fill="#FEFEFE"/>
<path d="M34.2927 58.3727C34.2931 57.9694 34.7369 58.0502 34.7371 58.3327C34.7371 58.7568 34.2927 58.6959 34.2927 58.3727Z" fill="#FEFEFE"/>
<path d="M32.6169 58.0905C32.7583 58.0906 32.9596 58.131 32.9597 58.2722V58.3727C32.9597 58.5746 32.8186 58.6159 32.6169 58.6159V58.0905Z" fill="#FEFEFE"/>
<path d="M42.2302 58.3727H42.1492L42.1892 58.2321C42.2093 58.3126 42.2101 58.3125 42.2302 58.3727Z" fill="#FEFEFE"/>
<path d="M33.5662 55.3034C33.6269 55.3647 33.8075 55.7677 33.8279 55.8688C33.7266 55.8689 33.4047 55.9092 33.3035 55.9294C33.3641 55.7275 33.5056 55.5053 33.5662 55.3034Z" fill="#FEFEFE"/>
<path d="M38.9783 55.3034C39.0589 55.3639 39.0991 55.4649 39.1394 55.5456C39.1798 55.6667 39.2403 55.7679 39.2605 55.8688C39.1398 55.8689 39.1393 55.8894 39.0183 55.8894C38.8571 55.8894 38.8569 55.8891 38.7361 55.9294C38.7563 55.8284 38.8168 55.7071 38.8572 55.6061C38.9177 55.4851 38.9581 55.4245 38.9783 55.3034Z" fill="#FEFEFE"/>
<path fill-rule="evenodd" clip-rule="evenodd" d="M22.5788 37.612C26.7998 31.9773 33.7881 29.4527 40.6345 31.1491C41.7047 31.4116 42.8557 31.8357 43.8249 32.28C45.0367 32.8253 48.0461 34.906 48.7732 35.8552C49.1971 36.38 49.44 36.5614 49.8035 37.0056C52.2471 40.0349 53.6608 44.054 53.6609 48.194C53.6609 48.7595 53.519 48.5782 53.4988 49.2849C54.5894 49.2849 55.014 49.1433 56.1247 49.1433C58.3059 49.1433 60.5678 49.4062 62.5066 50.0524C65.435 51.0016 63.1125 51.042 65.7986 50.113C71.514 48.1944 79.3101 49.5474 84.9851 50.6784C87.7112 51.2236 88.0749 51.1029 88.0749 53.1628H89.488C91.669 53.1628 93.3657 55.0003 93.366 56.737V85.2741C93.366 87.031 91.5487 88.849 89.7917 88.8493H38.7556C37.0593 88.849 35.202 87.1929 35.2019 85.113V64.9567C33.3035 64.9567 30.0316 63.9068 28.739 63.1999C27.1638 62.3517 25.3056 61.0594 24.0535 59.8073C23.6697 59.4034 23.4479 59.0595 23.0642 58.6354C20.3781 55.5657 19.2263 51.3449 19.2263 47.2653C19.2263 44.6399 20.1148 42.1354 20.9226 40.2976C21.3063 39.4494 22.0336 38.3592 22.5788 37.612ZM37.6658 64.9372V67.6433L37.6453 84.0427C37.6453 86.6072 38.6148 86.3444 40.9372 86.3444H63.0115C63.0317 83.4769 63.8999 83.0731 59.0329 82.3864C54.9333 81.8008 48.592 82.7502 44.6335 83.5378C43.2602 83.8205 41.0782 84.7089 40.5935 83.2751C40.3714 82.6289 40.4929 68.6551 40.4929 67.28V64.4929L37.6658 64.9372ZM63.0115 53.0212C61.2342 51.8296 55.3365 51.3447 53.1755 51.8698C52.8322 52.4555 52.6708 53.3648 52.3679 54.0515C52.0852 54.7179 51.7014 55.3847 51.4792 56.0915C53.0747 55.9905 58.1646 55.5866 59.4167 56.0915C60.507 56.536 60.4863 58.3326 58.9314 58.4538C57.74 58.5345 56.1853 58.3327 54.8122 58.3933C53.4592 58.4538 52.2874 58.5546 50.9343 58.696C48.6926 58.9181 49.4191 59.1201 48.1872 60.2712C45.6224 62.6745 44.7949 62.4533 42.9773 63.6852V81.2751C46.6529 81.0933 50.4704 79.3572 58.1042 79.8015C60.0832 79.9025 61.2347 80.326 63.032 80.7097L63.0115 53.0212ZM85.5701 53.3845C80.743 52.1121 69.5949 50.5772 65.5154 53.0612V80.6901C66.3838 80.6093 67.5355 80.0431 70.0398 79.821C76.9667 79.2152 83.0252 81.215 85.5701 81.2556V53.3845ZM34.5349 57.8483C34.3938 57.8484 34.2729 57.8885 34.1921 57.9489C34.1114 58.0095 34.0096 58.151 34.0095 58.2722C34.0095 58.5751 34.0909 58.8981 34.4949 58.8981C34.7574 58.898 35.0203 58.6961 35.0203 58.4538C35.0202 58.1509 34.9387 57.8483 34.5349 57.8483ZM39.8669 57.9294C39.463 57.7274 39.1999 57.9693 39.1999 58.0905C39.1999 58.2319 39.1801 58.3128 39.3415 58.4138C39.3819 58.4339 39.5436 58.4941 39.6042 58.5144V58.6159C39.3821 58.6159 39.4022 58.6358 39.2204 58.5349C39.2003 58.6156 39.1798 58.7165 39.1394 58.777C39.7655 59.1204 40.1087 58.5546 39.7654 58.3122C39.7044 58.2718 39.5432 58.2112 39.4626 58.1911V58.111C39.6646 58.111 39.6647 58.0908 39.7859 58.1716C39.8262 58.091 39.8667 57.99 39.8669 57.9294ZM37.6658 58.777C37.6658 58.9184 37.8677 58.8581 38.2312 58.8581C38.3319 58.858 38.3113 58.7767 38.3113 58.5749H37.8669V58.4343H38.3113V58.1911H37.8669V58.0905H38.3113V57.8483H37.6658V58.777ZM32.4343 57.8483C32.3538 57.8684 32.2938 57.8483 32.2937 57.9489V58.777C32.2937 58.8982 32.3944 58.8581 32.657 58.8581C33.4445 58.858 33.4845 57.6868 32.4343 57.8483ZM42.1081 57.8483C42.0274 57.8496 41.9264 58.2121 41.866 58.3532C41.7851 58.5955 41.624 58.8581 41.7654 58.8581C41.947 58.8581 41.9873 58.9182 42.0681 58.5749H42.3103C42.4517 58.8576 42.311 58.8581 42.6746 58.8581C42.6746 58.7572 42.6339 58.6762 42.5935 58.5954L42.4119 58.07C42.3109 57.8278 42.3505 57.8483 42.1081 57.8483ZM29.405 58.8581H29.6072C29.6678 58.8581 29.6882 58.8376 29.6882 58.777V57.8483H29.405V58.8581ZM30.5359 58.777C30.5359 58.878 30.5968 58.8581 30.738 58.8581C30.8794 58.8581 30.8191 58.6157 30.8191 58.3532C31.0008 58.4745 31.082 58.8581 31.2839 58.8581C31.546 58.8582 31.4851 58.9583 31.4851 57.8483H31.1824V58.2927C31.0209 58.2521 30.8996 57.8483 30.738 57.8483H30.5359V58.777ZM35.8884 57.8483V58.777C35.8884 58.878 35.9492 58.8581 36.0906 58.8581C36.2314 58.8577 36.1707 58.6558 36.1706 58.4138C36.2311 58.4541 36.3118 58.5747 36.3523 58.6354C36.5139 58.8576 36.4338 58.8581 36.656 58.8581C36.7163 58.858 36.7361 58.8375 36.7361 58.777V57.8483H36.4538V58.2722C36.4337 58.252 36.433 58.2523 36.4128 58.2321L36.2722 58.0505C36.0905 57.8082 36.1911 57.8483 35.8884 57.8483ZM40.6951 58.777C40.6951 58.8376 40.6953 58.8581 40.7761 58.8581H40.9773V57.8483H40.6951V58.777ZM40.6345 54.1931C40.6549 54.3542 40.816 54.3948 40.8162 54.5964V56.4948C40.8162 56.7571 40.6751 56.7374 40.6345 56.9186H42.3913C42.5327 56.9187 42.4925 56.9398 42.5935 56.9802C42.6137 56.859 42.6537 56.6765 42.6941 56.5554C42.7143 56.4342 42.755 56.2321 42.7751 56.111C42.5935 56.1514 42.6336 56.3335 42.3513 56.3337H41.4421V54.6774C41.4421 54.4151 41.6235 54.3946 41.6238 54.1931H40.6345ZM35.2214 54.1931C35.2821 54.3745 35.4236 54.3545 35.4236 54.6169V56.4948C35.4236 56.7572 35.2821 56.7372 35.2214 56.9186C35.4436 56.9186 36.9792 56.8988 37.1003 56.9392C37.1606 56.9594 37.1609 57.0198 37.2214 56.9392L37.3621 56.111C37.2009 56.1516 37.2008 56.3336 37.0193 56.3337H36.0496C36.0496 55.9299 35.9891 54.6582 36.1101 54.4352C36.1908 54.2939 36.1307 54.4349 36.2517 54.1931H35.2214ZM33.1013 54.1931C33.1216 54.2937 33.2018 54.3139 33.2019 54.3542C33.2019 54.4754 33.1417 54.597 33.1013 54.6979L32.3542 56.6765C32.2735 56.8984 32.1925 56.7578 32.1521 56.9186C32.253 56.9792 32.7772 56.9392 32.9392 56.9392C33.0804 56.9392 32.96 56.8587 32.9597 56.778C32.9597 56.6972 33.0811 56.5349 33.1013 56.4138C33.3031 56.4137 33.4242 56.3738 33.5857 56.3737C33.7876 56.3737 33.8893 56.3532 34.071 56.3532C34.0912 56.555 34.2323 56.7171 34.1921 56.8181C34.1517 56.919 34.0707 56.8786 34.1716 56.9392C34.212 56.9594 34.8991 56.9392 35.0203 56.9392C35.0001 56.7777 34.9588 56.9191 34.8376 56.6364L33.9695 54.5563C33.9291 54.4352 33.8884 54.3142 33.8279 54.1931H33.1013ZM39.3415 54.3747C39.2406 54.1324 39.3619 54.193 38.615 54.1931C38.4332 54.1931 38.6345 54.2939 38.6345 54.3747C38.6337 54.5178 38.0094 56.0896 37.9079 56.3532C37.8676 56.4743 37.8272 56.5555 37.7869 56.6765C37.7061 56.9186 37.6251 56.7578 37.5847 56.9186C37.6857 56.9792 38.2112 56.9392 38.3728 56.9392C38.5335 56.9391 38.3525 56.8989 38.4128 56.7175C38.4532 56.6165 38.514 56.4945 38.5544 56.4138L39.5037 56.3532C39.5238 56.434 39.5433 56.5559 39.5837 56.6569C39.6644 56.9191 39.6039 56.7576 39.5837 56.9392C40.7548 56.9392 40.4732 56.9795 40.3318 56.7575L39.9675 55.8894C39.8464 55.5866 39.7254 55.3038 39.6042 55.0212L39.3415 54.3747ZM29.3249 54.1931C29.3252 54.3543 29.5066 54.3751 29.5066 54.6979V56.4138C29.5066 56.6763 29.3249 56.6972 29.3249 56.8991H30.3142C30.294 56.7375 30.1326 56.6968 30.1326 56.4343C30.1325 55.768 30.0114 55.8887 30.5769 55.8483C30.7585 55.8281 30.9604 55.7878 31.1218 55.7878C31.1218 56.0301 31.1622 56.4547 31.0613 56.6364C31.0007 56.7777 30.9402 56.7174 30.9402 56.8991H31.9294C31.9294 56.7375 31.7478 56.717 31.7478 56.4343V54.5964C31.7479 54.4149 31.909 54.3542 31.9294 54.1931H30.9402C30.9403 54.3137 31.0004 54.2939 31.0408 54.4147C31.1619 54.5964 31.1218 54.8993 31.1218 55.1618C31.1218 55.283 30.94 55.2627 30.6775 55.2829C30.4958 55.2829 30.3344 55.3239 30.1326 55.3239C30.1326 55.0412 30.0921 54.5962 30.1931 54.3942C30.2736 54.2937 30.294 54.3338 30.3142 54.1931H29.3249ZM36.7361 36.5817C36.6555 36.6827 36.696 36.8649 36.696 37.1071V42.1765C36.696 42.9639 36.656 43.5495 36.656 44.3571V51.7087C36.656 51.8297 36.6352 51.8096 36.4939 51.8298L35.6658 51.8503H32.2126C31.9703 51.8503 32.0304 51.2843 31.99 51.1227H31.0818C31.0818 51.5873 31.021 51.9509 31.324 52.3347C31.4451 52.4961 31.6873 52.6783 31.99 52.6784H40.3318C40.6142 52.6782 40.8766 52.4359 40.9978 52.2341C41.1796 51.9513 41.1593 51.6881 41.1189 51.3044V50.4968C41.1189 50.3756 41.0586 49.9311 41.1394 49.7292C41.1805 49.6681 41.5434 49.3658 41.7048 49.1843C42.3107 48.4774 42.8151 47.3867 42.8152 46.3972V46.3767C42.8152 45.2257 42.5933 44.5391 42.1492 43.6306C41.6039 42.5602 40.2098 40.439 39.5232 39.2878L38.9177 38.3386C38.8572 38.2377 38.8165 38.1771 38.7761 38.0964C38.7358 38.0561 38.7152 38.0358 38.6951 37.9753L38.615 37.8542V49.9714H39.5232V41.0046C39.6444 41.1056 40.1501 41.9537 40.2712 42.1354C40.3924 42.3374 40.4928 42.5198 40.614 42.7419C40.6745 42.8428 40.7156 42.9232 40.7761 43.0241L41.281 43.9528C41.6445 44.599 41.8864 45.3668 41.8865 46.1745C41.8865 46.4975 41.8464 46.7402 41.7859 47.0026C41.7657 47.1238 41.7247 47.2659 41.6843 47.3669C41.5832 47.6697 41.3406 48.0127 41.1589 48.2751C40.9771 48.5578 40.4322 49.103 40.3513 49.3454C40.2705 49.5676 40.3113 50.8605 40.3113 51.2038C40.3113 51.5471 40.3515 51.8093 39.988 51.8093H37.6052V36.6628C37.6052 36.5215 37.2821 36.1376 37.2214 35.9558L36.7361 36.5817ZM35.8884 34.7233C35.7672 34.7435 35.6658 34.8655 35.5447 35.027C35.4438 35.1683 35.3428 35.2894 35.2419 35.4509C35.0602 35.7336 34.8989 35.9963 34.697 36.279L34.1511 37.1071C33.7069 37.7735 33.2021 38.5817 32.7781 39.2077C32.7177 39.2882 32.697 39.3285 32.697 39.4694L32.7175 42.5798V49.0827C31.6875 49.0827 31.7886 49.2241 31.2029 48.6384C31.1222 48.5577 31.0414 48.457 30.9607 48.3561C30.1933 47.3464 30.1525 45.9327 30.6169 44.7614L31.0007 43.7712C31.1219 43.5087 31.3841 42.9844 31.5456 42.7419C31.586 42.6813 31.6068 42.6404 31.6472 42.5798C31.9904 42.0348 31.9294 42.3778 31.9294 41.5095V40.5808C31.8692 40.601 31.8688 40.6414 31.8083 40.7019C31.768 40.7623 31.7481 40.7829 31.7078 40.8435C31.3241 41.4089 30.8792 42.0345 30.5359 42.6403C29.9704 43.6501 29.4255 44.8221 29.4255 46.0339C29.4255 46.9423 29.4258 47.3461 29.7488 48.1335C29.8497 48.3758 29.9508 48.5783 30.072 48.8005C30.1326 48.9014 30.1934 48.9818 30.2742 49.0827C30.3549 49.1837 30.4151 49.2249 30.4958 49.3259C30.6575 49.5278 31.1019 49.83 31.324 49.9714C31.6471 50.133 31.8495 50.0319 32.1726 50.0319H33.1413C33.3433 50.0319 33.4244 50.0124 33.6062 50.0124V39.6315C33.6062 39.4903 34.2509 38.6233 34.3328 38.5007L36.2117 35.6726C36.2928 35.551 36.5548 35.208 36.5749 35.1071C36.5143 35.0063 36.4132 34.946 36.3122 34.8854C36.1911 34.7845 36.0903 34.7435 36.0095 34.7233H35.8884ZM35.5046 38.5808C35.3633 38.7422 34.5562 39.9533 34.5554 39.9948V50.0319H35.5046V38.5808Z" fill="#FEFEFE"/>
<path d="M24.3357 27.2712C32.7978 22.404 43.4821 22.9291 51.197 29.1091C53.0752 30.6036 55.5592 33.2496 56.7507 35.3298C57.0334 35.8346 57.276 36.2989 57.5788 36.8239C58.0434 37.652 58.7092 39.167 58.9314 40.1364C59.5373 39.6921 59.1341 39.4289 59.8005 39.1462C60.3054 38.9243 60.9918 39.0461 61.2947 39.3288C62.2638 40.157 60.7895 43.2467 60.2644 44.8825C60.0827 45.4276 60.0429 45.8319 59.6794 46.155C59.3765 46.4175 58.952 46.619 58.3865 46.4372C58.023 46.316 57.579 45.8514 57.3367 45.6091L54.4685 43.0446C52.6713 41.308 54.5488 40.1568 55.5788 40.6813C55.9626 40.8631 55.8625 40.9845 56.5896 41.3884C56.529 40.5604 55.6202 38.5814 55.2566 37.9147C54.6507 36.8444 54.1451 36.057 53.4382 35.0876C50.6311 31.3515 46.7135 28.6654 42.2302 27.3727C34.4548 25.131 26.5981 27.5944 21.2058 32.9665C16.9044 37.2275 16.904 41.1252 15.4704 41.3884C13.3903 41.7519 14.0161 39.611 14.3796 38.7224C16.2982 34.0169 20.1149 29.7149 24.3357 27.2712Z" fill="#FEFEFE"/>
</svg>
