<svg width="109" height="112" viewBox="0 0 109 112" fill="none" xmlns="http://www.w3.org/2000/svg">
<path fill-rule="evenodd" clip-rule="evenodd" d="M61.1047 0H53.2226C51.6674 0.636225 49.0164 0.565533 47.1077 0.883646C45.1991 1.20176 43.5025 1.59056 41.7352 2.0854C38.2006 3.07509 34.9841 4.31219 31.8737 5.76137C24.7692 9.08388 21.0225 10.9219 15.1905 16.0117C-0.573775 29.7965 -3.93163 56.3059 4.48068 77.1246C6.46004 82.073 8.72218 86.0317 11.868 90.0612L14.9077 93.6664C23.4614 103.775 37.1049 109.961 51.1018 111.339C65.8057 112.753 81.3579 108.194 91.1133 98.0493C99.8791 88.9654 105.959 73.9788 107.549 60.5827C110.695 34.4622 97.6876 9.26061 72.5921 2.12075C68.9161 1.06037 61.5995 0.212075 61.1047 0Z" fill="#E55C06"/>
<path d="M43.4814 65.5312C51.2574 65.4959 61.296 65.3553 68.7187 65.5674L68.6825 68.6416L58.2909 68.7129L58.2558 88.1884L53.9433 88.1533L53.8378 68.748L43.4814 68.6416V65.5312Z" fill="#FFFDFC"/>
<path d="M87.911 55.5283C88.4766 56.6947 87.6634 60.4772 87.5927 61.997C87.4867 64.2591 87.5929 66.5922 87.5575 68.8896C87.4515 75.0395 86.9916 77.0188 81.9726 77.3369L81.9374 86.1738C82.8566 86.1737 86.1785 85.8202 85.1894 87.5517C84.6238 88.4707 82.0429 88.0468 80.9472 88.0468C79.71 88.0469 76.9892 88.506 76.6357 87.3398C76.1408 85.7493 78.7564 86.2084 79.9228 86.1377L79.8876 77.3369C77.8378 77.3369 75.2222 78.5029 74.0556 78.0439C74.1263 76.418 75.3631 76.4882 77.0243 76.1347C78.6147 75.8167 79.7105 75.7461 81.4423 75.7461C86.6028 75.7461 86.0732 73.7313 86.0732 66.8388L86.6025 57.1894C86.7438 56.1292 86.7094 55.4223 87.911 55.5283Z" fill="#FFFDFC"/>
<path d="M24.0058 56.165C24.2532 54.8572 25.2074 55.317 25.4901 56.6601C25.6668 57.5083 25.7378 58.745 25.8085 59.6992C26.0206 61.8553 26.0556 64.0472 26.0556 66.3447C26.0556 73.131 25.4902 75.7461 30.58 75.7461C32.2059 75.7461 39.3456 76.1005 37.8964 77.9384C37.791 78.0449 37.9304 78.3975 36.6239 78.1504C35.2103 77.8676 34.5387 77.2661 32.1708 77.372L32.206 86.1025C33.8672 86.3146 34.539 85.8204 35.6347 86.7041L35.4579 87.8349C32.2768 88.1884 30.1558 88.1886 26.9394 87.7998L26.8329 86.7392C27.9286 85.8203 28.5652 86.35 30.2616 86.0674L30.2265 77.372C26.0912 76.8065 24.8538 76.7008 24.6064 69.3847C24.5003 67.0873 24.6065 64.7894 24.5712 62.5273C24.5359 61.5023 23.9351 56.4127 24.0058 56.165Z" fill="#FFFDFC"/>
<path d="M75.9638 52.4531C81.4424 51.1806 81.6898 57.084 81.9726 59.9824C82.2554 62.8809 83.7753 70.0559 82.5028 72.2119C80.5942 75.4281 78.0847 73.3431 72.995 76.206C65.1837 80.6242 65.9966 86.7036 63.5224 87.3398C61.5785 87.7992 60.2351 86.1381 60.871 84.1943C62.8857 78.0796 68.6475 72.5656 74.0907 70.1621L73.0302 61.1836C71.6517 62.1379 71.8993 63.1984 69.5312 63.3398C68.2588 63.4105 65.0077 63.4809 63.9823 63.1982C62.3918 62.7034 62.3562 60.2647 63.8407 59.6992C64.7247 59.3459 68.1176 59.5226 69.3192 59.4873C69.9555 58.3209 71.5106 56.978 72.4296 55.7763C73.596 54.1505 73.5959 52.9833 75.9638 52.4531Z" fill="#FFFDFC"/>
<path d="M33.372 52.5947C37.8608 50.9688 38.7801 55.1047 42.2792 58.7099C44.1879 60.6893 46.874 58.569 48.6767 59.9121C49.4189 60.4776 49.7019 61.7501 48.995 62.6338C48.3234 63.517 46.9451 63.3047 45.8495 63.3047C39.0985 63.3047 41.8553 63.0928 39.1337 61.2549L38.1435 70.1972C45.5307 72.8482 53.6959 84.4422 50.8329 86.8457C50.0199 87.517 48.712 87.5877 47.9345 86.8808C46.9448 86.0325 46.2377 82.5686 43.5868 79.7763C41.3601 77.3729 38.3914 74.8982 33.6552 74.4033C27.8231 73.8024 29.0248 69.3138 29.661 64.1533C30.2266 59.8058 29.9435 53.8319 33.372 52.5947Z" fill="#FFFDFC"/>
<path d="M35.7401 40.8603C41.5015 39.5879 43.6222 48.7424 37.578 50.1562C31.605 51.5342 28.9543 42.345 35.7401 40.8603Z" fill="#FFFDFC"/>
<path d="M74.9032 40.8603C77.5542 40.2594 79.9224 42.3447 80.3466 44.5361C80.9121 47.4345 78.9679 49.6967 76.7411 50.1562C70.7328 51.4634 68.1529 42.3451 74.9032 40.8603Z" fill="#FFFDFC"/>
<path d="M67.0566 27.0049C67.9755 27.1816 69.2122 28.5248 69.6718 29.5498C70.2727 30.9283 70.1669 32.5188 70.1669 34.2861C70.1669 37.2198 70.5207 40.2599 68.8241 42.2392C67.375 43.9357 66.7734 43.3351 64.9355 44.2187L64.83 49.4492C62.0377 47.4698 60.3763 44.1123 58.2909 44.1123L48.0058 44.0771C48.0058 43.3702 48.6765 42.8747 49.0653 42.3799C51.8577 42.2385 54.7211 42.3449 57.5487 42.3095C60.2349 42.2742 59.6345 42.0265 62.7802 45.1015L63.0273 42.3095C68.6118 41.7794 68.2236 40.8251 68.2235 35.3115C68.2235 26.0862 66.9859 32.236 67.0566 27.0049Z" fill="#FFFDFC"/>
<path fill-rule="evenodd" clip-rule="evenodd" d="M40.7587 23.3642C43.0561 21.4909 47.5812 22.0917 51.1864 22.0918C62.7443 22.1271 65.6071 20.5016 65.6425 30.9638C65.6424 42.0267 61.5422 39.2696 50.9032 39.623C49.5958 39.6584 49.4896 39.8713 48.8534 40.5781C47.7929 41.674 45.3535 44.395 44.2226 44.8545L44.1874 39.7295C40.4764 38.9518 38.9208 37.502 38.9208 33.2607C38.9208 29.373 38.2144 25.379 40.7587 23.3642ZM46.8388 32.7304C49.065 31.6698 47.6864 27.9241 45.1064 29.1611C42.6329 30.363 44.5415 33.8611 46.8388 32.7304ZM53.2011 32.7304C55.4629 31.6699 53.9781 27.9238 51.4687 29.1963C48.8894 30.5042 50.9392 33.7904 53.2011 32.7304ZM59.3505 32.8008C61.754 31.9171 60.3403 27.8531 57.8661 29.1963C55.2161 30.6101 57.2654 33.5778 59.3505 32.8008Z" fill="#FFFDFC"/>
</svg>
