<svg width="109" height="112" viewBox="0 0 109 112" fill="none" xmlns="http://www.w3.org/2000/svg">
<path fill-rule="evenodd" clip-rule="evenodd" d="M61.0955 0H53.209C51.6749 0.647215 49.0141 0.575302 47.1204 0.886924C45.2027 1.19855 43.5248 1.58208 41.7269 2.08547C38.2032 3.06828 34.9911 4.31477 31.8989 5.75302C24.7555 9.08498 21.04 10.9068 15.1911 16.0126C-0.557778 29.8198 -3.93768 56.2837 4.47612 77.1145C6.46571 82.0525 8.71897 86.0317 11.8592 90.0588L14.9035 93.6544C23.4851 103.77 37.1245 109.979 51.0996 111.321C65.8177 112.759 81.3509 108.205 91.131 98.0411C99.8565 88.9561 105.969 73.9983 107.575 60.5745C110.691 34.4702 97.6991 9.27675 72.6015 2.10944C68.934 1.05472 61.5988 0.215738 61.0955 0Z" fill="#E55C06"/>
<path fill-rule="evenodd" clip-rule="evenodd" d="M62.4139 53.3353C62.4139 58.513 61.4551 57.1706 65.6739 59.8074C68.3587 61.4854 67.9032 64.6975 71.0434 64.4818C72.0982 64.4338 72.7933 64.1702 74.0877 64.1702C76.3889 64.1702 77.8272 66.7111 80.3681 64.8174C81.2071 64.1702 81.8543 63.3072 82.6454 62.7798C83.6042 62.1566 84.7788 62.1326 85.9294 61.7731C89.2374 60.6944 87.7272 58.6808 89.0216 56.2118C89.8846 54.5099 92.4495 53.3353 91.3708 50.6506C90.9872 49.6917 90.3161 48.7329 90.1483 47.7261C89.9086 46.3598 90.388 44.9934 90.1962 43.723C89.8606 41.4697 86.8642 41.0622 85.6417 39.6479C84.1316 37.898 84.2514 35.5968 80.8236 36.0043C79.3374 36.1721 78.5943 36.5077 77.1081 35.9564C76.0054 35.5728 75.0466 34.9016 73.7521 34.9016C72.0262 34.9016 70.7318 37.5145 68.7662 38.1138C65.9136 38.9767 64.7151 38.4493 64.0919 41.7094C63.8042 43.2435 63.8522 43.7469 63.0611 44.8256C62.4858 45.6406 61.7667 46.2159 61.2393 47.1508C59.873 49.476 62.4139 51.106 62.4139 53.3353ZM76.5567 43.0278C80.3921 43.0278 83.5083 46.2159 83.5083 50.1232C83.5083 54.0305 80.3921 57.1946 76.5567 57.1946C72.6974 57.1946 69.5812 54.0305 69.5812 50.1232C69.5812 46.2159 72.6974 43.0278 76.5567 43.0278ZM83.9877 64.338C83.9877 64.338 85.426 64.2421 87.0081 63.6428C88.6141 63.0196 90.7236 78.7685 90.7236 78.7685L82.7412 76.3474L83.9877 64.338ZM36.6931 40.2232L36.7171 40.9184C40.5764 40.6786 55.6541 40.8704 60.6161 40.8704C61.2873 39.4082 62.5098 38.4254 62.9413 37.7062H36.6931V40.2232ZM24.1083 47.6302H58.0991L58.8183 44.4421L23.9405 44.49L24.1323 44.4181L24.1083 47.6302ZM24.1083 54.414H57.7396L58.3868 54.366L57.8834 51.2019L24.1083 51.1779V54.414ZM24.1083 61.1258L61.4551 61.0539C61.1914 60.5985 60.8078 60.1191 60.4962 59.5677C60.0408 58.8246 59.9209 58.2254 59.4894 58.0336L24.1083 57.9857V61.1258ZM36.6931 34.1106H66.7287C68.8141 34.1346 69.8689 32.7682 74.9267 32.2409L74.9986 30.9464H36.789L36.6931 34.1106ZM64.3555 84.9769C66.3931 84.7132 70.5161 81.7169 72.242 82.1723C73.2248 82.436 77.0601 86.583 78.3785 86.9425C79.0257 86.0316 79.7688 79.0321 80.0325 77.2583L81.3989 67.4302C77.8032 70.091 76.0054 67.0467 73.7521 67.1905C71.6906 67.3103 70.3003 68.0774 68.3827 66.783C67.4718 66.1597 67.5676 65.8002 66.8965 65.2488C66.6567 65.7762 65.0507 77.9055 64.7151 80.2547C64.5233 81.5731 63.8761 83.9941 64.3555 84.9769ZM16.4616 68.7246C18.7628 68.9883 56.7568 68.7965 62.4139 68.7965C62.9892 68.7965 63.1091 67.8377 63.2768 67.3343C63.4686 66.735 63.6844 66.1837 63.8522 65.5605L63.133 65.5844C48.8703 65.7522 33.9844 65.5365 19.6258 65.5844V40.7985L32.1386 40.8704C32.3543 39.3123 32.2105 30.1075 32.2105 27.8063H79.0257V32.4087C80.1284 32.6484 81.2071 33.0319 82.1899 33.1997V26.368C82.2139 25.4811 82.4776 24.6421 81.6626 24.6421H29.6936C28.9505 24.6421 26.5534 27.3748 25.9301 27.998C24.6836 29.2445 23.581 30.3472 22.3345 31.5937L16.941 36.9871C16.4616 37.4665 16.4616 37.4186 16.4376 38.2336C16.2938 47.9179 16.4616 58.8726 16.4616 68.7246Z" fill="white"/>
</svg>
