<svg width="109" height="112" viewBox="0 0 109 112" fill="none" xmlns="http://www.w3.org/2000/svg">
<path fill-rule="evenodd" clip-rule="evenodd" d="M61.0956 0H53.2153C51.6809 0.647051 49.011 0.580479 47.1205 0.886533C45.2137 1.195 43.5195 1.59052 41.7308 2.09057C38.2166 3.07349 34.9967 4.30554 31.8976 5.75358C24.7737 9.08191 21.0414 10.905 15.2071 16.0124C-0.557099 29.8138 -3.94026 56.2938 4.47713 77.1133C6.47492 82.0544 8.71911 86.0337 11.877 90.0585L14.8992 93.6513C23.482 103.779 37.1291 109.97 51.1133 111.33C65.8259 112.761 81.3503 108.193 91.1308 98.0421C99.8747 88.9659 105.964 73.988 107.573 60.5671C110.701 34.469 97.704 9.26657 72.6124 2.11135C68.9325 1.06215 61.5933 0.221407 61.0956 0Z" fill="#E55C06"/>
<path d="M86.7834 49.7871C89.0091 49.2746 90.8188 50.3809 91.1321 52.3916C91.3866 54.0261 90.3579 56.6859 89.8079 58.0996C87.7281 63.4455 84.2163 69.0696 79.8635 72.6895C78.9985 73.409 78.5421 73.3346 78.551 74.7666C85.7665 74.9717 84.8998 76.7827 84.8977 85.0205L82.1956 84.9219C82.1956 76.3953 83.393 77.4912 75.6741 77.4912H61.4915C59.3079 77.4912 56.6175 77.1022 55.218 78.1426L55.137 84.9971L52.4944 84.9307C52.0064 72.6297 54.3218 77.4719 55.5364 74.3096C56.4466 71.9385 56.5311 71.353 58.2366 70.0518C62.6661 66.6721 69.9493 68.3528 74.6585 65.5635C78.9199 63.0392 81.9442 58.4396 83.8977 53.8848C84.6544 52.1207 84.854 50.2311 86.7834 49.7871Z" fill="#FEFEFE"/>
<path d="M21.0637 71.8232C25.1882 65.0266 41.312 64.7287 45.4006 72.0869C46.5032 74.0717 45.6803 74.3035 46.7502 75.0596C49.6758 77.1263 49.7872 77.5478 49.345 84.9912L46.6926 84.9424L46.5178 78.1309C45.2814 77.116 42.297 77.4922 40.0979 77.4922H25.9172C18.2773 77.4922 19.7161 76.5508 19.5793 84.998L17.052 84.9961C16.7532 83.345 16.7383 78.1622 17.4788 76.8838C18.3531 75.3739 19.0668 75.6413 19.803 74.8994C20.1439 74.556 20.6664 72.4777 21.0637 71.8232Z" fill="#FEFEFE"/>
<path d="M67.096 50.1777C71.6486 49.1599 75.3985 52.3676 76.219 55.9229C77.3016 60.6193 74.0991 64.4297 70.5256 65.2627C60.4012 67.6235 56.8499 52.4684 67.096 50.1777Z" fill="#FEFEFE"/>
<path d="M31.7297 49.916C36.1978 49.0666 40.0018 52.1785 40.7024 55.8721C41.5877 60.5372 38.3783 64.2752 34.6741 64.9805C24.5032 66.9168 21.8227 51.7984 31.7297 49.916Z" fill="#FEFEFE"/>
<path d="M37.469 41.7559C39.1448 41.538 44.6571 45.2695 49.6497 46.6895C54.9107 48.1857 60.0865 46.9678 65.1174 48.3203C64.3303 49.0951 63.7045 48.8826 61.8577 50.5957C57.3325 54.7934 58.8087 58.9868 60.054 62.8408L53.2659 62.8203L53.2473 55.0684C49.0544 53.764 38.3274 50.1754 35.5168 46.8799C33.8965 44.9785 35.2858 42.0399 37.469 41.7559Z" fill="#FEFEFE"/>
<path d="M57.7161 26.8584C58.0979 27.7856 58.1038 29.3246 57.9114 30.5596L55.5471 31.2051L55.5335 29.0459C50.6629 28.9709 23.3123 28.7877 20.7268 29.1543C20.7129 37.3936 20.469 49.0417 20.7678 56.6553L23.2864 56.7031L23.4465 59.1221C20.7346 59.1733 21.5227 59.273 18.6126 58.9443C18.3755 58.3566 18.2668 58.1003 18.2668 57.2002V29.7979C18.2668 27.1281 17.9764 26.5664 20.8694 26.5664L57.7161 26.8584Z" fill="#FEFEFE"/>
<path d="M50.4417 56.7295L50.4309 59.1436L42.9065 59.1631L43.0042 56.6846L50.4417 56.7295Z" fill="#FEFEFE"/>
<path d="M57.9895 33.1328C61.7754 32.1393 64.9888 34.8211 65.6907 37.8545C66.5955 41.7657 63.9574 44.9176 60.9954 45.6484C52.9246 47.6383 49.2683 35.4216 57.9895 33.1328Z" fill="#FEFEFE"/>
<path d="M32.5237 39.5557L32.5061 41.9121L24.4651 41.8574L24.4709 39.5498L32.5237 39.5557Z" fill="#FEFEFE"/>
<path d="M48.8225 35.5693L24.4641 35.5596L24.511 33.2012L48.8157 33.2002L48.8225 35.5693Z" fill="#FEFEFE"/>
</svg>
